<svg id="Layer_1" data-name="Layer 1" xmlns="http://www.w3.org/2000/svg" viewBox="0 0 130 220"><defs><style>.cls-1{fill:#ac93cf;}</style></defs><path class="cls-1" d="M26,9.88q29.6-.65,59.2-.61,8.37,0,16.73.08c3.86,0,3.87-6,0-6q-29.59-.23-59.19.22-8.37.14-16.74.31c-3.85.09-3.87,6.09,0,6Z"/><path class="cls-1" d="M23.43,5.8C19.29,15.56,15,25.28,11.05,35.12c-3.79,9.46-5,19.5-5.94,29.59-.45,4.84-.56,9.86.87,14.56s4.19,8.45,7.16,12.13A106.11,106.11,0,0,0,58,123.68a3,3,0,0,0,3.69-2.1,3.07,3.07,0,0,0-2.1-3.69,100,100,0,0,1-39.7-27.76,47.55,47.55,0,0,1-7.14-9.94c-1.94-4-2.09-8.42-1.85-12.73.27-4.53.81-9.09,1.45-13.57a72.34,72.34,0,0,1,3.29-14c1.85-5.15,4.14-10.15,6.27-15.18L28.61,8.83a3.12,3.12,0,0,0-1.08-4.11C26.27,4,24.06,4.3,23.43,5.8Z"/><path class="cls-1" d="M99.07,8a172.93,172.93,0,0,1,19.37,52.51,36.43,36.43,0,0,1,.79,7.21A23.32,23.32,0,0,1,118,74.54a81.13,81.13,0,0,1-5.29,12.76c-4.1,7.92-10.9,14.34-18.24,19.28a56.23,56.23,0,0,1-13,6.43c-4.66,1.63-9.3,3.28-13,6.63a3,3,0,0,0,4.24,4.25c3-2.71,7-3.91,10.78-5.22a61.19,61.19,0,0,0,12.62-6c8-5,15.71-11.84,20.55-20a88.05,88.05,0,0,0,6.11-13.49A31.75,31.75,0,0,0,125,64.07a111.23,111.23,0,0,0-3-15q-1.8-7.07-4.18-14A181.81,181.81,0,0,0,104.25,5c-1.9-3.36-7.09-.34-5.18,3Z"/><path class="cls-1" d="M55.65,121.26q-1,14.91-1.2,29.86c-.13,9.8.17,19.57.37,29.36.08,3.54.08,7.44-2,10.42-1.9,2.75-5.54,3.84-8.62,4.27-4.69.66-9.47.22-14.12,1.31-3.85.9-7.76,3.25-9,7.21-1.65,5.18,2.32,10,7,11.69a18.25,18.25,0,0,0,7.31.73c1.34-.1,2.66-.28,4-.43.63-.08,1.26-.15,1.88-.19.31,0,.64,0,.95-.06,1-.15,0,.2-.52-.82l-.41-1.51,0,.18.88-2.12-.16.16c-2.73,2.74,1.51,7,4.25,4.24,2.25-2.25.47-5.47-2.28-6.05-2.4-.51-5.22.28-7.62.52a16,16,0,0,1-6.06-.25,5.06,5.06,0,0,1-3.31-2.61,2.47,2.47,0,0,1,.76-3,8.76,8.76,0,0,1,4-1.86c4.53-1.06,9.3-.59,13.89-1.27,4-.6,8.09-2.11,10.89-5.11,3-3.23,4.09-7.53,4.32-11.84.25-4.48-.15-9-.25-13.49q-.16-7.59-.12-15.19.09-17.07,1.24-34.1a3,3,0,0,0-3-3,3.06,3.06,0,0,0-3,3Z"/><path class="cls-1" d="M22.67,203.26c-1,2.31-1.67,5-.76,7.43a5.88,5.88,0,0,0,5.9,4,1.5,1.5,0,1,0,0-3,4.85,4.85,0,0,1-.66,0c-.16,0,.17,0-.11,0l-.28-.06-.35-.11c-.24-.08.28.15-.11,0a4.08,4.08,0,0,1-.57-.34c-.21-.14.22.22-.1-.08l-.21-.2s-.27-.29-.17-.18-.09-.12-.1-.15a4,4,0,0,1-.33-.57c.1.21,0-.08-.05-.12s-.07-.24-.11-.36a4.69,4.69,0,0,1-.14-.65c0-.25,0,.2,0-.05s0-.24,0-.37,0-.45,0-.68a4.61,4.61,0,0,1,.06-.54,15.89,15.89,0,0,1,1-3.11,1.51,1.51,0,0,0-1-1.85,1.54,1.54,0,0,0-1.84,1Z"/><path class="cls-1" d="M68.21,120c-2,2.9-1.92,6.49-1.7,9.85q.38,5.81.76,11.61l1.55,23.46c.5,7.71.78,15.48,1.74,23.14.46,3.7.67,7.8,4.34,9.77,3.24,1.75,7.39,2.28,11,2.73s7.58.07,11.18,1.06a6.72,6.72,0,0,1,3.57,2.15,3.33,3.33,0,0,1,.88,3c-1,3.74,4.82,5.34,5.79,1.59a9.65,9.65,0,0,0-2.93-9.32c-2.61-2.5-6-3.43-9.5-3.81s-6.87-.25-10.28-.84a45.15,45.15,0,0,1-5.27-1.2c-1.19-.35-1.94-.47-2.23-1.67a70.34,70.34,0,0,1-1.22-10.75c-.29-3.86-.52-7.73-.78-11.6l-1.51-23-.84-12.84c-.13-2-.33-3.94-.36-5.92a6.94,6.94,0,0,1,1-4.36,3,3,0,0,0-1.07-4.1A3.06,3.06,0,0,0,68.21,120Z"/><path class="cls-1" d="M102.54,204.33c.18.2.37.4.55.62l.1.12-.08-.1a1.3,1.3,0,0,1,.23.33,3.24,3.24,0,0,1,.2.36c.15.26-.07-.28,0,0,0,.13.08.26.11.4a1.55,1.55,0,0,1,0,.21c0-.21,0-.26,0-.14a6.77,6.77,0,0,1,0,.78l0,.32c0,.17,0,.15,0-.08l0,.22a14.45,14.45,0,0,1-.4,1.57,1.5,1.5,0,1,0,2.89.8,9.42,9.42,0,0,0,.5-4,6.7,6.7,0,0,0-2-3.59,1.51,1.51,0,0,0-2.12,0,1.53,1.53,0,0,0,0,2.12Z"/><path class="cls-1" d="M21.23,75.87C20.38,83.56,26.91,90,31.74,95.14c5.1,5.41,11.05,10.18,18.57,11.42a112.19,112.19,0,0,0,12.56.93,68.13,68.13,0,0,0,13-.22c7.81-1.09,14.3-5.29,19.84-10.73a100.81,100.81,0,0,0,8.65-9.71A34.41,34.41,0,0,0,110.7,75.4a1.51,1.51,0,0,0-1.44-1.9c-5.68,0-11.11,1.86-16.69,2.7a109.17,109.17,0,0,1-17.43.85c-5.83-.08-11.66-.32-17.49-.16-5.56.15-11.09.74-16.64,1-6.21.23-12.45-.07-18.35-2.17-1.82-.65-2.61,2.25-.8,2.89,10.61,3.78,22,2,33,1.43,11.76-.58,23.56.81,35.28-.47a89.34,89.34,0,0,0,9.34-1.61,45.27,45.27,0,0,1,9.82-1.41l-1.45-1.9c-2,6.88-7.28,12.53-12.09,17.64S85.38,102,78.45,103.74a43.55,43.55,0,0,1-11.84.92c-4-.13-8-.33-11.91-.61a26.25,26.25,0,0,1-10.45-2.61,35,35,0,0,1-8.16-6.15,87.77,87.77,0,0,1-7.73-8.52c-2.46-3.14-4.59-6.77-4.13-10.9.21-1.92-2.79-1.9-3,0Z"/><rect class="cls-1" x="20.76" y="73.5" width="87" height="5" rx="2.5"/><path class="cls-1" d="M106,76.47a2.7,2.7,0,0,1,.39-.08l-.39,0a5.79,5.79,0,0,1,1.38,0l-.39-.06c.25,0,.49.1.75.12a2.11,2.11,0,0,0,.35,0,1.94,1.94,0,0,0,.69-.23,1.64,1.64,0,0,0,.69-.9,1.54,1.54,0,0,0-.16-1.15,1.5,1.5,0,0,0-.89-.69,1.56,1.56,0,0,0-1.16.15l-.06,0,.36-.15-.07,0,.4-.06a.38.38,0,0,1-.15,0l.4.06c-.3,0-.59-.12-.89-.14h-.56a5,5,0,0,0-1.49.17,1.53,1.53,0,0,0-.89.69,1.49,1.49,0,0,0-.15,1.15,1.46,1.46,0,0,0,.69.9,1.54,1.54,0,0,0,1.15.15Z"/><path class="cls-1" d="M26.39,86.79C27.58,87.88,28.76,89,30,90.06a12.57,12.57,0,0,0,7.74,3.62c3.56.27,6.74-1.61,10.19-2.12l-2,.26c4-.52,8.09-.27,12.13-.65,4.24-.4,8.44-1.08,12.68-1.48s8.39-.66,12.6-.89l6.23-.35a33.08,33.08,0,0,1,5.8-.11l-2-.27a5.88,5.88,0,0,1,.81.18c3.79,1,8.32-1.25,9.23-5.24a7.62,7.62,0,0,0-5.24-9.22c-2.87-.74-5.7-.5-8.61-.34l-7.2.4c-5,.29-10,.62-15,1.19s-10,1.33-15,1.42a64.07,64.07,0,0,0-8.41.63c-2.4.37-4.57,1.45-6.93,1.86l2-.27a5.9,5.9,0,0,1-1.26,0l2,.27a2.9,2.9,0,0,1-.81-.24l1.79.76c-.67-.38-.5-.2.5.52-.21-.17-.41-.35-.61-.54l-1.07-1L37,76.18c-2.89-2.65-7.78-3.07-10.6,0-2.65,2.89-3.09,7.78,0,10.61Z"/><path class="cls-1" d="M94.74,75.57q-4.12,4.53-8.54,8.78a5.73,5.73,0,0,0-1.55,2.42,6.85,6.85,0,0,0,0,5.78A5.69,5.69,0,0,0,86.2,95a7.57,7.57,0,0,0,5.31,2.2,7.92,7.92,0,0,0,5.3-2.2q4.41-4.24,8.54-8.78a7.91,7.91,0,0,0,2.19-5.31A5.65,5.65,0,0,0,106.9,78a5.6,5.6,0,0,0-1.55-2.41,7.5,7.5,0,0,0-10.61,0Z"/><path class="cls-1" d="M82.08,85.68l-.14.33.76-1.79A12.75,12.75,0,0,1,82,85.49c-.12.2-.25.4-.39.59-.44.62-.27.39.53-.67-.7.61-1.38,1.34-2.05,2,1.69-1.61.62-.49,0-.11-.42.27-.84.52-1.27.75a28.71,28.71,0,0,1-2.68,1.29l1.8-.75a59.28,59.28,0,0,1-14.65,3.79l2-.27-1.86.22a8.06,8.06,0,0,0-5.3,2.2,7.63,7.63,0,0,0-2.2,5.3c.17,3.71,3.32,7.94,7.5,7.5A66.26,66.26,0,0,0,82,103a34.14,34.14,0,0,0,8.74-5,20.29,20.29,0,0,0,5.8-8.34c.7-1.66.11-4.3-.75-5.78a7.51,7.51,0,0,0-10.26-2.69,8.82,8.82,0,0,0-3.45,4.49Z"/><path class="cls-1" d="M39,97.39a10.41,10.41,0,0,1,1.34.42l-1.79-.75a55.32,55.32,0,0,1,5.27,3,15.64,15.64,0,0,0,10.67,2c3-.53,5.87-2.3,8.6-3.66,2.51-1.26,5-2.6,7.56-3.75l-1.79.75a10.74,10.74,0,0,1,2.44-.73l-2,.27a8.14,8.14,0,0,1,1.78,0l-2-.27a8.49,8.49,0,0,1,1.7.5c1.68.69,4.29.11,5.78-.76a7.49,7.49,0,0,0,2.69-10.26,8.85,8.85,0,0,0-4.48-3.45c-4.81-2-9.59-.12-13.92,2-3.26,1.63-6.5,3.4-9.84,4.89l1.79-.76a10.16,10.16,0,0,1-2.53.72l2-.27a7.32,7.32,0,0,1-1.48,0l2,.27a9,9,0,0,1-2-.57l1.8.75c-3.34-1.5-6-4-9.65-4.84-3.81-.94-8.31,1.21-9.23,5.23s1.16,8.23,5.24,9.23Z"/><path class="cls-1" d="M34.37,95.08a50,50,0,0,0,13.71,9,23.27,23.27,0,0,0,16.29.7,8,8,0,0,0,4.48-3.44,7.68,7.68,0,0,0,.76-5.78c-1.17-3.62-5.28-6.67-9.23-5.24a15.09,15.09,0,0,1-3,.75l2-.26A17.84,17.84,0,0,1,55,90.76L57,91a21.87,21.87,0,0,1-5-1.41l1.79.76a33.68,33.68,0,0,1-7-4.3l1.52,1.17c-1.15-.89-2.26-1.82-3.35-2.77a8,8,0,0,0-5.31-2.2,7.63,7.63,0,0,0-5.3,2.2c-2.59,2.82-3.17,7.86,0,10.6Z"/><rect class="cls-1" x="27.26" y="210" width="78" height="6" rx="2"/><path class="cls-1" d="M104.43,215.62a3.68,3.68,0,0,0,1.66-1.8c.32-.75.63-1.52.88-2.3a7.34,7.34,0,0,0,.1-4.72,1.53,1.53,0,0,0-1.85-1,1.51,1.51,0,0,0-1,1.84,2.5,2.5,0,0,1,.23.84c0-.19,0-.2,0,0a2,2,0,0,1,0,.25,2.29,2.29,0,0,1,0,.37,2.74,2.74,0,0,1,0,.5c.08-.35,0,0,0,.1a7.77,7.77,0,0,1-.24,1c-.17.59-.4,1.16-.62,1.73l-.07.17c.07-.17.07-.17,0,0l-.21.38c-.06.09,0,.07.06-.07l-.17.16c.15-.11.16-.12,0,0l-.2.11a1.51,1.51,0,0,0-.54,2.05,1.53,1.53,0,0,0,2.05.54Z"/><path class="cls-1" d="M99.38,213c.86-.62,1.76-1.21,2.55-1.9a6.66,6.66,0,0,0,1.72-2.56,10.05,10.05,0,0,0,.61-2.71,3.63,3.63,0,0,0-.75-3,1.51,1.51,0,0,0-2.12,0,1.53,1.53,0,0,0,0,2.12c-.07-.08-.12-.2,0,0,0-.09-.07-.24,0-.06.07.35,0-.21,0,0s0,.15,0,.23a3.4,3.4,0,0,1,0,.45c0,.1,0,.21,0,.31s0,.11,0,0c-.06.35-.12.7-.21,1.05l-.15.48a2.09,2.09,0,0,0-.08.23c-.07.21.15-.3,0,0a7.4,7.4,0,0,1-.5.86c.12-.17.06-.07,0,0l-.17.19a4.61,4.61,0,0,1-.4.37s-.29.23-.08.07l-.22.16-.46.34-1.08.78a1.55,1.55,0,0,0-.54,2.06,1.52,1.52,0,0,0,2,.53Z"/><path class="cls-1" d="M104.31,206.15a5.16,5.16,0,0,1,.09.52l-.05-.4a8.35,8.35,0,0,1,0,1.87l.05-.4a1.67,1.67,0,0,1-.08.3l.15-.36a.8.8,0,0,1-.08.16l.23-.3-.07.07.3-.23-.08.05.35-.15-.1,0a1.47,1.47,0,0,0-.89.69,1.57,1.57,0,0,0-.16,1.16,1.54,1.54,0,0,0,.69.89l.36.16a1.55,1.55,0,0,0,.8,0,1.66,1.66,0,0,0,.48-.19,2.12,2.12,0,0,0,.38-.29,1.93,1.93,0,0,0,.46-.71,3.57,3.57,0,0,0,.24-1.3,10.32,10.32,0,0,0-.2-2.35,1.5,1.5,0,0,0-1.85-1.05,1.5,1.5,0,0,0-.89.69,1.64,1.64,0,0,0-.16,1.15Z"/><path class="cls-1" d="M21.4,204.12a9.56,9.56,0,0,0,10,11.75l-.4-2.94c-3.29,1.33-7.22-.7-8.54-3.91s1.51-7,4.06-8.91c2.86-2.11,6.53-2.62,10-2.68,4.32-.07,8.6.42,12.9-.18,1.91-.27,1.09-3.16-.8-2.9-7.36,1-15.14-1.38-22.07,2.23a15.41,15.41,0,0,0-6.88,7.67A8.33,8.33,0,0,0,21.52,213c2.48,2.78,6.75,4.28,10.3,2.84,1.42-.57,1.44-3.1-.4-2.95a6.55,6.55,0,0,1-7.13-8c.43-1.88-2.46-2.69-2.89-.8Z"/><path class="cls-1" d="M26.59,214.71a29.44,29.44,0,0,0,11,1.82c3.82-.11,7.59-.9,11.42-.57v-3l-11.65.51c-1.8.08-3.6.2-5.4.22a7.22,7.22,0,0,1-4.35-1c-1.61-1.08-3.11,1.52-1.52,2.59,3,2,7,1.35,10.39,1.21L49,216a1.5,1.5,0,0,0,0-3c-3.69-.32-7.32.41-11,.56a27.21,27.21,0,0,1-10.64-1.71c-1.81-.67-2.59,2.23-.79,2.9Z"/><path class="cls-1" d="M40.22,215.59l5.44.38a1.5,1.5,0,0,0,0-3l-5.44-.38a1.52,1.52,0,0,0-1.5,1.5,1.54,1.54,0,0,0,1.5,1.5Z"/><path class="cls-1" d="M43.5,212.42a14.16,14.16,0,0,1,4.64-.2c1.63.1,3.25.22,4.87.37q5,.45,9.87,1.18a1.55,1.55,0,0,0,1.85-1.05,1.51,1.51,0,0,0-1.05-1.84c-3.54-.53-7.1-1-10.67-1.29-3.33-.3-7-.94-10.31-.06a1.5,1.5,0,0,0,.8,2.89Z"/><path class="cls-1" d="M24.55,74.13a13,13,0,0,1-5,.64v3a11,11,0,0,0,5.33-1.33,1.52,1.52,0,0,0-.36-2.74,9.71,9.71,0,0,0-7.54.7,1.53,1.53,0,0,0-.54,2A51.87,51.87,0,0,0,27.24,92a53.28,53.28,0,0,0,7.25,6c1.26.87,2.57,1.68,3.9,2.43q1,.57,2,1.08l1.21.59.52.24c.57.35.53,0-.1-1.11l1.3-.75-.23,0c-1.9.18-1.92,3.19,0,3a1.9,1.9,0,0,0,1-3.49,41,41,0,0,0-4.22-2.18,48.42,48.42,0,0,1-8.58-6.11A49.71,49.71,0,0,1,19,74.93L18.5,77a6.62,6.62,0,0,1,5.23-.4l-.36-2.74a7.78,7.78,0,0,1-3.81.92c-1.94,0-1.91,2.89,0,3A15.3,15.3,0,0,0,25.34,77c1.83-.6,1.05-3.5-.79-2.89Z"/><path class="cls-1" d="M20,78.83a8.33,8.33,0,0,0,.78,1.32A9.86,9.86,0,0,0,22,81.57a1.61,1.61,0,0,0,1.06.44,1.54,1.54,0,0,0,1.06-.44,1.52,1.52,0,0,0,.44-1.06,1.59,1.59,0,0,0-.44-1.07l-1.76-1.76a1.55,1.55,0,0,0-1.06-.43,1.53,1.53,0,0,0-1.06.43,1.5,1.5,0,0,0-.44,1.07,1.58,1.58,0,0,0,.44,1.06L22,81.57l2.12-2.13a7.5,7.5,0,0,1-.9-1l.23.3a8,8,0,0,1-.88-1.46,1.47,1.47,0,0,0-.89-.69,1.5,1.5,0,0,0-1.85,1l-.05.4a1.57,1.57,0,0,0,.2.76Z"/><path class="cls-1" d="M23.63,88.91a120.68,120.68,0,0,0,10,9.2A108.35,108.35,0,0,0,45.73,107a31.6,31.6,0,0,0,26.44,3.39,31.24,31.24,0,0,0,13-8.07c2.68-2.86,3-7.81,0-10.6s-7.74-3.06-10.61,0c-.54.57-1.1,1.12-1.69,1.63s-1.69,1.07.26-.15c-.31.19-.59.43-.89.63A23.79,23.79,0,0,1,68.08,96l1.79-.76A25.74,25.74,0,0,1,63.6,97l2-.27a25.18,25.18,0,0,1-6.49,0l2,.27a24,24,0,0,1-5.64-1.58l1.79.76a41.08,41.08,0,0,1-6.58-3.81c-1.05-.72-2.1-1.47-3.13-2.23L46.09,89c-.78-.58,1.2.94.44.34l-.89-.7A118.69,118.69,0,0,1,34.24,78.3,7.5,7.5,0,1,0,23.63,88.91Z"/><path class="cls-1" d="M74.77,109.17l.5-.24-1.79.76c1.44-.6,3-.9,4.44-1.41a30.79,30.79,0,0,0,5.63-2.58,56.28,56.28,0,0,0,8.5-6.58,7.51,7.51,0,0,0-5.3-12.81,8.27,8.27,0,0,0-5.31,2.2c-1.26,1.14-2.55,2.25-3.89,3.29l1.51-1.17a27.92,27.92,0,0,1-5.68,3.46l1.8-.76A28.15,28.15,0,0,1,72,94.41a29.2,29.2,0,0,0-4.77,1.8A7.5,7.5,0,0,0,69,109.92a8.33,8.33,0,0,0,5.77-.75Z"/><path class="cls-1" d="M15.72,75.73A30.78,30.78,0,0,0,25.55,90.2a1.54,1.54,0,0,0,2.12,0,1.52,1.52,0,0,0,0-2.12,27.94,27.94,0,0,1-9.06-13.15c-.59-1.83-3.48-1.05-2.89.8Z"/><path class="cls-1" d="M17.64,76.66l7.54-.16c1.16,0,2.33-.06,3.49-.06a2.85,2.85,0,0,1,2.15.54c1.36,1.38,3.48-.74,2.12-2.12C31.15,73,28.34,73.44,26,73.49l-8.38.17c-1.93,0-1.93,3,0,3Z"/><path class="cls-1" d="M108.49,76.2l5,.22-1.3-2.26a73.81,73.81,0,0,1-24.83,24,1.5,1.5,0,0,0,1.51,2.59,77.18,77.18,0,0,0,25.91-25,1.51,1.51,0,0,0-1.29-2.25l-5-.22c-1.93-.08-1.93,2.92,0,3Z"/><path class="cls-1" d="M109.17,75.8c-.08.13-.17.26-.26.39l.23-.31a3.92,3.92,0,0,1-.67.68l.3-.24-.23.17a1,1,0,0,0-.42.38,1.26,1.26,0,0,0-.27.51,1.22,1.22,0,0,0,0,.6,1.12,1.12,0,0,0,.18.56l.24.3a1.39,1.39,0,0,0,.66.39l.4,0a1.5,1.5,0,0,0,.75-.2,6.35,6.35,0,0,0,.64-.49l.32-.29a7.52,7.52,0,0,0,.5-.62,2.4,2.4,0,0,0,.25-.37,1.09,1.09,0,0,0,.18-.55,1.12,1.12,0,0,0,0-.6,1,1,0,0,0-.27-.51,1.06,1.06,0,0,0-.42-.39l-.35-.15a1.55,1.55,0,0,0-.8,0l-.36.15a1.47,1.47,0,0,0-.54.54Z"/><path class="cls-1" d="M67.47,112.23a6,6,0,1,0-6-6,6.08,6.08,0,0,0,6,6Z"/><path class="cls-1" d="M69.29,112.21a25.87,25.87,0,0,0,7.54-2.47,4.64,4.64,0,0,0,1.68-1.55,4.47,4.47,0,0,0,1.07-2,4.53,4.53,0,0,0,.11-2.39,4.45,4.45,0,0,0-.71-2.23,6.05,6.05,0,0,0-3.59-2.76l-1.59-.22a6,6,0,0,0-3,.82c-.34.17-.68.32-1,.47l1.43-.61a20.4,20.4,0,0,1-5.08,1.41,6.69,6.69,0,0,0-3.59,2.76,6.72,6.72,0,0,0-.6,4.62l.6,1.43a6.09,6.09,0,0,0,2.15,2.16l1.44.6a6,6,0,0,0,3.19,0Z"/><path class="cls-1" d="M58.83,111.39c8.21,2.21,16.72.5,24.22-3.19,7-3.43,12.84-8.76,18.48-14a36.79,36.79,0,0,0,4.26-4.48,15.26,15.26,0,0,0,3.1-7.78,6,6,0,0,0-1.76-4.25A6.08,6.08,0,0,0,102.89,76a6,6,0,0,0-4.24,1.75A7.11,7.11,0,0,0,96.89,82c.14-1,.14-1.12,0-.47s-.13.48.21-.38a8.92,8.92,0,0,0-.64,1.17c-.81,1.26.69-.68-.11.19-.36.38-.71.78-1.08,1.16-1.39,1.4-2.87,2.71-4.33,4s-3.06,2.74-4.64,4l-1.37,1.11c-1.17.94,1-.76-.17.13-.88.65-1.77,1.3-2.68,1.91A43.7,43.7,0,0,1,76.6,98a6.35,6.35,0,0,0-1.18.54c.77-.32.85-.35.23-.1l-.81.3a29.33,29.33,0,0,1-2.89.91c-1,.26-2,.45-3,.63-.68.1-.57.08.32,0l-.86.08-1.28.07c-1,0-2,0-3-.1-.67-.08-.56-.06.33,0l-.84-.14c-.57-.11-1.12-.25-1.67-.4-3-.81-6.66,1-7.38,4.19a6.1,6.1,0,0,0,4.19,7.38Z"/><path class="cls-1" d="M111.5,75.57c-.1,2.06-1.58,3.82-2.77,5.39-1.36,1.78-2.81,3.49-4.33,5.14A73.26,73.26,0,0,1,94.6,95a1.55,1.55,0,0,0-.54,2,1.51,1.51,0,0,0,2.06.54A78.23,78.23,0,0,0,107,87.68Q109.47,85,111.64,82c1.46-2,2.74-4,2.86-6.47.09-1.93-2.91-1.92-3,0Z"/><path class="cls-1" d="M111.6,75.22A91.08,91.08,0,0,1,102.42,89a1.55,1.55,0,0,0,0,2.12,1.51,1.51,0,0,0,2.12,0l3.52-3.38a25,25,0,0,0,3.17-3.49c1.68-2.39,2.36-5.33,3-8.14.41-1.88-2.48-2.68-2.9-.79-.56,2.57-1.13,5.23-2.67,7.42a21.27,21.27,0,0,1-2.8,3L102.42,89l2.12,2.12a94.92,94.92,0,0,0,9.65-14.42c.92-1.7-1.67-3.22-2.59-1.52Z"/></svg>