<svg id="Layer_1" data-name="Layer 1" xmlns="http://www.w3.org/2000/svg" viewBox="0 0 1000 700"><defs><style>.cls-1{font-size:180px;}.cls-1,.cls-6{fill:#fca838;}.cls-1,.cls-4{font-family:Roboto-Bold, Roboto;font-weight:700;}.cls-2{letter-spacing:-0.02em;}.cls-3{fill:#fff;}.cls-4{font-size:100px;}.cls-4,.cls-8{fill:#ac93cf;}.cls-5{letter-spacing:-0.06em;}.cls-7{fill:#020202;}</style></defs><text class="cls-1" transform="translate(18.23 600.5)">PO<tspan class="cls-2" x="240.38" y="0">R</tspan><tspan x="350.86" y="0">TFOLIO</tspan></text><rect class="cls-3" x="63" y="560.5" width="850" height="84"/><text class="cls-4" transform="translate(62.69 638.42)">PERNILLE STR<tspan class="cls-5" x="660.94" y="0">A</tspan><tspan x="722.36" y="0">TE</tspan></text><path d="M489.52,192.82c-1.17-4.08,5-4.11,7.46-4.27q4.89-.3,9.79-.29c3.31,0,6.63.13,9.93.36,2.44.17,8.71,0,7.91,4-.07.34.67.25.73-.06.75-3.74-4.21-4.1-6.67-4.31q-6.15-.5-12.32-.49a117,117,0,0,0-12.56.54c-2.38.27-5.88,1.65-5,4.72.09.32.81.12.72-.19Z"/><path d="M560.68,165.6c-4.18.39-8.39.6-12.44,1.84a34,34,0,0,0-9.44,4.6A32.67,32.67,0,0,0,526,189.94a33.85,33.85,0,0,0,2.25,23.94c3.55,7.37,8.23,14.89,15.25,19.38A30.16,30.16,0,0,0,554,237.47a37.76,37.76,0,0,0,12.77,0A86.35,86.35,0,0,0,580,234.66,28.91,28.91,0,0,0,590.15,229C602,218.91,610,202.26,604.42,186.83c-2.64-7.29-8.28-12.74-15.16-16.11-7.71-3.77-16.35-4.78-24.82-5.07-2.38-.08-4.76-.1-7.14-.12-.23,0-.78.35-.3.35,15.35.11,34,1.11,43.64,15.13,4.28,6.26,5.62,14.26,4.47,21.68a41.89,41.89,0,0,1-9.61,20.18,43.64,43.64,0,0,1-8.59,8.09c-3.8,2.64-8.11,3.9-12.59,4.8-8.4,1.68-16.92,3.1-25.13-.18-7.67-3.06-13-9.08-17.07-16.05A53.4,53.4,0,0,1,527,208.78a32.47,32.47,0,0,1,26.46-42.15c2.31-.32,4.65-.46,7-.67.22,0,.77-.4.29-.36Z"/><path d="M525.56,196.64a.63.63,0,0,0,0-1.25.63.63,0,0,0,0,1.25Z"/><path d="M525.68,196.31c.08-.15.4-.08.5,0a.69.69,0,0,1,.24.21,2.73,2.73,0,0,1,.39.71c.21.5.4,1,.6,1.51l1.24,3c.67,1.66,2,4.24.33,5.74s-2.64-1.48-3.06-2.57a10.89,10.89,0,0,0-1.2-2.16,9.09,9.09,0,0,1-1.25-2.81,5.84,5.84,0,0,1-.21-3.33c.21-.57.68-1.22,1.36-1.19a1.19,1.19,0,0,1,1,1.31c0,.26.69.13.72-.1a1.53,1.53,0,0,0-1.8-1.6,2.5,2.5,0,0,0-2.06,1.84A7.33,7.33,0,0,0,523,201c.47,1.34,1.44,2.36,2,3.64.69,1.57,1.3,4.28,3.65,3.43a2.8,2.8,0,0,0,1.81-2.26c.19-1.49-.56-2.94-1.1-4.28l-1-2.59a21.09,21.09,0,0,0-1-2.41c-.45-.81-1.75-1.22-2.32-.26-.17.27.55.19.67,0Z"/><path d="M407.11,183.52c1.67-6.89,6.48-12.47,12.44-16.13,7-4.31,15.28-5.65,23.41-5.22a80,80,0,0,1,13.42,2,82.61,82.61,0,0,1,12.29,3.53,33.32,33.32,0,0,1,10.71,7.36c2.88,2.78,6,5.73,7.57,9.48s1.66,8.24,1.27,12.33a45.61,45.61,0,0,1-3.05,12.31c-2.82,7.16-7.17,14.61-13.61,19.09-3.58,2.49-7.71,3.48-11.94,4.24a90.49,90.49,0,0,1-14,1.74,39.94,39.94,0,0,1-21.75-5.79,35.69,35.69,0,0,1-14.38-16.66c-3.05-7.29-3.79-15.35-3.38-23.19q.17-2.92.53-5.83c0-.36-.7-.25-.74.06-1,8.27-1,16.84,1.36,24.89A36.45,36.45,0,0,0,420,226.6a40.14,40.14,0,0,0,20.69,8,57.13,57.13,0,0,0,13.88-.75c4.4-.68,9-1.26,13.18-3,7.32-3,12.29-9.83,15.8-16.63,3.9-7.55,6.4-16.41,5.36-25a19.33,19.33,0,0,0-5.41-11.06,52.17,52.17,0,0,0-9.64-8.6c-3.66-2.37-7.86-3.61-12-4.73a105,105,0,0,0-13.72-2.82c-8.31-1.07-17-.7-24.76,2.71-6.41,2.82-12.21,7.61-15.29,14a23.53,23.53,0,0,0-1.69,4.77c-.09.34.65.25.73-.06Z"/><path d="M488.68,196.29c.95-.1,1.66,1,1.72,1.82a5,5,0,0,1-1.08,2.95,36,36,0,0,1-3.69,4.75q-.48.54-1,1.05c-.43.43-.89,1-1.52,1.09-1,.07-1.37-1.2-1.44-2a7.19,7.19,0,0,1,2.34-5.39,63.42,63.42,0,0,1,5.47-4.74c.3-.26-.41-.23-.58-.09a55,55,0,0,0-5.85,5.14c-1.42,1.6-2.78,4.15-1.86,6.32a1.78,1.78,0,0,0,1.69,1.22c1.06,0,1.8-.93,2.49-1.63a36.36,36.36,0,0,0,4.79-6c.62-1,1.27-2.26.82-3.45a2.06,2.06,0,0,0-2.2-1.4c-.34,0-.62.42-.11.36Z"/><path d="M605,188.74c.15,0,.82-.29.47-.29-.15,0-.81.29-.47.29Z"/><path d="M606,188.33a.89.89,0,0,1,.59-.67,1.54,1.54,0,0,1,1,.26,2.83,2.83,0,0,1,1,2.31,10.59,10.59,0,0,1-.45,3.16c-.23.78-.92,2.25-1.9,1.39-.13-.12-.76.17-.68.24a2,2,0,0,0,2.36-.19,4.52,4.52,0,0,0,1.23-2.88c.27-1.59.41-4.46-1.84-4.56-.76,0-1.8.25-2,1.07,0,.11.66,0,.71-.13Z"/><path d="M609.17,194.21a23.84,23.84,0,0,0,4-2.48c.13-.1.18-.26,0-.37a.49.49,0,0,0-.52,0,22.7,22.7,0,0,1-3.87,2.4c-.13.06-.27.21-.17.36s.36.12.49.05Z"/><path d="M609.76,189.2a5.25,5.25,0,0,1,2.51-.63.55.55,0,0,0,.48-.21c.08-.14-.08-.24-.21-.24a6.68,6.68,0,0,0-3.24.83c-.11.06-.19.23,0,.31a.55.55,0,0,0,.51-.06Z"/><path d="M406.21,182.12a10.15,10.15,0,0,0-5.13,2.09c-.13.1-.06.23.07.26a.62.62,0,0,0,.51-.13,8.91,8.91,0,0,1,4.45-1.81c.13,0,.4-.09.41-.25s-.2-.17-.31-.16Z"/><path d="M404.87,188.43a8,8,0,0,1-3.15,0,.46.46,0,0,0-.47.22c-.08.17.07.28.22.31a8.8,8.8,0,0,0,3.54,0c.14,0,.34-.18.29-.35s-.29-.18-.43-.15Z"/><path d="M401,183.62a12,12,0,0,0,.09,5.06c.05.2.78,0,.73-.2a11.73,11.73,0,0,1-.1-5c0-.22-.68-.1-.72.11Z"/><path d="M477.35,152.5a24.7,24.7,0,0,0,3.23,11.08c.17.29.86,0,.67-.33a24,24,0,0,1-3.16-10.8c0-.39-.75-.29-.74.05Z"/><path d="M473.43,153.3a15.29,15.29,0,0,0,4.91,7.78c.23.2.88-.14.57-.4a14.92,14.92,0,0,1-4.76-7.57c-.08-.32-.8-.13-.72.19Z"/><path d="M421.55,156c9.31-4.83,19.89-1.09,29.2,1.65a115.48,115.48,0,0,0,28.47,4.66c.26,0,.77-.37.29-.38a113.46,113.46,0,0,1-24.85-3.68c-7.45-2-14.81-5-22.63-4.95a23.59,23.59,0,0,0-10.92,2.51c-.43.22.22.31.44.19Z"/><path d="M423.68,150.05c6-5.65,14.3-3.28,21.41-1.74a184.44,184.44,0,0,0,27,3.8c.32,0,.75-.44.26-.47a197.18,197.18,0,0,1-29.3-4.32c-6.82-1.52-14.38-2.7-19.94,2.56-.32.3.38.36.59.17Z"/><path d="M475.5,152.31a18.89,18.89,0,0,0,4.65,9.26c.23.25.91,0,.66-.32a18.67,18.67,0,0,1-4.59-9.13c-.06-.35-.79-.17-.72.19Z"/><path d="M534.89,156.65a23.61,23.61,0,0,1,.17,9c0,.32.68.21.73-.07a24,24,0,0,0-.17-9.14c-.06-.29-.79-.1-.73.19Z"/><path d="M536.5,166.21a5.35,5.35,0,0,1,2.1-1.32,10.7,10.7,0,0,1,2.46-.25c1.29-.07,2.57-.2,3.85-.38a70.23,70.23,0,0,0,7.86-1.62c5.66-1.49,11.18-3.46,16.78-5.19.42-.13.34-.48-.1-.35-6,1.86-12,4-18.11,5.52a57,57,0,0,1-9,1.54,22.15,22.15,0,0,0-3.91.25,7.19,7.19,0,0,0-2.52,1.68c-.32.27.4.27.57.12Z"/><path d="M537.76,157.17c9.56-2.6,19.29-6.54,29.36-4.66.33.06.74-.4.26-.49-10.2-1.9-20.06,2.07-29.74,4.69-.44.12-.32.58.12.46Z"/><path d="M532.63,157.82a11.77,11.77,0,0,1,1.17,5.51c0,.09.71,0,.72-.2a11.82,11.82,0,0,0-1.17-5.51c-.08-.16-.77.09-.72.2Z"/><path d="M537.56,158a11.09,11.09,0,0,0-.38,6c0,.16.76,0,.72-.19a11,11,0,0,1,.37-6c.05-.14-.65-.06-.71.12Z"/><path d="M395.06,219.36a31.1,31.1,0,0,1,4.61,8.15c1.09,2.89,1.79,6,2.59,8.94,1.67,6.23,3.21,12.5,4.69,18.78,2.89,12.2,5.63,24.45,9,36.52,2,7,4.19,14,6.73,20.82.1.27.82.06.73-.19-9-24.17-13.44-49.63-20-74.49-.92-3.46-1.71-7-2.95-10.37a31.37,31.37,0,0,0-4.74-8.45c-.16-.21-.86,0-.67.29Z"/><path d="M602.6,215.08,592.46,257.4c-1.66,6.93-3.47,13.84-4.84,20.83-1.34,6.84-1.47,14-3.73,20.62-2.11,6.21-5.74,11.74-9.36,17.15-3.43,5.13-6.93,10.23-10.73,15.1a101.45,101.45,0,0,1-12.13,13.24,69.93,69.93,0,0,1-16.57,10.94c-3.47,1.67-7,3.13-10.58,4.59a118.45,118.45,0,0,1-11.2,4.14,37.84,37.84,0,0,1-11.8,1.79c-4.1-.12-7.65-1.61-11.54-2.7-.18-.05-.83.24-.59.31,3.32.92,6.43,2.27,9.89,2.61a32.67,32.67,0,0,0,9.56-.6c6.57-1.32,12.79-4,18.95-6.58a94.89,94.89,0,0,0,17.64-9.08,78.78,78.78,0,0,0,13.94-12.55,158.1,158.1,0,0,0,11.57-15A172.09,172.09,0,0,0,581.36,306a45.44,45.44,0,0,0,3.91-9.43,78.19,78.19,0,0,0,1.84-10.86,203.85,203.85,0,0,1,4.39-21.45L603.32,215c0-.19-.67-.08-.72.12Z"/><path d="M428.11,320.16c6.06,8.11,12.66,15.93,20.61,22.26,8.14,6.49,17.63,11,27.12,15.15,5.57,2.43,11.19,4.73,16.73,7.21.21.09.87-.21.58-.33-9.66-4.33-19.58-8.1-29-13a91.24,91.24,0,0,1-13.59-8.41,89.9,89.9,0,0,1-11-10.05,156.13,156.13,0,0,1-10.82-13.13c-.14-.19-.84.06-.68.27Z"/><path d="M514.45,205.74a101.78,101.78,0,0,0,.06,14.4c.46,4.74,1.89,9.22,3,13.83,1,4.07,1.55,8.26.46,12.36-1,3.69-3.27,7.22-7,8.53-.42.14-.32.57.11.41,5.31-1.85,7.92-7.42,8.22-12.74.42-7.61-3.25-14.85-4-22.35a102,102,0,0,1-.08-14.52c0-.33-.71-.2-.72.08Z"/><path d="M482.81,236.48a23.49,23.49,0,0,0-5.05,19.67c.69,3.4,2.17,7,4.89,9.3a7.74,7.74,0,0,0,8.91,1.05c.41-.25,0-.67-.33-.45-3.41,2.05-7.39.19-9.6-2.7a18.78,18.78,0,0,1-3.39-8.88,22.92,22.92,0,0,1,5.19-17.75c.29-.35-.39-.5-.62-.24Z"/><path d="M519.33,265A15.39,15.39,0,0,0,534,252.89a16.68,16.68,0,0,0-1.91-11.21c-1.67-3.19-3.81-6.42-7.14-8-.22-.11-.88.21-.57.36,3.12,1.52,5.17,4.5,6.78,7.48a17.18,17.18,0,0,1,2.36,9.91,14.57,14.57,0,0,1-13.93,13.13c-.28,0-.76.44-.28.43Z"/><path d="M486.88,257.35c.31-1.68,2.24-2.25,3.73-2.28A2.73,2.73,0,0,1,493,256c.28.43.39,1.58-.29,1.74-.11,0-.36.13-.32.28s.31.12.42.09A1.45,1.45,0,0,0,494,256.6a1.81,1.81,0,0,0-1.26-1.68,5.49,5.49,0,0,0-2.64-.21,6.47,6.47,0,0,0-2.39.74,2.92,2.92,0,0,0-1.53,2c-.05.28.68.16.72-.09Z"/><path d="M515.37,257.11a5.45,5.45,0,0,1,3-1.75,3.85,3.85,0,0,1,3.09.86,3,3,0,0,1,1.1,2.68,2.58,2.58,0,0,1-1.58,2.17c-.11,0-.36.13-.31.28s.31.13.41.09a3.2,3.2,0,0,0,2-4.3,4.38,4.38,0,0,0-5.1-2.08,6.55,6.55,0,0,0-3.17,1.92c-.3.31.41.31.58.13Z"/><path d="M490.3,179.67c8.12,12.63,4.22,28.5-3.08,40.48a100.34,100.34,0,0,1-7.47,10.5c-.29.35.39.47.6.21,9.11-11.38,17.21-25.25,14.8-40.4A28.81,28.81,0,0,0,491,179.35c-.17-.28-.87,0-.66.32Z"/><path d="M518.33,181c-3.86,8-2.72,17.41.39,25.49,3.41,8.84,9,16.59,13.37,24.95.12.23.82,0,.72-.19-4.28-8.24-9.78-15.88-13.21-24.55-3.22-8.16-4.46-17.65-.55-25.8.09-.18-.62-.11-.72.1Z"/><path d="M458.48,277a16.54,16.54,0,0,0-6.54,15.83c0,.17.76,0,.73-.2A16.26,16.26,0,0,1,459,277.08c.3-.22-.42-.15-.56,0Z"/><path d="M464.57,291.08c5,2.3,10.33,3.34,15.65,4.43,5.78,1.18,11.56,2.51,17.39,3.38a50.06,50.06,0,0,0,16.25-.12,29.26,29.26,0,0,1,9.29-.28,62.39,62.39,0,0,0,8.07,1c3.9,0,8.29-1.24,10.33-4.83.06-.1-.61-.06-.71.12-2.48,4.35-7.93,4.72-12.38,4.15-2.53-.32-5-.86-7.57-1a28.19,28.19,0,0,0-6.67.55,50.24,50.24,0,0,1-16.73,0c-5.2-.81-10.34-2-15.49-3-5.67-1.16-11.45-2.18-16.74-4.63-.2-.1-.78.2-.69.25Z"/><path d="M465.93,290.32c4.93.63,9.69,1,14.4-.89,2.72-1.08,5.3-2.5,8.22-2.93a16.33,16.33,0,0,1,8.73,1.17c2.19.95,4.2,2.57,6.67,2.67a12.1,12.1,0,0,0,4.95-1.13,17.22,17.22,0,0,1,4.13-1.35,9.46,9.46,0,0,1,4.88.81c2.34,1,4.45,2.43,6.73,3.52a33.07,33.07,0,0,0,16.53,3.1c.18,0,.8-.29.33-.26a32.45,32.45,0,0,1-16.37-3.17c-3.89-1.9-7.7-5-12.3-4.19-2.22.41-4.18,1.6-6.35,2.17-3.14.81-5.44-1-8.13-2.23a17.3,17.3,0,0,0-12.71-.61c-2.95,1-5.67,2.67-8.75,3.28-3.42.68-6.95.21-10.36-.23-.17,0-.77.24-.6.27Z"/><path d="M539,297.56a39.62,39.62,0,0,1-26.74,17.15,38.74,38.74,0,0,1-16.25-.66c-6.29-1.66-11.82-5.17-17.1-8.88s-11.79-7.85-13.9-14.51c-.07-.22-.79,0-.72.2,2,6.21,7.6,10.07,12.66,13.67,5.51,3.92,11.24,7.79,17.82,9.66a41.6,41.6,0,0,0,31.38-4.05,38.66,38.66,0,0,0,13.52-12.59c.16-.26-.56-.17-.67,0Z"/><path d="M495.23,324.12c5.43,2.28,11.91,4.14,17.43,1.11.42-.23-.22-.33-.45-.2-5.15,2.82-11.37.86-16.4-1.25-.22-.09-.88.22-.58.34Z"/><path d="M548.41,280.8a13.86,13.86,0,0,1,5.45,15.26c-.06.21.66.11.72-.11a14,14,0,0,0-5.49-15.41c-.19-.13-.83.16-.68.26Z"/><path d="M469.2,251.82a64,64,0,0,1-9.13,19.62c-.17.24.55.17.67,0a64.56,64.56,0,0,0,9.18-19.72c.06-.22-.66-.12-.72.11Z"/><path d="M536.29,251.9a38,38,0,0,0,8.56,17.69c.22.26.91,0,.66-.32a37.77,37.77,0,0,1-8.5-17.56c-.06-.34-.79-.15-.72.19Z"/><path d="M434.67,396.65c9.95,12.93,24.81,20.72,40.7,23.64A112.3,112.3,0,0,0,502,421.74a90,90,0,0,0,24.72-5,109.08,109.08,0,0,0,25.48-13.25c.4-.28-.21-.43-.46-.26C538,412.79,522.26,419.51,505.48,421c-17,1.56-35.3-.16-50.59-8.27a60.62,60.62,0,0,1-19.56-16.42c-.16-.21-.86,0-.66.3Z"/><path class="cls-6" d="M504.16,101.07c14.29,5.09,21.27,19.27,26.7,32.39,1.54,3.73,2.83,10.54,6.75,12.63,2.16,1.15,5.28,1.08,7.64,1.37l11.59,1.43c1.55.19,2.15-1.7,1.62-2.83q-12.09-25.58-25.58-50.44c-3.34-6.14-6.49-13.63-12.66-17.51-6.64-4.17-15-2.79-22-6.07a1.9,1.9,0,0,0-2.75,2.11,110,110,0,0,0,7.23,25.21c.65,1.56,3.12,2,3.61,0,1.21-4.85,4.43-25.7-4.73-25a1.93,1.93,0,0,0-1.81,1.38,14.39,14.39,0,0,0,1,11l3.24-1.89c-2.47-4.68,5.77-2.76,7.73-1.14a36.41,36.41,0,0,1,3.4,3.29,75.7,75.7,0,0,1,6.73,8.12,126.73,126.73,0,0,1,9.42,15.6c5.84,11.15,10.73,22.77,17,33.71,1.2,2.11,4.33.25,3.24-1.89q-16.2-31.71-35.09-61.9l-2.94,2.27c7.85,6.48,12,15.61,15.48,25,1.83,5,3.57,10,5.36,14.93L537,130.2c.91,2.55,3.83,7.82,1.88,10.47l2.94-.38c-4.13-3.88-4.75-10-6.74-15.07a63.43,63.43,0,0,0-6.56-12.54,65.81,65.81,0,0,0-20.43-19.33l-1.45,3.42a39.79,39.79,0,0,1,16.74,11.92c1.41,1.68,3.92-.46,2.94-2.27a62.09,62.09,0,0,0-18.55-21c-1.73-1.24-3.86,1.53-2.28,2.94A107.94,107.94,0,0,1,526.14,113a1.88,1.88,0,0,0,3.42-1.45A41.07,41.07,0,0,0,507.85,83c-1-.49-2.57-.15-2.76,1.12-.67,4.47.9,8.14,4.06,11.32,4.35,4.38,9.53,7.47,13.51,12.33,8.49,10.37,14,23.23,20.14,35.05,1,2,3.77.53,3.43-1.44a101,101,0,0,0-11.45-32c-1.18-2.11-4.4-.22-3.23,1.89A203.79,203.79,0,0,1,544,138.32c.56,1.51,3.33,2,3.62,0,1.23-8.81-5-17.47-9.46-24.59A147.6,147.6,0,0,0,520,90.61c-1.67-1.75-4.32.9-2.65,2.65A142.58,142.58,0,0,1,533,112.77c4.28,6.42,12.06,16.52,10.94,24.55h3.62a211.4,211.4,0,0,0-12.82-28l-3.23,1.89a98.15,98.15,0,0,1,11.06,31.14l3.43-1.44c-5.26-10.12-10.1-20.66-16.5-30.13a63.2,63.2,0,0,0-9.29-11.09C516,95.79,507.67,92,508.71,85.13L506,86.25a37.54,37.54,0,0,1,20,26.32l3.42-1.45a111.37,111.37,0,0,0-21.2-25.45l-2.28,3a57.78,57.78,0,0,1,17.21,19.69l2.95-2.27a43.36,43.36,0,0,0-18.39-12.88c-2-.76-3.21,2.36-1.44,3.43a61.57,61.57,0,0,1,21.5,21.85,65,65,0,0,1,5.69,13.49c1.27,4.14,2.56,8,5.78,11a1.92,1.92,0,0,0,2.95-.38c3-4,0-9.27-1.51-13.36-2.49-7-5-13.94-7.48-20.89-3.8-10.43-8.23-20.87-17-28.11-1.54-1.28-4.15.34-2.94,2.27q18.87,30.18,35.08,61.9l3.24-1.89c-9.22-16.19-15.45-34.12-26.39-49.31-3.94-5.48-9.74-14.15-16.86-15.53-5.23-1-10.1,4.08-7.48,9,1.14,2.15,4.3.26,3.24-1.89a10.28,10.28,0,0,1-.64-8.11l-1.8,1.38c4.34-.31,1.57,18.48,1.12,20.3h3.61a111.07,111.07,0,0,1-7.23-25.2l-2.75,2.11c6.56,3.09,14.22,2.13,20.64,5.34,7.22,3.59,10.86,13.59,14.46,20.27Q544,124.1,555.22,148l1.62-2.82-10.69-1.32c-1.54-.19-5-.19-6.26-.82-2-1-2.57-3.6-3.36-5.49-2.5-6-4.82-12.1-7.88-17.85-5.24-9.84-12.78-18.39-23.5-22.21-2.27-.81-3.25,2.81-1,3.62Z"/><path d="M344.91,368.08a192,192,0,0,1-40.84,14.49c-14.19,3.31-28.88,4.49-42.82,8.83a89.23,89.23,0,0,0-32.37,18.68c-8.89,7.84-16.49,17-24,26.1l-33.65,41c-.29.36.39.5.61.23l29.57-36c7.92-9.66,15.73-19.51,24.83-28.11S246,397.35,258,393.06c13.59-4.87,28.12-6.08,42.17-9.07a193.25,193.25,0,0,0,45.09-15.46c.45-.21,0-.63-.32-.45Z"/><path d="M660.72,367.71a157.13,157.13,0,0,0,36,14.53c12.79,3.41,26.18,4.59,38.66,9.14,22.36,8.14,36.64,27.64,50.06,46.19l28.36,39.22c.21.28.89,0,.67-.33l-25.32-35c-6.93-9.58-13.7-19.35-21.67-28.12-7.51-8.26-16.19-15.54-26.37-20.28-11.92-5.55-25.14-7-37.83-9.83a157.35,157.35,0,0,1-42-15.95c-.29-.17-.92.22-.56.42Z"/><path d="M479.28,61.83c13.07-7.59,29.07-.33,38.77,9.47C523.7,77,527.93,84,532.19,90.77c4.58,7.27,9.29,14.44,13.81,21.74a196.87,196.87,0,0,1,11.56,21.94c3.38,7.37,6.64,14.8,10.62,21.87,7.74,13.76,18.08,26.06,29.51,36.88a231.83,231.83,0,0,0,38.45,29.12q2.63,1.6,5.29,3.16c.17.1.76-.2.68-.24A240.75,240.75,0,0,1,601.66,196c-12.2-11-23.24-23.67-31.61-37.89A239.22,239.22,0,0,1,559,135.7a206,206,0,0,0-11.71-22.56c-4.64-7.52-9.49-14.9-14.2-22.37C528.75,84,524.51,77,518.85,71.18c-8.92-9.09-22.92-15.87-35.68-11.42a26,26,0,0,0-4.45,2.06c-.29.18.43.09.56,0Z"/><path d="M482.57,55.85c-2.88,6.89-9.05,11.45-16,13.6-6.32,2-13.46,2.58-18.77,6.89-.38.31.2.54.48.32C454,72,461.87,71.72,468.6,69.28c6.41-2.32,12-7,14.66-13.35.16-.38-.57-.36-.69-.08Z"/><path d="M447.64,76.54c-11,29.69-22.61,59.45-26.16,91.14-.89,7.94-1.52,15.92-2.88,23.8a116.09,116.09,0,0,1-5.31,20.17c-4.78,13-12.39,25.12-23.16,34-11.93,9.8-27.32,15.64-42.85,14.54-.31,0-.76.42-.27.46,13.27.93,26.49-3.1,37.56-10.33,11.62-7.58,20.44-18.61,26.29-31.12,6.29-13.46,8.86-27.94,10.4-42.61.87-8.24,1.72-16.46,3.26-24.6,1.51-7.94,3.48-15.79,5.75-23.55,4.56-15.62,10.29-30.87,15.93-46.12l2.16-5.83c.11-.27-.63-.19-.72.08Z"/><path d="M472.78,27.43c-8.56,4.12-18.32,3.78-27.47,5.51a44.78,44.78,0,0,0-21.47,10.49c-13.93,12.24-19.61,30.18-28,46.12-4.36,8.3-9.63,16.08-14.19,24.26a99.43,99.43,0,0,0-6.07,12.61,83.2,83.2,0,0,0-3.86,13.7c-1.89,9.35-2.79,18.92-5.42,28.12A70.69,70.69,0,0,1,361,181.33a103.34,103.34,0,0,0-6,12.52c-3.36,9.45-1.49,19.34-1.45,29.11a56.57,56.57,0,0,1-6.8,27,58.31,58.31,0,0,1-3.9,6.25s-.06.08,0,.12A9.13,9.13,0,0,0,351,258c.43-.11.36-.39-.07-.28a8.41,8.41,0,0,1-4.14,0c-.77-.2-2.84-.77-3-1.64-.1-.68,1.31-2.19,1.69-2.78.63-1,1.23-2,1.79-3.05a56.86,56.86,0,0,0,5.15-12.81,55.88,55.88,0,0,0,1.86-13.74c.05-5.08-.5-10.14-.59-15.22A41.06,41.06,0,0,1,356,193.13a121.67,121.67,0,0,1,6.16-12.69c4.45-8.72,6.53-18,8.11-27.62s3-19.14,6.73-28.13c3.66-8.84,8.87-16.9,13.79-25.06,2.49-4.14,4.9-8.32,7.08-12.64s4.27-9,6.38-13.47c4-8.55,8.35-17,14.53-24.27,5.75-6.71,13-12.27,21.58-14.83,8.88-2.66,18.35-2.17,27.25-4.71a34.61,34.61,0,0,0,5.64-2.14c.43-.21-.24-.24-.44-.14Z"/><path d="M342.13,256.87A13,13,0,0,0,353,259.38c.45-.09.34-.5-.11-.41a12.19,12.19,0,0,1-10.1-2.4c-.22-.17-.9.12-.67.3Z"/><path d="M637,226.16a22.67,22.67,0,0,1-10.74-2.85c-.18-.1-.85.17-.59.32a23.25,23.25,0,0,0,11,2.88c.24,0,.78-.34.3-.35Z"/><path d="M472.79,27.55a115.8,115.8,0,0,1,59.69,5,119.94,119.94,0,0,1,26.81,13.61A136.18,136.18,0,0,1,581.08,65a146.53,146.53,0,0,1,30.39,46.54,128.28,128.28,0,0,1,7.43,26.28,121.48,121.48,0,0,1,1.53,13.44c.13,2.3,0,4.62.21,6.91a26.82,26.82,0,0,0,.73,3.63l.81,3.81c2.16,10.19,4.71,20.32,9.8,29.49,1.35,2.43,2.93,4.71,4.26,7.15a43.13,43.13,0,0,0,4.21,6.32c3.35,4.17,7.15,7.95,10.4,12.2.41.54,1,1,.42,1.57a6.72,6.72,0,0,1-1.53.85,26.14,26.14,0,0,0-2.37,1.18c-.42.25.23.3.44.17.83-.49,1.72-.85,2.59-1.28a4.39,4.39,0,0,0,1.78-1.17c.41-.63-.27-1.08-.65-1.59-.92-1.2-1.88-2.36-2.86-3.5-3.66-4.27-7.85-8.29-10.71-13.17-1.43-2.45-2.88-4.88-4.33-7.32a67.93,67.93,0,0,1-3.73-7.25,92.45,92.45,0,0,1-5-14.88c-1.28-5.08-2.29-10.22-3.39-15.35-.49-2.29-.23-4.85-.35-7.2s-.31-4.7-.57-7.05a126.29,126.29,0,0,0-6-27,143.83,143.83,0,0,0-28.25-48.07A146.4,146.4,0,0,0,564.85,49.4,120.41,120.41,0,0,0,539,34.56a117.18,117.18,0,0,0-58.59-8.49q-3.79.43-7.53,1.13c-.33.06-.62.45-.12.35Z"/><path class="cls-7" d="M559,338.26h-.78a.88.88,0,0,0-.28.06.41.41,0,0,0-.2.12s-.05.08,0,.11a.31.31,0,0,0,.19,0h.78a.88.88,0,0,0,.28-.06.41.41,0,0,0,.2-.12s0-.08,0-.11a.31.31,0,0,0-.19,0Z"/><path class="cls-7" d="M558.3,338.41c-.48,2.84-1.49,5.57-1.82,8.44a28,28,0,0,0,.79,8.6c1.15,5.72,3,11.26,4.37,16.93,1.3,5.44,2.18,11.2.88,16.73a22,22,0,0,1-3.77,8.05c-1.67,2.25-3.79,4.15-5.55,6.33-6.22,7.72-12.41,18.91-8.56,29a17,17,0,0,0,1.64,3.24c.28.43.58.86.89,1.27a5.78,5.78,0,0,0,2.18,1.51,59.49,59.49,0,0,0,8,3.36,77.58,77.58,0,0,0,17.77,3.62,131.74,131.74,0,0,0,18,.29A150.79,150.79,0,0,0,611.61,444c13-2.21,26.13-4.12,38.66-8.38a75.65,75.65,0,0,0,15.62-7,25.48,25.48,0,0,0,9.62-9.79c2.61-5.11,2.81-11.06,1.49-16.56a64.83,64.83,0,0,0-2.85-8.47c-1.08-2.74-2-5.54-3.15-8.25-5.19-12.56-11.43-24.64-17.55-36.76-3-5.93-6-11.87-8.75-17.89a77.47,77.47,0,0,1-3.87-9.24c-1-3.13-2.17-6.19-3.23-9.3a59.17,59.17,0,0,1-2.46-9.06c0-.18-.76,0-.72.19,1.12,6.35,3.77,12.24,5.69,18.36a74.7,74.7,0,0,0,3.67,8.83q2,4.35,4.13,8.65c5.73,11.7,11.86,23.2,17.35,35q2.13,4.57,4.11,9.22c1.19,2.8,2.18,5.67,3.3,8.5,2.08,5.28,4.31,10.66,4.42,16.42a21.42,21.42,0,0,1-5.29,14.8c-3.44,3.85-8.06,6.42-12.69,8.56-12,5.57-25.2,8.13-38.2,10.34-6.4,1.09-12.76,2.23-19.23,2.76a177.67,177.67,0,0,1-18.45.68,94,94,0,0,1-18-2,69.3,69.3,0,0,1-8.47-2.42c-1.38-.5-2.75-1.05-4.09-1.66s-3.35-1.25-4.43-2.3c-1.85-1.78-3-4.8-3.56-7.25a20.24,20.24,0,0,1-.15-7.64,38,38,0,0,1,6.36-14.82,60.87,60.87,0,0,1,5-6.36,40.07,40.07,0,0,0,5-6.12,24.94,24.94,0,0,0,2.89-15.37c-.56-5.53-2.2-10.89-3.68-16.23-.75-2.7-1.47-5.42-2-8.17a27.18,27.18,0,0,1-.75-8.93c.36-2.73,1.31-5.33,1.76-8,0-.21-.68-.08-.71.12Z"/><path class="cls-7" d="M348.34,259.56c-3.57,15-7.18,30.12-8.49,45.54a122,122,0,0,0,.08,23.17c.42,3.92,1.06,7.79,1.4,11.71s.53,7.78.63,11.68c.41,15.5-.62,31,.41,46.49A56.53,56.53,0,0,0,344,408.42c.83,3.28,1.77,6.55,2.31,9.9a27.3,27.3,0,0,1-.24,10.73c-.81,3.41-1.8,6.78-2.54,10.21a38.21,38.21,0,0,0-1.05,9.93,23.46,23.46,0,0,0,2.76,9.78,20,20,0,0,0,6,6.64,23.31,23.31,0,0,0,8.22,3.78c12.37,3.23,25.82,4.34,37.82-.87a19,19,0,0,0,6.74-4.29,24.94,24.94,0,0,0,3.78-5.78c2.26-4.46,4-9.46,7.75-12.94,2.45-2.27,5.56-3,8.68-3.95a50.13,50.13,0,0,0,8.88-3.38,14,14,0,0,0,2.74-2.1,22.44,22.44,0,0,0,3.3-3.38c1.78-2.42,2.3-5.63,2.43-8.56.34-7.18-.85-14.32-1.54-21.44-.74-7.52-1.27-15.05-1.84-22.59-1.12-14.93-2.35-29.91-5.51-44.58q-1.17-5.44-2.72-10.8c0-.17-.78,0-.73.2,8.27,28.37,7.47,58.24,11.11,87.33a88.51,88.51,0,0,1,.55,9.9c0,3.25-.21,6.83-1.84,9.72a14.78,14.78,0,0,1-3.07,3.53,17.78,17.78,0,0,1-4.06,3,67.28,67.28,0,0,1-9.75,3.47c-2.44.76-4.72,1.45-6.71,3.12a19.78,19.78,0,0,0-4.34,5.41c-2.46,4.23-3.93,9.08-7,12.93a17.21,17.21,0,0,1-6.86,4.85,41.1,41.1,0,0,1-10.29,3,59.79,59.79,0,0,1-20.49-.7c-1.55-.29-3.1-.63-4.64-1a32,32,0,0,1-5.19-1.48,24.1,24.1,0,0,1-7.43-5c-4.81-4.8-6.49-11.72-5.85-18.34a67.08,67.08,0,0,1,2.06-10.3c.82-3.19,1.94-6.48,2.08-9.79.27-6.61-2-12.85-3.42-19.21a64.1,64.1,0,0,1-1.18-10.88c-.18-3.73-.26-7.46-.28-11.19,0-7.56.15-15.13.17-22.69s-.17-15.24-.92-22.82c-.37-3.75-1-7.45-1.35-11.2a110.52,110.52,0,0,1-.45-11.36c.14-15.24,3.07-30.28,6.46-45.09.82-3.58,1.67-7.16,2.52-10.74,0-.17-.67-.07-.71.12Z"/><path class="cls-7" d="M421.79,311.05a29.82,29.82,0,0,0,6.73,9.42c.22.21.91-.08.67-.31a29.35,29.35,0,0,1-6.67-9.31c-.14-.29-.85-.08-.73.2Z"/><path class="cls-7" d="M430.29,326.55a31.21,31.21,0,0,0-3.23-8.66c-.1-.19-.79.07-.72.19a32,32,0,0,1,3.23,8.66c0,.18.76,0,.72-.19Z"/><path class="cls-7" d="M648.23,223.34a7.24,7.24,0,0,1-8.06.92.62.62,0,0,0-.46.05s-.33.13-.22.19a8.66,8.66,0,0,0,9.39-1.23c.12-.11-.11-.1-.17-.1a.85.85,0,0,0-.48.17Z"/><path class="cls-7" d="M632.06,294.43a68.93,68.93,0,0,0-1.71-8c-.64-2.51-1.48-5.05-1.88-7.61a22.94,22.94,0,0,1-.06-3.89c0-1.46.05-2.93.08-4.4.06-2.67.14-5.34.22-8,.32-11.05.6-22.16-.81-33.15a83.61,83.61,0,0,0-4.24-18.07c-.08-.22-.8,0-.72.19,7.59,20.94,4.87,43.61,4.73,65.39,0,3,1,5.95,1.73,8.87a77.57,77.57,0,0,1,1.94,8.9c0,.2.76,0,.72-.2Z"/><path class="cls-7" d="M637.13,226.59a6.64,6.64,0,0,0,5.3-2.07c.12-.12-.1-.18-.18-.18a.73.73,0,0,0-.49.19,5.31,5.31,0,0,1-4.18,1.7.76.76,0,0,0-.51.13c-.1.09-.1.22.06.23Z"/><path class="cls-7" d="M632,293.39a1.77,1.77,0,0,0-.87.23c-.42.24-.28.41-.13.82.43,1.17.84,2.34,1.25,3.52q1.19,3.48,2.22,7c0,.15.76-.05.72-.19q-.81-2.8-1.73-5.56c-.3-.9-.6-1.8-.92-2.7l-.48-1.34c-.06-.16-.49-1.51-.53-1.51.14,0,.81-.29.47-.28Z"/><path class="cls-6" d="M507.27,98.94l6.69,3.44c1.79.92,4-1.49,2.27-2.95C510.32,94.4,504,88.76,505,80.24l-3.2,1.33a23.3,23.3,0,0,1,3.48,5c1,1.83,4.15.58,3.43-1.45l-1.4-3.92L504.15,83l5,4.78A1.89,1.89,0,0,0,512.29,86l-1.14-4.23-2.76,2.11a16.2,16.2,0,0,1,5.09,3.92c1.39,1.58,4.2-.53,2.95-2.27L513.94,82l-3,2.27,4.89,6c1.42,1.75,3.82-.48,3-2.27a62.35,62.35,0,0,0-5.38-9l-2.57,2.57a19.6,19.6,0,0,1,9.33,9.3L523.45,89l-3.83-6.25-2.57,2.56a24,24,0,0,1,6.63,6.5l3-2.27-8.21-8.81-2.65,2.66a84.08,84.08,0,0,1,19.17,33.35l3.43-1.45a36.64,36.64,0,0,0-9.81-9.54c-1.58-1-3.51,1-2.56,2.57a106.13,106.13,0,0,1,13,32.59l3.13-1.82-1-1.62L538,139.32c.87,1,2.31,3.8,4.07,2.74l2.27.3-.32-.31-.83,3.14a9.48,9.48,0,0,1,7.62.61,1.89,1.89,0,0,0,2.56-2.57,82.5,82.5,0,0,0-6-10.52l-3,2.27a16.49,16.49,0,0,1,3.7,5.66c.87,2.22,4.5,1.25,3.62-1a21.17,21.17,0,0,0-4.66-7.31c-1.45-1.49-4.16.48-2.95,2.27a80.77,80.77,0,0,1,6,10.53l2.57-2.57a12.82,12.82,0,0,0-10.51-1,1.89,1.89,0,0,0-.82,3.13l.32.31a1.92,1.92,0,0,0,2.27.29l.47-.28a1.84,1.84,0,0,0,.93-1.62c-.34-2.74-3-4.73-4.71-6.73a1.89,1.89,0,0,0-3.13,1.83,6.41,6.41,0,0,0,2,3.27,1.89,1.89,0,0,0,3.13-1.82,109,109,0,0,0-13.4-33.49L526.67,109a31.43,31.43,0,0,1,8.46,8.2c1.16,1.64,4.08.71,3.42-1.45a88.55,88.55,0,0,0-20.13-35c-1.65-1.76-4.29.89-2.65,2.66l8.2,8.8c1.43,1.53,4.18-.5,2.95-2.27a29.22,29.22,0,0,0-8-7.85c-1.58-1-3.52,1-2.56,2.57l3.83,6.25c1.27,2.08,4.3.26,3.24-1.89a22.93,22.93,0,0,0-10.68-10.65c-1.51-.75-3.75.91-2.56,2.57a61.72,61.72,0,0,1,5.38,9l2.95-2.27-4.89-6c-1.33-1.64-4.19.54-2.95,2.27l2.49,3.46,2.94-2.28a18.73,18.73,0,0,0-5.85-4.51,1.9,1.9,0,0,0-2.75,2.12L508.67,87l3.14-1.83-5-4.77c-1.27-1.22-3.79,0-3.13,1.82l1.4,3.93,3.43-1.45a29.33,29.33,0,0,0-4.07-5.75c-1.2-1.33-3-.14-3.2,1.33-1.08,9.48,5.7,16.19,12.35,21.85l2.27-3-6.69-3.44c-2.14-1.1-4,2.13-1.89,3.24Z"/><path class="cls-8" d="M417.34,239.18c10.4,9.24,22.86,19.09,37.64,14.59L452.86,251c-6.07,11.9-13.39,23.87-15.81,37.18l2.76-1.12c-8.05-4.53-11.5-13.31-14.67-21.5a279.47,279.47,0,0,1-9.92-29.11l-2.76,2.12A26.11,26.11,0,0,1,424,254.68l3.43-1.45a68.77,68.77,0,0,0-13.77-18.62l-1.82,3.13c9.26,3.49,9.42,17.76,12,25.86,2.05,6.5,4.48,16.84,10.12,21.2a1.91,1.91,0,0,0,2.94-.38c2.15-3.28,2.64-6.83,3.19-10.63a30.62,30.62,0,0,1,6.58-15.65l-3.13-1.82-5.2,15.07,3.62,1a61,61,0,0,1,6.85-15.73l-3.43-1.45L444,260.12l3.61,1c.45-2,2.68-2.79,2.3-5a3.61,3.61,0,0,0-2.83-2.79c-3.32-1.08-7.1-.88-10.52-2a43.08,43.08,0,0,1-11.16-5.54c-2-1.36-3.84,1.86-1.89,3.24l17.63,12.5.94-3.5a23.35,23.35,0,0,1-13.85-4.75c-1.87-1.38-3.46,1.43-2.27,2.94,1.45,1.86,9.83,10.32,8.86,12.65l3.13-.83q-3-3.32-5.81-6.82c-1-1.29-3.26-.2-3.2,1.32a54,54,0,0,0,3,16.31,1.88,1.88,0,0,0,3.62-1,68.24,68.24,0,0,0-5.84-18.11c-.93-1.93-4-.57-3.42,1.44a119.92,119.92,0,0,0,5.38,14.72c.57,1.31,2.61,1.14,3.23,0a33.93,33.93,0,0,0,4.13-13.5c.2-2.08-3.37-2.59-3.68-.5L434,271.46c-.35,2.36,3.26,3.38,3.61,1L439,262.9l-3.69-.5A29.27,29.27,0,0,1,431.71,274h3.23a113.38,113.38,0,0,1-5-13.82l-3.43,1.44A64.73,64.73,0,0,1,432,278.85l3.62-1a50.58,50.58,0,0,1-2.91-15.31l-3.2,1.33c1.86,2.35,3.79,4.61,5.81,6.83,1,1.15,2.63.38,3.13-.83,1-2.33-.22-3.92-1.61-5.79-2.64-3.57-5.48-7-8.21-10.51l-2.27,2.95a26.72,26.72,0,0,0,15.74,5.26c2,0,2.38-2.48.95-3.49l-17.63-12.5L423.5,249a45.85,45.85,0,0,0,15.19,6.77c.57.13,6.85.86,6.91,1.05.12.36-1.42,2.43-1.61,3.27-.54,2.35,2.95,3.33,3.61,1L449,256.2a1.89,1.89,0,0,0-3.43-1.45,65.29,65.29,0,0,0-7.23,16.64c-.65,2.34,2.84,3.26,3.62,1l5.19-15.07c.59-1.71-1.95-3.27-3.13-1.82a33.56,33.56,0,0,0-6.47,11.8c-1.49,5.08-.9,10.67-3.89,15.24l3-.38c-4-3.1-5.76-9.84-7.43-14.46a134,134,0,0,1-4.5-15.46c-1.73-7.54-3.94-15.14-11.81-18.1-1.79-.68-3.1,1.9-1.82,3.13a66,66,0,0,1,13.18,17.87c1,1.94,3.93.57,3.43-1.45a30.06,30.06,0,0,0-13.29-18.33,1.9,1.9,0,0,0-2.76,2.12,273.17,273.17,0,0,0,11.59,33.33c3.18,7.77,7.17,15.27,14.72,19.51a1.89,1.89,0,0,0,2.76-1.12c2.36-13,9.49-24.65,15.43-36.28a1.9,1.9,0,0,0-2.12-2.76c-13.37,4.08-24.64-5.32-34-13.62-1.79-1.6-4.45,1-2.65,2.65Z"/><path class="cls-8" d="M413.94,236.46l-2.35-5.1L410,234.18c4,.35,7.11,5.91,9.39,8.73l8.41,10.36c1.52,1.88,4.16-.79,2.65-2.65q-5.61-6.92-11.2-13.82c-2.58-3.16-5-6-9.25-6.37-1.55-.13-2.15,1.66-1.62,2.82l2.35,5.1c1,2.19,4.24.29,3.24-1.89Z"/><path class="cls-8" d="M408.47,233.06c.25,6.15,4.16,11.65,6.95,16.94l11,20.88c1.13,2.13,4.37.24,3.24-1.9l-9.27-17.53c-2.88-5.46-7.94-12.08-8.2-18.39-.1-2.41-3.85-2.42-3.75,0Z"/><path class="cls-8" d="M421.39,245.53l-1-1.63c-.9-2.16-4.23-1.42-3.62,1l2.68,10.51c.5,2,3.9,1.65,3.68-.5-1-9.51-5.91-17.22-11.7-24.58l-.82,3.14c1.72-.27,8.15,7,9.47,8.19l2.27-2.94a19.24,19.24,0,0,1-6.8-6.09l-2.95,2.27L416.1,239c1.6,1.83,4.17-.82,2.65-2.65a19.94,19.94,0,0,0-8.71-6.1c-1.26-.47-2.85,1-2.31,2.3l10,24,3.42-1.44a143.7,143.7,0,0,1-8.31-18c-.84-2.21-4.31-1.37-3.62,1a124.61,124.61,0,0,0,6.57,17.64c1.09,2.35,7.49,16.58,9.74,15.8-2.27.78-1.29,4.41,1,3.61,5.8-2-1-9.23-2.66-12a116.53,116.53,0,0,1-11-26.06l-3.62,1a150.68,150.68,0,0,0,8.69,18.89c1,1.81,4.26.55,3.43-1.45l-10-24-2.31,2.3A16.53,16.53,0,0,1,416.1,239l2.65-2.65-3.53-4.06c-1.38-1.59-4.16.51-2.94,2.27a23.73,23.73,0,0,0,8.15,7.44c1.8,1,3.89-1.47,2.27-2.95-3.4-3.08-8.09-9.94-13.12-9.16-1.56.24-1.59,2.17-.83,3.13,5.1,6.49,9.74,13.53,10.6,21.93l3.68-.5-2.67-10.5-3.62,1a9.83,9.83,0,0,0,2,3.29c1.57,1.85,4.21-.82,2.65-2.65Z"/><path class="cls-8" d="M423.06,253.4q2.94,6.24,5.51,12.63l3.13-1.82a60.36,60.36,0,0,1-4.14-5.3,1.89,1.89,0,0,0-3.49.95l-.29,3,3.2-1.32-5.25-6.21a1.89,1.89,0,0,0-3.2,1.32,43.72,43.72,0,0,0,16.07,30.25c1.86,1.51,4.53-1.13,2.65-2.65a40.11,40.11,0,0,1-15-27.6l-3.2,1.33,5.25,6.21c1.15,1.37,3.06.13,3.2-1.33l.29-3-3.5.94a66.11,66.11,0,0,0,4.73,6.06c1.19,1.35,3.84-.08,3.14-1.83q-2.74-6.84-5.89-13.52c-1-2.18-4.27-.28-3.24,1.89Z"/><path class="cls-8" d="M425.32,265.43a12.65,12.65,0,0,1-3.38-4.61c-.72-1.77-.94-3.64-1.95-5.3-1.24-2.07-4.49-.19-3.24,1.89,1.1,1.81,1.3,4.06,2.25,6a15.86,15.86,0,0,0,3.67,4.7c1.8,1.6,4.46-1,2.65-2.65Z"/><path class="cls-8" d="M419.49,258.22a39.7,39.7,0,0,0,1.13,9l3.42-1.44a31.46,31.46,0,0,1-1.53-3.59c-.79-2.26-4.41-1.29-3.61,1a37.43,37.43,0,0,0,1.91,4.48c1,1.94,3.91.56,3.42-1.45a34.85,34.85,0,0,1-1-8c0-2.41-3.77-2.41-3.75,0Z"/><path class="cls-8" d="M426.33,254.16a46.15,46.15,0,0,0,6,7.59c1.69,1.73,4.3-.9,2.65-2.65l-4-4.25-2.27,3,6.4,4.46c1.8,1.26,3.67-1.44,2.27-2.94l-6-6.45-2.27,2.95,8.27,5.4c1.6,1,3.49-1,2.57-2.56a36.94,36.94,0,0,0-2.21-3.33l-2.12,2.76,5.63,1a1.87,1.87,0,0,0,1-3.61l-2.34-.91-.5,3.68a30,30,0,0,0,9.76-2.82l-2.82-1.62c-.3,2.93,2.42,3.81,4.79,2.85L449,253.91l-4.37,8.55,3.43,1.44.23-1c.43-2-2.41-3.42-3.43-1.44l-2.7,5.19,3.43,1.45.78-2.24c.82-2.32-2.72-3.17-3.61-1a205,205,0,0,0-7.07,20.12h3.61c-1-3.1-1.82-6.23-2.52-9.42l-3.61,1,.73,1.75a1.88,1.88,0,0,0,3.62-1c-.41-2.23-.91-4.43-1.5-6.62l-3.43,1.44.71,1.13a1.89,1.89,0,0,0,3.49-1,7.87,7.87,0,0,0-2.85-7.17l-.37,2.94a10.56,10.56,0,0,0,4.62-6l-3.43.45.78,2.57c.21,1.73,2.47,2.69,3.49.94a21.36,21.36,0,0,0,2.35-5.73l-3.62-1a28.26,28.26,0,0,1-.93,3.84c-.73,2.3,2.89,3.29,3.62,1a29,29,0,0,0,.93-3.84c.41-2.33-3-3.37-3.62-1a18.12,18.12,0,0,1-2,4.83l3.5.95a13.07,13.07,0,0,0-1.29-4.47c-.76-1.54-3-1-3.43.45a5.59,5.59,0,0,1-2.9,3.73,1.91,1.91,0,0,0-.38,2.95,4.07,4.07,0,0,1,1.75,4.52l3.5-.95-.71-1.12a1.88,1.88,0,0,0-3.42,1.45c.58,2.19,1.08,4.39,1.49,6.62l3.62-1-.74-1.75a1.87,1.87,0,0,0-3.61,1c.69,3.18,1.53,6.31,2.52,9.42a1.89,1.89,0,0,0,3.61,0,206.9,206.9,0,0,1,7.07-20.13l-3.61-1-.79,2.23c-.7,2,2.45,3.33,3.43,1.45l2.7-5.2-3.43-1.45-.23,1c-.43,2,2.41,3.43,3.43,1.45l4.37-8.54c.66-1.3-.48-3.42-2.12-2.76l0,.77c.16-1.54-1.68-2.17-2.82-1.62a23.87,23.87,0,0,1-7.87,2.31,1.89,1.89,0,0,0-.5,3.69l2.35.9,1-3.61-5.62-1c-1.41-.25-3.19,1.31-2.12,2.76a35.43,35.43,0,0,1,2.21,3.32l2.56-2.57-8.27-5.4c-1.83-1.2-3.68,1.43-2.27,2.94l6,6.45,2.27-3-6.4-4.46c-1.8-1.25-3.68,1.45-2.27,2.95l4,4.24L435,259.1a41.75,41.75,0,0,1-5.39-6.83c-1.29-2-4.54-.15-3.24,1.89Z"/><path d="M424.66,188.89c4.28-.6,7.84-3,11.65-4.86a28.63,28.63,0,0,1,14.61-2.69c9.62.69,18.28,5.5,25.79,11.27.23.19.88-.15.56-.4-11.35-8.73-26.67-15.37-40.7-8.84-3.89,1.81-7.5,4.41-11.83,5-.39.06-.57.57-.08.5Z"/><path d="M429.2,188.09a37.06,37.06,0,0,0,21.52,8.49c4.34.25,8.42-.58,12.68-1.26s8.86-.66,13.08-2.19c.47-.17,0-.46-.3-.33-4.14,1.51-8.62,1.42-12.93,2.12-4.11.68-8.06,1.46-12.26,1.22a36.37,36.37,0,0,1-21.12-8.35c-.21-.17-.89.12-.67.3Z"/><path d="M427.57,188.21c.53,7.62,10.55,9.14,16.46,9.9A60.66,60.66,0,0,0,477.12,193c.43-.2-.25-.17-.42-.09a59,59,0,0,1-26.88,5.38,54.72,54.72,0,0,1-12.91-2c-4-1.15-8.3-3.66-8.62-8.29,0-.12-.74,0-.72.2Z"/><path d="M470.89,193.6a3.3,3.3,0,0,1,.95-4.88c.11-.05.21-.15.08-.23s-.39,0-.51.09a3.52,3.52,0,0,0-1.2,5.28c.13.15.82-.1.68-.26Z"/><path d="M424.69,181.68c6.27-4.91,13.89-8.6,21.95-9,7.69-.4,14.73,2.57,20.7,7.25a70.78,70.78,0,0,1,9,8.61c.12.13.79-.12.68-.25-5.32-5.93-11.44-11.65-19.09-14.36-7.38-2.63-15.41-1.73-22.56,1.18A47.46,47.46,0,0,0,424,181.73c-.15.12.51.05.65,0Z"/><path d="M532.94,193.86a32.38,32.38,0,0,1,23.56-11,32.85,32.85,0,0,1,23.65,9.78c.16.16.85-.1.67-.28a33.2,33.2,0,0,0-48.55,1.52c-.19.22.53.16.67,0Z"/><path d="M532.59,194c-.92.73.15,1.61.91,1.92a29.28,29.28,0,0,0,6,1.3,106,106,0,0,0,13.78,1.08c4,.12,8.13.48,11.9-1.24a69.33,69.33,0,0,0,11.21-7c.4-.29-.19-.54-.48-.33a88.17,88.17,0,0,1-9.65,6.23,14.7,14.7,0,0,1-5.49,1.85,45.37,45.37,0,0,1-5.83,0c-3.67-.09-7.35-.22-11-.58-1.86-.19-3.72-.44-5.55-.78-1-.18-1.93-.38-2.89-.61-.22-.06-3.33-.81-2.43-1.52.38-.31-.2-.55-.48-.33Z"/><path d="M577.13,191.07h.5l.14,0,.14,0L578,191l.08-.06s0-.09,0-.12l0,0a.39.39,0,0,0-.15,0h-.5l-.14,0-.15,0-.11.06-.08.06s-.06.09,0,.12l0,0a.39.39,0,0,0,.15,0Z"/><path d="M577.37,189.14c.74,4.14-4.23,6.63-7.34,8a34.32,34.32,0,0,1-12.86,2.54c-8.68.13-17.12-2.45-25.18-5.45a1,1,0,0,0-.68.24c13,4.83,28.08,8.55,41.12,1.81,2.7-1.4,6.29-3.76,5.67-7.29,0-.14-.76,0-.73.19Z"/><path d="M533.63,188.89a31.74,31.74,0,0,1,21-11.48c8.87-1.08,17.89,1.43,25.43,6.07.2.12.83-.17.68-.27-11.87-7.29-27.16-8.9-39.41-1.57a31,31,0,0,0-8.34,7.27c-.17.22.54.15.67,0Z"/><path d="M552.89,183.78a4.31,4.31,0,0,0-1.54,2.57,5.28,5.28,0,0,0,.29,2.78,13,13,0,0,0,1.57,2.76,1.76,1.76,0,0,0,1.63.79,2.69,2.69,0,0,0,2-1.19c1.28-1.76,1.15-4,.55-6-.27-.89-.54-2-1.4-2.54a2.93,2.93,0,0,0-3.8,1.35,4.47,4.47,0,0,0-.14,3.1,13.16,13.16,0,0,0,1.38,3.34c.26.46,1.16.43,1.58.3a1.57,1.57,0,0,0,1.21-1,8.85,8.85,0,0,0,0-4c-.15-.67-1.18-.68-1.69-.53s-1.37.61-1.2,1.31a7.85,7.85,0,0,1,0,3.51l2.79-.75a10.62,10.62,0,0,1-1.25-3.37,3,3,0,0,1-.07-.71,2.85,2.85,0,0,1,0-.41s.08-.35,0-.24a1.48,1.48,0,0,1,.15-.31c-.07.08-.06.07,0,0a.49.49,0,0,1-.18.11l-.93.11a.24.24,0,0,1-.15-.09s.21.26.22.29a8.58,8.58,0,0,1,.54,1.56,9.07,9.07,0,0,1,.38,1.92,5.23,5.23,0,0,1-.17,1.63,3.36,3.36,0,0,1-.29.7,2.23,2.23,0,0,1-.2.33c.05-.08,0-.06-.06.05s-.08.12.24-.16l.77-.21h-.1l.71.07c.24.2.3.23.17.09a2.43,2.43,0,0,1-.14-.2l-.32-.46c-.18-.27-.35-.54-.52-.83a6.14,6.14,0,0,1-.73-1.8,3.51,3.51,0,0,1,0-1.58,1.68,1.68,0,0,1,.22-.59s.26-.4.12-.23c0,0,.36-.37.14-.18.43-.37.8-1,.19-1.4a2,2,0,0,0-2.07.2Z"/><path d="M449.49,182.25a7.43,7.43,0,0,0-1.82,3.43,4.18,4.18,0,0,0,.69,3.27,3.5,3.5,0,0,0,3.13,1.3c1.45-.08,3.23-.67,3.95-2a5.19,5.19,0,0,0,0-3.74,7.39,7.39,0,0,0-.87-1.73,2.74,2.74,0,0,0-1.36-1.18,4.06,4.06,0,0,0-3.22.67,3.2,3.2,0,0,0-1.17,1.56,4.5,4.5,0,0,0,.13,3.27,3.8,3.8,0,0,0,1.09,1.5,2.24,2.24,0,0,0,1.88.11,2.78,2.78,0,0,0,1.52-.89,4.3,4.3,0,0,0,.21-4.21c-.21-.43-1.05-.27-1.4-.19s-1.28.31-1.48.81a3.55,3.55,0,0,0-.22,2l2.9-.78a2.21,2.21,0,0,1,0-1.78l-2.89.61a4.33,4.33,0,0,1,.57,1.88,3.26,3.26,0,0,1-.05.88,2.47,2.47,0,0,1-.11.47.61.61,0,0,0-.07.17c0,.09-.16,0,.24-.17l.71-.27-.08,0,.75-.12a.67.67,0,0,1,.42.06.52.52,0,0,1-.11-.1.78.78,0,0,1-.11-.2,2,2,0,0,1-.16-.65c0-.19-.41-.25-.52-.26a3,3,0,0,0-1.07.11c-.38.11-1.35.39-1.3.93a1.5,1.5,0,0,0,.82,1.35,2.9,2.9,0,0,0,1.65-.06,2.56,2.56,0,0,0,1.56-1,3.28,3.28,0,0,0,.33-1.83,4.24,4.24,0,0,0-.57-2c-.24-.43-1-.28-1.4-.2s-1.28.32-1.48.82a2.69,2.69,0,0,0,0,2.1c.21.48,1.22.25,1.59.15s1.4-.4,1.31-.93a2.8,2.8,0,0,1,.19-1.64l-2.89.62a4.21,4.21,0,0,1,.44,2,3.64,3.64,0,0,1-.17.93c-.06.17-.12.34-.19.49l-.09.19s-.15.09,0,0l.6-.31-.08,0,.77-.2h-.08l.68,0,.18.06a.57.57,0,0,1-.15-.12l-.21-.22a2.39,2.39,0,0,1-.28-.35,3.73,3.73,0,0,1-.49-1.05,3.9,3.9,0,0,1-.09-2.14,2.76,2.76,0,0,1,.38-.92,1.59,1.59,0,0,1,.2-.24c.19-.2,0,0,0,0-.33-.07-1,.53-1.31.27.08.06.18.08.26.15a4.77,4.77,0,0,1,1.33,2.05,6.43,6.43,0,0,1,.44,2.53,2.65,2.65,0,0,1-.24,1.07,1.36,1.36,0,0,1-.25.39c-.11.13,0,0,0,0l-.14.1c.15-.08.16-.09,0,0-.27.14.23-.1,0,0s.39-.1.39-.1h-.09c-.15,0-.12,0,.09,0,0,0-.32,0-.11,0l-.11,0c-.27,0,.15.07-.1,0a3.94,3.94,0,0,1-.4-.15,2.83,2.83,0,0,1-1.29-1.64c-.6-1.81.28-3.61,1.45-5,.42-.5-.37-.62-.72-.6a2.9,2.9,0,0,0-1.93.73Z"/><path d="M546.33,184.28c-1.92,2.08-1.68,5.12-.43,7.48a17.89,17.89,0,0,0,2.57,3.48,6.59,6.59,0,0,0,3.32,2.3,13.67,13.67,0,0,0,7.42-.4,7.63,7.63,0,0,0,4.81-5.29,23.76,23.76,0,0,0,.91-4.59,5.11,5.11,0,0,0-1-4.06c-.13-.14-.8.12-.68.26,1.12,1.24,1.13,2.94.91,4.52a24.18,24.18,0,0,1-.92,4.28,7.41,7.41,0,0,1-2.62,3.86,8.79,8.79,0,0,1-4.92,1.38c-1.69.05-3.59,0-5-1.05a15.38,15.38,0,0,1-3.25-3.58c-1.75-2.51-2.76-6.12-.44-8.64.15-.17-.54-.09-.66.05Z"/><path d="M442.51,181.6a6.39,6.39,0,0,0-1,7.31,18.87,18.87,0,0,0,2.22,3.55,7.83,7.83,0,0,0,3.15,2.7c4.27,1.76,9.42-.86,11.84-4.44,1.59-2.33,2.57-5.79.84-8.31-.12-.18-.79.1-.72.2,1.67,2.43.8,5.71-.68,8a10.11,10.11,0,0,1-7.59,4.73,6.46,6.46,0,0,1-4.53-1.36,15,15,0,0,1-3.05-3.85c-1.66-2.74-2.24-6.06.16-8.58.15-.17-.54-.09-.66,0Z"/><path d="M553.94,188.17c.55,0,1.63-.2,1.92-.75s-.25-.72-.75-.72-1.63.2-1.92.75.25.72.75.72Z"/><path d="M574.4,187.48v.63a.11.11,0,0,0,0,.08.1.1,0,0,0,.07.07.38.38,0,0,0,.24,0,.66.66,0,0,0,.27-.09l.07-.06a.23.23,0,0,0,.06-.12v-.62a.1.1,0,0,0,0-.09.16.16,0,0,0-.07-.07.4.4,0,0,0-.24,0,.68.68,0,0,0-.27.1l-.07.05a.75.75,0,0,0-.07.12Z"/><path d="M574.9,187.76l.48.64s.15,0,.19,0a1,1,0,0,0,.24,0c.1,0,.28-.1.27-.22V187s-.11-.07-.13-.07a.61.61,0,0,0-.27,0c-.11,0-.33.1-.33.24l0,1.14.7-.23-.48-.64s-.15,0-.19,0a.71.71,0,0,0-.28.06.51.51,0,0,0-.2.12.09.09,0,0,0,0,.12Z"/><path d="M575.05,188.62l-.3-1.25a.22.22,0,0,0-.15-.13.5.5,0,0,0-.27,0c-.13,0-.35.14-.31.31l.31,1.25a.18.18,0,0,0,.15.12.5.5,0,0,0,.27,0c.12,0,.34-.15.3-.31Z"/><path d="M574.8,188.29l-.32-.93a.17.17,0,0,0-.14-.1.62.62,0,0,0-.27,0,.68.68,0,0,0-.24.12s-.09.1-.07.16l.32.94c0,.06.08.08.14.1a.5.5,0,0,0,.27,0,.55.55,0,0,0,.24-.12s.09-.1.07-.16Z"/><path d="M573.86,186.37a.8.8,0,0,1-.13-.13l0,0a.52.52,0,0,1-.09-.34v0a.6.6,0,0,1,.07-.27l0,0a.16.16,0,0,1,.06-.08v0l0,0s.09-.06,0,0,.12-.07.14-.13a.1.1,0,0,0-.07-.11.6.6,0,0,0-.23,0,.84.84,0,0,0-.28.09.74.74,0,0,0-.38.61.63.63,0,0,0,.24.51.35.35,0,0,0,.2.05,1.4,1.4,0,0,0,.28-.06.53.53,0,0,0,.2-.13s0-.1,0-.13Z"/><path d="M573,186.86l0,0c.05-.07,0,0,0,0s.07,0,0,0h0l.06,0h0l.06,0h0s.09,0,0,0l-.08,0c.09,0,0,0,0,0l0,0-.08,0,.05,0a.7.7,0,0,1-.16-.19l0,0a1.16,1.16,0,0,1-.12-.55v.06c0-.11,0-.21,0-.32s-.19-.18-.32-.17a.68.68,0,0,0-.27.1c-.05,0-.13.09-.14.16a1.64,1.64,0,0,0,.16,1,.9.9,0,0,0,.86.33,1,1,0,0,0,.64-.36.13.13,0,0,0,0-.16.33.33,0,0,0-.19-.08.72.72,0,0,0-.29.06.4.4,0,0,0-.19.15Z"/><path d="M571.7,186.1v-.94s-.12,0-.13,0a.78.78,0,0,0-.26,0,.69.69,0,0,0-.25.1s-.09.05-.09.1v.93c0,.05.12.05.13.05a1.17,1.17,0,0,0,.26,0,.69.69,0,0,0,.25-.1s.09,0,.09-.1Z"/><path d="M571.1,186.67c.17,0,.83-.32.47-.32-.17,0-.83.32-.47.32Z"/><path d="M574.23,186.79a.13.13,0,0,1,0-.06l0,.07a.31.31,0,0,1,0-.1l0,.06.07-.07-.07.06.08-.06-.08.05.07,0-.09,0,.08,0-.1,0h.05l-.09,0a.32.32,0,0,1,.09,0l-.07,0h0a.43.43,0,0,0,.25.05.52.52,0,0,0,.27-.1.29.29,0,0,0,.13-.18.17.17,0,0,0-.09-.17.46.46,0,0,0-.16-.07.76.76,0,0,0-.26,0,.83.83,0,0,0-.38.1.74.74,0,0,0-.44.53.18.18,0,0,0,.09.17.4.4,0,0,0,.24.05.56.56,0,0,0,.28-.1.36.36,0,0,0,.13-.19Z"/><path d="M574.17,187.65a1.17,1.17,0,0,0,.71.17,1.4,1.4,0,0,0,.74-.25.31.31,0,0,0,.13-.17.16.16,0,0,0-.08-.16.54.54,0,0,0-.52,0s-.13.08,0,0l-.09,0H575c-.06,0,.1,0,0,0h-.09c-.06,0,.08,0,0,0h-.05l-.09,0,.07,0-.13-.07a.43.43,0,0,0-.25,0,.52.52,0,0,0-.27.1c-.06,0-.13.09-.13.17a.15.15,0,0,0,.08.16Z"/><path d="M575.56,188.89h.31a.32.32,0,0,0,.14,0,.42.42,0,0,0,.15,0,.24.24,0,0,0,.11-.06.27.27,0,0,0,.08-.07l0,0a.09.09,0,0,0,0-.09l-.05,0a.4.4,0,0,0-.15,0h-.31a.34.34,0,0,0-.14,0,.33.33,0,0,0-.14,0,.27.27,0,0,0-.12.06.27.27,0,0,0-.08.07l0,.05s0,.07,0,.09l0,0a.32.32,0,0,0,.14,0Z"/><path d="M576.34,188.83l.63-.62a.25.25,0,0,0,0-.22.29.29,0,0,0-.15-.16.45.45,0,0,0-.28,0l-.1,0a.36.36,0,0,0-.14.11l-.62.62a.29.29,0,0,0-.06.22.28.28,0,0,0,.16.16.53.53,0,0,0,.28,0l.09,0a.3.3,0,0,0,.14-.11Z"/><path d="M576.41,189.16c.16,0,.82-.3.47-.3-.16,0-.82.3-.47.3Z"/><path d="M574.51,187v-.94s-.12,0-.13,0a1.17,1.17,0,0,0-.26,0,.69.69,0,0,0-.25.1s-.09.05-.09.09v.94s.12,0,.13,0a.78.78,0,0,0,.26,0,.69.69,0,0,0,.25-.1s.09,0,.09-.09Z"/><path d="M574.51,186.48v-.62a.15.15,0,0,0,0-.11.13.13,0,0,0-.07-.08.36.36,0,0,0-.25-.06.56.56,0,0,0-.27.1.28.28,0,0,0-.12.2v.62a.14.14,0,0,0,0,.11.13.13,0,0,0,.07.08.43.43,0,0,0,.25.07.49.49,0,0,0,.27-.11.25.25,0,0,0,.12-.2Z"/><path d="M574.11,186.47c.42,0,.56-.54.07-.54s-.56.54-.07.54Z"/><path d="M570,185.19c.32,0,.76-.48.27-.48-.32,0-.75.48-.27.48Z"/><path d="M428,187.8l0,0s0,0,0,0,0,0,0,0l0,0h0l-.05,0s.06,0,0,0h.06c-.09,0,.08,0,0,0s.08,0,0,0h-.05c.07,0,0,0,0,0h-.07l-.11,0-.1,0h0l-.05,0-.18-.12a.73.73,0,0,1-.21-.35s-.1,0-.13,0a1.17,1.17,0,0,0-.26,0,.69.69,0,0,0-.25.1s-.1.06-.09.11a1,1,0,0,0,.81.63,1.81,1.81,0,0,0,.86-.1,1.18,1.18,0,0,0,.59-.41c.08-.1-.26-.07-.29-.07a.72.72,0,0,0-.42.2Z"/><path d="M428.08,188.83l-.05,0h0l-.05,0c.08-.05.06,0,0,0h-.2l-.11,0h0c.07,0,0,0,0,0l-.19-.09,0,0c-.06,0,0,0,0,0l-.08-.06-.15-.16,0,0v0a1.17,1.17,0,0,1-.05-.11c-.06-.14-.29-.11-.41-.08a.68.68,0,0,0-.24.12s-.1.1-.07.16a1.53,1.53,0,0,0,2.17.53c.09-.06.22-.21.06-.28a.61.61,0,0,0-.51.07Z"/><path d="M428.64,187.37l-.31-.93c-.06-.16-.3-.14-.42-.1a.55.55,0,0,0-.24.12s-.09.11-.07.17l.31.94c.06.15.3.13.42.09a.55.55,0,0,0,.24-.12.18.18,0,0,0,.07-.17Z"/><path d="M430.25,187l-.32-.93c-.05-.17-.28-.19-.42-.15a.53.53,0,0,0-.24.14.25.25,0,0,0-.06.2l.32.94c.05.16.28.19.43.14a.4.4,0,0,0,.23-.14.19.19,0,0,0,.06-.2Z"/><path d="M432.07,185.82l.32-.93c0-.06,0-.13-.08-.16a.43.43,0,0,0-.25,0,.56.56,0,0,0-.27.1.36.36,0,0,0-.13.17l-.31.94c0,.06,0,.12.08.15a.38.38,0,0,0,.24,0,.66.66,0,0,0,.27-.09.29.29,0,0,0,.13-.18Z"/><path d="M432.1,186.71l-.62-.63s-.14,0-.19,0a.67.67,0,0,0-.28.06.45.45,0,0,0-.2.12s-.05.08,0,.13l.62.62s.14,0,.19,0a.72.72,0,0,0,.29-.06.59.59,0,0,0,.2-.12s0-.08,0-.12Z"/><path d="M430.87,185.87h.05l-.1,0,.07,0-.11-.08.05,0a.66.66,0,0,1-.12-.17l0,.06a.55.55,0,0,1-.07-.25v.07a.65.65,0,0,1,0-.19l0,.07a.54.54,0,0,1,.05-.11l0,.07.06-.08-.06.06,0,0a.39.39,0,0,0,.12-.19.21.21,0,0,0-.09-.19.48.48,0,0,0-.51.05.74.74,0,0,0-.26.32.85.85,0,0,0,0,.39.81.81,0,0,0,.35.55.76.76,0,0,0,.51.12.56.56,0,0,0,.27-.1.36.36,0,0,0,.13-.19c0-.18-.19-.25-.34-.24Z"/><path d="M430.89,186H431l.06,0h0l.05,0,0,0,0,0a.11.11,0,0,1,0-.08V186a.19.19,0,0,1,0-.08l0,.05,0,0-.05.05h0L431,186h0l-.08,0h0l-.1,0h0l-.1,0h0l.14,0L431,186l.1-.07.05-.05a.17.17,0,0,0,0-.1l0,0a.16.16,0,0,0-.11-.05.5.5,0,0,0-.21,0,.73.73,0,0,0-.21.06l-.16.09a.3.3,0,0,0-.12.17.06.06,0,0,1,0,0,.28.28,0,0,0,0,.09s0,0,0,0a.2.2,0,0,0,0,.08l.08.05a.51.51,0,0,0,.17,0h.11a.71.71,0,0,0,.28-.09l.09-.07a.22.22,0,0,0,.05-.08V186a.14.14,0,0,0-.08-.07l-.06,0Z"/><path d="M578.78,189.44l.41-.29a1.12,1.12,0,0,0,.36-.29.58.58,0,0,0,.19-.31.28.28,0,0,0,0-.28.35.35,0,0,0-.25-.21l-.26-.08a2,2,0,0,0-.69,0l-.39.08a2.72,2.72,0,0,0-.71.29l-.41.29a1.12,1.12,0,0,0-.36.29.6.6,0,0,0-.19.3.28.28,0,0,0,0,.29.36.36,0,0,0,.24.21l.26.08a2.28,2.28,0,0,0,.69,0l.39-.08a2.72,2.72,0,0,0,.71-.29Z"/><path d="M578.37,188l.17-.18a.23.23,0,0,0,.13-.21.13.13,0,0,0-.07-.17.56.56,0,0,0-.3-.08,1.3,1.3,0,0,0-.44,0l-.36,0a4.15,4.15,0,0,0-.77.2l-.33.14a2.15,2.15,0,0,0-.48.3l-.17.18a.23.23,0,0,0-.13.21.13.13,0,0,0,.07.17.67.67,0,0,0,.3.08,1.3,1.3,0,0,0,.44,0l.36,0a5.12,5.12,0,0,0,.77-.2l.33-.14a2.15,2.15,0,0,0,.48-.3Z"/><path d="M576.65,188l.18-.11a1.28,1.28,0,0,0,.36-.29.69.69,0,0,0,.2-.3.28.28,0,0,0,0-.28.36.36,0,0,0-.24-.21l-.26-.08a2,2,0,0,0-.69,0l-.39.07a3.41,3.41,0,0,0-.71.29l-.18.12a1,1,0,0,0-.35.29.55.55,0,0,0-.2.3.26.26,0,0,0,0,.28.36.36,0,0,0,.24.21l.26.08a2.66,2.66,0,0,0,.69,0l.39-.08a2.53,2.53,0,0,0,.7-.29Z"/><path d="M575.38,187.63l.3-.3A1,1,0,0,0,576,187a.82.82,0,0,0,.17-.43.65.65,0,0,0-.09-.43.73.73,0,0,0-.28-.35l-.28-.15a1.6,1.6,0,0,0-.72-.1l-.39.06a1.86,1.86,0,0,0-.69.34l-.3.3a.93.93,0,0,0-.33.38.82.82,0,0,0-.17.43.65.65,0,0,0,.09.43.68.68,0,0,0,.28.35l.28.15a1.57,1.57,0,0,0,.71.1l.4-.06a2,2,0,0,0,.69-.34Z"/><path d="M574.33,186.16l.17-.18a.71.71,0,0,0,.25-.29.31.31,0,0,0,0-.28.3.3,0,0,0-.19-.22.63.63,0,0,0-.35-.13l-.33,0a3.22,3.22,0,0,0-.75.1l-.38.13a2.32,2.32,0,0,0-.59.34l-.18.18a.62.62,0,0,0-.24.29.28.28,0,0,0-.06.28.33.33,0,0,0,.19.22.66.66,0,0,0,.36.13l.32,0a2.72,2.72,0,0,0,.75-.11l.38-.12a2.52,2.52,0,0,0,.6-.34Z"/><path d="M573,185.78l.23-.23a.77.77,0,0,0,.23-.36.48.48,0,0,0,0-.37.47.47,0,0,0-.21-.3.78.78,0,0,0-.38-.2l-.33-.06a2.17,2.17,0,0,0-.76.08l-.38.13a1.94,1.94,0,0,0-.58.4l-.23.23a.77.77,0,0,0-.23.36.48.48,0,0,0,0,.37.47.47,0,0,0,.21.3.7.7,0,0,0,.38.2l.33.06a2.17,2.17,0,0,0,.76-.08l.38-.13a2.07,2.07,0,0,0,.58-.4Z"/><path d="M579.21,190.16l.06-.06a.78.78,0,0,0,.21-.4.53.53,0,0,0,0-.41.56.56,0,0,0-.22-.35.76.76,0,0,0-.39-.24l-.33-.08a2,2,0,0,0-.77.06l-.38.14a1.59,1.59,0,0,0-.57.43l-.06.05a.82.82,0,0,0-.21.4.61.61,0,0,0,0,.42.56.56,0,0,0,.23.35.73.73,0,0,0,.38.24l.34.08a2,2,0,0,0,.76-.06l.38-.14a1.72,1.72,0,0,0,.57-.43Z"/><path d="M425.45,187.84l.23.17a.54.54,0,0,0,.33.18,1.18,1.18,0,0,0,.46.09,2.67,2.67,0,0,0,.56-.06,2.21,2.21,0,0,0,.57-.17l.33-.17a1.44,1.44,0,0,0,.45-.4l.1-.22a.43.43,0,0,0-.11-.39l-.23-.18a.77.77,0,0,0-.33-.18,1.21,1.21,0,0,0-.46-.08,1.75,1.75,0,0,0-.56.06,2,2,0,0,0-.58.17l-.32.16a1.47,1.47,0,0,0-.45.41l-.1.21a.43.43,0,0,0,.11.4Z"/><path d="M427.79,187.81l.23.11a1.17,1.17,0,0,0,.52.09,1.47,1.47,0,0,0,.59-.06,1.34,1.34,0,0,0,.53-.24,1.12,1.12,0,0,0,.41-.34l.17-.27a.89.89,0,0,0,.06-.58l-.13-.26a1,1,0,0,0-.5-.36l-.23-.12a1.54,1.54,0,0,0-.52-.09,1.47,1.47,0,0,0-.59.06,1.7,1.7,0,0,0-.53.24,1.36,1.36,0,0,0-.41.34l-.17.27a.89.89,0,0,0-.06.58l.13.27a1.15,1.15,0,0,0,.5.36Z"/><path d="M431,186.38l.18-.12a.67.67,0,0,0,.25-.25.25.25,0,0,0,.07-.25.27.27,0,0,0-.18-.18.71.71,0,0,0-.35-.1h-.31a3.26,3.26,0,0,0-.76.12l-.38.12a2.85,2.85,0,0,0-.6.31l-.17.12a.65.65,0,0,0-.26.26.26.26,0,0,0-.06.24.24.24,0,0,0,.18.18.6.6,0,0,0,.35.1h.31a4.52,4.52,0,0,0,.75-.12l.38-.13a2.13,2.13,0,0,0,.6-.31Z"/><path d="M429.92,185.66v0c0,.06.07.13.11.18l0,0s0,0,0,0l.21.13h0l.28.08h0l.34,0,.38,0h0l.39-.08a1.53,1.53,0,0,0,.41-.14,1.58,1.58,0,0,0,.46-.25,1.12,1.12,0,0,0,.33-.28.38.38,0,0,0,.1-.3.25.25,0,0,0-.09-.25l-.19-.12a1.5,1.5,0,0,0-.59-.1l-.36,0a3.37,3.37,0,0,0-.77.21h0l.38-.13h0l.39-.08h0l.37,0h0l.32,0h0l.26.08,0,0,.19.12-.06-.05.1.16a.06.06,0,0,1,0,0,.34.34,0,0,0-.2-.22.72.72,0,0,0-.35-.14,2.18,2.18,0,0,0-.51,0,2.82,2.82,0,0,0-.57.09l-.38.13a2.45,2.45,0,0,0-.59.34l-.19.2a.43.43,0,0,0-.11.39Z"/><path d="M432.07,186.07c.62,0,1.61-.18,1.9-.83s-.23-1-.82-1-1.62.18-1.91.83.23,1,.83,1Z"/><path d="M429.54,186.83c.53,0,1.64-.22,1.93-.74s-.26-.62-.73-.62-1.64.22-1.93.73.27.63.73.63Z"/><path d="M427.57,189.18c.58,0,1.63-.19,1.92-.78s-.24-.82-.78-.82-1.62.2-1.91.78.24.82.77.82Z"/><path class="cls-6" d="M536.19,114.37c2.46,3.93,5.16,7.79,7.33,11.89a19.1,19.1,0,0,1,2.57,7.77c0,1-.18,5.87-1.44,6.1l2.31,1.31-.05-.16c-.69-2.31-4.31-1.33-3.61,1l0,.16a1.94,1.94,0,0,0,2.31,1.31c4.14-.73,4.46-8.58,4-11.62-1.13-7.18-6.46-13.65-10.2-19.64-1.28-2-4.53-.16-3.24,1.89Z"/><path class="cls-3" d="M571.82,184l-1.29,0c-.09,0-.67.15-.49.31a2,2,0,0,0,1.34.36l1.9.09c.16,0,.77-.29.37-.36l-1-.2-.09.3a.77.77,0,0,1,.47-.05l.46-.35A10.57,10.57,0,0,0,571,184a1.8,1.8,0,0,0-.9.31c-.17.13-.42.41-.22.61s.74.16,1,.18l1.38.12c.93.06,1.85.1,2.78.12.09,0,.73-.25.44-.35a13.11,13.11,0,0,0-3.4-.59l-.3.36a1.76,1.76,0,0,1,.75.18l0-.15a.73.73,0,0,1-.3.22c-.06,0-.37.22-.16.28a19.28,19.28,0,0,0,5.54.8l.3-.36a11.68,11.68,0,0,1-3.75-.56l-.35.34a2.32,2.32,0,0,1,1.14.07.7.7,0,0,0,.51-.07c.08-.05.24-.19.08-.25a10,10,0,0,0-4.48-.47c-.15,0-.65.26-.29.35a16.54,16.54,0,0,0,5.65.38c.1,0,.41-.09.42-.23s-.21-.13-.31-.12a15.75,15.75,0,0,1-5.3-.38l-.28.35a9.07,9.07,0,0,1,4,.44l.59-.32a3.29,3.29,0,0,0-1.62-.1c-.07,0-.63.26-.35.33a12.65,12.65,0,0,0,4,.6c.13,0,.42,0,.48-.19s0-.17-.18-.17a18.62,18.62,0,0,1-5.25-.76l-.16.29a1.72,1.72,0,0,0,.7-.48.09.09,0,0,0,0-.16,2.18,2.18,0,0,0-1-.22c-.24,0-.79.34-.3.36a12.17,12.17,0,0,1,3.11.56l.44-.35c-1.26,0-2.52-.09-3.77-.2l-.44,0c-.09,0-.45,0-.51-.06s0-.27.18-.31a1.45,1.45,0,0,1,.36,0,13.37,13.37,0,0,1,1.9.12.69.69,0,0,0,.52-.14c.1-.1.1-.19-.06-.21a1.92,1.92,0,0,0-1.2.16c-.14.06-.37.24-.09.3l1,.19.37-.36-1.47-.07c-.45,0-1,0-1.38-.28l-.49.32,1.3,0c.13,0,.42-.05.48-.18s0-.18-.19-.18Z"/><path class="cls-3" d="M569.66,184.9a1.92,1.92,0,0,0,1,.35,2.19,2.19,0,0,0,1.1-.34.21.21,0,0,0-.11-.4.8.8,0,0,1-.37-.08l-.41.45,1.1.11a1.55,1.55,0,0,0,1.08-.13.2.2,0,0,0,.05-.35.52.52,0,0,0-.52.06c.06,0,.12,0,0,0h-.2l-.42-.05-.87-.08a.53.53,0,0,0-.43.15c-.07.08-.1.24,0,.29a1.71,1.71,0,0,0,.67.18l-.11-.4a.84.84,0,0,1-.48.14,1.29,1.29,0,0,1-.59-.25.51.51,0,0,0-.52.05c-.11.08-.19.25,0,.35Z"/><path class="cls-3" d="M571,185.21c.17,0,.83-.31.47-.31-.17,0-.83.31-.47.31Z"/><path class="cls-3" d="M576.09,186.48h.17l.19-.4-.3,0-.14,0-.13,0-.07.05a.24.24,0,0,0-.06.08.07.07,0,0,0,0,0s0,.05,0,.07l0,0a.4.4,0,0,0,.15,0h.33l-.15-.26,0,0,.07-.05,0,0,.08,0h0l.09,0h0l.1,0h-.13l-.14,0a.24.24,0,0,0-.11.06.2.2,0,0,0-.08.08l0,0a.08.08,0,0,0,0,.09l0,0a.4.4,0,0,0,.15,0h.15l.15,0,.11,0,.11-.05,0,0,.09-.06a.21.21,0,0,0,.07-.11.06.06,0,0,0,0-.07.1.1,0,0,0-.06-.05l-.15,0h-.33l-.19.4.3,0,.14,0,.13-.05.07,0a.16.16,0,0,0,.06-.08.07.07,0,0,0,0,0s0-.05,0-.07l0,0a.4.4,0,0,0-.15,0h-.17a.71.71,0,0,0-.28.06.34.34,0,0,0-.12.06.23.23,0,0,0-.07.07l0,.06a.09.09,0,0,0,0,.09l0,0a.4.4,0,0,0,.15,0Z"/><path class="cls-3" d="M576,186.54c.17,0,.83-.32.47-.32-.17,0-.83.32-.47.32Z"/><path class="cls-3" d="M577.37,186.68l0,0h0l-.08,0-.19.05-.18,0h0l-.1,0a.86.86,0,0,0-.23.06.49.49,0,0,0-.16.1.12.12,0,0,0,0,.08s.11,0,.13,0a3.39,3.39,0,0,0,.55,0,.94.94,0,0,0,.29-.06.56.56,0,0,0,.2-.11s.05-.08,0-.11a.31.31,0,0,0-.19,0h-.06a.88.88,0,0,0-.28.06.49.49,0,0,0-.2.11s-.06.08,0,.11a.28.28,0,0,0,.18,0H577l.31-.3h-.16l-.23,0-.3.3a8.12,8.12,0,0,0,1-.25.82.82,0,0,0,.2-.12s0-.07,0-.1a.31.31,0,0,0-.19,0,1.4,1.4,0,0,0-.28.06Z"/><path class="cls-3" d="M578.72,187.19l-.75.24a.47.47,0,0,0-.24.13.19.19,0,0,0-.07.14c0,.15.21.19.32.17a3.36,3.36,0,0,1,.63-.06h0a.58.58,0,0,0,.29-.06.35.35,0,0,0,.19-.15.14.14,0,0,0,0-.17.27.27,0,0,0-.2-.09,4.76,4.76,0,0,0-.84.07v.44l.75-.24a.51.51,0,0,0,.24-.13.21.21,0,0,0,.07-.18c-.06-.15-.3-.15-.42-.11Z"/><path class="cls-3" d="M579.72,187.9a3.13,3.13,0,0,0-.53.12l-.21.06c-.07,0,.1,0,0,0h-.09a.56.56,0,0,0-.29,0,.39.39,0,0,0-.19.17.25.25,0,0,0,0,.15.29.29,0,0,0,.1.12.42.42,0,0,0,.25.06h.37a4.3,4.3,0,0,0,.62,0,.66.66,0,0,0,.27-.09.36.36,0,0,0,.13-.19c0-.17-.19-.24-.33-.22l-.48,0H579l.07,0h0l.05,0h0l0,.06h0l0,.14h0l-.47.21a1.62,1.62,0,0,0,.62-.07l.23-.07.11,0c.06,0-.1,0,0,0h.07a.68.68,0,0,0,.27-.1.33.33,0,0,0,.13-.19c0-.17-.19-.23-.33-.22Z"/><path class="cls-3" d="M579.65,188.84l-.78,0a.45.45,0,0,0-.39.25c-.05.14.09.24.22.25l.69,0a1.55,1.55,0,0,0,.43,0,.51.51,0,0,0,.4-.35c0-.13-.13-.21-.23-.22h-.29l0,.44s0,0-.05,0-.19,0-.13,0a.58.58,0,0,0,.29-.05.44.44,0,0,0,.19-.17.19.19,0,0,0,0-.18.29.29,0,0,0-.21-.09.67.67,0,0,0-.39.07c-.1.05-.22.14-.21.26s.13.18.23.18h.29l-.24-.22s0,0,0,0l0-.06v0l0-.06,0,0c.06,0,.08-.05,0,0s0,0,.07,0h-.21l-.53,0-.16.5.77,0a.51.51,0,0,0,.27-.09.26.26,0,0,0,.13-.18c0-.19-.19-.22-.32-.22Z"/><path class="cls-3" d="M578.92,190.15a6.84,6.84,0,0,0,1.19-.11l-.14-.51-1,.35a.49.49,0,0,0-.23.14.21.21,0,0,0-.06.21c0,.16.28.21.43.16l1-.35a.49.49,0,0,0,.24-.14.22.22,0,0,0-.1-.36.66.66,0,0,0-.28,0c.12,0,0,0,0,0h-.08l-.13,0-.26,0-.54,0a.45.45,0,0,0-.27.1.28.28,0,0,0-.13.19c0,.2.18.25.34.25Z"/><path d="M577,189.64c.65,0,1.59-.18,1.89-.85s-.23-1.07-.84-1.07-1.59.17-1.9.85.24,1.07.85,1.07Z"/><path d="M428.76,186l.75,0a.65.65,0,0,0,.43-.14c.08-.07.12-.18,0-.23l-.78-.36a.62.62,0,0,0-.51.07c-.1.07-.21.19-.06.27a.61.61,0,0,1,.21.18.17.17,0,0,1,0,.1c0,.07,0,.09,0,0l.28-.09a2,2,0,0,1-.52-.12l-.59-.16c-.15,0-.54.05-.58.24a.36.36,0,0,0,.05.27,1.94,1.94,0,0,0,.15.24v0c.29-.1.35-.15.17-.14a1.79,1.79,0,0,0-.24,0l-.48-.09c-.14,0-.64.06-.59.29a.21.21,0,0,0,.15.15.43.43,0,0,0,.12.05l.14-.06-.13,0-.89.16c-.11,0-.4.08-.41.24a2,2,0,0,0,.13.53c0,.1,0,.11.11.07s.05,0,0,0a2.57,2.57,0,0,1-.4-.05l-.37.39h1.42a.61.61,0,0,0,.48-.19c.08-.15-.07-.21-.19-.21h-1.42a.64.64,0,0,0-.46.17c-.08.1,0,.2.09.22a1.72,1.72,0,0,0,1.3-.1.4.4,0,0,0,.19-.37c0-.19-.15-.34-.14-.53l-.41.24.72-.12a2.45,2.45,0,0,0,.66-.16c.15-.06.33-.19.32-.37a.21.21,0,0,0-.11-.19s-.15,0-.15-.07l-.59.29a2.21,2.21,0,0,0,1.48,0c.15-.08.29-.22.24-.4s-.22-.24-.2-.38l-.58.24.84.22a1.28,1.28,0,0,0,.75,0,.51.51,0,0,0,.4-.44c0-.24-.21-.37-.4-.48l-.57.34.78.36.43-.37-.75-.05a.58.58,0,0,0-.48.2c-.09.14.07.19.19.2Z"/><path d="M431.32,185.37a1.6,1.6,0,0,1-.7-.53l-.7.22a1.55,1.55,0,0,0,1.1.4c.16,0,.56-.09.56-.32a.3.3,0,0,0-.12-.2.5.5,0,0,1-.08-.07s0-.09-.06-.08l-.25.1h0l-.26,0h0l-.11,0h0c.08.18.78-.06.73-.19l-.07-.15-.7.22a2.54,2.54,0,0,0,1.53.29c.08,0,.62-.12.5-.27s-.45-.45-.36-.56l-.08.07c-.37.28-.47,0-.31.16l.07.09a.69.69,0,0,0,.17.17.88.88,0,0,0,.62,0c.33-.08.78-.34.58-.75-.07-.15-.76,0-.72.2a.74.74,0,0,0,.38.6,1.07,1.07,0,0,0,.9-.15c.11-.08.09-.15-.05-.16a.86.86,0,0,0-.51.14c.33-.24.41,0,.24-.13a.32.32,0,0,1-.13-.15,1.42,1.42,0,0,1-.11-.35l-.72.2a.42.42,0,0,1,0,.15.85.85,0,0,1,0,.17c-.05.07,0,.07.12,0s.19,0,.1-.05-.08,0-.11-.08-.12-.18-.21-.24a.56.56,0,0,0-.31-.06c-.19,0-.63.1-.67.33s.09.19.15.27l.27.33.5-.26a2,2,0,0,1-1.16-.24.56.56,0,0,0-.42,0c-.05,0-.32.11-.28.2l.06.14.73-.19c-.11-.24-.68,0-.81.1a.16.16,0,0,0,0,.23c0,.06.26.22.2.29l.57-.18a1.31,1.31,0,0,1-.82-.34c-.12-.11-.77.13-.7.22a1.66,1.66,0,0,0,.73.58.69.69,0,0,0,.47-.05s.33-.16.22-.2Z"/><path class="cls-3" d="M429.94,189.83a4.54,4.54,0,0,0-.66-1.25c-.12-.15-.79.07-.7.23a.65.65,0,0,0,.51.36.74.74,0,0,0,.41-.08c.06,0,.2-.1.18-.19a.77.77,0,0,0-.46-.56.67.67,0,0,0-.46.06c-.06,0-.28.15-.17.23l.23.16c.11.09.3,0,.42,0s.29-.1.28-.23h0l-.07.09,0,0-.62.1a.21.21,0,0,1,.07.11l.59-.27c-.06,0-.11-.06-.15-.11l-.05.17c-.34.22-.48,0-.36.13l.57-.3a3.93,3.93,0,0,0-.84,0c-.13,0-.54.07-.51.27a3.73,3.73,0,0,0,1.53,2.58.54.54,0,0,0,.48,0c.05,0,.33-.16.2-.24a3.62,3.62,0,0,1-1.49-2.52l-.51.28a3.09,3.09,0,0,1,.68,0,.78.78,0,0,0,.45-.09c.07,0,.2-.13.12-.21-.21-.24-.67-.09-.89.06-.06,0-.1.1-.05.17a.52.52,0,0,0,.36.19.74.74,0,0,0,.41-.08c.05,0,.21-.1.18-.19a.52.52,0,0,0-.11-.19c-.06-.06-.21,0-.28,0a.78.78,0,0,0-.34.13.21.21,0,0,0-.12.21l.7-.23-.22-.16-.63.29a.61.61,0,0,1,.32.43l.59-.27a.39.39,0,0,1-.25-.2l-.7.23a4.24,4.24,0,0,1,.62,1.17c.07.21.79,0,.72-.19Z"/><path class="cls-3" d="M434.56,185.22a1.82,1.82,0,0,0-1.14.21c-.36.18-.71.36-1.06.56a20.41,20.41,0,0,0-2,1.3c-.08.06-.12.13,0,.18a.68.68,0,0,0,.42-.05,3.26,3.26,0,0,1,1.58-.38l.29-.31c-.14,0-.35.13-.45,0s0-.12,0-.16c-.19.05-.25.07-.16.07h.1l-.13-.1c0,.18-.25.2-.4.26L431,187l-1.19.46.46.09a.58.58,0,0,1,.55-.14.78.78,0,0,0,.51-.14c.11-.09.09-.17-.05-.19a2.12,2.12,0,0,0-1.67.5c-.08.07,0,.12.07.14a.74.74,0,0,0,.39,0l1.51-.58a7.29,7.29,0,0,0,.7-.28c.17-.08.38-.2.4-.4s-.06-.1-.13-.11c-.32,0-1,0-1.13.42,0,.19.13.31.29.36a1.68,1.68,0,0,0,.8-.06.58.58,0,0,0,.39-.17c.07-.09,0-.13-.1-.14a4.73,4.73,0,0,0-2.3.49l.41.13c.5-.36,1-.7,1.54-1,.25-.15.51-.29.77-.43l.43-.22c.07,0,.26-.16.33-.15a.82.82,0,0,0,.51-.08c.06,0,.25-.19.08-.22Z"/><path class="cls-3" d="M450,185.89a.41.41,0,0,1,0-.16v0a.24.24,0,0,1,0-.08l0,0,0,0,0,0h0l-.07,0c.06,0,.06,0-.14.05l-.08,0c-.08,0-.1,0-.07,0h-.11l0,0h0l0-.08a.6.6,0,0,0,0,.19,1,1,0,0,1,0,.16v0a.26.26,0,0,1,0,.11l0,0s0,0,0,0l.05,0v0l.06,0h0l.11-.05.12,0c.09,0,.12,0,.08,0h.06l.07,0h0l0,0s-.06-.06-.09-.1l0,0a.39.39,0,0,1-.1-.26v0a.64.64,0,0,1,0-.07l0,0,0,0-.05,0h0l-.06,0h0l-.07,0h0l-.17,0h-.15s0,0,0,0l0,0,0,0,0,0a.16.16,0,0,1,0,.1V186a2.44,2.44,0,0,1,0,.27v0s0,.05,0,.08l0-.05s0,0,0,0l.05,0h0l.07,0a.85.85,0,0,1,.24-.08h.15l.05,0-.06-.05,0,0a.41.41,0,0,1,0-.24v0a.31.31,0,0,1,0-.13l0,0,0,0-.05,0h0l-.07,0a.34.34,0,0,1-.2.06q-.19,0-.12,0h-.09l0,0,0,0,0,0s0,0,0,0v0s0,.09.07.1a.49.49,0,0,0,.24,0,.66.66,0,0,0,.27-.09.26.26,0,0,0,.14-.13.14.14,0,0,0,0-.09.28.28,0,0,0-.1-.09l-.12,0a.87.87,0,0,0-.39.07.47.47,0,0,0-.3.25,1.21,1.21,0,0,0,0,.19.25.25,0,0,0,0,.17.23.23,0,0,0,.16.13.62.62,0,0,0,.27,0,.82.82,0,0,0,.35-.13.29.29,0,0,0,.17-.22v-.52a.47.47,0,0,0-.06-.09.3.3,0,0,0-.15,0,.81.81,0,0,0-.22,0,.89.89,0,0,0-.47.22l-.06.09a.2.2,0,0,0,0,.11.34.34,0,0,0,0,.17.94.94,0,0,0,.12.18.44.44,0,0,0,.39.08.84.84,0,0,0,.38-.15.28.28,0,0,0,.1-.09.4.4,0,0,0,.06-.22,1.64,1.64,0,0,1,0-.22v0a.13.13,0,0,0,0-.06s0,0,0-.07a.43.43,0,0,0-.35,0,.78.78,0,0,0-.46.21.34.34,0,0,0,0,.36s.09.07.13.07a.8.8,0,0,0,.27,0,1,1,0,0,0,.24-.11s.1-.08.08-.14Z"/><path class="cls-3" d="M452.57,188.4h0l-.21,0h.05l.13.26,0,0,0,.06,0,0-.07.06,0,0-.08,0,0,0-.1,0h0l-.1,0h0l-.08,0h0l-.07,0,0,0-.06-.05s0,0,0,0l0-.06h0l.3-.33-.28.09a.45.45,0,0,0-.23.13.21.21,0,0,0-.06.1.16.16,0,0,0,0,.1l0,.05a.28.28,0,0,0,.12.08.45.45,0,0,0,.28,0l.27-.08a.59.59,0,0,0,.14-.06.39.39,0,0,0,.1-.08l.05-.06a.2.2,0,0,0,0-.13.23.23,0,0,0-.05-.1l-.09-.08a.25.25,0,0,0-.11,0,.83.83,0,0,0-.22,0h0l-.12,0a.62.62,0,0,0-.22.1l-.1.08a.39.39,0,0,0-.06.11l0,.06a.16.16,0,0,0,0,.1.1.1,0,0,0,0,.05.19.19,0,0,0,.1.05l.27,0h.28a.56.56,0,0,0,.27-.1.24.24,0,0,0,.08-.09.16.16,0,0,0,0-.09v-.07a.16.16,0,0,0-.08-.1l-.07,0a.32.32,0,0,0-.17,0Z"/><path class="cls-3" d="M450,186.18l0-.52a1.78,1.78,0,0,1,0-.46.43.43,0,0,1,0-.11l0-.05h0l0,0h0c-.05,0,0,0,0,0a.46.46,0,0,1-.23.06s-.06,0-.07,0l0,0s0,0,0,0,0,0,0,0,0,0,0,0a.08.08,0,0,1,0,0,.29.29,0,0,1,0,.09h0v0s0,.06,0,.09a1.6,1.6,0,0,1-.05.21c0,.16-.09.32-.13.48l0,.08v0s0,0,0,0l0,0s0,0,0,0a.43.43,0,0,1,.29-.08.08.08,0,0,1,.08,0h0s0,0,0,0l0,0,0,0s0,0,0,0a.75.75,0,0,1-.08-.18,1.25,1.25,0,0,1-.12-.46v-.07a.19.19,0,0,1,0-.08.17.17,0,0,1,0-.1s0,0,0,0l0,0,0,0,0,0h0s0,0,0,0a.34.34,0,0,1-.28,0h0s0,0,0,0,0,.09,0,.13l.15.5a1.85,1.85,0,0,1,.12.4.28.28,0,0,1,0,.13.25.25,0,0,0,0,.07h0l0,0,0,0h0a.21.21,0,0,1,.1-.06l.14,0s.1,0,.06,0,.05,0,0,0l0,0h0a.6.6,0,0,1-.08-.08.92.92,0,0,1-.07-.4.74.74,0,0,1,0-.21.43.43,0,0,1,0-.11v-.08h0s0-.07.06-.08,0,0,0,0-.06,0,0,0,0,0,0,0-.09,0,0,0h-.09s0,0,0,0,0,0,0,0h0l0,0a.53.53,0,0,1,.05.19,3.62,3.62,0,0,1,0,.57l.65-.22-.18-.1a.48.48,0,0,0-.24,0,.68.68,0,0,0-.27.1c-.1.06-.21.19-.06.28l.18.1a.5.5,0,0,0,.38,0l.16-.08a.28.28,0,0,0,.11-.13,5.7,5.7,0,0,0,0-.72.45.45,0,0,0-.39-.39,1.1,1.1,0,0,0-.82.21.76.76,0,0,0-.27.52,1.61,1.61,0,0,0,0,.62.55.55,0,0,0,.45.38.83.83,0,0,0,.82-.32.75.75,0,0,0,0-.51c-.06-.22-.14-.43-.21-.64a2.46,2.46,0,0,0-.09-.29.37.37,0,0,0-.36-.19.86.86,0,0,0-.75.43.92.92,0,0,0-.07.59,2,2,0,0,0,.24.59.6.6,0,0,0,.75.13.57.57,0,0,0,.3-.25,1.28,1.28,0,0,0,.11-.27c0-.21.12-.42.16-.62a.53.53,0,0,0-.09-.52.8.8,0,0,0-1,.1.78.78,0,0,0-.2.7c0,.26,0,.53.07.79,0,.06.1.09.14.1a.5.5,0,0,0,.27,0c.12,0,.32-.12.31-.28Z"/><path class="cls-3" d="M452.68,188.39l-.33,0h-.29s-.05,0,0,0l0,0s0,0,0,0,0,0,0,0,0,0,0,0,0-.06,0,0,0,0,0,0l0,0s0,0,0,0h0a.19.19,0,0,1-.1.05c.09,0-.06,0,0,0h0s-.06,0,0,0h0l.09,0s.05,0,0,0l.23.12c.06,0,0,0,0,0l.05,0h0a.14.14,0,0,1,0,.06s0,.05,0,0v0s0,0,0-.05l.06,0h0c-.05,0,.1,0,0,0h-.92s0,0,0,0h0l-.06,0h0l-.06,0s0,0,0,0l0,0,0,0s0,0,0,0,0,0,0-.06,0,0,0,0v-.06c0-.06,0,0,0,0s0,0,0,0,.05,0,0,0-.15,0-.08,0-.06,0,0,0h.08c.05,0,0,0,0,0l.08,0,.16,0,.35.08a.56.56,0,0,0,.51-.14c.1-.11.09-.27-.08-.31L452,188a1.87,1.87,0,0,0-.4-.07c-.33,0-.76.1-.85.46a.54.54,0,0,0,.29.58,1.61,1.61,0,0,0,.81.13h.49a1.2,1.2,0,0,0,.46-.07.56.56,0,0,0,.39-.37.45.45,0,0,0-.09-.37,1,1,0,0,0-.31-.21,1.93,1.93,0,0,0-.4-.15,1,1,0,0,0-1,.32.5.5,0,0,0-.09.36.39.39,0,0,0,.29.29,1.25,1.25,0,0,0,.51,0l.5,0c.14,0,.38-.1.4-.27s-.2-.2-.32-.19Z"/><path class="cls-3" d="M451.77,188.3l.38-.16.09-.06s0,0,.06-.05v0a.07.07,0,0,0-.06,0l-.36,0-.37.26h.18l.09.05,0,0a.14.14,0,0,1,0,.07v0a.05.05,0,0,1,0,0l0,0h0l.05,0,.07,0a.9.9,0,0,1,.33-.09s.09,0,0,0h.06c-.09,0-.14-.1-.23-.14a.63.63,0,0,0-.36,0,1.32,1.32,0,0,0-.38.13.38.38,0,0,0-.11.11s0,.06.06.07a.89.89,0,0,0,.23,0,1.52,1.52,0,0,0,.28-.09A.27.27,0,0,0,452,188v0l0,0h0l-.05,0a.8.8,0,0,1-.43.12c-.06,0,0,0,0,0h-.06l.1.05a.71.71,0,0,0,.09.07l.13.05h.18a1.16,1.16,0,0,0,.31-.07.68.68,0,0,0,.22-.12.13.13,0,0,0,.05-.07.08.08,0,0,0,0-.1.34.34,0,0,0-.3-.12,1.87,1.87,0,0,0-.53.05.84.84,0,0,0-.37.14.12.12,0,0,0-.06.06s0,0,0,0a.05.05,0,0,0,0,0l.36,0,.09-.17-.37.16a.33.33,0,0,0-.1.06l-.05.05s0,.06.05.07a.87.87,0,0,0,.23,0,1.31,1.31,0,0,0,.28-.09Z"/><path class="cls-3" d="M449.85,186v.51s.11.06.12.06a.8.8,0,0,0,.27,0,1.36,1.36,0,0,0,.25-.11s.08-.06.08-.11v-.51s-.11-.06-.13-.06a.78.78,0,0,0-.26,0,.69.69,0,0,0-.25.1s-.08.06-.08.11Z"/><path class="cls-3" d="M450.08,185.13a.52.52,0,0,1-.11-.19.22.22,0,0,1,0-.08c0-.06,0,0,0,0l-.18.07h-.1c-.12,0-.14,0-.09,0s-.08,0,0,0l.07.06a1.3,1.3,0,0,1,.1.15,1.58,1.58,0,0,1,.14.36,1.21,1.21,0,0,1,0,.73.54.54,0,0,1-.07.13l0,0s0,0,0,0l.09,0,.1,0h0s0,0,0,0a.39.39,0,0,1-.13-.06.86.86,0,0,1-.3-.66,1.24,1.24,0,0,1,0-.43.59.59,0,0,1,.07-.16l0,0h0l-.12,0a.23.23,0,0,1-.18,0h0a.7.7,0,0,0,.51-.08c.07,0,.24-.18.08-.23a1,1,0,0,0-.95.26.75.75,0,0,0-.18.59,1,1,0,0,0,.54,1,1.11,1.11,0,0,0,.89-.1.8.8,0,0,0,.41-.49,1.44,1.44,0,0,0-.22-1.21.47.47,0,0,0-.25-.21.86.86,0,0,0-.68.11.4.4,0,0,0-.22.32.52.52,0,0,0,.16.32s.15,0,.19,0a.94.94,0,0,0,.29-.06c.07,0,.3-.14.2-.24Z"/><path class="cls-3" d="M452.33,188.31l0,.06,0,0,0,0,0,0s.07,0,0,0l-.07,0,0,0h0s-.1,0,0,0H452s.06,0,0,0l-.07,0s0,0,0,0l0,0-.06,0,0,0-.06-.07a.37.37,0,0,1-.06-.14v0s0,0,0,0,0,0,0,0,0,0,0,0-.05,0,0,0,0,0,0,0l0,0c-.06,0,0,0,0,0H452s0,0,0,0l.08,0a.47.47,0,0,1,.12.07l0,0,0,.07s0,0,0,0,0,0,0,.06a.08.08,0,0,0,0,0s0,0,0,0a.19.19,0,0,1,0,.08h0a.08.08,0,0,1,0,.05s0,.07,0,0l0,0,0,0,0,0,0,0s0,0,0,0l-.07,0s-.05,0,0,0h0l-.07,0h-.16s-.13,0-.16,0,0,0,0,0l-.07,0-.06,0,0,0h0a.56.56,0,0,1-.16-.29.11.11,0,0,1,0-.05.09.09,0,0,1,0,0s0-.05,0,0,0,0,0,0,0,0,0,0-.05,0,0,0-.05,0-.05,0l-.07,0s-.13,0-.06,0l.12,0a.84.84,0,0,0,.35,0H452c-.07,0,0,0,0,0s0,0,0,0l.05,0,0,0s0,0,0,0l.1.05a1,1,0,0,0,.17.1.89.89,0,0,0,.53.12c.16,0,.38-.11.4-.3s-.19-.25-.33-.23h-.05s.07,0,0,0h0l-.06,0h0l0,0-.11-.06a1.07,1.07,0,0,0-.54-.19,1.93,1.93,0,0,0-.34,0h0s0,0,0,0,0,0,0,0l-.09,0a.75.75,0,0,0-.75.13.6.6,0,0,0-.23.6.85.85,0,0,0,.23.44,1.28,1.28,0,0,0,.86.38,1.37,1.37,0,0,0,1.07-.4.68.68,0,0,0,0-1,1.33,1.33,0,0,0-1.12-.29c-.41.06-.88.32-.79.81a.91.91,0,0,0,.86.64,1.27,1.27,0,0,0,1.1-.48.24.24,0,0,0,.06-.2.26.26,0,0,0-.16-.15.51.51,0,0,0-.51.14Z"/><path class="cls-3" d="M553.36,187.08a.71.71,0,0,1-.09-.28.15.15,0,0,1,0-.09v0l-.09.06-.19,0h-.12a.46.46,0,0,1,.07.07,1,1,0,0,1,.1.18,3.17,3.17,0,0,1,.21.41,1.71,1.71,0,0,1,.13.44.5.5,0,0,1,0,.21l0,.08,0,0a.5.5,0,0,1,.19-.1l.19,0c.12,0,.09,0,.06,0s0-.05-.06-.07l-.08-.13a2,2,0,0,1-.15-.33,1.73,1.73,0,0,1-.11-.32,1.36,1.36,0,0,1,0-.17.28.28,0,0,1,0-.09c0-.08,0,0-.12,0l-.19,0h-.15s0,0,0,0l0,0c0,.07.06.13.08.19a1.62,1.62,0,0,1,.09.38,1,1,0,0,1,0,.17.62.62,0,0,1,.43-.14h0a.46.46,0,0,1-.19-.2,1,1,0,0,1-.11-.3,1.23,1.23,0,0,1-.07-.32v0s0,0,0,0a.18.18,0,0,1-.07,0,.54.54,0,0,1-.25.06h0s0,0,0,0a.49.49,0,0,1,.12.13l0,.05s0,0,0,.05,0,0,0,0l.39-.18h0s0,0,0,0,0,0,0,0l-.05,0a.65.65,0,0,0-.51.08c-.08,0-.24.18-.08.23a.72.72,0,0,0,.29.06.87.87,0,0,0,.63-.14c.18-.15,0-.33-.08-.46a.61.61,0,0,0-.58-.16c-.22,0-.56.15-.56.42a1.42,1.42,0,0,0,.08.45,1.13,1.13,0,0,0,.21.39.63.63,0,0,0,.48.19c.24,0,.65-.11.65-.41a1.66,1.66,0,0,0-.1-.53c-.06-.15-.13-.35-.3-.41a.77.77,0,0,0-.57.1.4.4,0,0,0-.23.26,1.18,1.18,0,0,0,.1.52,2.62,2.62,0,0,0,.22.48,1.35,1.35,0,0,0,.14.22.44.44,0,0,0,.33.12.81.81,0,0,0,.69-.37.9.9,0,0,0,0-.54,3.93,3.93,0,0,0-.24-.56l-.15-.27a.52.52,0,0,0-.17-.19.59.59,0,0,0-.45,0,.83.83,0,0,0-.45.24.51.51,0,0,0,0,.58c.06.12.3.08.4.05a.88.88,0,0,0,.24-.11s.11-.09.08-.14Z"/><path class="cls-3" d="M552.59,187.11a1.79,1.79,0,0,0,.36,1.07l.09-.33a.28.28,0,0,1,.35,0s0,0,0,0l0,0h0s0,0,0,0a.64.64,0,0,1,0-.07,2.7,2.7,0,0,1,0-.28s0-.07,0,0v-.22a1.53,1.53,0,0,1,0-.3c0-.14-.13-.23-.24-.24a.67.67,0,0,0-.2,0,.44.44,0,0,0-.23.15.91.91,0,0,0-.17.42,1,1,0,0,0,0,.4,2,2,0,0,0,.44.7l.17-.38s.09,0,0,0h.12l0,0s.05,0,0,0l0,0h0l0,0,0,0s0,.06,0,0l0-.09a1.6,1.6,0,0,1,0-.21,2,2,0,0,1,0-.24s0-.05,0,0v0a.41.41,0,0,1,0-.11.09.09,0,0,1,0,0s0,0,0,0a.36.36,0,0,0,0-.09s0,0,0,0l0,0s0,0,0,0,.06,0,0,0a.37.37,0,0,0,.18-.17.22.22,0,0,0,0-.21.41.41,0,0,0-.49,0,.81.81,0,0,0-.3.25,1.06,1.06,0,0,0-.14.33,1.48,1.48,0,0,0,.06.66.91.91,0,0,0,.28.56.75.75,0,0,0,.8.08c.12-.05.29-.24.17-.38a2,2,0,0,1-.22-.27.67.67,0,0,1-.09-.14s0-.08,0,0l0-.08a.74.74,0,0,1,0-.14s0-.11,0,0v-.07s0-.05,0-.07,0-.11,0,0l0-.06s.05-.1,0,0l-.67-.09a2.6,2.6,0,0,0,0,.88.56.56,0,0,0,.19.4.59.59,0,0,0,.69,0,.25.25,0,0,0,.09-.33,2.39,2.39,0,0,1-.13-.21l0,0s0,0,0,0a.36.36,0,0,1,0-.11,2,2,0,0,1-.07-.23s0-.08,0-.12,0,0,0,0a.2.2,0,0,1,0-.07.21.21,0,0,0-.09-.19.35.35,0,0,0-.24-.06.56.56,0,0,0-.28.1.32.32,0,0,0-.12.2Z"/><path d="M453.49,187.56l-.11,0c-.14,0-.28-.05-.42-.06h-.58c-.16,0-.32,0-.49.06l.37,0h-.11l.33.05-.16-.05.27.11-.18-.1.2.15a.47.47,0,0,1-.13-.15l.11.2a.25.25,0,0,1,0-.14v.23a.27.27,0,0,1,0-.12l-.1.23,0-.07-.19.22.06-.05-.26.2.05,0-.32.17.05,0-.38.13.08,0-.39.07h.08l-.36,0H451l-.33,0a.59.59,0,0,1,.19.05l-.27-.11.22.11a1.77,1.77,0,0,0,1,.14,3,3,0,0,0,1.1-.38l.26-.21a.87.87,0,0,0,.27-.45v-.23a.57.57,0,0,0-.31-.35,2.46,2.46,0,0,0-.65-.26,2.77,2.77,0,0,0-1.37.06,2.33,2.33,0,0,0-1.33.88.87.87,0,0,0-.11.7,1.29,1.29,0,0,0,1,.79,2.91,2.91,0,0,0,1,0l.43,0H452l-.33,0a.5.5,0,0,1,.13,0,1.47,1.47,0,0,0,.51,0,1.89,1.89,0,0,0,.58-.08,1.81,1.81,0,0,0,.54-.22,1.66,1.66,0,0,0,.42-.29c.16-.17.36-.43.27-.68l-.11-.2a.91.91,0,0,0-.47-.26Z"/><path d="M555.66,187.88a.87.87,0,0,1-.11-.44v.18a1,1,0,0,1,.11-.43l-.1.2a.89.89,0,0,1,.16-.22l-.19.19a.87.87,0,0,1,.11-.09l-.26.18a.41.41,0,0,1,.11-.07l-.33.16h0l-2-.13a.41.41,0,0,1,0,.11v-.18a.83.83,0,0,1-.06.21l.11-.2a.44.44,0,0,1-.12.15l.2-.19-.11.08.27-.18-.09.05.33-.16-.08,0L554,187l-.07,0,.39-.08h-.07l.36,0h-.07l.32,0h-.09l.26.07-.11-.05.18.11a.44.44,0,0,1-.13-.14l.09.16a.46.46,0,0,1-.06-.28V187a.8.8,0,0,1,.09-.3l-.11.19a.76.76,0,0,1,.11-.14l-.19.19.07-.06-.26.18.07,0-.33.16,0,0-.38.13h0l-.39.08h.05l-.36,0h.07a2.6,2.6,0,0,0,.56-.07,2.21,2.21,0,0,0,.57-.17,1.58,1.58,0,0,0,.46-.25,1,1,0,0,0,.33-.28c.11-.16.19-.37,0-.53l-.19-.12a1.41,1.41,0,0,0-.58-.09,2.58,2.58,0,0,0-.48,0,3.63,3.63,0,0,0-1,.32,2.29,2.29,0,0,0-.81.6,1.16,1.16,0,0,0-.27.89.86.86,0,0,0,.21.4,1.15,1.15,0,0,0,.28.19,1.38,1.38,0,0,0,.39.13,2.27,2.27,0,0,0,.45,0,3.65,3.65,0,0,0,.87-.12,3.54,3.54,0,0,0,1.21-.57,1.55,1.55,0,0,0,.5-.61.88.88,0,0,0,.05-.15,1.09,1.09,0,0,0,0-.36c-.07-.29-.48-.33-.71-.35a2.9,2.9,0,0,0-1.3.22,2.35,2.35,0,0,0-1.35,1.24,1.44,1.44,0,0,0-.07.55.87.87,0,0,0,.11.38.31.31,0,0,0,.19.21.63.63,0,0,0,.35.13,1.74,1.74,0,0,0,.51,0,2.82,2.82,0,0,0,.57-.09,2.44,2.44,0,0,0,1-.47l.19-.19a.45.45,0,0,0,.12-.38Z"/><path class="cls-3" d="M552.81,187.48c.4,0,.56-.51.07-.51s-.57.51-.07.51Z"/><path class="cls-3" d="M553.23,187.12c-.05,0,0,0,0,0l0,0-.06-.07,0,0s0,.05,0,0a.49.49,0,0,1,0-.11s0-.06,0-.09,0,.05,0,0v0s0,0,0-.08,0-.06,0,0l0,0,0,0s0,0,0,0l0,0h0l0,0s0,0,0,0-.22.06-.3,0,0,0,0,0h0s0,0,0,0v0s0,.06,0,.08a.81.81,0,0,1,0,.22,1.43,1.43,0,0,1,0,.22l0,.1c0,.07,0,0,0,0s0,0,0,.06a.11.11,0,0,1,0,.05s0-.05,0,0,0,0,0,0a.39.39,0,0,1,.28-.05h.09l0-.12a2.47,2.47,0,0,1-.11-.47,1.21,1.21,0,0,1,0-.42s0-.07,0-.1,0,0,0,0,0-.06,0,0h0l0,0,0,0a.28.28,0,0,1-.13,0h-.13s0,0,0,0h0a.28.28,0,0,1,0,.09.72.72,0,0,0,.05.21c0,.13.1.25.14.38s0,.05,0,.08h0v.05a.09.09,0,0,0,0,.05h0l0,0s0,0,0,0,0,0,0,0-.07,0,0,0,0,0,0,0h0l.06,0s0,0,0,0,0,0,0,0h0l-.07,0h0l0,0a.43.43,0,0,1,0-.07s0,0,0,0a.14.14,0,0,0,0-.06.27.27,0,0,1,0-.15s0-.07,0-.11,0,0,0,0,0,0,0,0l0-.11s.07-.08,0,0l.07-.08s0,0,0,0l0,0s0,0,0,0h0s0,0,0,0h-.07l0,0,0,0h0l0,0,.06.07h0l0,.05s0,0,0,.08v.06s0,.07,0,.11h0l0,.06-.06.1,0,0,0,0-.09.09-.19.19-.1.1,0,0,0,0c-.05,0,0,0,.07,0l.28,0h0l.15,0s0,0,0,0,0,0,0,0,0,0,0-.06a.31.31,0,0,1,0-.1s0-.08,0-.13l0-.07v0l-.7.07s0,.09,0,.06a.09.09,0,0,0,0,.05v0c0,.05,0,0,.06-.05a.38.38,0,0,1,.43,0h0v0s0-.06,0-.09v0a1,1,0,0,1,0-.17.19.19,0,0,0,0-.07l0-.05s0,0,0,0,0-.1.08-.14a.46.46,0,0,0,.13-.37.23.23,0,0,0-.15-.12.62.62,0,0,0-.27,0c-.13,0-.34.14-.31.31,0,0,0,0,0,0h0s0,0,0,0l-.06.1a.9.9,0,0,0-.12.24,1,1,0,0,0,0,.49.35.35,0,0,0,.15.25.57.57,0,0,0,.48,0,.49.49,0,0,0,.31-.25.47.47,0,0,0,0-.31c0-.13-.23-.14-.32-.13l-.19,0a.41.41,0,0,0-.19.15,1.08,1.08,0,0,0-.1.35.57.57,0,0,0,.06.36.36.36,0,0,0,.24.11.72.72,0,0,0,.45-.15c.1-.08.19-.18.29-.27.28-.28.68-.68.48-1.11a.56.56,0,0,0-.54-.34,1,1,0,0,0-.85.44.94.94,0,0,0-.18.67.67.67,0,0,0,.37.48c.47.21,1.29-.1,1.15-.71,0-.19-.15-.35-.18-.54s0-.1,0-.15a.27.27,0,0,0-.12-.17.65.65,0,0,0-.45-.07.67.67,0,0,0-.58.57,2.41,2.41,0,0,0,.07.71,1.8,1.8,0,0,0,.1.33.41.41,0,0,0,.27.3.74.74,0,0,0,.83-.44,1.42,1.42,0,0,0,.11-.73.45.45,0,0,0-.1-.28.53.53,0,0,0-.53-.11.94.94,0,0,0-.62.58.72.72,0,0,0,.07.62.84.84,0,0,0,.23.23.55.55,0,0,0,.25,0,.63.63,0,0,0,.27-.1c.12-.08.2-.22.05-.32Z"/></svg>
