<svg id="Layer_1" data-name="Layer 1" xmlns="http://www.w3.org/2000/svg" viewBox="0 0 700 500"><defs><style>.cls-1{fill:#fca838;}.cls-2{fill:#020202;}.cls-3{fill:#ac93cf;}.cls-4{fill:#fff;}</style></defs><path d="M344.52,199.32c-1.22-4.24,5.25-4.22,7.84-4.38,3.25-.2,6.52-.28,9.78-.26s6.64.15,9.95.39c2.43.18,8.31.13,7.52,4.06,0,.22.68.1.72-.11.77-3.86-4.59-4-7.05-4.23q-6.13-.48-12.31-.46a114.64,114.64,0,0,0-12.15.56c-2.34.25-5.9,1.57-5,4.62.06.2.78,0,.72-.19Z"/><path d="M415.69,172.12c-4.19.38-8.39.59-12.44,1.83a34,34,0,0,0-9.45,4.6A32.65,32.65,0,0,0,381,196.44a33.85,33.85,0,0,0,2.25,23.94c3.55,7.37,8.23,14.88,15.25,19.38A30.21,30.21,0,0,0,409.12,244a38.07,38.07,0,0,0,12.6-.08A86,86,0,0,0,435,241.15a28.88,28.88,0,0,0,10.12-5.69C457,225.41,465,208.75,459.42,193.33c-2.64-7.29-8.27-12.74-15.16-16.1-7.83-3.82-16.61-4.81-25.21-5.08-2.25-.07-4.5-.09-6.74-.11-.22,0-.79.33-.31.33,15.45.11,34.35,1.15,43.84,15.44a30.61,30.61,0,0,1,4.28,21.38,42.1,42.1,0,0,1-9.61,20.19,44.21,44.21,0,0,1-8.59,8.09c-3.81,2.64-8.11,3.9-12.6,4.8-8.4,1.68-16.92,3.1-25.13-.18C396.52,239,391.24,233,387.12,226A53.4,53.4,0,0,1,382,215.28a32.5,32.5,0,0,1,26.46-42.17c2.31-.32,4.64-.45,7-.67.22,0,.78-.37.31-.32Z"/><path d="M380.56,203.14a.63.63,0,0,0,0-1.25.63.63,0,0,0,0,1.25Z"/><path d="M380.7,202.74c.13-.23.47,0,.59.1a2,2,0,0,1,.44.69c.23.51.43,1,.64,1.56l1.28,3.17c.66,1.62,2.08,4.4.29,5.82-.94.75-1.83,0-2.28-.84a21.07,21.07,0,0,1-.83-2,15.72,15.72,0,0,0-1.37-2.34,9.44,9.44,0,0,1-1.1-2.87,4.55,4.55,0,0,1,.08-3.29c.33-.58.89-1,1.55-.66a1.22,1.22,0,0,1,.64,1.25c0,.06.69,0,.72-.2.15-1.09-1-1.65-2-1.45a2.5,2.5,0,0,0-2,2,7.92,7.92,0,0,0,.65,4.12c.49,1.3,1.46,2.31,2,3.58a8.75,8.75,0,0,0,1.3,2.74,2.11,2.11,0,0,0,2.43.42c2.89-1.17,1.29-4.64.47-6.65l-1-2.59a12.12,12.12,0,0,0-1-2.34,1.37,1.37,0,0,0-2.24,0c0,.06.6,0,.71-.14Z"/><path d="M262.11,190c1.67-6.89,6.48-12.47,12.44-16.13,7-4.3,15.28-5.64,23.41-5.21a78.7,78.7,0,0,1,13,1.9,82.91,82.91,0,0,1,12.67,3.62,33.13,33.13,0,0,1,10.71,7.35c2.88,2.78,6,5.73,7.57,9.48s1.66,8.24,1.27,12.32a45.43,45.43,0,0,1-3.05,12.31c-2.82,7.17-7.17,14.62-13.61,19.09-3.59,2.49-7.71,3.48-11.94,4.25a91.83,91.83,0,0,1-14,1.73,39.82,39.82,0,0,1-21.74-5.79,35.56,35.56,0,0,1-14.38-16.65c-3.05-7.29-3.79-15.35-3.38-23.18.11-2,.29-3.9.53-5.83,0-.37-.7-.28-.74.05-1,8.27-1,16.84,1.36,24.89A36.52,36.52,0,0,0,275,233.11a40.22,40.22,0,0,0,20.7,8,57.07,57.07,0,0,0,13.87-.75c4.41-.68,9-1.27,13.18-3,7.32-3,12.29-9.82,15.8-16.62,3.9-7.55,6.4-16.42,5.36-25a19.33,19.33,0,0,0-5.41-11.06,52.17,52.17,0,0,0-9.64-8.6c-3.67-2.37-7.86-3.61-12-4.73a103.38,103.38,0,0,0-13.72-2.83c-8.31-1.06-17-.7-24.77,2.71-6.4,2.82-12.2,7.61-15.28,14a24,24,0,0,0-1.69,4.77c-.09.35.65.27.73,0Z"/><path d="M343.58,202.75c1-.11,1.71.9,1.82,1.77a4.55,4.55,0,0,1-.92,2.83,36.22,36.22,0,0,1-3.91,5.07c-.33.36-.66.71-1,1.05l-.48.47c-.29.28-.71.66-1.15.61-.85-.09-1.2-1.43-1.26-2.1a7.31,7.31,0,0,1,2.4-5.5,67.9,67.9,0,0,1,5.45-4.71c.14-.12-.52-.05-.66.06a54.63,54.63,0,0,0-5.87,5.18c-1.38,1.57-2.72,4.09-1.8,6.21a1.7,1.7,0,0,0,1.78,1.16,4.24,4.24,0,0,0,2.32-1.52,39,39,0,0,0,4.72-5.84c.64-1,1.39-2.26,1-3.5a2,2,0,0,0-2.16-1.52c-.18,0-.78.33-.31.28Z"/><path d="M460.07,195.25c.22,0,.79-.32.31-.32-.21,0-.78.32-.31.32Z"/><path d="M461,194.94a1.07,1.07,0,0,1,1.57-.49,2.52,2.52,0,0,1,1.05,2.31,10,10,0,0,1-.51,3.22c-.24.73-1,2-1.9,1.2-.26-.22-.88.16-.56.44a1.85,1.85,0,0,0,2.43-.27,5.31,5.31,0,0,0,1.12-3c.27-1.62.34-4.32-1.82-4.63a1.84,1.84,0,0,0-2.08,1.09c-.12.41.6.42.7.09Z"/><path d="M464.23,200.59a24.42,24.42,0,0,0,4-2.48c.12-.09.08-.2-.06-.22a.71.71,0,0,0-.51.14,23.89,23.89,0,0,1-3.89,2.39c-.1.05-.21.17-.07.25a.71.71,0,0,0,.51-.08Z"/><path d="M464.75,195.63a5,5,0,0,1,2.42-.63,1,1,0,0,0,.52-.14c.1-.07.1-.17-.05-.17a6.9,6.9,0,0,0-3.32.83c-.07,0-.23.14-.08.2a.77.77,0,0,0,.51-.09Z"/><path d="M261.22,188.67a10.34,10.34,0,0,0-5.13,2.07c-.12.09-.09.17.05.2a.76.76,0,0,0,.51-.14A8.79,8.79,0,0,1,261.1,189c.1,0,.4-.08.42-.21s-.22-.11-.3-.1Z"/><path d="M259.89,195a7.93,7.93,0,0,1-3.07,0,.61.61,0,0,0-.52.14.15.15,0,0,0,.08.27,9.14,9.14,0,0,0,3.61,0c.12,0,.35-.14.31-.3s-.31-.12-.41-.09Z"/><path d="M256,190.13a12.11,12.11,0,0,0,.09,5.05c0,.15.77,0,.73-.2a11.62,11.62,0,0,1-.1-5c0-.16-.68-.05-.72.13Z"/><path d="M332.35,159a24.7,24.7,0,0,0,3.23,11.08c.18.3.86,0,.67-.33a24.06,24.06,0,0,1-3.16-10.8c0-.39-.75-.3-.74.05Z"/><path d="M328.43,159.8a15.31,15.31,0,0,0,4.92,7.79c.23.2.87-.15.56-.41a14.92,14.92,0,0,1-4.76-7.57c-.08-.33-.81-.13-.72.19Z"/><path d="M276.49,162.56c9.14-4.75,19.49-1.32,28.67,1.41a117,117,0,0,0,29.07,4.85c.34,0,.75-.48.26-.5a112.43,112.43,0,0,1-24.61-3.61c-7.39-1.94-14.69-4.93-22.44-5a23.47,23.47,0,0,0-11.26,2.47c-.44.22-.05.58.31.4Z"/><path d="M278.71,156.44c6-5.72,14.47-3.18,21.64-1.63A185.12,185.12,0,0,0,327,158.52c.16,0,.82-.27.47-.3a201,201,0,0,1-29.69-4.4c-6.74-1.49-14.23-2.51-19.7,2.67-.15.14.53.07.66-.05Z"/><path d="M330.5,158.81a18.86,18.86,0,0,0,4.64,9.23c.14.15.82-.1.68-.26a18.7,18.7,0,0,1-4.6-9.16c0-.2-.76,0-.72.19Z"/><path d="M389.89,163.15a23.91,23.91,0,0,1,.18,9.08c0,.06.68,0,.72-.19a24.12,24.12,0,0,0-.17-9.08c0-.14-.76,0-.73.19Z"/><path d="M391.5,172.69a5.4,5.4,0,0,1,2-1.24,9.08,9.08,0,0,1,2.59-.34c1.28-.07,2.57-.2,3.84-.38a70.23,70.23,0,0,0,7.86-1.62c5.67-1.49,11.19-3.46,16.78-5.19.42-.13.35-.42-.08-.29-6,1.86-12,4-18.11,5.52a55.78,55.78,0,0,1-9.33,1.57,18.32,18.32,0,0,0-3.56.22,7.1,7.1,0,0,0-2.53,1.68c-.3.25.42.19.57.07Z"/><path d="M392.77,163.68c9.56-2.59,19.28-6.53,29.35-4.66.36.07.74-.42.26-.51-10.2-1.9-20.06,2.06-29.75,4.69-.44.12-.31.6.14.48Z"/><path d="M387.63,164.32a11.62,11.62,0,0,1,1.16,5.44c0,.38.73.28.74,0a12,12,0,0,0-1.18-5.59c-.15-.32-.87-.11-.72.2Z"/><path d="M392.55,164.48a11.16,11.16,0,0,0-.37,6.06c.06.29.78.1.72-.19a11,11,0,0,1,.38-5.95c.1-.28-.63-.19-.73.08Z"/><path d="M249.37,226.09a30.9,30.9,0,0,1,4.57,8.11c1.09,2.89,1.79,6,2.59,8.94,1.68,6.24,3.21,12.51,4.7,18.78,2.89,12.21,5.62,24.45,9,36.53,2,7,4.19,14,6.74,20.82.21.55,2.35-.11,2.17-.59-9-24.17-13.44-49.63-20-74.49-.91-3.45-1.71-7-2.95-10.37a31.61,31.61,0,0,0-4.78-8.49c-.33-.43-2.4.29-2,.76Z"/><path d="M456.88,221.66l-10.21,42.56c-1.64,6.85-3.42,13.68-4.78,20.59s-1.46,14-3.73,20.62c-2.14,6.3-5.87,11.89-9.54,17.38-3.37,5-6.78,10-10.5,14.75a98.14,98.14,0,0,1-12.62,13.63,69.24,69.24,0,0,1-16.45,10.6c-3.37,1.59-6.82,3-10.26,4.41a105.37,105.37,0,0,1-11,4,36.29,36.29,0,0,1-11.05,1.62c-4-.13-7.54-1.62-11.36-2.69-.7-.2-2.55.85-1.33,1.19,3.39.95,6.53,2.29,10.07,2.63a33.68,33.68,0,0,0,10-.67c6.74-1.36,13.15-4.15,19.47-6.8a92.83,92.83,0,0,0,18-9.42,81.3,81.3,0,0,0,13.54-12.34,160.29,160.29,0,0,0,11.69-15.15,157.87,157.87,0,0,0,10.69-16.76A44.53,44.53,0,0,0,441,303a78,78,0,0,0,1.85-10.86,203.81,203.81,0,0,1,4.38-21.45l11.83-49.33c.19-.81-2-.48-2.17.27Z"/><path d="M282.45,327c6.06,8.11,12.66,15.93,20.6,22.26,8.18,6.52,17.69,11.08,27.23,15.24,5.57,2.42,11.19,4.72,16.73,7.21a1.65,1.65,0,0,0,1.55-.18c.27-.2.66-.72.16-.95-9.66-4.32-19.58-8.09-29-13a93.5,93.5,0,0,1-13.3-8.19,87.37,87.37,0,0,1-11.14-10.18,154.8,154.8,0,0,1-10.83-13.14c-.49-.66-2.58.12-2,.89Z"/><path d="M369.44,212.24a103.29,103.29,0,0,0,.07,14.4c.46,4.74,1.89,9.22,3,13.83,1,4.07,1.55,8.26.46,12.36-1,3.69-3.27,7.2-7,8.51-.43.15-.32.6.12.45,5.3-1.86,7.91-7.43,8.21-12.75.43-7.62-3.25-14.86-4-22.36a100.39,100.39,0,0,1-.07-14.51c0-.35-.72-.23-.74.07Z"/><path d="M337.79,243.13a23.28,23.28,0,0,0-4.91,20.07c.8,3.48,2.45,7.19,5.49,9.25a7.72,7.72,0,0,0,8.3.33c.3-.18-.42-.1-.55,0-3.81,2.3-8.09-.59-10.14-3.83a20.12,20.12,0,0,1-2.81-8.53,23.14,23.14,0,0,1,5.28-17.33c.14-.16-.54-.07-.66.06Z"/><path d="M374.33,271.46A15.39,15.39,0,0,0,389,259.39a16.68,16.68,0,0,0-1.91-11.21c-1.67-3.19-3.81-6.42-7.14-8-.22-.11-.88.22-.57.37,3.12,1.52,5.17,4.5,6.78,7.48a17.18,17.18,0,0,1,2.36,9.91A14.59,14.59,0,0,1,374.61,271c-.29,0-.76.45-.28.43Z"/><path d="M341.88,263.83c.31-1.7,2.2-2.28,3.71-2.3a2.71,2.71,0,0,1,2.46.93,1.58,1.58,0,0,1,.19,1c0,.26-.18.67-.48.74-.08,0-.36.11-.33.23s.33.06.4,0a1.41,1.41,0,0,0,1.15-1.39,1.75,1.75,0,0,0-1.26-1.67,5.44,5.44,0,0,0-2.63-.19,6.33,6.33,0,0,0-2.39.73,2.9,2.9,0,0,0-1.54,2c0,.2.68.08.72-.12Z"/><path d="M370.37,263.62c1.58-1.67,4.17-2.53,6.1-.89a3,3,0,0,1,1.1,2.67,2.55,2.55,0,0,1-1.59,2.14c-.43.14-.33.57.11.43a3.23,3.23,0,0,0,2-4.33,4.4,4.4,0,0,0-5.1-2.11,6.68,6.68,0,0,0-3.18,1.93c-.3.32.4.37.59.16Z"/><path d="M345.27,186.1c8.1,12.62,4.32,28.46-2.95,40.47a101.4,101.4,0,0,1-7.6,10.69c-.17.22.53.14.66,0,9-11.29,17.1-25,14.8-40.08A28.8,28.8,0,0,0,346,185.91c-.13-.21-.81.06-.72.19Z"/><path d="M373.34,187.45c-3.87,8.07-2.74,17.46.38,25.58,3.41,8.86,9,16.63,13.4,25,.15.29.84,0,.66-.33-4.27-8.22-9.76-15.83-13.18-24.48-3.21-8.13-4.46-17.58-.56-25.7.18-.38-.56-.39-.7-.09Z"/><path d="M313.52,283.38a16.69,16.69,0,0,0-6.58,16c.06.35.79.16.73-.2A16.11,16.11,0,0,1,314,283.73c.39-.29-.19-.57-.49-.35Z"/><path d="M319.71,297.69c4.89,2.28,10.19,3.31,15.44,4.38,5.7,1.17,11.4,2.48,17.15,3.37a49.33,49.33,0,0,0,16.22,0,30.07,30.07,0,0,1,9.08-.44c2.73.34,5.44,1,8.21,1.05,4.05.14,8.6-1.08,10.73-4.82.2-.35-.53-.35-.69-.08-2.34,4.1-7.56,4.7-11.81,4.23-2.61-.29-5.18-.87-7.8-1.07a28.27,28.27,0,0,0-7.05.51,50.08,50.08,0,0,1-16.39.12c-5.28-.8-10.5-2-15.73-3.06-5.75-1.17-11.59-2.19-16.94-4.68-.3-.14-.84.29-.42.48Z"/><path d="M321,296.88a45.85,45.85,0,0,0,7.93.55,20.25,20.25,0,0,0,7-1.65c2.59-1.07,5.09-2.36,7.91-2.73a16.18,16.18,0,0,1,8.5,1.18c2.12.92,4,2.43,6.4,2.66,2,.2,4-.61,5.84-1.36a14.31,14.31,0,0,1,3.71-1.12,9.42,9.42,0,0,1,4.68.82c2.35,1,4.45,2.43,6.74,3.52a33.17,33.17,0,0,0,16.59,3.11c.36,0,.6-.44.09-.4a32.47,32.47,0,0,1-16.31-3.16c-3.89-1.9-7.75-5.09-12.36-4.2-2.31.45-4.34,1.74-6.63,2.24-3,.64-5.23-1.1-7.78-2.29a17.31,17.31,0,0,0-13.09-.49c-2.94,1.05-5.68,2.69-8.79,3.22a33.69,33.69,0,0,1-10-.3c-.23,0-.85.35-.44.4Z"/><path d="M394,303.94A39.79,39.79,0,0,1,367.66,321a39,39,0,0,1-16.39-.49c-6.2-1.57-11.66-4.95-16.85-8.57-5.55-3.88-12.24-8-14.4-14.82-.1-.34-.83-.14-.72.2,1.93,6.1,7.38,9.94,12.35,13.48,5.55,4,11.29,7.9,17.89,9.85a41.35,41.35,0,0,0,31.56-3.92,38.46,38.46,0,0,0,13.55-12.61c.25-.39-.43-.52-.61-.22Z"/><path d="M350.23,330.64c5.44,2.28,11.91,4.15,17.43,1.12.43-.23-.19-.4-.46-.26-5.14,2.82-11.37.87-16.4-1.24-.24-.1-.89.24-.57.38Z"/><path d="M403.47,287.36a13.81,13.81,0,0,1,5.39,15.19c-.09.29.64.19.73-.08A14.08,14.08,0,0,0,404,287c-.23-.15-.89.17-.57.38Z"/><path d="M324.19,258.3a63.82,63.82,0,0,1-9.12,19.61c-.21.3.52.27.68,0a64.59,64.59,0,0,0,9.17-19.73c.08-.3-.65-.21-.73.07Z"/><path d="M391.29,258.4a38,38,0,0,0,8.55,17.66c.13.15.81-.11.68-.25a37.87,37.87,0,0,1-8.51-17.6c0-.17-.76,0-.72.19Z"/><path d="M293,405.38c10,12.36,24.76,19.35,40.22,21.93,16.54,2.75,34.1,1.8,50-3.63a109.18,109.18,0,0,0,24.63-12.27c.4-.26.21-.45-.14-.54a2.3,2.3,0,0,0-1.54.41c-13.37,8.81-28.51,14.86-44.56,16.11s-33.21-.28-47.75-7.68A57.85,57.85,0,0,1,295,404.62c-.36-.44-2.42.29-2,.76Z"/><path class="cls-1" d="M359.16,107.57c14.29,5.09,21.27,19.27,26.7,32.39,1.54,3.73,2.83,10.54,6.75,12.63,2.16,1.15,5.28,1.08,7.64,1.37l11.59,1.43c1.55.19,2.15-1.7,1.62-2.83Q401.37,127,387.88,102.12c-3.34-6.14-6.49-13.63-12.66-17.51-6.64-4.17-15-2.79-22-6.07a1.9,1.9,0,0,0-2.75,2.11,110,110,0,0,0,7.23,25.21c.65,1.56,3.12,2,3.61,0,1.21-4.85,4.43-25.7-4.73-25a1.93,1.93,0,0,0-1.81,1.38,14.39,14.39,0,0,0,1,11l3.24-1.89c-2.47-4.68,5.77-2.76,7.73-1.14a36.41,36.41,0,0,1,3.4,3.29,75.7,75.7,0,0,1,6.73,8.12,126.73,126.73,0,0,1,9.42,15.6c5.84,11.15,10.73,22.77,17,33.71,1.2,2.11,4.33.25,3.24-1.89q-16.2-31.71-35.09-61.9l-2.94,2.27c7.85,6.48,12,15.61,15.48,25,1.83,5,3.57,10,5.36,14.93L392,136.7c.91,2.55,3.83,7.82,1.88,10.47l2.94-.38c-4.13-3.88-4.75-10-6.74-15.07a63.43,63.43,0,0,0-6.56-12.54,65.81,65.81,0,0,0-20.43-19.33l-1.45,3.42a39.79,39.79,0,0,1,16.74,11.92c1.41,1.68,3.92-.46,2.94-2.27a62.09,62.09,0,0,0-18.55-21c-1.73-1.24-3.86,1.53-2.28,2.94a107.94,107.94,0,0,1,20.63,24.7,1.88,1.88,0,0,0,3.42-1.45,41.07,41.07,0,0,0-21.71-28.56c-1-.49-2.57-.15-2.76,1.12-.67,4.47.9,8.14,4.06,11.32,4.35,4.38,9.53,7.47,13.51,12.33,8.49,10.37,14,23.23,20.14,35.05,1,2,3.77.53,3.43-1.44a101,101,0,0,0-11.45-32c-1.18-2.11-4.4-.22-3.23,1.89A203.79,203.79,0,0,1,399,144.82c.56,1.51,3.33,2,3.62,0,1.23-8.81-5-17.47-9.46-24.59A147.6,147.6,0,0,0,375,97.11c-1.67-1.75-4.32.9-2.65,2.65A142.58,142.58,0,0,1,388,119.27c4.28,6.42,12.06,16.52,10.94,24.55h3.62a211.4,211.4,0,0,0-12.82-28l-3.23,1.89a98.15,98.15,0,0,1,11.06,31.14l3.43-1.44c-5.26-10.12-10.1-20.66-16.5-30.13a63.2,63.2,0,0,0-9.29-11.09c-4.27-3.93-12.58-7.68-11.54-14.59L361,92.75a37.54,37.54,0,0,1,20,26.32l3.42-1.45a111.37,111.37,0,0,0-21.2-25.45l-2.28,3a57.78,57.78,0,0,1,17.21,19.69l2.95-2.27a43.36,43.36,0,0,0-18.39-12.88c-2-.76-3.21,2.36-1.44,3.43a61.57,61.57,0,0,1,21.5,21.85,65,65,0,0,1,5.69,13.49c1.27,4.14,2.56,8,5.78,11a1.92,1.92,0,0,0,2.95-.38c3-4,0-9.27-1.51-13.36-2.49-7-4.95-13.94-7.48-20.89-3.8-10.43-8.23-20.87-17-28.11-1.54-1.28-4.15.34-2.94,2.27q18.87,30.18,35.08,61.9l3.24-1.89c-9.22-16.19-15.45-34.12-26.39-49.31-3.94-5.48-9.74-14.15-16.86-15.53-5.23-1-10.1,4.08-7.48,9,1.14,2.15,4.3.26,3.24-1.89a10.28,10.28,0,0,1-.64-8.11l-1.8,1.38c4.34-.31,1.57,18.48,1.12,20.3h3.61a111.07,111.07,0,0,1-7.23-25.2l-2.75,2.11c6.56,3.09,14.22,2.13,20.64,5.34,7.22,3.59,10.86,13.59,14.46,20.27Q399,130.6,410.22,154.46l1.62-2.82-10.69-1.32c-1.54-.19-5-.19-6.26-.82-2-1-2.57-3.6-3.36-5.49-2.5-6-4.82-12.1-7.88-17.85-5.24-9.84-12.78-18.39-23.5-22.21-2.27-.81-3.25,2.81-1,3.62Z"/><path d="M199.42,374.58A189.63,189.63,0,0,1,158.58,389c-14.19,3.28-28.88,4.46-42.81,8.87a90.54,90.54,0,0,0-32.5,18.79c-8.91,7.86-16.54,17-24.07,26.17l-33.65,41c-.51.63,1.61.4,2-.07l29.57-36c7.86-9.59,15.61-19.35,24.61-27.92s19.66-15.92,31.58-20.19c13.63-4.88,28.26-6.05,42.34-9.07A195.41,195.41,0,0,0,200.72,375c.36-.17.56-.42.23-.69s-1.22.1-1.53.24Z"/><path d="M515,374.36a158,158,0,0,0,36.08,14.53c12.88,3.43,26.41,4.59,39,9.25,22.16,8.23,36.35,27.61,49.69,46.06l28.37,39.22c.35.49,2.3-.41,2.17-.59l-25.31-35c-6.87-9.5-13.6-19.18-21.47-27.89-7.63-8.44-16.48-15.89-26.88-20.66-12-5.49-25.23-6.88-38-9.78A157.12,157.12,0,0,1,517,373.64c-.53-.29-2.25.61-2.06.72Z"/><path d="M334.84,68.38c12.6-7.33,28.27.32,37.53,9.67,5.63,5.7,9.84,12.68,14.1,19.42,4.58,7.26,9.29,14.44,13.81,21.74a199.3,199.3,0,0,1,11.56,21.93c3.38,7.37,6.64,14.81,10.62,21.87,7.75,13.78,18.1,26.1,29.55,37a231.77,231.77,0,0,0,38.45,29.11q2.63,1.62,5.29,3.16c.55.32,2.36-.56,2-.75a241.26,241.26,0,0,1-40.45-29.23c-12.19-11-23.21-23.63-31.57-37.83A243,243,0,0,1,414.67,142,202.48,202.48,0,0,0,403,119.45c-4.63-7.52-9.49-14.9-14.2-22.37-4.3-6.81-8.55-13.87-14.23-19.65C365.29,68,351,61.49,337.91,66.06a28.1,28.1,0,0,0-4.75,2.22c-.41.24-.2.43.14.51a2.58,2.58,0,0,0,1.54-.41Z"/><path d="M336.88,62.28c-2.78,6.66-8.7,11.1-15.48,13.19-6.45,2-13.7,2.65-19.12,7-1.14.93.61,1.63,1.44,1,5.66-4.61,13.55-4.85,20.19-7.28S336.23,69,339,62.5c.47-1.13-1.71-1.09-2.08-.22Z"/><path d="M301.92,82.16c-11,29.7-22.61,59.45-26.16,91.15-.89,7.94-1.51,15.92-2.88,23.79a115.58,115.58,0,0,1-5.17,19.78c-4.69,13-12.17,25.08-22.84,34-11.66,9.71-26.75,15.61-42,14.53a2.14,2.14,0,0,0-1.54.41c-.26.27-.33.61.17.64,13.51,1,27-3.05,38.3-10.35,11.7-7.54,20.62-18.49,26.57-31,6.47-13.59,9.09-28.26,10.65-43.11.85-8.16,1.7-16.3,3.22-24.37s3.49-15.95,5.78-23.79c4.56-15.62,10.29-30.86,15.94-46.11l2.16-5.83c.21-.58-1.92-.33-2.16.32Z"/><path d="M327.54,33.43c-8.33,4-17.84,3.76-26.76,5.36a45.82,45.82,0,0,0-22.26,10.65c-14.14,12.28-19.88,30.37-28.33,46.47-4.4,8.36-9.71,16.19-14.3,24.44a90.13,90.13,0,0,0-9.85,26.1c-1.9,9.35-2.79,18.91-5.4,28.12a70.37,70.37,0,0,1-5.4,13.3,99.63,99.63,0,0,0-6,12.53c-3.39,9.62-1.41,19.62-1.45,29.54a56.17,56.17,0,0,1-6.93,26.79,61.08,61.08,0,0,1-3.73,5.9c-.18.26,0,.52.18.69a10,10,0,0,0,8.78,1.7c1.33-.35,1-1.7-.37-1.35a7.58,7.58,0,0,1-6.72-1.54l.19.68a58,58,0,0,0,10.2-25c1.46-9.8-.76-19.61.22-29.43a40.14,40.14,0,0,1,4.14-13.55c2-4.18,4.41-8.19,6.24-12.47,3.71-8.67,5.11-18.05,6.62-27.29s3.44-18.5,7.48-27.13c4-8.47,9.13-16.29,13.88-24.32,4.9-8.3,8.8-17.05,12.94-25.73,3.89-8.13,8.21-16.12,14.25-22.87,5.59-6.24,12.55-11.35,20.67-13.68,8.63-2.48,17.79-2.1,26.44-4.48a36.26,36.26,0,0,0,6.14-2.29c1.35-.64.14-1.66-.92-1.14Z"/><path d="M197.12,263.35A13,13,0,0,0,208,265.84c.44-.1.35-.41-.08-.32a12.25,12.25,0,0,1-10.12-2.44c-.18-.14-.85.14-.68.27Z"/><path d="M492.54,232.39a22.18,22.18,0,0,1-10.56-2.8,2,2,0,0,0-1.4.12c-.11,0-1,.44-.65.63a23.6,23.6,0,0,0,11.2,2.94,2.76,2.76,0,0,0,1.54-.41c.32-.22.32-.47-.13-.48Z"/><path d="M328,34.55a114.64,114.64,0,0,1,59.1,5A119.49,119.49,0,0,1,413.61,53a135.77,135.77,0,0,1,22.09,19.1,146.2,146.2,0,0,1,30.19,46.48,128.21,128.21,0,0,1,7.29,25.92,124.82,124.82,0,0,1,1.54,13.64c.13,2.28,0,4.64.19,6.91a33.8,33.8,0,0,0,.74,3.43c.28,1.34.56,2.69.85,4,2.13,10,4.66,20,9.62,29,1.34,2.44,2.94,4.71,4.27,7.16a46,46,0,0,0,4.54,6.85c3.36,4.16,7.17,7.94,10.39,12.21.41.54.72.49.22.88a5.74,5.74,0,0,1-1.13.58c-.86.41-1.71.79-2.53,1.28a.61.61,0,0,0-.14,1c.42.34,1.17.08,1.55-.16,1.39-.82,3.66-1.24,4.58-2.69.51-.81-.18-1.37-.68-2-.92-1.19-1.88-2.36-2.86-3.5-3.57-4.16-7.65-8.09-10.5-12.81-1.46-2.42-2.86-4.89-4.32-7.31a68,68,0,0,1-3.89-7.48,94,94,0,0,1-5-15.09c-1.27-5.07-2.41-10.22-3.38-15.36-.44-2.29-.19-4.83-.32-7.17s-.31-4.58-.56-6.86a126.29,126.29,0,0,0-6.05-27,144.2,144.2,0,0,0-28.57-48.5,147.1,147.1,0,0,0-21.2-20,121.14,121.14,0,0,0-26.15-15,117.92,117.92,0,0,0-59.3-8.48c-2.49.3-4.95.69-7.41,1.14-.4.07-1,.49-.91,1s.88.46,1.27.38Z"/><path class="cls-2" d="M414,344.76h-.78a.88.88,0,0,0-.28.06.41.41,0,0,0-.2.12s-.05.08,0,.11a.31.31,0,0,0,.19,0h.78a.88.88,0,0,0,.28-.06.41.41,0,0,0,.2-.12s.05-.08,0-.11a.31.31,0,0,0-.19,0Z"/><path class="cls-2" d="M412.58,345c-.48,2.84-1.49,5.57-1.82,8.44a28.31,28.31,0,0,0,.79,8.69c1.15,5.72,3,11.25,4.37,16.92,1.29,5.42,2.18,11.15.88,16.65a21.63,21.63,0,0,1-3.71,8c-1.67,2.25-3.79,4.15-5.55,6.33-6.25,7.76-12.5,19-8.62,29.19a17.79,17.79,0,0,0,1.63,3.23c.3.46.61.91.94,1.34a5.78,5.78,0,0,0,2.18,1.51,60.9,60.9,0,0,0,8.08,3.41,78,78,0,0,0,17.9,3.63,132.46,132.46,0,0,0,18.15.3,153.93,153.93,0,0,0,18.69-1.8c13.13-2.23,26.39-4.18,39-8.48a77.06,77.06,0,0,0,15.92-7.19,26.13,26.13,0,0,0,9.78-10c2.62-5.13,2.82-11.12,1.49-16.64a65,65,0,0,0-2.85-8.48c-1.07-2.73-2-5.53-3.14-8.24-5.2-12.56-11.44-24.65-17.56-36.77-3-5.92-6-11.86-8.75-17.89a77.68,77.68,0,0,1-3.86-9.24c-1-3.13-2.17-6.19-3.24-9.29a59.26,59.26,0,0,1-2.45-9.07c-.1-.54-2.29,0-2.18.59,1.13,6.35,3.77,12.23,5.69,18.35a74.76,74.76,0,0,0,3.68,8.83q2,4.35,4.12,8.65c5.73,11.71,11.87,23.21,17.36,35,1.41,3.05,2.79,6.12,4.1,9.21,1.19,2.81,2.18,5.68,3.3,8.51,2.09,5.28,4.31,10.66,4.43,16.42a21.26,21.26,0,0,1-5.23,14.64c-3.38,3.78-7.91,6.29-12.46,8.39-11.86,5.48-24.84,8-37.65,10.16-6.34,1.08-12.63,2.21-19,2.74a174.51,174.51,0,0,1-18.29.68,93.53,93.53,0,0,1-17.89-2,67.13,67.13,0,0,1-8.47-2.43c-1.38-.5-2.75-1.05-4.09-1.65s-3.28-1.23-4.34-2.26c-1.83-1.76-3-4.76-3.51-7.18a20,20,0,0,1-.16-7.56,37.75,37.75,0,0,1,6.3-14.74,62.06,62.06,0,0,1,5-6.37,40.6,40.6,0,0,0,5-6.2c2.76-4.68,3.43-10.11,2.9-15.44-.56-5.54-2.21-10.89-3.68-16.23-.75-2.71-1.48-5.42-2-8.17a27,27,0,0,1-.75-8.86c.36-2.72,1.31-5.33,1.76-8,.11-.62-2.05-.24-2.15.35Z"/><path class="cls-2" d="M202.62,266.19c-3.57,15-7.18,30.16-8.5,45.61a122.84,122.84,0,0,0,.09,23.17c.41,3.91,1,7.78,1.39,11.7s.53,7.79.64,11.68c.41,15.5-.62,31,.41,46.5a56.55,56.55,0,0,0,1.65,10.26c.84,3.29,1.77,6.55,2.31,9.9a26.94,26.94,0,0,1-.23,10.66c-.81,3.41-1.8,6.78-2.54,10.21a38.82,38.82,0,0,0-1.05,10,23.16,23.16,0,0,0,2.76,9.77,20,20,0,0,0,6,6.7,23.73,23.73,0,0,0,8.31,3.82c12.74,3.32,26.49,4.32,38.83-1.05a20,20,0,0,0,7-4.45,25.6,25.6,0,0,0,3.84-5.85c2.24-4.43,4-9.41,7.69-12.87,2.28-2.12,5.17-2.77,8.09-3.67a51.7,51.7,0,0,0,9.23-3.5,14.84,14.84,0,0,0,3-2.26,23,23,0,0,0,3.31-3.38c1.83-2.45,2.36-5.72,2.5-8.71.34-7.18-.85-14.31-1.55-21.43-.73-7.52-1.27-15.06-1.84-22.59-1.12-14.93-2.34-29.92-5.5-44.58q-1.17-5.44-2.73-10.8c-.15-.52-2.32.08-2.17.58C291.78,360,291,389.86,294.61,419a85.94,85.94,0,0,1,.55,9.9c0,3.22-.2,6.77-1.83,9.64a14.33,14.33,0,0,1-3,3.45,16.6,16.6,0,0,1-3.83,2.9,64.69,64.69,0,0,1-9.39,3.34c-2.65.83-5.15,1.6-7.31,3.4a20.51,20.51,0,0,0-4.4,5.49c-2.44,4.2-3.89,9-6.94,12.86a16.64,16.64,0,0,1-6.63,4.7,38.89,38.89,0,0,1-9.74,2.84,58.57,58.57,0,0,1-20-.71c-1.56-.29-3.11-.63-4.64-1a30.62,30.62,0,0,1-5.1-1.44,24.14,24.14,0,0,1-7.44-5c-4.78-4.78-6.44-11.7-5.8-18.29a66,66,0,0,1,2-10.22c.83-3.22,2-6.52,2.09-9.87.28-6.6-2-12.85-3.42-19.21a63.86,63.86,0,0,1-1.17-10.87c-.19-3.73-.26-7.46-.28-11.19,0-7.57.15-15.13.16-22.69a226,226,0,0,0-.92-22.83c-.37-3.74-1-7.45-1.35-11.19s-.48-7.57-.45-11.36c.15-15.22,3.07-30.24,6.46-45,.82-3.59,1.67-7.17,2.52-10.75.11-.5-2-.19-2.15.38Z"/><path class="cls-2" d="M276.07,317.74a30,30,0,0,0,6.78,9.54,1.33,1.33,0,0,0,1.47.12c.29-.13.93-.67.53-1a29.25,29.25,0,0,1-6.61-9.2,1,1,0,0,0-1.27-.39c-.32.08-1.12.5-.9,1Z"/><path class="cls-2" d="M285.29,333.05a31.21,31.21,0,0,0-3.23-8.66c-.1-.19-.79.07-.72.19a32,32,0,0,1,3.23,8.66c0,.18.76,0,.72-.19Z"/><path class="cls-2" d="M502.58,229.91a6.23,6.23,0,0,1-1.57,1,3.65,3.65,0,0,1-1.37.35,6.88,6.88,0,0,1-3.78-.76,2.07,2.07,0,0,0-1.4.15c-.09,0-1,.41-.66.57a10.14,10.14,0,0,0,10.73-1.54c.36-.32-.32-.31-.5-.3a2.79,2.79,0,0,0-1.45.51Z"/><path class="cls-2" d="M487.79,300.74a73,73,0,0,0-1.71-8c-.65-2.5-1.49-5-1.89-7.6a24,24,0,0,1-.06-3.89c0-1.47.05-2.94.08-4.4q.1-4,.23-8c.31-11.05.59-22.17-.81-33.16a84.71,84.71,0,0,0-4.24-18.06c-.24-.66-2.39,0-2.18.58,7.6,20.93,4.88,43.6,4.73,65.38,0,3,1,6,1.74,8.88a79.09,79.09,0,0,1,1.94,8.89c.08.6,2.27.13,2.17-.58Z"/><path class="cls-2" d="M491.68,233.45A8.05,8.05,0,0,0,498.1,231a.28.28,0,0,0,0-.4.82.82,0,0,0-.57-.15,2,2,0,0,0-1.44.57s-.23.22-.12.12l-.22.2a5.32,5.32,0,0,1-.47.36l-.11.07-.26.15-.13.07,0,0a1.28,1.28,0,0,1-.27.11,2.74,2.74,0,0,0-.28.11c.17-.06.19-.06.07,0l-.14,0-.29.07.08,0-.15,0-.29,0h-.15c.15,0,.17,0,0,0h-.3s-.36,0-.13,0a2.15,2.15,0,0,0-1.53.42c-.12.1-.28.24-.23.42s.26.24.41.25Z"/><path class="cls-2" d="M487.51,299.62a4.08,4.08,0,0,0-1.84.46,1.22,1.22,0,0,0-.5.4c-.1.22.05.43.13.66.43,1.16.85,2.34,1.25,3.51q1.2,3.48,2.22,7c.13.44,2.3-.16,2.18-.58-.55-1.86-1.12-3.71-1.73-5.55q-.45-1.36-.93-2.7-.23-.68-.48-1.35c-.07-.2-.15-.41-.22-.62-.2-.55-.09-.72-.85-.52l-.79.11h.13a3.17,3.17,0,0,0,1.54-.41c.31-.2.34-.44-.11-.42Z"/><path class="cls-1" d="M362.27,105.44l6.69,3.44c1.79.92,4-1.49,2.27-2.95-5.91-5-12.22-10.67-11.25-19.19l-3.2,1.33a23.3,23.3,0,0,1,3.48,5c1,1.83,4.15.58,3.43-1.45l-1.4-3.92-3.14,1.82,5,4.78a1.89,1.89,0,0,0,3.14-1.83l-1.14-4.23-2.76,2.11a16.2,16.2,0,0,1,5.09,3.92c1.39,1.58,4.2-.53,2.95-2.27l-2.49-3.45L366,90.81l4.89,6c1.42,1.75,3.82-.48,2.95-2.27a62.35,62.35,0,0,0-5.38-9l-2.57,2.57a19.6,19.6,0,0,1,9.33,9.3l3.24-1.89-3.83-6.25-2.57,2.56a24,24,0,0,1,6.63,6.5l2.95-2.27-8.21-8.81-2.65,2.66a84.08,84.08,0,0,1,19.17,33.35l3.43-1.45a36.64,36.64,0,0,0-9.81-9.54c-1.58-1-3.51,1-2.56,2.57a106.13,106.13,0,0,1,13,32.59l3.13-1.82-1-1.62L393,145.82c.87,1,2.31,3.8,4.07,2.74l2.27.3-.32-.31-.83,3.14a9.48,9.48,0,0,1,7.62.61,1.89,1.89,0,0,0,2.56-2.57,82.5,82.5,0,0,0-6-10.52l-2.95,2.27a16.49,16.49,0,0,1,3.7,5.66c.87,2.22,4.5,1.25,3.62-1a21.17,21.17,0,0,0-4.66-7.31c-1.45-1.49-4.16.48-3,2.27a80.77,80.77,0,0,1,6,10.53l2.57-2.57a12.82,12.82,0,0,0-10.51-1,1.89,1.89,0,0,0-.82,3.13l.32.31a1.92,1.92,0,0,0,2.27.29l.47-.28a1.84,1.84,0,0,0,.93-1.62c-.34-2.74-3-4.73-4.71-6.73a1.89,1.89,0,0,0-3.13,1.83,6.41,6.41,0,0,0,2,3.27,1.89,1.89,0,0,0,3.13-1.82A109,109,0,0,0,384.24,113l-2.57,2.56a31.43,31.43,0,0,1,8.46,8.2c1.16,1.64,4.08.71,3.42-1.45a88.55,88.55,0,0,0-20.13-35c-1.65-1.76-4.29.89-2.65,2.66l8.2,8.8c1.43,1.53,4.18-.5,2.95-2.27a29.22,29.22,0,0,0-8-7.85c-1.58-1-3.52,1-2.56,2.57l3.83,6.25c1.27,2.08,4.3.26,3.24-1.89a22.93,22.93,0,0,0-10.68-10.65c-1.51-.75-3.75.91-2.56,2.57a61.72,61.72,0,0,1,5.38,9l3-2.27-4.89-6c-1.33-1.64-4.19.54-2.95,2.27l2.49,3.46,2.94-2.28a18.73,18.73,0,0,0-5.85-4.51,1.9,1.9,0,0,0-2.75,2.12l1.14,4.24,3.14-1.83-5-4.77c-1.27-1.22-3.79,0-3.13,1.82l1.4,3.93,3.43-1.45a29.33,29.33,0,0,0-4.07-5.75c-1.2-1.33-3-.14-3.2,1.33-1.08,9.48,5.7,16.19,12.35,21.85l2.27-3-6.69-3.44c-2.14-1.1-4,2.13-1.89,3.24Z"/><path class="cls-3" d="M272.34,245.68c10.4,9.24,22.86,19.09,37.64,14.59l-2.12-2.75c-6.07,11.9-13.39,23.87-15.81,37.18l2.76-1.12c-8.05-4.53-11.5-13.31-14.67-21.5A279.47,279.47,0,0,1,270.22,243l-2.76,2.12A26.11,26.11,0,0,1,279,261.18l3.43-1.45a68.77,68.77,0,0,0-13.77-18.62l-1.82,3.13c9.26,3.49,9.42,17.76,12,25.86,2.05,6.5,4.48,16.84,10.12,21.2a1.91,1.91,0,0,0,2.94-.38c2.15-3.28,2.64-6.83,3.19-10.63a30.62,30.62,0,0,1,6.58-15.65l-3.13-1.82-5.2,15.07,3.62,1a61,61,0,0,1,6.85-15.73l-3.43-1.45L299,266.62l3.61,1c.45-2,2.68-2.79,2.3-5a3.61,3.61,0,0,0-2.83-2.79c-3.32-1.08-7.1-.88-10.52-2a43.08,43.08,0,0,1-11.16-5.54c-2-1.36-3.84,1.86-1.89,3.24L296.13,268l.94-3.5a23.35,23.35,0,0,1-13.85-4.75c-1.87-1.38-3.46,1.43-2.27,2.94,1.45,1.86,9.83,10.32,8.86,12.65l3.13-.83q-3-3.32-5.81-6.82c-1-1.29-3.26-.2-3.2,1.32a54,54,0,0,0,3,16.31,1.88,1.88,0,0,0,3.62-1,68.24,68.24,0,0,0-5.84-18.11c-.93-1.93-4-.57-3.42,1.44a119.92,119.92,0,0,0,5.38,14.72c.57,1.31,2.61,1.14,3.23,0a33.93,33.93,0,0,0,4.13-13.5c.2-2.08-3.37-2.59-3.68-.5L289,278c-.35,2.36,3.26,3.38,3.61,1L294,269.4l-3.69-.5a29.27,29.27,0,0,1-3.61,11.61h3.23a113.38,113.38,0,0,1-5-13.82l-3.43,1.44A64.73,64.73,0,0,1,287,285.35l3.62-1A50.58,50.58,0,0,1,287.68,269l-3.2,1.33c1.86,2.35,3.79,4.61,5.81,6.83,1,1.15,2.63.38,3.13-.83,1-2.33-.22-3.92-1.61-5.79-2.64-3.57-5.48-7-8.21-10.51L281.33,263a26.72,26.72,0,0,0,15.74,5.26c2,0,2.38-2.48.95-3.49l-17.63-12.5-1.89,3.24a45.85,45.85,0,0,0,15.19,6.77c.57.13,6.85.86,6.91,1.05.12.36-1.42,2.43-1.61,3.27-.54,2.35,2.95,3.33,3.61,1L304,262.7a1.89,1.89,0,0,0-3.43-1.45,65.29,65.29,0,0,0-7.23,16.64c-.65,2.34,2.84,3.26,3.62,1l5.19-15.07c.59-1.71-1.95-3.27-3.13-1.82a33.56,33.56,0,0,0-6.47,11.8c-1.49,5.08-.9,10.67-3.89,15.24l3-.38c-4-3.1-5.76-9.84-7.43-14.46a134,134,0,0,1-4.5-15.46c-1.73-7.54-3.94-15.14-11.81-18.1-1.79-.68-3.1,1.9-1.82,3.13a66,66,0,0,1,13.18,17.87c1,1.94,3.93.57,3.43-1.45a30.06,30.06,0,0,0-13.29-18.33A1.9,1.9,0,0,0,266.6,244a273.17,273.17,0,0,0,11.59,33.33c3.18,7.77,7.17,15.27,14.72,19.51a1.89,1.89,0,0,0,2.76-1.12c2.36-13,9.49-24.65,15.43-36.28a1.9,1.9,0,0,0-2.12-2.76c-13.37,4.08-24.64-5.32-34-13.62-1.79-1.6-4.45,1-2.65,2.65Z"/><path class="cls-3" d="M268.94,243l-2.35-5.1L265,240.68c4,.35,7.11,5.91,9.39,8.73l8.41,10.36c1.52,1.88,4.16-.79,2.65-2.65q-5.61-6.92-11.2-13.82c-2.58-3.16-5-6-9.25-6.37-1.55-.13-2.15,1.66-1.62,2.82l2.35,5.1c1,2.19,4.24.29,3.24-1.89Z"/><path class="cls-3" d="M263.47,239.56c.25,6.15,4.16,11.65,6.95,16.94l11,20.88c1.13,2.13,4.37.24,3.24-1.9L275.42,258c-2.88-5.46-7.94-12.08-8.2-18.39-.1-2.41-3.85-2.42-3.75,0Z"/><path class="cls-3" d="M276.39,252l-1-1.63c-.9-2.16-4.23-1.42-3.62,1l2.68,10.51c.5,2,3.9,1.65,3.68-.5-1-9.51-5.91-17.22-11.7-24.58l-.82,3.14c1.72-.27,8.15,7,9.47,8.19l2.27-2.94a19.24,19.24,0,0,1-6.8-6.09l-2.95,2.27,3.53,4.06c1.6,1.83,4.17-.82,2.65-2.65a19.94,19.94,0,0,0-8.71-6.1c-1.26-.47-2.85,1-2.31,2.3l10,24,3.42-1.44a143.7,143.7,0,0,1-8.31-18c-.84-2.21-4.31-1.37-3.62,1a124.61,124.61,0,0,0,6.57,17.64c1.09,2.35,7.49,16.58,9.74,15.8-2.27.78-1.29,4.41,1,3.61,5.8-2-1-9.23-2.66-12a116.53,116.53,0,0,1-11-26.06l-3.62,1a150.68,150.68,0,0,0,8.69,18.89c1,1.81,4.26.55,3.43-1.45l-10-24-2.31,2.3a16.53,16.53,0,0,1,7.06,5.14l2.65-2.65-3.53-4.06c-1.38-1.59-4.16.51-2.94,2.27a23.73,23.73,0,0,0,8.15,7.44c1.8,1,3.89-1.47,2.27-2.95-3.4-3.08-8.09-9.94-13.12-9.16-1.56.24-1.59,2.17-.83,3.13,5.1,6.49,9.74,13.53,10.6,21.93l3.68-.5-2.67-10.5-3.62,1a9.83,9.83,0,0,0,2,3.29c1.57,1.85,4.21-.82,2.65-2.65Z"/><path class="cls-3" d="M278.06,259.9q2.94,6.24,5.51,12.63l3.13-1.82a60.36,60.36,0,0,1-4.14-5.3,1.89,1.89,0,0,0-3.49.95l-.29,3,3.2-1.32-5.25-6.21a1.89,1.89,0,0,0-3.2,1.32,43.72,43.72,0,0,0,16.07,30.25c1.86,1.51,4.53-1.13,2.65-2.65a40.11,40.11,0,0,1-15-27.6l-3.2,1.33,5.25,6.21c1.15,1.37,3.06.13,3.2-1.33l.29-3-3.5.94a66.11,66.11,0,0,0,4.73,6.06c1.19,1.35,3.84-.08,3.14-1.83q-2.74-6.84-5.89-13.52c-1-2.18-4.27-.28-3.24,1.89Z"/><path class="cls-3" d="M280.32,271.93a12.65,12.65,0,0,1-3.38-4.61c-.72-1.77-.94-3.64-1.95-5.3-1.24-2.07-4.49-.19-3.24,1.89,1.1,1.81,1.3,4.06,2.25,6a15.86,15.86,0,0,0,3.67,4.7c1.8,1.6,4.46-1,2.65-2.65Z"/><path class="cls-3" d="M274.49,264.72a39.7,39.7,0,0,0,1.13,9l3.42-1.44a31.46,31.46,0,0,1-1.53-3.59c-.79-2.26-4.41-1.29-3.61,1a37.43,37.43,0,0,0,1.91,4.48c1,1.94,3.91.56,3.42-1.45a34.85,34.85,0,0,1-1-8c0-2.41-3.77-2.41-3.75,0Z"/><path class="cls-3" d="M281.33,260.66a46.15,46.15,0,0,0,6,7.59c1.69,1.73,4.3-.9,2.65-2.65l-4-4.25-2.27,2.95,6.4,4.46c1.8,1.26,3.67-1.44,2.27-2.94l-6-6.45-2.27,2.95,8.27,5.4c1.6,1,3.49-1,2.57-2.56a36.94,36.94,0,0,0-2.21-3.33l-2.12,2.76,5.63,1a1.87,1.87,0,0,0,1-3.61l-2.34-.91-.5,3.68a30,30,0,0,0,9.76-2.82l-2.82-1.62c-.3,2.93,2.42,3.81,4.79,2.85L304,260.41,299.62,269l3.43,1.44.23-1c.43-2-2.41-3.42-3.43-1.44l-2.7,5.19,3.43,1.45.78-2.24c.82-2.32-2.72-3.17-3.61-1a205,205,0,0,0-7.07,20.12h3.61c-1-3.1-1.82-6.23-2.52-9.42l-3.61,1,.73,1.75a1.88,1.88,0,0,0,3.62-1c-.41-2.23-.91-4.43-1.5-6.62l-3.43,1.44.71,1.13a1.89,1.89,0,0,0,3.49-1,7.87,7.87,0,0,0-2.85-7.17l-.37,2.94a10.56,10.56,0,0,0,4.62-6l-3.43.45.78,2.57c.21,1.73,2.47,2.69,3.49.94a21.36,21.36,0,0,0,2.35-5.73l-3.62-1a28.26,28.26,0,0,1-.93,3.84c-.73,2.3,2.89,3.29,3.62,1a29,29,0,0,0,.93-3.84c.41-2.33-3-3.37-3.62-1a18.12,18.12,0,0,1-2,4.83l3.5.95a13.07,13.07,0,0,0-1.29-4.47c-.76-1.54-3-1-3.43.45a5.59,5.59,0,0,1-2.9,3.73,1.91,1.91,0,0,0-.38,2.95,4.07,4.07,0,0,1,1.75,4.52l3.5-.95-.71-1.12a1.88,1.88,0,0,0-3.42,1.45c.58,2.19,1.08,4.39,1.49,6.62l3.62-1-.74-1.75a1.87,1.87,0,0,0-3.61,1c.69,3.18,1.53,6.31,2.52,9.42a1.89,1.89,0,0,0,3.61,0,206.9,206.9,0,0,1,7.07-20.13l-3.61-1-.79,2.23c-.7,2,2.45,3.33,3.43,1.45l2.7-5.2-3.43-1.45-.23,1c-.43,2,2.41,3.43,3.43,1.45l4.37-8.54c.66-1.3-.48-3.42-2.12-2.76l0,.77c.16-1.54-1.68-2.17-2.82-1.62a23.87,23.87,0,0,1-7.87,2.31,1.89,1.89,0,0,0-.5,3.69l2.35.9,1-3.61-5.62-1c-1.41-.25-3.19,1.31-2.12,2.76a35.43,35.43,0,0,1,2.21,3.32l2.56-2.57-8.27-5.4c-1.83-1.2-3.68,1.43-2.27,2.94l6,6.45,2.27-3-6.4-4.46c-1.8-1.25-3.68,1.45-2.27,2.95l4,4.24L290,265.6a41.75,41.75,0,0,1-5.39-6.83c-1.29-2-4.54-.15-3.24,1.89Z"/><path d="M279.67,195.41c4.28-.6,7.84-3,11.65-4.85a28.49,28.49,0,0,1,14.6-2.69c9.63.68,18.28,5.48,25.79,11.26.26.2.89-.17.56-.43-11.36-8.73-26.67-15.39-40.71-8.86-3.89,1.81-7.49,4.42-11.83,5-.4,0-.55.61-.06.54Z"/><path d="M284.2,194.59a37.06,37.06,0,0,0,21.52,8.49c4.34.25,8.42-.58,12.68-1.26s8.87-.66,13.08-2.19c.47-.17,0-.46-.3-.33-4.14,1.51-8.62,1.42-12.93,2.12-4.11.68-8.06,1.46-12.26,1.22a36.37,36.37,0,0,1-21.12-8.35c-.21-.17-.89.12-.67.3Z"/><path d="M282.57,194.71c.51,7.42,9.95,9.06,15.76,9.89a60.23,60.23,0,0,0,33.74-5c.45-.2,0-.56-.32-.39a59.35,59.35,0,0,1-26.38,5.44,55.53,55.53,0,0,1-13.13-1.85c-4.12-1.12-8.62-3.54-8.95-8.31,0-.3-.75-.14-.72.2Z"/><path d="M325.88,200.06a3.15,3.15,0,0,1,.91-4.69A.28.28,0,0,0,327,195c-.1-.15-.36-.13-.5-.06a3.66,3.66,0,0,0-1.24,5.47c.22.26.91,0,.66-.33Z"/><path d="M279.65,188.25c6.24-4.89,13.79-8.55,21.8-9,7.75-.49,14.87,2.49,20.89,7.21a71.49,71.49,0,0,1,9,8.61c.15.17.84-.09.68-.27-5.28-5.88-11.34-11.56-18.91-14.31-7.3-2.65-15.24-1.89-22.37.94a47.11,47.11,0,0,0-11.62,6.77c-.31.25.41.21.57.09Z"/><path d="M387.94,200.35a32.37,32.37,0,0,1,23.56-11,32.84,32.84,0,0,1,23.65,9.79c.15.15.83-.11.68-.26a33.25,33.25,0,0,0-48.56,1.52c-.17.2.54.13.67,0Z"/><path d="M387.53,200.59c-1.06.84.73,1.72,1.41,1.9a53.78,53.78,0,0,0,6.4,1.31,116.14,116.14,0,0,0,13.17,1c4.05.11,8.11.43,11.87-1.35a72,72,0,0,0,11-6.94c.4-.28-.22-.41-.46-.23a97.48,97.48,0,0,1-9.34,6.06,15,15,0,0,1-5.8,2,43.62,43.62,0,0,1-5.83,0c-3.67-.09-7.35-.21-11-.58-2-.2-4-.47-5.93-.85-.84-.16-1.68-.34-2.51-.55-.34-.08-3.43-.82-2.39-1.65.33-.26-.39-.29-.59-.13Z"/><path d="M432.14,197.63h.51a.33.33,0,0,0,.14,0,.33.33,0,0,0,.14,0l.12-.07a.22.22,0,0,0,.07-.09.14.14,0,0,0,0-.17.26.26,0,0,0-.2-.08h-.5a.22.22,0,0,0-.14,0,.42.42,0,0,0-.15,0,.41.41,0,0,0-.11.07.24.24,0,0,0-.08.09.17.17,0,0,0,0,.17.3.3,0,0,0,.2.08Z"/><path d="M432.37,195.64c.75,4.22-4.51,6.72-7.67,8a34.69,34.69,0,0,1-12.41,2.42c-8.74.18-17.24-2.42-25.35-5.43-.22-.08-.88.23-.58.34,13.12,4.89,28.49,8.67,41.59,1.56,2.58-1.4,5.74-3.75,5.15-7.09-.05-.24-.77-.07-.73.19Z"/><path d="M388.6,195.52a31.8,31.8,0,0,1,21-11.5c8.88-1.09,17.9,1.39,25.46,6,.29.18.91-.21.56-.43-11.88-7.3-27.22-9-39.46-1.54a30.69,30.69,0,0,0-8.2,7.2c-.29.36.39.51.61.23Z"/><path d="M407.89,190.28a4.31,4.31,0,0,0-1.54,2.57,5.28,5.28,0,0,0,.29,2.78,13,13,0,0,0,1.57,2.76,1.76,1.76,0,0,0,1.63.79,2.69,2.69,0,0,0,2-1.19c1.28-1.76,1.15-4,.55-6-.27-.89-.54-2-1.4-2.54a2.93,2.93,0,0,0-3.8,1.35,4.47,4.47,0,0,0-.14,3.1,13.16,13.16,0,0,0,1.38,3.34c.26.46,1.16.43,1.58.3a1.57,1.57,0,0,0,1.21-1,8.85,8.85,0,0,0,0-4c-.15-.67-1.18-.68-1.69-.53s-1.37.61-1.2,1.31a7.85,7.85,0,0,1,0,3.51l2.79-.75a10.62,10.62,0,0,1-1.25-3.37,3,3,0,0,1-.07-.71,2.85,2.85,0,0,1,0-.41s.08-.35,0-.24A1.48,1.48,0,0,1,410,191c-.07.08-.06.07,0,0a.49.49,0,0,1-.18.11l-.93.11a.24.24,0,0,1-.15-.09s.21.26.22.29a8.58,8.58,0,0,1,.54,1.56,9.07,9.07,0,0,1,.38,1.92,5.23,5.23,0,0,1-.17,1.63,3.36,3.36,0,0,1-.29.7,2.23,2.23,0,0,1-.2.33c.05-.08,0-.06-.06.05s-.08.12.24-.16l.77-.21h-.1l.71.07c.24.2.3.23.17.09a2.43,2.43,0,0,1-.14-.2l-.32-.46c-.18-.27-.35-.54-.52-.83a6.14,6.14,0,0,1-.73-1.8,3.51,3.51,0,0,1,0-1.58,1.68,1.68,0,0,1,.22-.59s.26-.4.12-.23c0,0,.36-.37.14-.18.43-.37.8-1,.19-1.4a2,2,0,0,0-2.07.2Z"/><path d="M304.49,188.75a7.43,7.43,0,0,0-1.82,3.43,4.18,4.18,0,0,0,.69,3.27,3.5,3.5,0,0,0,3.13,1.3c1.45-.08,3.23-.67,3.95-2a5.19,5.19,0,0,0,0-3.74,7.39,7.39,0,0,0-.87-1.73,2.74,2.74,0,0,0-1.36-1.18,4.06,4.06,0,0,0-3.22.67,3.2,3.2,0,0,0-1.17,1.56,4.5,4.5,0,0,0,.13,3.27,3.8,3.8,0,0,0,1.09,1.5,2.24,2.24,0,0,0,1.88.11,2.78,2.78,0,0,0,1.52-.89,4.3,4.3,0,0,0,.21-4.21c-.21-.43-1.05-.27-1.4-.19s-1.28.31-1.48.81a3.55,3.55,0,0,0-.22,2l2.9-.78a2.21,2.21,0,0,1,0-1.78l-2.89.61a4.33,4.33,0,0,1,.57,1.88,3.26,3.26,0,0,1-.05.88,2.47,2.47,0,0,1-.11.47.61.61,0,0,0-.07.17c0,.09-.16,0,.24-.17l.71-.27-.08,0,.75-.12a.67.67,0,0,1,.42.06.52.52,0,0,1-.11-.1.78.78,0,0,1-.11-.2,2,2,0,0,1-.16-.65c0-.19-.41-.25-.52-.26a3,3,0,0,0-1.07.11c-.38.11-1.35.39-1.3.93a1.5,1.5,0,0,0,.82,1.35,2.9,2.9,0,0,0,1.65-.06,2.56,2.56,0,0,0,1.56-1,3.28,3.28,0,0,0,.33-1.83,4.24,4.24,0,0,0-.57-2c-.24-.43-1-.28-1.4-.2s-1.28.32-1.48.82a2.69,2.69,0,0,0,0,2.1c.21.48,1.22.25,1.59.15s1.4-.4,1.31-.93a2.8,2.8,0,0,1,.19-1.64l-2.89.62a4.21,4.21,0,0,1,.44,2,3.64,3.64,0,0,1-.17.93c-.06.17-.12.34-.19.49l-.09.19s-.15.09,0,0l.6-.31-.08,0,.77-.2h-.08l.68,0,.18.06a.57.57,0,0,1-.15-.12l-.21-.22a2.39,2.39,0,0,1-.28-.35,3.73,3.73,0,0,1-.49-1.05,3.9,3.9,0,0,1-.09-2.14,2.76,2.76,0,0,1,.38-.92,1.59,1.59,0,0,1,.2-.24c.19-.2,0,0,0,0-.33-.07-1,.53-1.31.27.08.06.18.08.26.15a4.77,4.77,0,0,1,1.33,2.05,6.43,6.43,0,0,1,.44,2.53,2.65,2.65,0,0,1-.24,1.07,1.36,1.36,0,0,1-.25.39c-.11.13,0,0,0,0l-.14.1c.15-.08.16-.09,0,0-.27.14.23-.1,0,0s.39-.1.39-.1h-.09c-.15,0-.12,0,.09,0,0,0-.32,0-.11,0l-.11,0c-.27,0,.15.07-.1,0a3.94,3.94,0,0,1-.4-.15,2.83,2.83,0,0,1-1.29-1.64c-.6-1.81.28-3.61,1.45-5,.42-.5-.37-.62-.72-.6a2.9,2.9,0,0,0-1.93.73Z"/><path d="M401.33,190.78c-1.92,2.09-1.69,5.12-.43,7.48a17.53,17.53,0,0,0,2.57,3.47,6.61,6.61,0,0,0,3.32,2.31,13.73,13.73,0,0,0,7.41-.41,7.61,7.61,0,0,0,4.82-5.28,23.91,23.91,0,0,0,.91-4.59,5,5,0,0,0-1-4c-.12-.14-.79.12-.68.24a5.25,5.25,0,0,1,.94,4.28,23.24,23.24,0,0,1-.95,4.53,7.44,7.44,0,0,1-2.62,3.87,8.87,8.87,0,0,1-5,1.38,7.78,7.78,0,0,1-4.9-1,15.63,15.63,0,0,1-3.25-3.59c-1.75-2.5-2.76-6.13-.44-8.64.14-.16-.54-.08-.66.05Z"/><path d="M297.55,188a6.43,6.43,0,0,0-1.09,7.25,18.94,18.94,0,0,0,2.21,3.59,8.14,8.14,0,0,0,3,2.72c4.41,2,9.86-.8,12.25-4.63,1.47-2.35,2.3-5.63.62-8.08-.13-.19-.84,0-.68.28,1.75,2.54.66,6-1,8.35a10.12,10.12,0,0,1-7.12,4.29,6.48,6.48,0,0,1-4.72-1.31,14.32,14.32,0,0,1-2.72-3.33c-1.83-2.79-2.77-6.33-.21-9,.28-.3-.42-.27-.58-.11Z"/><path d="M409,194.9c.65,0,1.59-.18,1.9-.85s-.24-1.08-.85-1.08-1.59.18-1.9.85.24,1.08.85,1.08Z"/><path d="M429.41,194v.63s.11.05.12.05a.8.8,0,0,0,.27,0,.87.87,0,0,0,.25-.1s.08-.05.08-.11v-.62s-.11,0-.13,0a.77.77,0,0,0-.26,0,.93.93,0,0,0-.25.1s-.08.06-.08.11Z"/><path d="M429.88,194.23l.48.64a.14.14,0,0,0,.13,0,.78.78,0,0,0,.26,0,.69.69,0,0,0,.25-.1.12.12,0,0,0,.08-.1v-1.14s-.11,0-.13,0a.77.77,0,0,0-.26,0,.93.93,0,0,0-.25.1s-.09.06-.09.11l0,1.14.72-.19-.47-.65a.17.17,0,0,0-.13-.05,1.26,1.26,0,0,0-.27,0,.72.72,0,0,0-.24.1s-.12.07-.09.11Z"/><path d="M430.05,195.12l-.3-1.25a.23.23,0,0,0-.15-.14.5.5,0,0,0-.27,0c-.14,0-.35.16-.31.33l.31,1.25a.26.26,0,0,0,.15.14.5.5,0,0,0,.27,0c.14,0,.35-.15.3-.32Z"/><path d="M429.8,194.79l-.32-.93c0-.06-.08-.07-.13-.08a.8.8,0,0,0-.27,0,.68.68,0,0,0-.24.12s-.1.08-.08.13l.32.94a.14.14,0,0,0,.13.07.61.61,0,0,0,.27,0,.88.88,0,0,0,.24-.11s.1-.08.08-.14Z"/><path d="M428.81,192.82l0,0,.05,0a.53.53,0,0,1-.12-.14l0,.05a.55.55,0,0,1-.07-.28v.06a.67.67,0,0,1,0-.24l0,.06a.57.57,0,0,1,.08-.13l0,.05,0-.05h0c-.06.05,0,0,0,0a.31.31,0,0,0,.13-.17.12.12,0,0,0-.08-.14.55.55,0,0,0-.51.06.77.77,0,0,0-.37.61.66.66,0,0,0,.06.31.62.62,0,0,0,.24.29.39.39,0,0,0,.24,0,.62.62,0,0,0,.27-.09.26.26,0,0,0,.14-.17.17.17,0,0,0-.08-.14Z"/><path d="M428,193.36l0,0c0-.06,0,0,0,0s-.06,0,0,0h0l.05,0h0l.06,0h0c.13,0,.09,0,.05,0h0s.09,0,0,0l-.08,0c.08,0,0,0,0,0l0,0-.08-.05.05,0a.55.55,0,0,1-.16-.18l0,0a1.29,1.29,0,0,1-.12-.58v.06c0-.1,0-.2,0-.3a.13.13,0,0,0-.08-.13.38.38,0,0,0-.24,0,.66.66,0,0,0-.27.09c-.05,0-.13.09-.14.16a4.51,4.51,0,0,0,0,.52,1.19,1.19,0,0,0,.16.48.89.89,0,0,0,.85.32.88.88,0,0,0,.65-.36.12.12,0,0,0,0-.15.31.31,0,0,0-.2-.07.72.72,0,0,0-.29.06.38.38,0,0,0-.19.14Z"/><path d="M426.7,192.6v-.94s-.11-.06-.13-.06a.8.8,0,0,0-.27,0,1,1,0,0,0-.24.11c-.05,0-.09.06-.09.12v.93c0,.05.11.06.13.07a.8.8,0,0,0,.27,0,.87.87,0,0,0,.25-.1s.08-.06.08-.12Z"/><path d="M426.2,193.23c.29,0,.76-.44.27-.44-.29,0-.76.44-.27.44Z"/><path d="M429.22,193.29s0,0,0-.07l0,.06a.31.31,0,0,1,0-.1l0,.06.06-.07-.06.06.07,0-.08,0,.08,0-.1,0,.07,0-.1,0h0l.07,0-.07,0h0a.49.49,0,0,0,.24,0,.73.73,0,0,0,.28-.1.3.3,0,0,0,.13-.18.18.18,0,0,0-.08-.16.81.81,0,0,0-.43-.08l-.19,0-.19.07a.79.79,0,0,0-.44.52.18.18,0,0,0,.09.16.4.4,0,0,0,.24,0,.58.58,0,0,0,.27-.09.29.29,0,0,0,.13-.18Z"/><path d="M429.12,194.09a1.07,1.07,0,0,0,.67.19,1.55,1.55,0,0,0,.88-.3.18.18,0,0,0,.08-.15.19.19,0,0,0-.14-.09.7.7,0,0,0-.52.14s.08,0,0,0l0,0h0l.06,0H430c-.06,0,.08,0,0,0H430a.88.88,0,0,1-.2-.09l.05,0h0a.51.51,0,0,0-.48,0,.36.36,0,0,0-.19.13s-.06.11,0,.14Z"/><path d="M430.56,195.39h.31l.14,0,.15,0,.11-.06.08-.07,0,0a.09.09,0,0,0,0-.09l-.05,0a.4.4,0,0,0-.15,0h-.31l-.14,0-.14,0a.45.45,0,0,0-.12.06.27.27,0,0,0-.08.07l0,.05s0,.07,0,.09l.05,0a.32.32,0,0,0,.14,0Z"/><path d="M431.37,195.2l.62-.62a.09.09,0,0,0,0-.13s-.14,0-.19,0a.76.76,0,0,0-.48.19l-.63.62s0,.09,0,.12a.32.32,0,0,0,.19,0,.76.76,0,0,0,.48-.19Z"/><path d="M431.51,195.73c.29,0,.76-.45.27-.45-.3,0-.76.45-.27.45Z"/><path d="M429.51,193.61v-.94a.21.21,0,0,0-.09-.19.51.51,0,0,0-.25-.06.56.56,0,0,0-.27.1.32.32,0,0,0-.12.2v.94a.21.21,0,0,0,.09.19.42.42,0,0,0,.25.06.56.56,0,0,0,.27-.1.32.32,0,0,0,.12-.2Z"/><path d="M429.51,192.91v-.62s-.11-.07-.14-.08a.77.77,0,0,0-.26,0,1,1,0,0,0-.25.11l-.05.05a.11.11,0,0,0,0,.08v.63s.11.07.14.07a.58.58,0,0,0,.26,0,.57.57,0,0,0,.25-.11l.05,0a.14.14,0,0,0,0-.09Z"/><path d="M429.11,193c.42,0,.56-.54.07-.54s-.56.54-.07.54Z"/><path d="M424.85,191.6c.16,0,.82-.3.47-.3-.15,0-.82.3-.47.3Z"/><path d="M283,194.13l-.07.09s.06-.05,0,0l-.05,0h0l-.05,0-.05,0h0l-.05,0h-.23s.09,0,0,0l0,0-.1,0c-.06,0,.06,0,0,0l-.05,0-.09-.06s0,0,0,0h0l0,0-.06-.08,0,0c0-.05,0,0,0,0a.49.49,0,0,1,0-.11c-.05-.17-.29-.19-.43-.15s-.34.17-.3.35a1.13,1.13,0,0,0,.94.75,1.33,1.33,0,0,0,1.27-.46.25.25,0,0,0,.06-.2.24.24,0,0,0-.16-.15.49.49,0,0,0-.51.14Z"/><path d="M283.08,195.31l0,0,0,0,0,0-.05,0c.09,0,.06,0,0,0h0c-.05,0,.09,0,0,0h-.19l-.11,0-.1,0h0l-.05,0-.09-.05-.1-.06s0,0,0,0l0,0-.15-.16a.22.22,0,0,1-.05-.08s0,0,0,0l0-.06c-.06-.15-.28-.13-.41-.09a.5.5,0,0,0-.24.12s-.1.11-.07.17a1.31,1.31,0,0,0,.84.72,1.72,1.72,0,0,0,1.33-.18c.1-.06.21-.22.06-.3a.58.58,0,0,0-.51.06Z"/><path d="M283.64,193.87l-.31-.93c-.05-.15-.3-.13-.42-.1a.56.56,0,0,0-.24.13s-.09.1-.07.16l.31.94c0,.15.3.12.42.09a.56.56,0,0,0,.24-.13s.09-.1.07-.16Z"/><path d="M285.25,193.54l-.32-.93c-.05-.17-.28-.19-.42-.14a.4.4,0,0,0-.24.14.22.22,0,0,0-.06.19l.32.94c.05.16.28.18.42.14a.53.53,0,0,0,.24-.14c0-.05.09-.13.06-.2Z"/><path d="M287.07,192.31l.31-.93c0-.06,0-.1-.07-.13a.47.47,0,0,0-.24,0,.86.86,0,0,0-.27.09.29.29,0,0,0-.14.15l-.31.94c0,.05,0,.1.07.12a.49.49,0,0,0,.24,0,.66.66,0,0,0,.27-.09.29.29,0,0,0,.14-.15Z"/><path d="M287.1,192.2l-.62-.62a.27.27,0,0,0-.19-.05.93.93,0,0,0-.29.05.38.38,0,0,0-.19.14s-.05.09,0,.13l.63.63a.3.3,0,0,0,.19.05.67.67,0,0,0,.28-.06.46.46,0,0,0,.2-.13.11.11,0,0,0,0-.14Z"/><path d="M285.88,192.4h0s-.08,0,0,0,0,0,0,0l0,0,.06,0a.34.34,0,0,1-.11-.07l.05,0a.52.52,0,0,1-.14-.19l0,.06a.6.6,0,0,1-.08-.29V192a.63.63,0,0,1,0-.19l0,.06a.37.37,0,0,1,.05-.11l0,.06,0,0,0,0,0,0a.31.31,0,0,0,.13-.17.16.16,0,0,0-.08-.16.54.54,0,0,0-.52.06.69.69,0,0,0-.27.36.58.58,0,0,0,0,.32.77.77,0,0,0,.34.53.82.82,0,0,0,.51.11.52.52,0,0,0,.27-.1c.05,0,.13-.1.13-.17s-.19-.21-.32-.2Z"/><path d="M285.89,192.47H286l.07,0h0l0,0,0,0,0,0a.16.16,0,0,1,0-.1v.05a.11.11,0,0,1,0-.08l0,.05,0,0-.05,0h0l-.06,0h0l-.09,0h0l-.09,0h0l-.1,0h0a.4.4,0,0,0,.15,0,.35.35,0,0,0,.13,0,.24.24,0,0,0,.11-.06l.05-.05a.12.12,0,0,0,0-.09l0,0a.21.21,0,0,0-.11,0,.5.5,0,0,0-.21,0,.85.85,0,0,0-.37.15.3.3,0,0,0-.12.15v.05a.11.11,0,0,0,0,.08s0,0,0,0v0l0,.05,0,0,.06,0a.67.67,0,0,0,.28,0l.14,0,.13-.05a.22.22,0,0,0,.09-.07.13.13,0,0,0,.06-.07v-.05a.13.13,0,0,0-.07-.06l-.07,0Z"/><path d="M433.86,196.26l.41-.3a1,1,0,0,0,.34-.38.81.81,0,0,0,.16-.43,1,1,0,0,0-.37-.78l-.28-.15a1.57,1.57,0,0,0-.71-.1l-.4.06a2,2,0,0,0-.69.34l-.41.29a1,1,0,0,0-.34.39.78.78,0,0,0-.16.43.65.65,0,0,0,.09.43.68.68,0,0,0,.28.35l.28.15a1.73,1.73,0,0,0,.71.1l.4-.06a2,2,0,0,0,.69-.34Z"/><path d="M433.28,195l.17-.17a.71.71,0,0,0,.21-.41.61.61,0,0,0,0-.44.58.58,0,0,0-.23-.36.74.74,0,0,0-.39-.25l-.33-.09a2,2,0,0,0-.77.06l-.38.14a1.72,1.72,0,0,0-.57.43l-.17.18a.71.71,0,0,0-.21.41.61.61,0,0,0,0,.44.58.58,0,0,0,.23.36.74.74,0,0,0,.39.25l.34.09a2,2,0,0,0,.76-.06l.38-.14a1.62,1.62,0,0,0,.57-.44Z"/><path d="M431.66,194.52l.17-.11a1.28,1.28,0,0,0,.36-.29.64.64,0,0,0,.2-.31.28.28,0,0,0-.05-.28.4.4,0,0,0-.24-.22l-.27-.08a2.22,2.22,0,0,0-.68,0l-.4.08a2.87,2.87,0,0,0-.7.29l-.18.12a1.12,1.12,0,0,0-.36.29.58.58,0,0,0-.19.31.26.26,0,0,0,.05.28.35.35,0,0,0,.24.22l.26.08a2.28,2.28,0,0,0,.69,0l.39-.07a3,3,0,0,0,.71-.3Z"/><path d="M430.55,193.59l.3-.29a.62.62,0,0,0,.24-.29.29.29,0,0,0,.06-.28.3.3,0,0,0-.19-.22.63.63,0,0,0-.36-.13l-.32,0a3.22,3.22,0,0,0-.75.1l-.38.13a2.38,2.38,0,0,0-.6.34l-.29.29a.71.71,0,0,0-.25.29.31.31,0,0,0-.05.28.3.3,0,0,0,.19.22.63.63,0,0,0,.35.13l.33,0a3.22,3.22,0,0,0,.75-.1l.38-.13a2.32,2.32,0,0,0,.59-.34Z"/><path d="M429.5,192.39l.17-.18a.26.26,0,0,0,.13-.23.17.17,0,0,0-.08-.19.6.6,0,0,0-.31-.1,1.29,1.29,0,0,0-.44,0l-.36.05a4.15,4.15,0,0,0-.77.2l-.33.15a1.51,1.51,0,0,0-.47.32l-.18.17a.29.29,0,0,0-.12.24.15.15,0,0,0,.08.19.54.54,0,0,0,.3.1,1.3,1.3,0,0,0,.44,0l.36,0a3.37,3.37,0,0,0,.77-.21l.34-.14a1.86,1.86,0,0,0,.47-.32Z"/><path d="M428,192.28l.23-.23a.77.77,0,0,0,.23-.36.48.48,0,0,0,0-.37.47.47,0,0,0-.21-.3.78.78,0,0,0-.38-.2l-.33-.06a2.17,2.17,0,0,0-.76.08l-.38.13a1.94,1.94,0,0,0-.58.4l-.23.23a.77.77,0,0,0-.23.36.48.48,0,0,0,0,.37.47.47,0,0,0,.21.3.7.7,0,0,0,.38.2l.33.06a2.17,2.17,0,0,0,.76-.08l.38-.13a2.07,2.07,0,0,0,.58-.4Z"/><path d="M434.33,196.18l.05-.05a.29.29,0,0,0,.12-.26.2.2,0,0,0-.09-.22.56.56,0,0,0-.31-.12,1.08,1.08,0,0,0-.44,0l-.37,0a3.52,3.52,0,0,0-.77.21l-.33.15a1.72,1.72,0,0,0-.46.34l-.06.06a.34.34,0,0,0-.12.26.2.2,0,0,0,.09.22.59.59,0,0,0,.31.12,1.38,1.38,0,0,0,.45,0l.36,0a4.15,4.15,0,0,0,.77-.2l.33-.15a1.6,1.6,0,0,0,.47-.35Z"/><path d="M280.45,194.34l.23.18a.7.7,0,0,0,.33.19,1.22,1.22,0,0,0,.46.09,2.2,2.2,0,0,0,.57-.05,2.33,2.33,0,0,0,.57-.17l.32-.17a1.51,1.51,0,0,0,.45-.42l.1-.22a.48.48,0,0,0-.11-.41l-.24-.17a.61.61,0,0,0-.33-.19.88.88,0,0,0-.46-.09,1.77,1.77,0,0,0-.56.05,1.88,1.88,0,0,0-.57.17l-.33.17a1.24,1.24,0,0,0-.44.41l-.1.23a.42.42,0,0,0,.11.4Z"/><path d="M282.79,194.32l.23.11a1.39,1.39,0,0,0,.53.1,1.44,1.44,0,0,0,.58-.06,1.6,1.6,0,0,0,.53-.24,1.25,1.25,0,0,0,.41-.35l.17-.27a.86.86,0,0,0,.06-.59l-.13-.26a1.08,1.08,0,0,0-.5-.37l-.23-.12a1.21,1.21,0,0,0-.53-.09,1.44,1.44,0,0,0-.58.06,1.28,1.28,0,0,0-.53.24,1.23,1.23,0,0,0-.41.34l-.17.28a.83.83,0,0,0-.06.58l.13.27a1.15,1.15,0,0,0,.5.37Z"/><path d="M285.87,193.43l.17-.11a1,1,0,0,0,.34-.37.79.79,0,0,0,.17-.41.59.59,0,0,0-.08-.41.64.64,0,0,0-.27-.32l-.28-.14a1.72,1.72,0,0,0-.71-.09l-.4.07a2.2,2.2,0,0,0-.69.33l-.18.12a1.13,1.13,0,0,0-.33.36.71.71,0,0,0-.17.41.53.53,0,0,0,.08.41.63.63,0,0,0,.27.33l.28.14a1.9,1.9,0,0,0,.71.08l.39-.06a2,2,0,0,0,.7-.34Z"/><path d="M284.92,192.16s0,0,0,0h0a.47.47,0,0,0,.1.1.15.15,0,0,0,.06.05,1.36,1.36,0,0,0,.49.08h0l.31,0h0c.12,0,.25,0,.37-.06a5.28,5.28,0,0,0,.78-.21,2.67,2.67,0,0,0,.36-.14,1.58,1.58,0,0,0,.38-.21.53.53,0,0,0,.22-.2.1.1,0,0,0,0-.16.23.23,0,0,0-.21-.09l-.25,0a4.9,4.9,0,0,0-.67.07l-.39.09a6,6,0,0,0-.71.25h0l.33-.13h0l.38-.12h0l.39-.08h0l.36-.06h0l.31,0h.19l.17,0a.15.15,0,0,1-.09-.06l.08.09a.09.09,0,0,1,0-.06.18.18,0,0,0-.17-.11.74.74,0,0,0-.33-.05,2.63,2.63,0,0,0-.49.05,2.9,2.9,0,0,0-.57.12l-.38.11a3.66,3.66,0,0,0-.61.27l-.21.14a.29.29,0,0,0-.14.25Z"/><path d="M287,192.64c1.61,0,2.27-2,.3-2-1.61,0-2.27,2-.3,2Z"/><path d="M283,196c1.7,0,2.19-2.24.23-2.24-1.7,0-2.19,2.24-.23,2.24Z"/><path class="cls-1" d="M391.19,120.87c2.46,3.93,5.16,7.79,7.33,11.89a19.1,19.1,0,0,1,2.57,7.77c.05,1-.18,5.87-1.44,6.1l2.31,1.31,0-.16c-.69-2.31-4.31-1.33-3.61,1l0,.16a1.94,1.94,0,0,0,2.31,1.31c4.14-.73,4.46-8.58,4-11.62-1.13-7.18-6.46-13.65-10.2-19.64-1.28-2-4.53-.16-3.24,1.89Z"/><path class="cls-4" d="M431.2,193.06h.17l.06-.55-.3,0a.33.33,0,0,0-.14,0,.31.31,0,0,0-.13.06.25.25,0,0,0-.08.1.19.19,0,0,0,0,.1v.07a.2.2,0,0,0,.08.12l.08,0a.32.32,0,0,0,.17,0h.33l-.21-.45,0,0,.08,0-.05,0,.09,0h.08a.58.58,0,0,0-.29.05.28.28,0,0,0-.11.08.27.27,0,0,0-.08.1l0,.07a.2.2,0,0,0,0,.13l.05.06a.3.3,0,0,0,.16,0h.15l.12,0h0a.66.66,0,0,0,.26-.14l.07-.06,0-.06,0-.07a.2.2,0,0,0,0-.11.13.13,0,0,0,0-.06.09.09,0,0,0-.06,0,.11.11,0,0,0-.07,0,.33.33,0,0,0-.14,0h-.33l-.06.55.3,0a.33.33,0,0,0,.14,0,.31.31,0,0,0,.13-.06.25.25,0,0,0,.08-.1.19.19,0,0,0,0-.1v-.07a.2.2,0,0,0-.08-.12l-.08,0a.32.32,0,0,0-.17,0h-.17a.32.32,0,0,0-.14,0,.33.33,0,0,0-.13.07.18.18,0,0,0-.08.09.22.22,0,0,0-.05.11v.07a.2.2,0,0,0,.08.12l.07,0a.57.57,0,0,0,.18,0Z"/><path class="cls-4" d="M431.11,193.07c.26,0,.78-.38.29-.38-.25,0-.77.38-.29.38Z"/><path class="cls-4" d="M432.38,193.2l-.1,0h0l.06,0-.05,0-.18,0-.19,0h0l-.1,0a1,1,0,0,0-.38.13s-.05,0-.05.07a0,0,0,0,0,0,0,.08.08,0,0,0,.06,0,3.09,3.09,0,0,0,.53,0l.27,0a.72.72,0,0,0,.24-.1s.1-.05.09-.1-.1,0-.12,0h-.07a1.27,1.27,0,0,0-.26,0,.77.77,0,0,0-.25.1s-.1,0-.08.1.09,0,.12,0H432l.48-.28H432l-.36.26a8.48,8.48,0,0,0,1-.25.78.78,0,0,0,.2-.11s.06-.06,0-.09a.28.28,0,0,0-.18,0,1.27,1.27,0,0,0-.28.06Z"/><path class="cls-4" d="M433.72,193.7l-.75.24a.47.47,0,0,0-.24.13.19.19,0,0,0-.07.14c0,.14.22.16.32.15a2.67,2.67,0,0,1,.56-.06h.1a.64.64,0,0,0,.28-.06.43.43,0,0,0,.2-.15.14.14,0,0,0,0-.16.29.29,0,0,0-.2-.07,4,4,0,0,0-.84.06v.42l.75-.24a.63.63,0,0,0,.24-.13s.09-.11.07-.17a.19.19,0,0,0-.15-.11.5.5,0,0,0-.27,0Z"/><path class="cls-4" d="M434.72,194.42a2,2,0,0,0-.53.12l-.21.05c-.06,0,.11,0,0,0h-.1a.61.61,0,0,0-.29.06c-.06,0-.16.08-.18.15a.25.25,0,0,0,0,.15.27.27,0,0,0,.1.11.41.41,0,0,0,.24.06h.31a5.17,5.17,0,0,0,.68,0,.56.56,0,0,0,.28-.1.28.28,0,0,0,.13-.17c0-.17-.2-.22-.33-.21a3.89,3.89,0,0,1-.47,0H434s0,0,0,0l.07,0,0,0,.06.05h0l0,.05h0l0,.13h0l-.47.21a1.61,1.61,0,0,0,.61-.08l.23-.07.12,0c.06,0-.1,0,0,0h.06a.58.58,0,0,0,.28-.09.34.34,0,0,0,.13-.18c0-.18-.2-.21-.33-.2Z"/><path class="cls-4" d="M434.75,195.38l-.78,0a.88.88,0,0,0-.28.06.45.45,0,0,0-.19.14c-.09.15.07.21.19.22l.69,0a1.18,1.18,0,0,0,.42,0c.16,0,.38-.14.42-.32s-.13-.16-.22-.16h-.29v.35c.06,0,0,0-.13,0s-.07,0,0,0a.58.58,0,0,0,.29-.06.43.43,0,0,0,.19-.14.12.12,0,0,0,0-.15.28.28,0,0,0-.2-.06.74.74,0,0,0-.39.07c-.09,0-.22.11-.22.22s.14.14.22.14h.29l-.23-.17v0l0-.06s0,0,0,0l.06-.05.08-.05.06,0h-.19l-.54,0-.28.42.78,0a.66.66,0,0,0,.28,0,.48.48,0,0,0,.2-.14s0-.11,0-.15a.29.29,0,0,0-.2-.07Z"/><path class="cls-4" d="M433.71,196.52a6.56,6.56,0,0,0,1.26-.1l-.05-.21-.95.35a.51.51,0,0,0-.21.1s-.05.07,0,.1a.37.37,0,0,0,.18,0,.89.89,0,0,0,.28-.07l1-.34a.91.91,0,0,0,.17-.09s.07-.05.06-.09,0,0-.06,0a.59.59,0,0,0-.23,0l-.13,0h-.06l-.27,0-.25,0h-.22a1.17,1.17,0,0,0-.26,0,.77.77,0,0,0-.25.1s-.1.06-.08.11.09,0,.12,0Z"/><path d="M432,196c.59,0,1.62-.19,1.91-.8s-.24-.9-.8-.9-1.62.19-1.91.8.24.9.8.9Z"/><path d="M283.77,192.5l.75.05a.56.56,0,0,0,.43-.15c.07-.08.11-.23,0-.28l-.78-.36a.51.51,0,0,0-.52.05c-.11.08-.2.25-.05.34l.16.1s.05.09.08.11.09.09.24-.05H284a.87.87,0,0,0-.22-.05L283,192c-.2,0-.54,0-.58.26a.63.63,0,0,0,.2.51s.33-.1.16-.14a1.94,1.94,0,0,0-.24,0l-.48-.08c-.18,0-.64.05-.58.32s.25.17.3.25l0-.12a.17.17,0,0,1,0,.12l.06-.13c.06,0,.06,0,0,0l-.08,0-.3,0-.55.1c-.14,0-.4.1-.41.27a1.89,1.89,0,0,0,.13.52.25.25,0,0,1,0,.12c.16-.08.17-.1,0-.09s-.25,0-.36-.05l-.35.47h1.42c.17,0,.4,0,.48-.21s-.07-.27-.22-.27H280.2a.55.55,0,0,0-.46.18.18.18,0,0,0,.11.29,1.63,1.63,0,0,0,1.3-.1.47.47,0,0,0,.18-.41c0-.18-.15-.34-.14-.51l-.4.27.72-.13a2.44,2.44,0,0,0,.66-.15.49.49,0,0,0,.31-.41.27.27,0,0,0-.12-.23l-.11,0c-.08,0-.05,0,0,0l-.58.33a2.18,2.18,0,0,0,1.49,0,.39.39,0,0,0,.22-.44c0-.11-.22-.25-.19-.37l-.58.26.84.22a1.21,1.21,0,0,0,.75,0,.52.52,0,0,0,.39-.49.66.66,0,0,0-.4-.5l-.57.39.78.36.42-.44-.75,0a.51.51,0,0,0-.48.21c-.07.16.07.26.21.27Z"/><path d="M286.26,191.82a1.47,1.47,0,0,1-.66-.52l-.68.28A1.75,1.75,0,0,0,286,192c.2,0,.55-.09.57-.34a.33.33,0,0,0-.09-.21.6.6,0,0,0-.08-.08c-.19-.17.13.13-.45.09l-.15,0,0,0-.07-.07v0c.1.24.82,0,.73-.19l-.07-.15-.65.27a2.55,2.55,0,0,0,1.58.28c.11,0,.54-.15.39-.33l-.27-.34a1.7,1.7,0,0,0-.1-.14.71.71,0,0,0-.39.15s0,0,0,0a.68.68,0,0,0,.5.35c.43.06,1.19-.28.93-.83-.1-.22-.77-.05-.72.2a.77.77,0,0,0,.39.63.91.91,0,0,0,.9-.14c.13-.09.07-.21-.07-.24a.68.68,0,0,0-.51.14c.31-.23.35,0,.21-.13a.26.26,0,0,1-.1-.13,1.8,1.8,0,0,1-.1-.33l-.72.2c.06.12,0,.17,0,.29s.22,0,.17,0a.9.9,0,0,0-.1-.09.87.87,0,0,0-.2-.23.59.59,0,0,0-.37-.06c-.2,0-.59.13-.58.39,0,.1.09.18.16.26l.27.34.39-.33a1.8,1.8,0,0,1-1.11-.24.54.54,0,0,0-.43,0c-.07,0-.27.13-.22.24l.06.14.73-.19c-.13-.28-.64-.11-.8.05a.22.22,0,0,0-.05.28s.23.22.19.26l.48-.19a1.22,1.22,0,0,1-.72-.32c-.16-.14-.85,0-.68.28a1.77,1.77,0,0,0,.77.58.58.58,0,0,0,.51-.07c.08-.05.23-.2.06-.27Z"/><path class="cls-4" d="M284.94,196.33a4.26,4.26,0,0,0-.64-1.21c-.11-.15-.79.07-.72.19a.62.62,0,0,0,.44.33.9.9,0,0,0,.43-.06c.06,0,.25-.09.23-.18a.79.79,0,0,0-.41-.53.73.73,0,0,0-.46,0c-.05,0-.32.14-.22.21l.22.16c.1.08.32,0,.42,0s.3-.09.29-.2v0l-.08.07h0l-.62.11a.47.47,0,0,1,.07.12l.66-.23a.33.33,0,0,1-.19-.11l-.09.11c-.42,0-.55,0-.4.1l.05,0,.58-.27a4.81,4.81,0,0,0-.85,0c-.1,0-.53.09-.51.25a3.71,3.71,0,0,0,1.53,2.57c.12.08.35,0,.47,0s.32-.13.22-.21a3.61,3.61,0,0,1-1.5-2.52l-.52.25a3.19,3.19,0,0,1,.69,0c.08,0,.71-.12.57-.27s-.68-.06-.88.07c0,0-.11.08-.09.11a.5.5,0,0,0,.32.2.92.92,0,0,0,.43-.06s.26-.09.23-.18a.42.42,0,0,0-.11-.18c0-.05-.21,0-.27,0a1,1,0,0,0-.35.12c-.07.05-.13.1-.12.19l.71-.22-.23-.17-.68.25a.68.68,0,0,1,.37.47l.66-.24a.42.42,0,0,1-.32-.23l-.72.19a4.68,4.68,0,0,1,.64,1.21c.06.17.78,0,.72-.19Z"/><path class="cls-4" d="M305,192.39a.8.8,0,0,1,0-.15v0a.12.12,0,0,1,0-.08l0,0,0,0-.05.05,0,0-.07,0h0l-.08,0h0l-.09,0h0l-.09,0h-.13l-.06,0h0l-.05,0h0l0-.09a1.32,1.32,0,0,0,0,.34v-.05a.23.23,0,0,1,0,.11l0-.05,0,0,0,0,0,0,.07-.05h0l.08,0h0l.09,0h0l.1,0h.12l.07,0h0l0,0a.42.42,0,0,1-.11-.15l0,0a.42.42,0,0,1-.06-.19v.05a.64.64,0,0,1,0-.07l0,.05,0,0,0,0,0,0-.06,0h0l-.08,0h0l-.1,0h0l-.1,0h-.11l-.07,0h0l0,0,0,0,0,0a.55.55,0,0,1,0,.22v.21a.29.29,0,0,1,0,.09l0,0s0,0,0,0l0-.05h0l.07,0h0l.08,0h0l.1,0h0l.1,0h.11l.07,0,0,0,0,0,0,0,0,0a.31.31,0,0,1,0-.19v.05a.32.32,0,0,1,0-.17l0,0,0,0-.05,0h0l-.07.05h0l-.09,0h0l-.1,0h0l-.1,0h-.13l-.06,0h0l0,0,0,0,0,0v0s0,0,0,0,0,.1.07.12a.4.4,0,0,0,.24,0,.71.71,0,0,0,.28-.09.38.38,0,0,0,.14-.14v-.1a.27.27,0,0,0-.11-.1.37.37,0,0,0-.15,0,.65.65,0,0,0-.31,0,.53.53,0,0,0-.34.28.66.66,0,0,0,0,.2.25.25,0,0,0,0,.17.23.23,0,0,0,.16.14.71.71,0,0,0,.6-.08.35.35,0,0,0,.19-.25v-.44A.2.2,0,0,0,305,192a.42.42,0,0,0-.36-.07.86.86,0,0,0-.43.18.38.38,0,0,0-.12.21.42.42,0,0,0,0,.22,1.74,1.74,0,0,0,.11.18.44.44,0,0,0,.4.1.86.86,0,0,0,.32-.1.73.73,0,0,0,.16-.14.38.38,0,0,0,.06-.23c0-.08,0-.15,0-.22v0a.08.08,0,0,0,0-.09A.41.41,0,0,0,305,192a.74.74,0,0,0-.21,0,.78.78,0,0,0-.41.19.27.27,0,0,0-.11.21.46.46,0,0,0,0,.2c0,.06.08.08.14.09a.58.58,0,0,0,.26,0,.58.58,0,0,0,.25-.12s.09-.09.07-.15Z"/><path class="cls-4" d="M307.59,195h0l-.18,0h0l.07.1v0l0,0,0,0,0,0h0l-.07,0h0l-.08,0h0l-.09,0h0l-.1,0h-.09l-.06,0,0,0,0,0,.05,0,0,0v0l.32-.24-.27.09a.8.8,0,0,0-.25.11l-.06.06a.14.14,0,0,0,0,.07l0,0a.21.21,0,0,0,.11,0,.58.58,0,0,0,.26,0l.28-.09a.53.53,0,0,0,.24-.11l.05,0a.07.07,0,0,0,0-.08c-.05-.15-.23-.17-.37-.17l-.23,0a1,1,0,0,0-.22.09.36.36,0,0,0-.2.2s0,0,0,.05a.05.05,0,0,0,.06,0,1,1,0,0,0,.25,0,2,2,0,0,0,.35,0l.15,0,.13-.05.09-.06a.18.18,0,0,0,.05-.07v0a.09.09,0,0,0-.06-.06.65.65,0,0,0-.24,0Z"/><path class="cls-4" d="M305,192.68l0-.52a2,2,0,0,1,0-.25s0,0,0,0v-.05a.57.57,0,0,1,0-.13v-.06s0,0,0,0l0,0c0-.05,0,0,0,0l0,0s-.06,0,0,0,0,0,0,0h-.13s-.08,0-.09,0l0,0,0,0,0,0s0,0,0,0,0,0,0,0v0c0,.06,0,0,0,0a1,1,0,0,1,0,.17l-.06.21-.06.22,0,.12v.06s0,.09,0,0a1.56,1.56,0,0,0-.06.15l0,0h0c.07,0,0,0,0,0a.42.42,0,0,1,.15,0,.17.17,0,0,1,.12,0h0c.07,0,0,0,0,0h0l-.05-.07a.08.08,0,0,1,0-.05s0,.06,0,0,0-.07,0-.11a2.09,2.09,0,0,1-.08-.23l0-.1a.13.13,0,0,0,0-.06c0-.08,0,.05,0,0a1,1,0,0,1,0-.18c0,.05,0,0,0,0s0,0,0-.05l0,0s0,.05,0,0l0,0,0,0h0c-.08,0,0,0,0,0l-.14,0h-.06l-.07-.05s0,0,0,0a.5.5,0,0,0,0,.13l.15.5a1.85,1.85,0,0,1,.12.4v0s0,.06,0,.09h0s0,0,0,0,0-.06,0,0,0,0,0,0,.06,0,.07,0,.12,0,.08,0h0c-.05,0,.08,0,0,0s0,0,0,0l0,0s0,0,0,0,0,0,0-.06,0,0,0,0v0l0-.1a.34.34,0,0,1,0-.1c0-.06,0,0,0,0a.15.15,0,0,1,0-.07,1.93,1.93,0,0,1,0-.24v0s0-.07,0,0,0,0,0,0,0,0,0-.07,0,0,0,0l0,0s-.06,0,0,0,0,0,0,0l0,0,0,0h0s-.1,0,0,0h0s0,0,0,0,0,0,0,0,0,0,0,0,0,0,0,0,0,.08,0,.12a.28.28,0,0,0,0,.1v.15c0,.1,0,.2,0,.3l.64-.24-.18-.1a.47.47,0,0,0-.52,0c-.11.09-.2.29,0,.39l.18.1a.44.44,0,0,0,.39,0c.11,0,.25-.14.25-.27a4.54,4.54,0,0,0,0-.74.55.55,0,0,0-.47-.47.88.88,0,0,0-.7.19.9.9,0,0,0-.32.6,1.4,1.4,0,0,0,0,.29,1.34,1.34,0,0,0,.05.35.69.69,0,0,0,.53.46.73.73,0,0,0,.75-.36.86.86,0,0,0,0-.55c-.06-.22-.14-.43-.21-.64a2.46,2.46,0,0,0-.09-.29.44.44,0,0,0-.45-.26.8.8,0,0,0-.67.46,1,1,0,0,0-.06.63,1.63,1.63,0,0,0,.11.31,1.38,1.38,0,0,0,.14.3.59.59,0,0,0,.76.19.63.63,0,0,0,.29-.29,1,1,0,0,0,.1-.29c.06-.21.13-.41.17-.62a.64.64,0,0,0-.15-.61.68.68,0,0,0-.87.07.72.72,0,0,0-.24.4,1.34,1.34,0,0,0,0,.4c0,.26,0,.53.07.79,0,.07.1.13.15.15a.39.39,0,0,0,.28,0,.39.39,0,0,0,.23-.14.29.29,0,0,0,.06-.22Z"/><path class="cls-4" d="M307.67,194.86l-.63,0h0s.07,0,0,0,0,0,0,0,0,0,0,0,0,.06,0,0v0s0,0,0,0v0c0-.05,0,0,0,0l0,0s-.05.06,0,0h0s.05,0,0,0-.09,0,0,0-.09,0,0,0h0l.09,0,.11,0,.12.06c.05,0,0,0,0,0l.07,0,.05,0s0,0,0,0,0,.07,0,0v0c0,.06,0,0,0,0v0s0,0,0,0l0-.05.07,0h0c.12,0,0,0,0,0h-.68a.66.66,0,0,1-.14,0h-.05c-.08,0,.06,0,0,0l-.06,0s.05,0,0,0l0,0h0s0,0,0,0,0-.05-.06-.08,0,0,0,0,0,0,0-.07,0,0,0,0v0s.05,0,0,0h0a.18.18,0,0,1-.07.05h0c.08,0-.09,0,0,0s-.06,0,0,0h.07l.65.14a.48.48,0,0,0,.47-.22c.07-.18-.07-.27-.22-.31l-.41-.08a1.35,1.35,0,0,0-.35-.06.75.75,0,0,0-.82.49.58.58,0,0,0,.31.6,1.8,1.8,0,0,0,.89.14,2.14,2.14,0,0,0,.91-.08.57.57,0,0,0,.35-.39.51.51,0,0,0-.11-.38,1,1,0,0,0-.35-.24,1.82,1.82,0,0,0-.39-.14.91.91,0,0,0-.92.29.56.56,0,0,0-.11.42.45.45,0,0,0,.3.31,1.25,1.25,0,0,0,.51,0l.49,0a.67.67,0,0,0,.28-.1.32.32,0,0,0,.12-.2c0-.18-.18-.24-.33-.23Z"/><path class="cls-4" d="M306.72,195l.38-.17.08-.05.07,0,0-.07a.2.2,0,0,0,0-.11.14.14,0,0,0,0-.06.13.13,0,0,0,0-.06.33.33,0,0,0-.18-.08l-.36,0-.06.51h-.06l.32,0h0l-.08,0,.07,0-.07,0,0,0-.05,0s0,0,0,0l0-.06s0,0,0,0v-.05l0-.07s0,0,0,0l0-.07v0l.06-.06h0l.08-.05h0l.09,0h.2l-.06,0,.07,0-.09-.07a.58.58,0,0,0-.87.14.21.21,0,0,0,0,.2.31.31,0,0,0,.2.11.5.5,0,0,0,.48-.23h0l0,.07v0l-.06.06h0l-.08,0h0l-.09,0h-.12l-.09,0,.06,0-.07,0a.31.31,0,0,1,.09.07,1.19,1.19,0,0,0,.15.09l.05,0,.13,0a.55.55,0,0,0,.22,0,.46.46,0,0,0,.2-.09.47.47,0,0,0,.13-.15v0s0-.06,0-.09a.34.34,0,0,0,0-.1.36.36,0,0,0-.08-.12.54.54,0,0,0-.18-.11.84.84,0,0,0-.27,0,2.49,2.49,0,0,0-.46.05l-.09,0a.41.41,0,0,0-.11.07.42.42,0,0,0-.1.17.2.2,0,0,0,0,.13.29.29,0,0,0,.21.11l.36,0,0-.48-.38.17a.44.44,0,0,0-.19.17.2.2,0,0,0,0,.2.41.41,0,0,0,.49.06Z"/><path class="cls-4" d="M304.84,192.39v.51s0,.07,0,.09a.1.1,0,0,0,.07.07.33.33,0,0,0,.24.05.56.56,0,0,0,.27-.1l.07,0a.31.31,0,0,0,.06-.13v-.51a.14.14,0,0,0,0-.09.23.23,0,0,0-.07-.07.41.41,0,0,0-.24,0,.55.55,0,0,0-.28.09l-.06.06a.24.24,0,0,0-.07.12Z"/><path class="cls-4" d="M305.08,191.63a.45.45,0,0,1-.11-.19.28.28,0,0,1,0-.09c0-.06,0,0,0,0l-.18.06h-.22s0,0,0,0l.07.06a.58.58,0,0,1,.11.15,1.94,1.94,0,0,1,.15.36,1.2,1.2,0,0,1,0,.75.61.61,0,0,1-.07.14l0,0h0l.07,0,.19,0h0s0,0,0,0h0l-.13-.07a.85.85,0,0,1-.31-.67,1.24,1.24,0,0,1,0-.43.36.36,0,0,1,.07-.17l0,0s0,0,0,0a.8.8,0,0,1-.2.07.21.21,0,0,1-.11,0h0a.73.73,0,0,0,.5-.09c.08,0,.25-.15.09-.2a.9.9,0,0,0-.49,0,1,1,0,0,0-.46.24.72.72,0,0,0-.18.58,1,1,0,0,0,.54,1,1.16,1.16,0,0,0,.89-.1.77.77,0,0,0,.41-.49,1.43,1.43,0,0,0-.21-1.19.48.48,0,0,0-.26-.21,1,1,0,0,0-.68.11.39.39,0,0,0-.22.31.47.47,0,0,0,.16.31s.15,0,.19,0a.94.94,0,0,0,.28-.06c.06,0,.3-.12.21-.22Z"/><path class="cls-4" d="M307.29,194.89s0,0,0,0-.07.07,0,0,0,0,0,0l0,0s.07,0,0,0l0,0h-.1s.08,0,0,0H307c-.06,0,0,0,0,0l-.12-.07s0,0,0,0a.08.08,0,0,0,0,0l-.06-.08a.54.54,0,0,1,0-.15s0,0,0,0,0,0,0,0,0,0,0,0v0s0,0,0,0,0,0,0,0h.07s.2,0,.22,0h0l.08,0s0,0,0,0l.05,0h0a.41.41,0,0,1,.1.13s0,0,0,.06a.35.35,0,0,0,0,.06.29.29,0,0,1,0,.14l0,.05s0,0,0,0l0,0s0,0,0,0l0,0s.07,0,0,0l-.06,0s0,0,0,0h-.29l-.08,0h0s0,0,0,0l-.12-.07-.06-.05,0,0a.59.59,0,0,1-.15-.28.17.17,0,0,1,0-.07s0-.09,0-.05,0-.08,0,0,0,0,0,0-.05,0-.09,0h-.13s0,0,0,0h0l.11,0a1.12,1.12,0,0,0,.32,0h.3s0,0,0,0h.05c-.05,0,0,0,.05,0l.08,0,.17.1a.85.85,0,0,0,.54.1c.15,0,.37-.09.4-.27s-.2-.23-.33-.21,0,0,0,0,0,0,0,0l-.06,0s0,0,0,0a1.18,1.18,0,0,1-.19-.11,1.17,1.17,0,0,0-.56-.19,1.67,1.67,0,0,0-.32,0h-.09s0,0,0,0l-.07,0a.81.81,0,0,0-.78.15.59.59,0,0,0-.21.58.87.87,0,0,0,.24.44,1.25,1.25,0,0,0,.86.35,1.43,1.43,0,0,0,1.06-.39.76.76,0,0,0,.23-.54.68.68,0,0,0-.24-.47,1.41,1.41,0,0,0-1.18-.23c-.38.07-.8.36-.69.79a.89.89,0,0,0,.86.6A1.3,1.3,0,0,0,308,195c.09-.15-.09-.27-.22-.28a.51.51,0,0,0-.47.22Z"/><path class="cls-4" d="M408.36,193.58a.63.63,0,0,1-.09-.33,0,0,0,0,0,0,0h0l0,0c0,.06-.33.1-.2.06l-.18.05h0s0,0,0,0l.05,0a1.69,1.69,0,0,1,.17.29,2.11,2.11,0,0,1,.16.34.87.87,0,0,1,.1.68h0l0,0h0l.42-.1a1.25,1.25,0,0,1-.09-.12,1.46,1.46,0,0,1-.16-.3,2,2,0,0,1-.14-.38,1.46,1.46,0,0,1,0-.2s0-.05,0-.07.06,0-.12,0l-.19.05c-.17-.06-.22-.06-.16,0s0,0,0,0a.25.25,0,0,1,0,.07,1.54,1.54,0,0,1,.08.19,2.34,2.34,0,0,1,.09.38s0,.06,0,.1v0a.44.44,0,0,1,.38-.14h0s-.06,0,0,0a.55.55,0,0,1-.18-.19,1,1,0,0,1-.1-.29.75.75,0,0,1,0-.16.52.52,0,0,1,0-.18h0s0,0,0,0a.42.42,0,0,1-.12.08l-.14,0q-.17,0-.09,0h0l0,0a.46.46,0,0,1,.12.12l0,.05s0,.06,0,0l.39-.19h0c-.05,0,0,0,0,0h-.09a.62.62,0,0,0-.51.07c-.08,0-.23.2-.07.26a1.09,1.09,0,0,0,.35.07.82.82,0,0,0,.57-.14.24.24,0,0,0,.08-.27.89.89,0,0,0-.16-.22.62.62,0,0,0-.58-.17c-.23,0-.56.16-.56.44a1.7,1.7,0,0,0,.08.45,1.16,1.16,0,0,0,.22.39.61.61,0,0,0,.48.21c.25,0,.64-.12.64-.43a1.61,1.61,0,0,0-.1-.53c-.06-.17-.14-.39-.34-.43a.79.79,0,0,0-.54.1.42.42,0,0,0-.22.27,1.19,1.19,0,0,0,.1.53,2.62,2.62,0,0,0,.22.48,1.35,1.35,0,0,0,.14.22.42.42,0,0,0,.34.13.74.74,0,0,0,.68-.38.83.83,0,0,0,0-.54,3.93,3.93,0,0,0-.24-.56l-.15-.27a.55.55,0,0,0-.17-.2.61.61,0,0,0-.46-.06.88.88,0,0,0-.45.25.55.55,0,0,0,0,.59c.06.13.29.1.41.07a.77.77,0,0,0,.24-.12s.1-.09.07-.15Z"/><path class="cls-4" d="M407.59,193.68a1.72,1.72,0,0,0,.35,1l.11-.26.12-.05.19,0s0,0,0,0h0l0,0h0v0s0,0,0-.07a1.35,1.35,0,0,1-.05-.29,2.27,2.27,0,0,1,0-.58c0-.14-.17-.17-.27-.17a.59.59,0,0,0-.44.2.92.92,0,0,0-.09.74,2,2,0,0,0,.44.67l.19-.3.11,0h0l0,0s0,0,0,0a.23.23,0,0,1-.07-.07,1.12,1.12,0,0,1-.12-.39.93.93,0,0,1,0-.44.29.29,0,0,1,0-.09v0s0,0,0,0l0,0s0,0,0,0,.06,0,0,0,0,0,0,0,.22-.22.06-.3a.58.58,0,0,0-.51.07.78.78,0,0,0-.37.51,1.55,1.55,0,0,0,.06.64.86.86,0,0,0,.25.5.78.78,0,0,0,.82.08c.09,0,.3-.18.19-.31a1.53,1.53,0,0,1-.37-.55.6.6,0,0,1-.05-.28.45.45,0,0,1,0-.16v0l0-.08-.7,0a2.76,2.76,0,0,0,0,.86.52.52,0,0,0,.16.36.67.67,0,0,0,.71,0c.08-.06.18-.16.1-.27a1.6,1.6,0,0,1-.29-.89s-.1-.09-.15-.1a.5.5,0,0,0-.27,0c-.14,0-.31.12-.31.29Z"/><path d="M308.49,194.06l-.11,0c-.14,0-.28-.05-.42-.06h-.58c-.16,0-.32,0-.49.06l.37,0h-.11l.33.05-.16-.05.27.11-.18-.1.2.15a.47.47,0,0,1-.13-.15l.11.2a.25.25,0,0,1,0-.14v.23a.27.27,0,0,1,0-.12l-.1.23,0-.07-.19.22.06-.05-.26.2.05,0-.32.17.05,0-.38.13.08,0-.39.07h.08l-.36,0H306l-.33,0a.59.59,0,0,1,.19.05l-.27-.11.22.11a1.77,1.77,0,0,0,1,.14,3,3,0,0,0,1.1-.38l.26-.21a.87.87,0,0,0,.27-.45v-.23a.57.57,0,0,0-.31-.35,2.46,2.46,0,0,0-.65-.26,2.77,2.77,0,0,0-1.37.06,2.33,2.33,0,0,0-1.33.88.87.87,0,0,0-.11.7,1.29,1.29,0,0,0,1,.79,2.91,2.91,0,0,0,1,0l.43,0H307l-.33,0a.5.5,0,0,1,.13,0,1.47,1.47,0,0,0,.51,0,1.89,1.89,0,0,0,.58-.08,1.81,1.81,0,0,0,.54-.22,1.66,1.66,0,0,0,.42-.29c.16-.17.36-.43.27-.68l-.11-.2a.91.91,0,0,0-.47-.26Z"/><path d="M410.66,194.38a.87.87,0,0,1-.11-.44v.18a1,1,0,0,1,.11-.43l-.1.2a.89.89,0,0,1,.16-.22l-.19.19a.87.87,0,0,1,.11-.09l-.26.18a.41.41,0,0,1,.11-.07l-.33.16h0l-2-.13a.41.41,0,0,1,0,.11v-.18a.83.83,0,0,1-.06.21l.11-.2a.44.44,0,0,1-.12.15l.2-.19-.11.08.27-.18-.09.05.33-.16-.08,0,.37-.13-.07,0,.39-.08h-.07l.36,0h-.07l.32,0h-.09l.26.07-.11-.05.18.11a.44.44,0,0,1-.13-.14l.09.16a.46.46,0,0,1-.06-.28v.18a.8.8,0,0,1,.09-.3l-.11.19a.76.76,0,0,1,.11-.14l-.19.19.07-.06-.26.18.07,0-.33.16.05,0-.38.13h.05l-.39.08h0l-.36,0h.07a2.6,2.6,0,0,0,.56-.07,2.21,2.21,0,0,0,.57-.17,1.58,1.58,0,0,0,.46-.25,1,1,0,0,0,.33-.28c.11-.16.19-.37,0-.53l-.19-.12a1.41,1.41,0,0,0-.58-.09,2.58,2.58,0,0,0-.48,0,3.63,3.63,0,0,0-1,.32,2.29,2.29,0,0,0-.81.6,1.16,1.16,0,0,0-.27.89.86.86,0,0,0,.21.4,1.15,1.15,0,0,0,.28.19,1.38,1.38,0,0,0,.39.13,2.27,2.27,0,0,0,.45,0,3.65,3.65,0,0,0,.87-.12,3.54,3.54,0,0,0,1.21-.57,1.55,1.55,0,0,0,.5-.61.88.88,0,0,0,.05-.15,1.09,1.09,0,0,0,0-.36c-.07-.29-.48-.33-.71-.35a2.9,2.9,0,0,0-1.3.22,2.35,2.35,0,0,0-1.35,1.24,1.44,1.44,0,0,0-.07.55.87.87,0,0,0,.11.38.31.31,0,0,0,.19.21.63.63,0,0,0,.35.13,1.74,1.74,0,0,0,.51,0,2.82,2.82,0,0,0,.57-.09,2.44,2.44,0,0,0,1-.47l.19-.19a.45.45,0,0,0,.12-.38Z"/><path class="cls-4" d="M407.71,194c.29,0,.76-.44.27-.44-.3,0-.76.44-.27.44Z"/><path class="cls-4" d="M408.29,193.68a.52.52,0,0,1-.24-.46.55.55,0,0,1,.07-.25.25.25,0,0,1,.07-.08s.05,0,0,0l0,0a.63.63,0,0,1-.23.08h-.17s0,0,0,0l0,0a.47.47,0,0,1,0,.17,1.35,1.35,0,0,1,0,.4,1.21,1.21,0,0,1-.05.18.41.41,0,0,1-.08.13s0,0,0,0,.45-.11.46-.1l0,0a1.46,1.46,0,0,1-.07-.19,2.12,2.12,0,0,1-.12-.83.35.35,0,0,1,0-.14.08.08,0,0,1,0,0s0,0,0,0,0,0,0,0a.23.23,0,0,1-.12.06l-.14,0c-.15,0-.16,0-.11,0h0s0,0,0,0h0a.58.58,0,0,1,0,.19c0,.22.21.42.2.65a.28.28,0,0,1,0,.13s0,0,0,0,0,0,0,0h0c.08,0,.05,0,0,0l.12,0h.06s0,0,0,0h0l0,0a.52.52,0,0,1-.15-.6.75.75,0,0,1,.18-.28s0,0,0,0l0,0s0,0,0,0l-.18.05h-.05a.47.47,0,0,1,.08.58,1.18,1.18,0,0,1-.25.3l-.18.17-.09.09,0,0s-.06.05,0,0l.15-.08h0l.28-.06h.12s0,0,0,0,0,0,0-.06a.71.71,0,0,1,0-.14.79.79,0,0,1,.08-.26l-.72.15s0,.08,0,.12l0,.05s.07-.05.07-.05l.18-.07c.34-.11.29.1.25-.09a.59.59,0,0,1,0-.13.77.77,0,0,1,0-.26.72.72,0,0,1,.12-.21.4.4,0,0,0,.1-.29s-.1-.06-.14-.06a.58.58,0,0,0-.26,0,.69.69,0,0,0-.25.1s-.09.07-.08.13,0,.11-.06.16a1,1,0,0,0-.13.22,1.08,1.08,0,0,0-.05.47c0,.09,0,.16.12.2a.69.69,0,0,0,.49,0,.55.55,0,0,0,.34-.24.42.42,0,0,0,0-.25c0-.05-.1-.06-.13-.07l-.22,0c-.12,0-.31.08-.37.2a.94.94,0,0,0-.08.33.37.37,0,0,0,.06.29.34.34,0,0,0,.28,0,.9.9,0,0,0,.45-.18,3.57,3.57,0,0,0,.28-.27c.27-.25.65-.62.44-1a.5.5,0,0,0-.52-.27,1.13,1.13,0,0,0-.85.43.84.84,0,0,0-.18.63.58.58,0,0,0,.36.44.85.85,0,0,0,.42,0,1.12,1.12,0,0,0,.5-.18.47.47,0,0,0,.23-.52c0-.18-.15-.35-.18-.53s0-.21-.1-.28a.56.56,0,0,0-.42-.05.91.91,0,0,0-.52.23.5.5,0,0,0-.12.28,2.27,2.27,0,0,0,.05.69c0,.11.06.22.1.33s.09.21.21.24a1,1,0,0,0,.69-.15.7.7,0,0,0,.22-.26,1.44,1.44,0,0,0,.11-.68.48.48,0,0,0-.09-.26c-.11-.13-.32-.1-.47-.07a1,1,0,0,0-.69.51.67.67,0,0,0,0,.57.69.69,0,0,0,.2.22.31.31,0,0,0,.19,0,.71.71,0,0,0,.28-.06s.33-.15.21-.23Z"/></svg>
