<svg id="Layer_1" data-name="Layer 1" xmlns="http://www.w3.org/2000/svg" viewBox="0 0 700 500"><defs><style>.cls-1{fill:#f1a53b;}.cls-2{fill:#aa91cd;}</style></defs><path d="M373.68,43.12a.38.38,0,0,0,0-.75.38.38,0,0,0,0,.75Z"/><path d="M458.67,181.36c1.21,4.12,2.48,8.23,4.05,12.22.17.45.9.25.72-.2-1.56-4-2.83-8.1-4-12.21a.38.38,0,0,0-.73.19Z"/><path d="M345.49,65.87a18.14,18.14,0,0,0,5.86,2.23c.47.09.67-.63.2-.72a17.54,17.54,0,0,1-5.69-2.16c-.41-.25-.79.39-.37.65Z"/><path d="M463.79,199.83,463,214.26c-.24,4.61-.75,9.3-.41,13.91.52,6.89,4.29,12.89,10.8,15.59a15.47,15.47,0,0,0,10.39.63c.92-.28.53-1.73-.4-1.45-5.92,1.78-12.4-.85-16.08-5.67-4.81-6.32-3.2-15.15-2.82-22.52l.77-14.92c0-1-1.45-1-1.5,0Z"/><path d="M338,35.14a.75.75,0,0,0,0-1.5.75.75,0,0,0,0,1.5Z"/><path d="M339,35a48.34,48.34,0,0,1,8.22-7.7,24,24,0,0,1,10.42-3.91c.95-.11,1-1.62,0-1.5a25.68,25.68,0,0,0-10.9,3.93A48.75,48.75,0,0,0,338,34c-.65.71.41,1.78,1.06,1.06Z"/><path d="M357,22.82c9.18-3.76,19.38-3.39,28.75-.51,9.64,3,18.18,8.59,25.84,15.05a299.31,299.31,0,0,1,22.32,21.45,140.15,140.15,0,0,1,19.31,25c5.34,8.86,9.95,18.14,14.56,27.39,4.83,9.67,9.12,19.43,11.24,30.09,2.09,10.46,2.81,21.21,5.78,31.49a151,151,0,0,0,5.58,14.87,128.15,128.15,0,0,1,5.24,15.6c2.82,10.63,4.89,21.51,7,32.29a316.92,316.92,0,0,1,5.08,33.69c.24,2.75.42,5.49.55,8.24,0,1,1.54,1,1.5,0a260,260,0,0,0-4.1-34c-2-11.16-4.3-22.29-6.8-33.35a156.63,156.63,0,0,0-4.37-15.91c-1.8-5.26-4.12-10.32-6.1-15.51-3.9-10.25-5.11-21-6.84-31.79A108.68,108.68,0,0,0,477.92,131a120.47,120.47,0,0,0-6-14.62c-4.58-9.65-9.41-19.26-14.68-28.56a142.31,142.31,0,0,0-18.08-25.54,318.41,318.41,0,0,0-22.68-22.62c-14.3-12.91-32.93-24.31-53-20.4a37.28,37.28,0,0,0-6.92,2.09c-.88.36-.5,1.81.4,1.44Z"/><path d="M338.33,34.57c0,5-.56,10.39.93,15.25,1.54,5,3.49,10,5.25,15,.32.91,1.77.52,1.45-.4-1.71-4.83-3.55-9.64-5.12-14.53s-1-10.23-1-15.28a.75.75,0,0,0-1.5,0Z"/><path d="M338.54,32.68c-8.72-3.2-18.31-.89-26.67,2.33a90.42,90.42,0,0,0-22.13,12.52c-14.42,10.95-25.65,25.39-35.16,40.67a280.4,280.4,0,0,0-14.17,25.27,114.07,114.07,0,0,0-8.83,25.39c-3.86,17.35-4.39,35.2-5.5,52.87s-2.75,35.55-9,52.23c-.79,2.11-1.66,4.19-2.59,6.24-.4.87.89,1.64,1.29.76,7.19-15.74,9.79-33,11.16-50.06,1.41-17.58,1.58-35.3,4.39-52.74a126.76,126.76,0,0,1,6.55-25.22c3.44-9,8.23-17.39,13-25.68,9.11-15.74,19.54-31,33.2-43.17a98.27,98.27,0,0,1,21.2-14.55c7.86-3.93,16.95-7.35,25.88-6.85a24,24,0,0,1,6.95,1.43c.91.34,1.3-1.11.4-1.44Z"/><path d="M346.29,65.73a.38.38,0,0,0,0-.75.38.38,0,0,0,0,.75Z"/><path d="M495.83,214.44c9.69,12.32,13.54,28,16.87,43,1.91,8.63,3.08,17.2,2,26s-3.23,17.57-5,26.28c-1.8,8.86-3.62,17.71-5.4,26.56-1.7,8.45-3.27,17-3.2,25.65.11,16.3,5.66,32.08,12.67,46.6,3.18,6.6,7.09,12.9,13.42,16.88a30.11,30.11,0,0,0,19.11,4.46,29.21,29.21,0,0,0,4.81-.94.75.75,0,0,0-.4-1.45,28.43,28.43,0,0,1-20.14-1.89c-6.81-3.36-11.18-9.24-14.55-15.87-7.3-14.38-13-30.38-13.41-46.65-.2-8.74,1.33-17.38,3-25.91s3.5-17.21,5.25-25.82,3.79-17.13,5-25.79a63.75,63.75,0,0,0,.68-12.42,84.47,84.47,0,0,0-1.68-12.35A216.8,216.8,0,0,0,509.2,238a82.37,82.37,0,0,0-9.11-20.14q-1.5-2.3-3.2-4.44c-.6-.76-1.65.31-1.06,1.06Z"/><path d="M508.48,278.19c-1.76,6.57.16,13.11,2.11,19.4a102.43,102.43,0,0,1,4.54,20.74c1.26,13.67.11,27.44,1.59,41.09a108.85,108.85,0,0,0,8.77,33.4A79.72,79.72,0,0,0,544.65,419c6.93,6.24,18.3,15,28,9.59l-1-1-5.18,11.74c-.28.64.32,1.45,1,1a13.94,13.94,0,0,1,13.36-.61l-.35-.85c-1,2.76-4.41,5.06-7,6.06s-5.19,1.83-7.78,2.77c-5,1.83-10,4-13.95,7.82-1,.94-1.77,2.05-2.75,3a28.35,28.35,0,0,1-3.62,2.94,29.81,29.81,0,0,1-7.77,3.85,25.79,25.79,0,0,1-17.08-.21c-10.13-3.83-18.18-11.6-24.24-20.4a99.88,99.88,0,0,1-7.92-13.85c-2.59-5.42-4.82-10.87-5.71-16.85-2.28-15.24,2.23-30.43,3-45.61.05-1-1.45-1-1.5,0-.73,14.23-4.66,28.31-3.37,42.62a52,52,0,0,0,1.93,10.2,64.82,64.82,0,0,0,3.14,7.8,108.08,108.08,0,0,0,7.9,14.64c6,9.2,13.95,17.53,24.16,22a27.66,27.66,0,0,0,16.54,2,31.32,31.32,0,0,0,15.31-7.82c1.23-1.14,2.21-2.5,3.44-3.64a25.73,25.73,0,0,1,4-3,49.23,49.23,0,0,1,8.89-4.07c3-1.09,6.3-1.89,9.17-3.31a19.3,19.3,0,0,0,4.12-3,8.9,8.9,0,0,0,2.58-3.6.76.76,0,0,0-.34-.85,15.53,15.53,0,0,0-14.87.61l1,1,5.18-11.74a.76.76,0,0,0-1-1c-8.58,4.74-18.87-3-25.1-8.4a78,78,0,0,1-19.08-24.89,104.27,104.27,0,0,1-9.27-32.63c-1.6-12.86-.75-25.81-1.5-38.72a95.58,95.58,0,0,0-3.81-21.87c-2.12-7.17-5.24-14.69-3.22-22.25a.75.75,0,0,0-1.44-.39Z"/><path d="M256,204.35c5.52,23.66,10.88,47.35,16.55,71a139.57,139.57,0,0,0,9.58,28,101.49,101.49,0,0,0,16.22,24.16,125,125,0,0,0,23.55,20,171.24,171.24,0,0,0,27.46,14.38c9.14,3.92,19,7.88,28.93,4.7,10.33-3.3,19.49-9.72,28.26-15.93a198.77,198.77,0,0,0,25.57-21.67,52.88,52.88,0,0,0,9.46-12.16c2.7-5,4.68-10.41,6.93-15.64,1.1-2.59,2.22-5.17,3.31-7.76.37-.89-1.08-1.28-1.45-.4q-3.34,8-6.74,15.95a55.8,55.8,0,0,1-8,14,117.77,117.77,0,0,1-11.13,11.21c-4.16,3.81-8.47,7.46-12.94,10.9-4.22,3.26-8.61,6.31-13,9.27a108.1,108.1,0,0,1-13.84,8.07c-4.75,2.25-9.78,4.12-15.11,3.88-5.11-.24-10.06-1.91-14.77-3.78C335.88,355,318,345,303.47,330.65a100.35,100.35,0,0,1-17.62-23.34,122.12,122.12,0,0,1-10.52-26.93c-3-11.06-5.37-22.3-8-33.45q-4-17.25-8-34.53c-.65-2.82-1.3-5.63-2-8.45-.22-.94-1.67-.54-1.45.4Z"/><path d="M84.42,369.16c.75,6.18,5.68,10.64,11.36,12.56,6.8,2.3,14.56,1.73,21.56.8a152.34,152.34,0,0,0,22.79-5.25c7-2.06,14.18-4,20.38-8,6-3.8,11-9.19,15.46-14.7a102.21,102.21,0,0,0,18.56-35.7c2.11-7.35,3.06-14.92,4.5-22.41,3.29-17.15,10.88-32.94,18.45-48.54.42-.86-.87-1.63-1.3-.76-6.39,13.17-12.84,26.45-16.69,40.62-2,7.33-2.91,14.85-4.38,22.29a101.34,101.34,0,0,1-5.91,19.43,97.66,97.66,0,0,1-22.34,32.83,44.65,44.65,0,0,1-8.65,6.57,55.83,55.83,0,0,1-9.7,4.17,220.48,220.48,0,0,1-21.73,6.17c-8.06,1.82-16.59,3.12-24.87,2.22-7-.76-15-4.53-16-12.34-.11-1-1.61-1-1.5,0Z"/><path d="M83.51,368.39a14,14,0,0,0,2.93,18.4l.91-1.18A17.76,17.76,0,0,1,78.86,376a.76.76,0,0,0-1.25-.33c-5.57,6.26.67,14,5.4,18.54l.15-1.18A33.55,33.55,0,0,0,67,407.8c-.39.72.58,1.56,1.18.91a23.53,23.53,0,0,1,14.19-7.48l-.58-1.37a21.71,21.71,0,0,0-7.91,11.53.76.76,0,0,0,1.1.85c4.61-2.91,9.29-5.57,14.81-6.12,1-.09,1-1.59,0-1.5-5.81.58-10.71,3.25-15.57,6.32l1.1.85a20.12,20.12,0,0,1,7.23-10.64.76.76,0,0,0-.58-1.37,24.91,24.91,0,0,0-14.85,7.86l1.18.91a32.26,32.26,0,0,1,15.67-14.24.76.76,0,0,0,.15-1.18c-4-3.86-10.29-10.92-5.4-16.42l-1.25-.33a19.29,19.29,0,0,0,9.17,10.53c.72.37,1.62-.63.91-1.18a12.51,12.51,0,0,1-2.7-16.58c.54-.8-.75-1.56-1.29-.76Z"/><path d="M482.12,244.79a37.15,37.15,0,0,0,19.68-8.38c.64-.53-.08-1.35-.73-1.25-4.2.65-8-2-10.34-5.31s-3.76-7.35-5-11.19c-2.64-8-4.16-16.32-5.59-24.61a247.51,247.51,0,0,0-5-24.6,168.79,168.79,0,0,0-9.12-24.1c-1.94-4.28-3.89-8.59-6-12.79-1.65-3.27-3.75-6.43-7.3-7.81-.9-.35-1.29,1.1-.4,1.45,3.44,1.33,5.29,4.82,6.82,8q2.82,5.83,5.5,11.74A163.73,163.73,0,0,1,474,170.94c4.41,16.44,5.19,33.72,10.88,49.83,2.57,7.28,7.2,17.29,16.63,15.84l-.73-1.26a35.34,35.34,0,0,1-18.62,7.94c-.95.1-1,1.61,0,1.5Z"/><path d="M312.79,197.86a1.5,1.5,0,0,0,0-3,1.5,1.5,0,0,0,0,3Z"/><path d="M350.27,198.79c5.16-1.81,10.4-3.57,16-3.27s11.07,1.33,16.56,2c.26,0,.4-.27.36-.48l-.2-1.07c-.09-.48-.82-.28-.73.2l.21,1.07.36-.47-8.55-1.12c-2.82-.37-5.65-.84-8.5-.95-5.43-.21-10.6,1.54-15.66,3.31-.45.16-.26.89.2.73Z"/><path d="M273,198.07c-2-6.56,1.64-13.46,6.88-17.38,5.84-4.36,13.4-5.63,20.45-6.6a39.21,39.21,0,0,1,12.88-.13,93.31,93.31,0,0,1,11,3,39.71,39.71,0,0,1,10.41,4.7,38.35,38.35,0,0,1,8.08,7.91c2.48,3.08,5.51,6.41,5.88,10.52.36,3.89-1.11,7.87-2.21,11.55-2.07,6.92-5.11,13.16-10.38,18.21a35.87,35.87,0,0,1-17,9.19,55.53,55.53,0,0,1-11.79,1.15,39.93,39.93,0,0,1-10.33-1.2,21.69,21.69,0,0,1-9.05-4.78c-2.84-2.61-4.95-6-7.09-9.15-4.36-6.45-8.42-13.57-8.78-21.54a22.79,22.79,0,0,1,.5-5.88c.1-.47-.62-.67-.72-.19-1.75,8,1.06,16,5.1,22.88a113,113,0,0,0,6.94,10.38,23.25,23.25,0,0,0,7.93,7.09c6.54,3.38,14.38,3.5,21.54,2.85a38.26,38.26,0,0,0,20-7.42A37,37,0,0,0,345.37,217,70.42,70.42,0,0,0,349,204.5a13.54,13.54,0,0,0-2.32-10.84c-4.53-6.42-9.72-12.35-17.09-15.48a98.85,98.85,0,0,0-11.48-3.79,37.08,37.08,0,0,0-12.64-1.63,89.89,89.89,0,0,0-12.1,1.71,40.24,40.24,0,0,0-10.79,3.62c-5.76,3.06-10.57,8.72-11,15.45a13.27,13.27,0,0,0,.6,4.73c.14.46.87.27.72-.2Z"/><path d="M383.57,197.08a27.82,27.82,0,0,1,11.55-15.7c6.35-4.11,14.53-5.41,21.92-6.17a49.8,49.8,0,0,1,23,3c6.21,2.4,12.49,6.22,15.85,12.17,4,7.15,1.81,15.37-.53,22.68a58,58,0,0,1-4.36,11,27.1,27.1,0,0,1-6.35,7.47c-11.06,9.08-28.29,10.76-41.19,4.93A32.86,32.86,0,0,1,388.42,223a49.63,49.63,0,0,1-4.24-10.6c-1-3.52-2.14-7.19-2.08-10.9a11.87,11.87,0,0,1,1.34-5.45c.23-.43-.42-.81-.65-.38-1.66,3.13-1.65,6.65-1.05,10.07A66.73,66.73,0,0,0,385,217.29a34.27,34.27,0,0,0,13,17c12.39,8.31,30,8.3,42.8.88A30.22,30.22,0,0,0,454,219.48a101.25,101.25,0,0,0,3.9-12.36,27.41,27.41,0,0,0,.64-11.91c-1.38-6.7-6.59-11.7-12.35-15a48.45,48.45,0,0,0-22.79-6.08,67.27,67.27,0,0,0-12.66,1.19,53.64,53.64,0,0,0-11.57,3.06,28.5,28.5,0,0,0-14.55,13.78,29,29,0,0,0-1.76,4.68.37.37,0,0,0,.72.2Z"/><path d="M458.67,194.38c.17-.3.67,0,.86.12a3,3,0,0,0,1.22.74,2.42,2.42,0,0,0,1.55-.46l1.75-.89c.43-.22.05-.87-.38-.65l-1.8.92a2.48,2.48,0,0,1-.82.35.94.94,0,0,1-.65-.26,2.92,2.92,0,0,0-1.18-.71,1.07,1.07,0,0,0-1.2.46c-.25.41.4.79.65.38Z"/><path d="M458.37,200.38a14.51,14.51,0,0,0,8.74-1.13,2.64,2.64,0,0,0,1.2-1.09,2.37,2.37,0,0,0,0-1.9,9.45,9.45,0,0,0-2.3-3.5,2.19,2.19,0,0,0-1.74-.72,1.37,1.37,0,0,0-1.21,1c-.1.47.62.67.73.2.17-.76,1.1-.46,1.52-.12a6.82,6.82,0,0,1,1.33,1.55c.68,1,1.85,2.81.47,3.71a10.41,10.41,0,0,1-3.92,1.28,14.42,14.42,0,0,1-4.59,0c-.47-.08-.67.64-.2.72Z"/><path d="M381.39,206a2.8,2.8,0,0,1,1.22-1.67,1.33,1.33,0,0,1,1.65.48,5.08,5.08,0,0,1,.78,1.8c.24.86.45,1.73.68,2.59.27,1.05,1.3,3.63-.26,4.17s-2.79-1.67-3.32-2.85a11.47,11.47,0,0,1-.91-5.58c0-.48-.71-.48-.75,0a12.07,12.07,0,0,0,1.12,6.18c.71,1.5,2.08,3.61,4.06,3s1.3-3.1.92-4.55c-.28-1.11-.55-2.23-.87-3.32a5,5,0,0,0-1-2.1,2,2,0,0,0-2.31-.5,3.52,3.52,0,0,0-1.69,2.17c-.15.46.58.66.73.2Z"/><path d="M345.58,207.47c1-1.16,2.62-3,4.35-2.1s.92,3,0,4.11a15.28,15.28,0,0,1-2,1.94,21.47,21.47,0,0,1-2.26,1.77c-.72.48-1.68.92-2.44.28a2.18,2.18,0,0,1-.65-2c.32-2,2.37-3.24,3.34-4.92a.38.38,0,0,0-.65-.38c-1.06,1.83-3.19,3.09-3.45,5.35a2.92,2.92,0,0,0,.79,2.37,2.27,2.27,0,0,0,2.55.4,11.4,11.4,0,0,0,2.79-1.93A18.3,18.3,0,0,0,350.5,210c1.09-1.34,1.79-3.58.3-4.94a2.93,2.93,0,0,0-3-.42,7.28,7.28,0,0,0-2.73,2.29c-.31.37.21.9.53.53Z"/><path d="M338.64,175.3c-9.25-1.2-18.48-2.44-27.74-3.58a113.17,113.17,0,0,0-13.64-.88c-2.38,0-4.76.08-7.13.16-1.91.07-4-.08-5.86.56-2.06.73-3.87,2.37-5.63,3.62l-6.48,4.57.55.42c.71-3.68,1.83-7.53,4.46-10.33,2.89-3.07,7.07-3.79,11.11-3.85,4.27-.06,8.54.23,12.82.08,4.64-.15,9.28-.48,13.93-.57a66,66,0,0,1,16,1.36c.47.1.67-.62.2-.73-9.75-2.23-19.74-1.18-29.63-.82-4.57.16-9.14-.17-13.71-.06-3.78.09-7.68.8-10.57,3.42-3.18,2.88-4.52,7.22-5.32,11.3-.05.29.26.63.55.43,3.53-2.49,7-5.27,10.68-7.49,2-1.18,4.22-1.06,6.43-1.14s4.58-.16,6.88-.17c9-.06,17.93,1.33,26.87,2.48l15.25,2c.48.06.47-.69,0-.75Z"/><path d="M335.07,166.39A12.06,12.06,0,0,0,337.8,175c.31.37.83-.16.53-.53a11.25,11.25,0,0,1-2.51-8.11c0-.48-.71-.48-.75,0Z"/><path d="M332.5,166c.62,3.24,1,8,4.77,9.11a.37.37,0,0,0,.2-.72,5.09,5.09,0,0,1-3.06-3.3,32.41,32.41,0,0,1-1.18-5.29c-.09-.47-.82-.27-.73.2Z"/><path d="M390.5,167.37c.07,1.62.16,3.24.22,4.86,0,1,.06,2.38-.93,3-.41.25,0,.9.38.65a3.42,3.42,0,0,0,1.31-3.18c0-1.76-.15-3.53-.23-5.29,0-.48-.77-.49-.75,0Z"/><path d="M389.71,176.39c3.86.23,7.59-.69,11.27-1.72a68.13,68.13,0,0,1,12.66-2.47,90.43,90.43,0,0,0,12.27-1.54c4.16-.92,8-1.3,12.07.18s7.74,4.17,11.22,6.78c.26.2.65-.12.55-.42a38.48,38.48,0,0,0-5.29-10.07c-1.94-2.62-4.21-5-7.6-5.49a37,37,0,0,0-6.32,0q-3.24.14-6.48.4c-4.19.35-8.37.89-12.51,1.61a147.84,147.84,0,0,0-14.55,3.3.38.38,0,0,0,.2.73,143.64,143.64,0,0,1,30.46-5.15c2.45-.14,4.93-.29,7.38-.23a9.15,9.15,0,0,1,6.78,2.86A33.73,33.73,0,0,1,449,177.4l.55-.42c-5.9-4.44-12.41-8.92-20.16-7.78-2.11.31-4.16.89-6.26,1.26a67.82,67.82,0,0,1-7.11.8,66.91,66.91,0,0,0-12.44,1.9c-4.56,1.24-9.11,2.77-13.9,2.48-.48,0-.48.72,0,.75Z"/><path d="M390.78,175.19a16,16,0,0,0,3-7.58c.06-.48-.69-.48-.75,0a15.23,15.23,0,0,1-2.84,7.2c-.29.39.36.77.64.38Z"/><path d="M394.68,168.6a10.41,10.41,0,0,1-3.81,6.92c-.38.3.16.83.53.53a11.11,11.11,0,0,0,4-7.45c.05-.48-.7-.48-.75,0Z"/><path d="M330.52,168.71a8.74,8.74,0,0,0,6.75,7.07c.47.1.67-.62.2-.72a8,8,0,0,1-6.23-6.55c-.07-.48-.79-.28-.72.2Z"/><path d="M313.27,197.62a1.5,1.5,0,0,0,0-3,1.5,1.5,0,0,0,0,3Z"/><path d="M340.25,239.71a55.59,55.59,0,0,0-3.5,10.25c-.72,3.1-1.64,6.36.65,9,3.91,4.49,10.83,5.81,16.31,3.88.45-.16.26-.89-.2-.73a14.74,14.74,0,0,1-15.34-3.42,5.25,5.25,0,0,1-1.45-4.57,38.54,38.54,0,0,1,.95-4.76,54.43,54.43,0,0,1,3.23-9.27c.2-.44-.45-.82-.65-.38Z"/><path d="M344.67,260.47c2.4.55,4.86,1.08,7.31.5a.38.38,0,0,0-.1-.74,25.76,25.76,0,0,1-6.61-.64v.73A12,12,0,0,1,357,263.21a.38.38,0,0,0,.53-.53,12.73,12.73,0,0,0-12.47-3.09.38.38,0,0,0,0,.73,26.47,26.47,0,0,0,6.81.66l-.1-.74c-2.31.55-4.65,0-6.91-.5-.47-.11-.67.62-.2.73Z"/><path d="M372,263a12.53,12.53,0,0,1,12-1.91v-.72a22.41,22.41,0,0,1-3.47.34c-.55,0-1.11,0-1.67,0l-.72-.05-.47-.05c-.18,0-.19,0,0,.16l-.09.37-.05,0-.47-.36v0a.38.38,0,0,0,.75,0v0a.38.38,0,0,0-.48-.36.46.46,0,0,0-.28.15.37.37,0,0,0-.1.36c.06.38.44.38.74.39.76,0,1.51.13,2.27.14a23.43,23.43,0,0,0,4.26-.38c.4-.07.31-.6,0-.72a13.28,13.28,0,0,0-12.73,2.1c-.37.3.16.83.53.53Z"/><path d="M382.62,264.13a11.77,11.77,0,0,0,5.88-.64c1.62-.63,3.6-1.68,4.34-3.35a8.71,8.71,0,0,0,.46-2.92,21.2,21.2,0,0,0,.12-3.47c-.19-2.11-1.45-3.59-2.87-5a.38.38,0,0,0-.53.53c1.34,1.37,2.55,2.76,2.67,4.76a21.35,21.35,0,0,1-.1,2.65,12.23,12.23,0,0,1-.33,2.9c-.56,1.68-2.62,2.73-4.18,3.3a11.07,11.07,0,0,1-5.26.56c-.47-.06-.68.66-.2.72Z"/><path d="M371.42,212.23c-.34,7.09-.54,14.36,1.33,21.28,1.63,6,6.13,13.57,1.73,19.47-.29.39.36.77.64.38,4.14-5.53.7-12.63-1.13-18.31-2.37-7.36-2.19-15.19-1.82-22.82,0-.49-.72-.49-.75,0Z"/><path d="M412.29,196.21a1.5,1.5,0,0,0,0-3,1.5,1.5,0,0,0,0,3Z"/><path d="M395.09,246.81a119.14,119.14,0,0,0,15.47,16.44c2.67,2.34,5.46,4.49,8.27,6.65,1.61,1.23,3.23,2.64,3.86,4.64a13.21,13.21,0,0,1,0,6.25c-.09.47.64.67.72.2.64-3.59.73-7.07-2-9.85a32.55,32.55,0,0,0-3.88-3.15q-2.61-2-5.11-4.11a119.11,119.11,0,0,1-16.81-17.6c-.29-.38-.82.15-.53.53Z"/><path d="M328.47,253.87A124.1,124.1,0,0,1,313,269.09c-2.37,2-5,3.91-6.4,6.78a7.15,7.15,0,0,0,.37,7.35c.28.38.93,0,.65-.38-2-2.65-1-6.13.85-8.54s4.5-4.17,6.8-6.13A125.53,125.53,0,0,0,329,254.4c.31-.37-.22-.9-.53-.53Z"/><path d="M314.33,280.17c6.45,5,10,12.58,15.24,18.64,5.49,6.33,12.64,11.58,19.84,15.81a29.83,29.83,0,0,0,11.32,4.22,27.87,27.87,0,0,0,12.59-1.67,58.84,58.84,0,0,0,21-13.47c6.6-6.48,10.64-15.22,17.87-21.07.37-.31-.16-.83-.53-.53-6.13,5-9.82,12-14.92,17.92a60,60,0,0,1-20,14.94A32.32,32.32,0,0,1,364,318.25a25.39,25.39,0,0,1-12.49-3.31,85.64,85.64,0,0,1-10.45-6.83,69.81,69.81,0,0,1-9.64-8.37c-6-6.33-9.6-14.69-16.56-20.1-.37-.3-.91.23-.53.53Z"/><path d="M316.11,281a26.79,26.79,0,0,1,10.55-.47c3.26.52,6.4,1.58,9.66,2.06,6.18.92,12.43,0,18.63.42a30.32,30.32,0,0,1,4.75.65c1.54.34,3,1,4.51,1.36a7.36,7.36,0,0,0,3.58-.15,22.12,22.12,0,0,1,5.11-.93c3.16-.06,6.27.69,9.39,1.1,3.28.43,6.47-.07,9.74.07,5.82.27,12.73,3.3,17.71-1.25.36-.33-.17-.86-.53-.53-4.75,4.35-11.62,1.29-17.18,1-1.58-.07-3.14.09-4.72.17a29.27,29.27,0,0,1-5.37-.29,59.63,59.63,0,0,0-8.82-1.05,15.88,15.88,0,0,0-3.83.48c-1.78.45-3.42,1.05-5.27.53-1.38-.4-2.7-1-4.12-1.27a30.86,30.86,0,0,0-4.28-.62c-6.22-.52-12.49.44-18.7-.39-3.58-.48-7-1.68-10.57-2.19a27.6,27.6,0,0,0-10.44.55c-.47.11-.27.83.2.72Z"/><path d="M320.1,282.21c5.56-.86,10.51,3,15.37,5.08a130.23,130.23,0,0,0,15.64,5.07A58.58,58.58,0,0,0,367.4,295c5.61-.05,11.21-1.27,16.72-2.16l9.76-1.58c2.77-.44,6.12-.49,8.55-2,.41-.26,0-.91-.38-.65-2.23,1.42-5.34,1.48-7.89,1.89l-8.77,1.42c-5.71.92-11.49,2.19-17.28,2.36s-11.33-1.06-16.8-2.59a122.62,122.62,0,0,1-16.1-5.27c-4.89-2.13-9.69-5.75-15.31-4.88-.48.07-.27.79.2.72Z"/><path d="M320.91,282.21c2.75.43,4.12,3.35,5.91,5.16a26.13,26.13,0,0,0,6.39,4.49c2.38,1.26,4.86,2.34,7.25,3.6,2.56,1.35,4.86,3.08,7.31,4.6a23.45,23.45,0,0,0,8.27,3,48.35,48.35,0,0,0,10.09,1.17,31.6,31.6,0,0,0,9.2-2c2.9-1,5.8-2,8.66-3.1a66.9,66.9,0,0,0,17.58-9.45c.38-.29-.15-.82-.53-.53A63.69,63.69,0,0,1,385,298c-2.82,1.12-5.68,2.14-8.55,3.13a37.84,37.84,0,0,1-9.35,2.35,41.19,41.19,0,0,1-10.2-1,24.12,24.12,0,0,1-8.75-3.06c-2.35-1.45-4.53-3.11-7-4.42s-4.86-2.35-7.25-3.6a24.63,24.63,0,0,1-7.22-5.24c-1.62-1.82-3-4.26-5.6-4.67-.47-.07-.67.65-.2.73Z"/><path d="M345.06,291a5.91,5.91,0,0,1,.67,6.64c-.23.42.42.8.65.38a6.69,6.69,0,0,0-.79-7.55c-.32-.36-.85.17-.53.53Z"/><path d="M348,291.45a8,8,0,0,0-1.75,2.37.39.39,0,0,0,.14.51.38.38,0,0,0,.51-.14,8.18,8.18,0,0,1,.73-1.2l.09-.13,0,0,.05-.06.23-.27c.16-.18.33-.36.5-.52a.37.37,0,0,0,0-.53.39.39,0,0,0-.53,0Z"/><path d="M353.29,293.39a8.88,8.88,0,0,1,2.29,8.45.38.38,0,0,0,.73.2,9.67,9.67,0,0,0-2.49-9.18c-.35-.34-.88.19-.53.53Z"/><path d="M355.41,295.79a3.09,3.09,0,0,1,.4-.41l.21-.18.05,0s0,0,0,0l.12-.09.47-.29.25-.13.13-.06.06,0c-.08,0,0,0,0,0a.37.37,0,1,0-.2-.72,5.42,5.42,0,0,0-2.06,1.44.38.38,0,0,0,0,.53.39.39,0,0,0,.53,0Z"/><path d="M365.38,295.11c1.08.66,1.35,2,1.46,3.19.14,1.6.15,3.21.22,4.82,0,.48.77.48.75,0-.07-1.76-.05-3.54-.27-5.29a4.38,4.38,0,0,0-1.78-3.37.38.38,0,0,0-.38.65Z"/><path d="M367.65,299a7.87,7.87,0,0,1,2.38-4c.36-.32-.17-.85-.53-.53a8.49,8.49,0,0,0-2.57,4.34c-.12.47.61.67.72.2Z"/><path d="M378.3,293.81a.38.38,0,0,0,0-.75.38.38,0,0,0,0,.75Z"/><path d="M378.2,293.72a6.66,6.66,0,0,1,1.57,2.72A6.89,6.89,0,0,1,380,298a7,7,0,0,1,0,.79c0,.13,0,.26,0,.39l0,.17q-.09.13.12,0c-.45-.18-.64.55-.2.72.75.3.87-.83.9-1.28a7.45,7.45,0,0,0-2-5.6c-.34-.35-.87.19-.54.53Z"/><path d="M380.7,295.33s0-.09,0-.13a.17.17,0,0,1,0-.07c0-.05,0,0,0,0a1,1,0,0,1,.06-.25,1.83,1.83,0,0,1,.08-.25c0-.09,0,.05,0,0l0-.07.06-.11c0-.08.09-.15.14-.23l0,0s0-.05,0,0,.06-.07.08-.1l.19-.18a.43.43,0,0,1,.1-.09s-.05,0,0,0l.07-.05a.38.38,0,0,0-.38-.65,2.81,2.81,0,0,0-1.21,2.21.38.38,0,0,0,.38.37.37.37,0,0,0,.37-.37Z"/><path d="M386.82,292.5a3.64,3.64,0,0,1,1.33,3.48.38.38,0,0,0,.73.2,4.41,4.41,0,0,0-1.53-4.21.37.37,0,0,0-.53.53Z"/><path d="M388.57,293.24v-.16s0,.1,0,0l.05-.2a.36.36,0,0,1,0-.09c0-.07,0,0,0,0s0,0,0,0a1.14,1.14,0,0,1,.1-.19l.06-.08,0,0,0,0,.14-.14,0,0s-.07,0,0,0l.09-.06.08-.05s.15-.07,0,0a.38.38,0,0,0,.22-.17.37.37,0,0,0,0-.29.34.34,0,0,0-.17-.22.33.33,0,0,0-.29,0,1.84,1.84,0,0,0-.52.31,1.72,1.72,0,0,0-.36.4,1.82,1.82,0,0,0-.31,1,.38.38,0,0,0,.37.38.39.39,0,0,0,.38-.38Z"/><path d="M394.82,291.48l.14.08.06.05,0,0,0,0,.12.11.05.06,0,0,0,0,.08.13,0,.07,0,0v0a2.81,2.81,0,0,1,.08.31v-.1a1.22,1.22,0,0,1,0,.27.38.38,0,1,0,.75,0,1.75,1.75,0,0,0-.94-1.64.37.37,0,0,0-.29,0,.39.39,0,0,0-.23.17.37.37,0,0,0,.14.51Z"/><path d="M396.47,291.54a1.77,1.77,0,0,1,0-.23l0,.1a2.33,2.33,0,0,1,.07-.25l0,.09a1.59,1.59,0,0,1,.13-.22l-.06.08a.85.85,0,0,1,.17-.16l-.08.05.09-.06a.37.37,0,0,0,.17-.22.33.33,0,0,0,0-.29.37.37,0,0,0-.51-.13,1.2,1.2,0,0,0-.49.53,1.32,1.32,0,0,0-.15.71.47.47,0,0,0,.11.26.36.36,0,0,0,.27.11.35.35,0,0,0,.27-.11.31.31,0,0,0,.1-.26Z"/><path d="M340.15,288.78a5.77,5.77,0,0,0-3.22,4.63.39.39,0,0,0,.38.38.39.39,0,0,0,.37-.38,5,5,0,0,1,2.85-4,.37.37,0,0,0,.13-.51.39.39,0,0,0-.51-.14Z"/><path d="M336.93,288l.79,2.51a.4.4,0,0,0,.47.26.38.38,0,0,0,.26-.46l-.79-2.5a.38.38,0,0,0-.46-.27.39.39,0,0,0-.27.46Z"/><path d="M334.13,286.2a4.85,4.85,0,0,0-1.92,3.91.38.38,0,0,0,.75,0,4.08,4.08,0,0,1,1.55-3.27.38.38,0,0,0,.13-.51.37.37,0,0,0-.51-.13Z"/><path d="M332.32,286.19a.38.38,0,0,0,0-.75.38.38,0,0,0,0,.75Z"/><path d="M332.06,286.21l.17.18,0,0s0,0,0,0l.07.1a1.59,1.59,0,0,1,.13.22l.05.1s0,0,0,0,0,0,0,.07a1.42,1.42,0,0,1,.07.22l0,.12s0,.1,0,.13,0-.07,0,0v.06a.49.49,0,0,1,0,.12,2.44,2.44,0,0,1,0,.27.38.38,0,0,0,.75,0,2.72,2.72,0,0,0-.81-2.14.38.38,0,0,0-.53,0,.39.39,0,0,0,0,.53Z"/><path d="M330.06,284a2.91,2.91,0,0,0-2.23,3.25.37.37,0,0,0,.46.26.39.39,0,0,0,.26-.46c0,.06,0-.05,0-.06a.37.37,0,0,1,0-.11v-.21a1.48,1.48,0,0,1,.07-.37,2.09,2.09,0,0,1,.35-.74l0,0,.07-.08.14-.15a1.29,1.29,0,0,1,.17-.16l.14-.1a1.84,1.84,0,0,1,.75-.31.37.37,0,0,0,.26-.46.38.38,0,0,0-.46-.26Z"/><path d="M325.3,284.18a.38.38,0,0,0,0-.75.38.38,0,0,0,0,.75Z"/><path d="M325.29,284.38h0l.09,0,.19,0,.17.06.1,0h0a2.16,2.16,0,0,1,.34.17l.17.11.07.05,0,0a2.71,2.71,0,0,1,.54.53l0,0,.05.08a1,1,0,0,1,.1.17l.09.16,0,.09c0,.08,0,0,0,.05a.39.39,0,0,0,.47.26.39.39,0,0,0,.26-.46,3.55,3.55,0,0,0-2.85-2.21.37.37,0,0,0-.37.37.39.39,0,0,0,.37.38Z"/><path d="M315.15,197.09a1.5,1.5,0,0,0,0-3,1.5,1.5,0,0,0,0,3Z"/><path d="M335.43,194.17c-3.12-2.85-6.34-5.76-10.39-7.21-4.21-1.51-9.08-1.84-13.51-2.11A36.51,36.51,0,0,0,287.59,192c-.38.29,0,.94.38.65A35.81,35.81,0,0,1,311,185.57a53.17,53.17,0,0,1,13.17,1.9c4.2,1.34,7.5,4.31,10.69,7.24.36.32.89-.21.53-.54Z"/><path d="M292.83,197.38c5.88,3.21,12.72,3.78,19.29,4.28a47.89,47.89,0,0,0,10.41-.79l11.87-1.69c.47-.07.27-.79-.2-.73L323.32,200c-3.58.51-7.13,1.17-10.76.93-6.55-.44-13.48-1-19.35-4.21-.42-.23-.8.42-.38.65Z"/><path d="M332.61,199.89a3.46,3.46,0,0,0,3.2,1.44,1.82,1.82,0,0,0,1.26-1,1.6,1.6,0,0,0-.07-1.57.39.39,0,0,0-.52-.13.37.37,0,0,0-.13.51.86.86,0,0,1,0,.9,1.15,1.15,0,0,1-.91.57,2.94,2.94,0,0,1-2.33-1.27c-.33-.36-.86.17-.53.53Z"/><path d="M336.79,198.35a56.4,56.4,0,0,0-11.31-6.71A33.15,33.15,0,0,0,313,189.23a32.63,32.63,0,0,0-21.31,8.06c-.36.32.17.85.53.53A31.81,31.81,0,0,1,313.41,190a32.46,32.46,0,0,1,11.87,2.37A56.07,56.07,0,0,1,336.42,199c.39.28.77-.37.37-.65Z"/><path d="M283,197.16c3,1.47,6.66,2.83,9.74.84.4-.26,0-.91-.38-.65-2.84,1.84-6.25.51-9-.84-.44-.21-.82.44-.38.65Z"/><path d="M286.28,196.24a9.45,9.45,0,0,0,4.85,1.56c.49,0,.48-.73,0-.75a8.69,8.69,0,0,1-4.47-1.45c-.41-.27-.78.38-.38.64Z"/><path d="M288.7,195.83a4.24,4.24,0,0,0,3.3,1.54.38.38,0,0,0,0-.75,3.53,3.53,0,0,1-2.77-1.32.37.37,0,0,0-.53.53Z"/><path d="M288.8,193.45a7.14,7.14,0,0,0,1.65,2.3,2.85,2.85,0,0,0,2.6.64c.46-.15.26-.87-.2-.73a2.15,2.15,0,0,1-2-.55,7.1,7.1,0,0,1-1.39-2c-.22-.43-.87,0-.65.38Z"/><path d="M290.93,191.52a7,7,0,0,0,3.29,3.56.38.38,0,0,0,.38-.65,6.25,6.25,0,0,1-3-3.11.37.37,0,0,0-.72.2Z"/><path d="M291.31,194.29a3.7,3.7,0,0,0,3.25,1.14.37.37,0,0,0,.27-.46.39.39,0,0,0-.46-.26,2.73,2.73,0,0,1-.7,0,3.08,3.08,0,0,1-.68-.17,2.87,2.87,0,0,1-1.15-.78.37.37,0,1,0-.53.53Z"/><path d="M292.55,190.91a8.22,8.22,0,0,0,4.55,2.78c.47.11.67-.62.2-.72a7.55,7.55,0,0,1-4.22-2.59.37.37,0,1,0-.53.53Z"/><path d="M293.55,192.84a3.15,3.15,0,0,0,2.59,1.38.38.38,0,0,0,0-.75h-.31c-.07,0,0,0,0,0h-.07l-.15,0-.3-.09-.08,0c-.06,0,.08,0,0,0l-.14-.07-.27-.16-.13-.09s0,0,0,0l-.07-.06a2.18,2.18,0,0,1-.22-.21l-.1-.12s0,0,0,0l-.06-.08a.37.37,0,1,0-.64.37Z"/><path d="M296.48,188.13c.15,1-.16,2.09.23,3.07a2,2,0,0,0,1.9,1.43.39.39,0,0,0,.38-.38.38.38,0,0,0-.38-.37c-.67.06-1.12-.58-1.27-1.16a4.87,4.87,0,0,1-.09-1.32,8,8,0,0,0-.05-1.47.37.37,0,1,0-.72.2Z"/><path d="M296.09,191.24a2.8,2.8,0,0,0,1.79,2,.37.37,0,0,0,.46-.26.39.39,0,0,0-.27-.46l-.07,0c-.08,0,.08,0,0,0l-.12-.06a1.28,1.28,0,0,1-.25-.15l-.05,0,0,0s0,0,0,0l-.06,0c-.07-.07-.14-.13-.2-.2l-.09-.11c-.06-.07.05.07,0,0l0-.05a1.28,1.28,0,0,1-.15-.25l-.06-.12,0,0c0,.05,0,.06,0,0l0-.06c0-.1-.06-.19-.08-.29a.38.38,0,0,0-.73.2Z"/><path d="M299.18,190.38a1.86,1.86,0,0,0,1.29,1.78.37.37,0,0,0,.46-.26.38.38,0,0,0-.26-.46l-.06,0s-.07,0,0,0,0,0,0,0l-.06,0-.18-.11s.07,0,0,0l-.05,0a.46.46,0,0,1-.07-.07l-.08-.08c0-.05,0,0,0,0l0-.05a1.18,1.18,0,0,1-.11-.19l0,0s0-.08,0,0l0-.1,0-.11a.45.45,0,0,1,0-.11s0,.11,0,0v-.05a.49.49,0,0,1,0-.12.37.37,0,0,0-.37-.38.39.39,0,0,0-.38.38Z"/><path d="M300.87,190.11l.61.92a.4.4,0,0,0,.22.18.42.42,0,0,0,.29,0,.36.36,0,0,0,.17-.23.38.38,0,0,0,0-.29l-.61-.92a.38.38,0,0,0-.22-.17.42.42,0,0,0-.29,0,.37.37,0,0,0-.17.22.36.36,0,0,0,0,.29Z"/><path d="M301.72,187.12a5.16,5.16,0,0,0,.53,2.48,2.12,2.12,0,0,0,1.89,1.11.38.38,0,0,0,.38-.37.39.39,0,0,0-.38-.38,1.4,1.4,0,0,1-1.29-.82,4.52,4.52,0,0,1-.38-2c0-.48-.77-.48-.75,0Z"/><path d="M304.23,188.94a2.08,2.08,0,0,0,.63.89,2,2,0,0,0,1,.48.38.38,0,0,0,.29,0,.37.37,0,0,0-.09-.68l-.22-.05-.1,0-.05,0c.11,0,.05,0,0,0a1.18,1.18,0,0,1-.19-.11l-.09-.06,0,0c.08.06,0,0,0,0a.75.75,0,0,1-.16-.15.46.46,0,0,1-.07-.07l0-.05c0-.05.05.08,0,0a1.74,1.74,0,0,1-.11-.18l0-.1s0,0,0-.05l0,.05,0,0a.36.36,0,0,0-.17-.23.37.37,0,0,0-.29,0,.38.38,0,0,0-.26.47Z"/><path d="M305.93,188.63a1.75,1.75,0,0,0,1.71,1.26.39.39,0,0,0,.38-.38.38.38,0,0,0-.38-.37h-.13l-.18,0-.09,0-.05,0,0,0a1,1,0,0,1-.17-.1l-.07-.05c-.05,0,0,0,0,0l0,0a1.59,1.59,0,0,1-.13-.13s-.07-.09,0,0h0l0,0a.65.65,0,0,1-.09-.16s0-.07,0,0,0,0,0,0l0-.09a.37.37,0,0,0-.46-.26.38.38,0,0,0-.26.46Z"/><path d="M308.25,186a4.39,4.39,0,0,0,.16,3.55.38.38,0,0,0,.65-.38,3.62,3.62,0,0,1-.08-3,.38.38,0,1,0-.73-.2Z"/><path d="M308.84,188.27a2.44,2.44,0,0,0,2,1.27.37.37,0,0,0,.37-.37.39.39,0,0,0-.37-.38h-.13s.09,0,0,0l-.07,0-.24-.06a.42.42,0,0,0-.12,0s.07,0,0,0l-.05,0-.22-.13-.1-.07h0l-.06,0-.17-.17-.08-.09s0,0,0,0l0,0a1.64,1.64,0,0,1-.14-.22.38.38,0,0,0-.51-.14.4.4,0,0,0-.14.52Z"/><path d="M312.37,187.68a1.23,1.23,0,0,0,.11,1,1.43,1.43,0,0,0,.78.65,1.06,1.06,0,0,0,.61,0,.37.37,0,0,0,.26-.46.38.38,0,0,0-.46-.26h0a.67.67,0,0,1-.2,0h.1l-.21-.06.09,0a1,1,0,0,1-.22-.13l.08.06a.86.86,0,0,1-.19-.19l.06.08a1.09,1.09,0,0,1-.14-.23l0,.09a.73.73,0,0,1-.07-.24v.1a.81.81,0,0,1,0-.22v.1a.55.55,0,0,1,.05-.17.42.42,0,0,0,0-.29.44.44,0,0,0-.23-.17.42.42,0,0,0-.29,0,.52.52,0,0,0-.17.22Z"/><path d="M312.51,186.54a4.09,4.09,0,0,0,.21,2.22,1.78,1.78,0,0,0,1.51,1.06.37.37,0,0,0,.38-.37.39.39,0,0,0-.38-.38h-.12l-.09,0s-.06,0,0,0l-.16-.09-.1-.07a1.59,1.59,0,0,1-.13-.13.73.73,0,0,1-.09-.11s-.07-.1-.1-.16l0-.07s0-.08,0,0a3.86,3.86,0,0,1-.09-1.82.38.38,0,0,0-.37-.37.38.38,0,0,0-.38.37Z"/><path d="M320,189.87a3.46,3.46,0,0,0,1.2-1.84.38.38,0,0,0-.73-.2,2,2,0,0,1-.07.23s0,.08,0,.13a.08.08,0,0,0,0,.05s0-.06,0,0a3.75,3.75,0,0,1-.24.44l-.07.1,0,0s0,0,0,0-.05.07-.07.09l-.08.09a2.5,2.5,0,0,1-.38.35.37.37,0,1,0,.53.53Z"/><path d="M318.1,189.2a2,2,0,0,0,.16-1.37.37.37,0,0,0-.46-.27.38.38,0,0,0-.26.46l0,.15v-.1a3.08,3.08,0,0,1,0,.43v-.1a1.68,1.68,0,0,1-.11.4l0-.09a.54.54,0,0,1-.05.11.41.41,0,0,0,0,.29.37.37,0,0,0,.17.22.38.38,0,0,0,.51-.13Z"/><path d="M317.87,189.57l.15-.16a.2.2,0,0,0,.08-.12.34.34,0,0,0,0-.28.26.26,0,0,0-.08-.13l-.07,0a.33.33,0,0,0-.19-.06l-.1,0a.46.46,0,0,0-.17.09l-.15.16a.25.25,0,0,0-.08.12.32.32,0,0,0,0,.14.4.4,0,0,0,0,.15.42.42,0,0,0,.08.12l.08.06a.37.37,0,0,0,.18.05l.1,0a.35.35,0,0,0,.17-.09Z"/><path d="M316.35,189l-.14-.15s0-.06,0,0h0a.22.22,0,0,0-.05-.08,1.62,1.62,0,0,1-.1-.18l0-.09s0,.07,0,0l0-.06-.06-.19a.29.29,0,0,0,0-.09v-.06s0,0,0,0,0-.13,0-.19,0-.15,0-.22a.36.36,0,0,0-.37-.37.38.38,0,0,0-.38.37,2.28,2.28,0,0,0,.67,1.8.38.38,0,0,0,.53,0,.39.39,0,0,0,0-.53Z"/><path d="M322.62,190.49l.62-.62a.39.39,0,0,0,.11-.26.4.4,0,0,0-.11-.27.44.44,0,0,0-.27-.11.41.41,0,0,0-.26.11l-.62.62a.38.38,0,0,0-.11.26.39.39,0,0,0,.11.27.44.44,0,0,0,.27.11.41.41,0,0,0,.26-.11Z"/><path d="M293.33,197.51a4.67,4.67,0,0,0-3.3,3,.38.38,0,0,0,.26.47.39.39,0,0,0,.46-.27,3.92,3.92,0,0,1,2.78-2.49c.47-.11.27-.84-.2-.72Z"/><path d="M291.86,198.21c3.85,4.21,10.14,4.77,15.51,4.93a55.43,55.43,0,0,0,19.66-3c.46-.16.26-.88-.2-.72a55.13,55.13,0,0,1-18.54,3c-5.41-.06-12-.46-15.9-4.73-.32-.36-.85.18-.53.53Z"/><path d="M290.31,190A6.48,6.48,0,0,0,292,193.3c.34.35.87-.18.53-.53a5.83,5.83,0,0,1-1.48-3,.38.38,0,0,0-.46-.26.37.37,0,0,0-.26.46Z"/><path d="M291.72,189.08a5,5,0,0,0,2.34,3.23.37.37,0,0,0,.38-.64,4.33,4.33,0,0,1-2-2.79.37.37,0,0,0-.46-.26.37.37,0,0,0-.26.46Z"/><path d="M288.47,192.24a11.09,11.09,0,0,0,2,3.16.37.37,0,0,0,.53-.53,10.85,10.85,0,0,1-1.91-3,.37.37,0,0,0-.65.37Z"/><path d="M303.32,191.17a14.52,14.52,0,0,0-.34,5.29,6.84,6.84,0,0,0,2.07,3.83c.35.33.89-.2.53-.53a6.16,6.16,0,0,1-1.88-3.5,13.67,13.67,0,0,1,.34-4.89c.1-.47-.62-.68-.72-.2Z"/><path d="M321.5,191.53c.52.63.32,1.77.21,2.51a11.19,11.19,0,0,1-.65,2.48,11.32,11.32,0,0,1-2.87,4.25c-.35.33.18.86.53.53a12.14,12.14,0,0,0,3.79-7.7A3.38,3.38,0,0,0,322,191c-.32-.37-.84.17-.53.53Z"/><path d="M310.71,190.89c-1.15,1.47-2.19,3.22-1.8,5.16a3.58,3.58,0,0,0,4,2.78,2.5,2.5,0,0,0,1.26-.45c.19-.13.35-.28.54-.4s.51-.22.76-.34a3.15,3.15,0,0,0,1.56-1.9,4.49,4.49,0,0,0,.45-3,5.19,5.19,0,0,0-1.64-2.42,3.78,3.78,0,0,0-5.37.83c-.28.4.37.77.65.38a3,3,0,0,1,4-.78,4.19,4.19,0,0,1,1.47,1.88,3.19,3.19,0,0,1-.19,2.58,2.92,2.92,0,0,1-1.16,1.72,10,10,0,0,0-.94.43,5.07,5.07,0,0,1-1.06.66,3.26,3.26,0,0,1-2.31-.29,2.52,2.52,0,0,1-1.25-1.63c-.46-1.72.54-3.36,1.56-4.66.3-.38-.23-.91-.53-.53Z"/><path d="M313.24,192.13A1.79,1.79,0,0,0,312,194a1.81,1.81,0,0,0,1.69,1.58.38.38,0,0,0,0-.75,1.06,1.06,0,0,1-.85-.57s-.05-.1,0,0l0-.11,0-.09a.43.43,0,0,0,0,0h0a1.47,1.47,0,0,1,0-.21c0-.11,0,.05,0-.05l0-.1,0-.11s0-.08,0,0a1.28,1.28,0,0,1,.11-.2,1.08,1.08,0,0,1,.56-.41.37.37,0,0,0,.26-.46.37.37,0,0,0-.46-.26Z"/><path d="M313.61,192.65l.07,0c.08,0-.07,0,0,0s.07,0,.08,0h.06s.13,0,.16,0,0,0,0,0a.2.2,0,0,0,.08,0l.06,0s.06,0,0,0a.68.68,0,0,1,.12.12s.06.07,0,0l0,0,0,.06s0,.1,0,0a1.52,1.52,0,0,1,.06.2s0,.11,0,.08,0,.06,0,.07a1.69,1.69,0,0,1,0,.23.41.41,0,0,0,0,.11s0,.11,0,.07v.08a.44.44,0,0,0,0,.1,3.74,3.74,0,0,1-.12.45.38.38,0,1,0,.73.2,2.47,2.47,0,0,0-.09-2.11,1.3,1.3,0,0,0-1.69-.46.4.4,0,0,0-.13.52.38.38,0,0,0,.51.13Z"/><path d="M393.79,193.44c5.88-5.42,13.86-7.32,21.63-8a30.59,30.59,0,0,1,5.82-.14,35.28,35.28,0,0,1,6.08,1.33,40.1,40.1,0,0,1,11,5.45c.4.27.78-.38.38-.64a40.56,40.56,0,0,0-11.21-5.54,39.24,39.24,0,0,0-6-1.33,31.68,31.68,0,0,0-6.53.16c-7.82.74-15.77,2.74-21.69,8.19-.36.33.18.86.53.53Z"/><path d="M391,198.26a1,1,0,0,0-.79,1.34,1.45,1.45,0,0,0,1.76.69c.4-.09.77-.28,1.16-.4a.39.39,0,0,0,.26-.46.38.38,0,0,0-.46-.26c-.36.1-.69.27-1.05.37l-.24.06c.09,0,0,0-.05,0h-.23c-.1,0,.07,0,0,0l-.1,0s-.12,0-.08,0,0,0-.06,0-.11-.08,0,0l-.07-.06s-.06-.09,0,0l0-.07c0,.09,0,0,0,0s0,.05,0,0v-.08c0-.09,0,.07,0,0a.31.31,0,0,1,0-.08.43.43,0,0,0,0-.05v0A.18.18,0,0,0,391,199s0,0,0,0-.07,0,0,0h0c.11,0-.05,0,0,0a.38.38,0,0,0,.38-.37.39.39,0,0,0-.38-.38Z"/><path d="M391.45,198.48c3-2.91,6.81-4.6,10.62-6.11a45.6,45.6,0,0,1,12.23-3.25,23.28,23.28,0,0,1,12.3,1.93c3.66,1.75,6.76,4.45,10.12,6.68.41.27.78-.38.38-.65-3.6-2.38-6.91-5.3-10.91-7a24.26,24.26,0,0,0-12.33-1.62A48.76,48.76,0,0,0,401,192c-3.65,1.48-7.25,3.17-10.1,6a.38.38,0,0,0,.53.53Z"/><path d="M394.14,198.87c6.75.64,13.6,1,20.38,1a33.28,33.28,0,0,0,9.2-1.22,75.23,75.23,0,0,0,8.83-3.35c.45-.19.06-.84-.38-.65a68.65,68.65,0,0,1-9.1,3.4,33.83,33.83,0,0,1-9.51,1.06c-6.47-.1-13-.37-19.42-1-.48-.05-.47.7,0,.75Z"/><path d="M393.68,198.51c-.13.12-.26.24-.4.35l.08-.06a4.12,4.12,0,0,1-.81.48.34.34,0,0,0-.17.22.37.37,0,0,0,0,.29.39.39,0,0,0,.23.17.42.42,0,0,0,.29,0,4.09,4.09,0,0,0,1.28-.89.39.39,0,0,0,0-.53.38.38,0,0,0-.53,0Z"/><path d="M394.33,198.24a4.66,4.66,0,0,1-2.48-.86.38.38,0,1,0-.38.65,5.52,5.52,0,0,0,2.86,1,.38.38,0,0,0,.37-.37.38.38,0,0,0-.37-.38Z"/><path d="M433,194.73a2.86,2.86,0,0,0,2.34-.15,2.91,2.91,0,0,0,1.36-1.62.38.38,0,0,0-.73-.2,2.06,2.06,0,0,1-2.77,1.24.38.38,0,0,0-.46.27.38.38,0,0,0,.26.46Z"/><path d="M432.87,194.16a7.14,7.14,0,0,0,1.83-.81,3,3,0,0,0,1.14-1.42.37.37,0,0,0-.26-.46.38.38,0,0,0-.46.26,1.72,1.72,0,0,1-.33.55,2.6,2.6,0,0,1-.54.47,7.15,7.15,0,0,1-1.58.69.38.38,0,0,0-.26.46.37.37,0,0,0,.46.26Z"/><path d="M432.36,193.31l1.83-1.27a.39.39,0,0,0,.14-.51.38.38,0,0,0-.51-.14L432,192.66a.38.38,0,1,0,.38.65Z"/><path d="M431.53,193.33a4.66,4.66,0,0,0,.63-.12,4.36,4.36,0,0,0,.6-.23.36.36,0,0,0,.17-.23.34.34,0,0,0,0-.28.39.39,0,0,0-.22-.18.49.49,0,0,0-.29,0l-.12,0,.09,0a3.52,3.52,0,0,1-.9.24h.08a.39.39,0,0,0-.27.11.37.37,0,0,0,0,.53.39.39,0,0,0,.27.11Z"/><path d="M430.34,192.32a3.91,3.91,0,0,0,1.75-.37.39.39,0,0,0,.14-.52.38.38,0,0,0-.51-.13l-.11,0c.09,0,0,0,0,0l-.19.07-.37.1-.18,0s0,0,0,0h-.53a.37.37,0,0,0-.38.37.39.39,0,0,0,.38.38Z"/><path d="M429.54,191.67a3.91,3.91,0,0,0,1.36-.62.46.46,0,0,0,.18-.23.42.42,0,0,0,0-.29.4.4,0,0,0-.52-.13,3.16,3.16,0,0,1-.59.35l-.07,0h0l0,0-.17.06-.34.1a.37.37,0,0,0-.26.46.38.38,0,0,0,.46.26Z"/><path d="M428.74,191.34a4.83,4.83,0,0,0,1.41-1,.37.37,0,0,0-.53-.53l-.3.27-.08.06s0,0,0,0l0,0-.17.12a4.33,4.33,0,0,1-.7.39.34.34,0,0,0-.17.22.42.42,0,0,0,0,.29.37.37,0,0,0,.22.17.42.42,0,0,0,.29,0Z"/><path d="M427.4,190.74l1-.66a.37.37,0,1,0-.37-.65l-1.05.66a.38.38,0,0,0-.14.51.39.39,0,0,0,.52.14Z"/><path d="M426.58,190.21a4.25,4.25,0,0,0,1.73-1.44.38.38,0,1,0-.65-.38l-.08.1c0,.06,0,0,0,0l0,0-.17.19a4,4,0,0,1-.37.35l-.05,0h0a.61.61,0,0,0-.1.07l-.21.14a4,4,0,0,1-.46.24.38.38,0,0,0-.14.51.4.4,0,0,0,.52.14Z"/><path d="M424.87,189.64a2.93,2.93,0,0,0,.93-2,.38.38,0,0,0-.37-.38.39.39,0,0,0-.38.38.45.45,0,0,1,0,.11s0,.09,0,0,0,0,0,0,0,.16-.05.23-.05.15-.07.22l0,.06s0,.06,0,0v0l0,.06a1.9,1.9,0,0,1-.23.39l0,0,0,0,0,0-.08.09-.17.17a.38.38,0,0,0,0,.53.39.39,0,0,0,.53,0Z"/><path d="M425.67,189.94a.75.75,0,0,0,.25-.13.79.79,0,0,0,.22-.19,1,1,0,0,0,.26-.51.26.26,0,0,0,0-.15.33.33,0,0,0,0-.14.39.39,0,0,0-.23-.17.38.38,0,0,0-.29,0,.34.34,0,0,0-.17.22.44.44,0,0,1-.05.15l0-.09a.59.59,0,0,1-.1.17l.06-.07-.14.14.08-.06-.17.1.09,0h0a.31.31,0,0,0-.13.06.52.52,0,0,0-.1.11.41.41,0,0,0,0,.29.32.32,0,0,0,.17.22.33.33,0,0,0,.29,0Z"/><path d="M423,189.06a1.72,1.72,0,0,0,.62-.34,1.62,1.62,0,0,0,.18-.19,1.81,1.81,0,0,0,.19-.29.37.37,0,0,0,0-.29.39.39,0,0,0-.17-.23.41.41,0,0,0-.29,0,.34.34,0,0,0-.22.17,1.64,1.64,0,0,1-.14.22l.06-.08a1.15,1.15,0,0,1-.22.22l.08-.06a1.61,1.61,0,0,1-.28.17l.09,0-.14.05a.38.38,0,0,0-.26.46.38.38,0,0,0,.17.22.38.38,0,0,0,.29,0Z"/><path d="M421.39,188.75a1.54,1.54,0,0,0,1.19-.14.38.38,0,0,0-.38-.65l-.11.06.09,0a1.09,1.09,0,0,1-.31.08h.1a.86.86,0,0,1-.32,0l.1,0-.16,0a.41.41,0,0,0-.29,0,.34.34,0,0,0-.17.22.37.37,0,0,0,.26.46Z"/><path d="M422.13,188.79a1.32,1.32,0,0,0,.44.18,1.29,1.29,0,0,0,.48,0,.32.32,0,0,0,.14,0,.25.25,0,0,0,.12-.08.39.39,0,0,0,.11-.27.38.38,0,0,0-.37-.37,1.22,1.22,0,0,1-.27,0h.09a1,1,0,0,1-.28-.08l.09,0a.91.91,0,0,1-.17-.09.42.42,0,0,0-.29,0,.39.39,0,0,0-.23.17.42.42,0,0,0,0,.29.46.46,0,0,0,.18.23Z"/><path d="M420.4,188.41a2.06,2.06,0,0,0,.6-1.4,4.66,4.66,0,0,0-.33-1.69.37.37,0,1,0-.72.19,4.34,4.34,0,0,1,.3,1.42,1.5,1.5,0,0,1-.1.53s0,0,0,0l0,.07-.06.11a1.12,1.12,0,0,1-.18.21.37.37,0,0,0,.53.53Z"/><path d="M419.21,188.13l-.09-.31,0-.15s0-.07,0,0,0,0,0-.08,0-.21,0-.32a.81.81,0,0,1,0-.16.28.28,0,0,1,0-.09v0a3.39,3.39,0,0,1,.17-.59,1.57,1.57,0,0,1,.13-.26l.08-.13,0-.07c0-.05-.06.07,0,0a.39.39,0,0,0,0-.53.38.38,0,0,0-.53,0,3.14,3.14,0,0,0-.52,3,.38.38,0,0,0,.46.26.37.37,0,0,0,.26-.46Z"/><path d="M418.2,187.87l-.06-.11,0-.06s0,.05,0,0a1.72,1.72,0,0,1-.07-.21,1.6,1.6,0,0,1-.05-.21s0-.15,0-.06a.34.34,0,0,1,0-.1,1.69,1.69,0,0,1,0-.45c0,.09,0,0,0-.06s0-.06,0-.09a2.17,2.17,0,0,1,.07-.24.37.37,0,0,0-.26-.46.38.38,0,0,0-.46.26,2.71,2.71,0,0,0,.18,2.16.38.38,0,0,0,.65-.38Z"/><path d="M416.42,188.24a3.05,3.05,0,0,1,.25-2.1.39.39,0,0,0-.14-.51.38.38,0,0,0-.51.13,3.89,3.89,0,0,0-.33,2.68.38.38,0,0,0,.46.26.4.4,0,0,0,.27-.46Z"/><path d="M414.76,187.76l-.12-.12.06.07a1,1,0,0,1-.1-.17l0,.09a.6.6,0,0,1-.06-.19l0,.1a.67.67,0,0,1,0-.2l0,.1,0-.13a.37.37,0,0,0-.72-.2,1.11,1.11,0,0,0,0,.65,1.08,1.08,0,0,0,.13.29,1,1,0,0,0,.21.24.42.42,0,0,0,.12.08l.15,0a.36.36,0,0,0,.26-.11.33.33,0,0,0,.11-.26.33.33,0,0,0-.11-.27Z"/><path d="M413.8,188.21l-.13-.08s-.08-.06,0,0,0,0,0,0l-.11-.1,0,0c-.06-.07,0,.07,0,0a2.15,2.15,0,0,1-.14-.26s0,.05,0,0l0-.07c0-.05,0-.1,0-.15s0,0,0-.06,0,0,0,0a.88.88,0,0,1,0-.16.66.66,0,0,1,0-.14V187l0-.13a.19.19,0,0,0,0-.07s0-.09,0,0,0,0,0,0a.16.16,0,0,1,0-.07.43.43,0,0,1,0-.07s.06-.09,0,0a.39.39,0,0,0,0-.53.37.37,0,0,0-.53,0,1.9,1.9,0,0,0,.55,2.81.39.39,0,0,0,.52-.14.37.37,0,0,0-.14-.51Z"/><path d="M412.36,188.18l-.09,0,.09,0-.21-.12.08.06a1.19,1.19,0,0,1-.19-.2l0,.08a1.23,1.23,0,0,1-.14-.25l0,.09a1.38,1.38,0,0,1-.08-.27l0,.1a1.13,1.13,0,0,1,0-.26l0,.1v0a.37.37,0,0,0,0-.29.38.38,0,0,0-.22-.17.39.39,0,0,0-.46.26,1.43,1.43,0,0,0,.17,1,1.45,1.45,0,0,0,.79.63.37.37,0,1,0,.2-.72Z"/><path d="M411,188.39s-.07,0,0,0,0,0,0,0l-.09-.08s-.16-.18-.17-.18l0,0,0,0,0,0-.06-.1a.75.75,0,0,1-.07-.12l0-.05h0a2.17,2.17,0,0,1-.07-.24l0-.12s0,0,0,0,0,.07,0,0a2.08,2.08,0,0,1,0-.25V187c0-.06,0,0,0,0s0-.07,0-.08a.38.38,0,1,0-.73-.2,2.27,2.27,0,0,0,.92,2.29.38.38,0,0,0,.52-.13.4.4,0,0,0-.14-.52Z"/><path d="M409.39,188.69l0,0,.08.06a1,1,0,0,1-.15-.14l.06.07a.69.69,0,0,1-.1-.19l0,.09a.79.79,0,0,1-.06-.22l0,.1a.81.81,0,0,1,0-.22l0,.1a1.21,1.21,0,0,1,0-.18.38.38,0,0,0,0-.29.34.34,0,0,0-.22-.17.36.36,0,0,0-.29,0,.37.37,0,0,0-.17.22,1.17,1.17,0,0,0,0,.74,1.26,1.26,0,0,0,.16.33,1.22,1.22,0,0,0,.32.32.31.31,0,0,0,.28,0,.36.36,0,0,0,.23-.17.42.42,0,0,0,0-.29.43.43,0,0,0-.18-.22Z"/><path d="M408,189.17a1.25,1.25,0,0,1-.26-.07l.09,0a1.28,1.28,0,0,1-.25-.15l.07.06-.2-.2.06.07a1,1,0,0,1-.11-.17.39.39,0,0,0-.22-.18.42.42,0,0,0-.29,0,.36.36,0,0,0-.17.23.39.39,0,0,0,0,.28,1.5,1.5,0,0,0,.47.53,1.08,1.08,0,0,0,.28.15,1.14,1.14,0,0,0,.3.09.26.26,0,0,0,.15,0,.33.33,0,0,0,.14,0,.39.39,0,0,0,.17-.23.37.37,0,0,0,0-.29.36.36,0,0,0-.23-.17Z"/><path d="M404.6,190.05h0a.07.07,0,0,1-.06,0,.35.35,0,0,1-.11,0l-.06,0c-.07,0,.09,0,0,0l-.1-.05-.1-.07c-.06,0,.07.06,0,0s0,0,0,0a.3.3,0,0,1-.08-.08s0,0,0,0-.05-.08,0,0a1.37,1.37,0,0,1-.13-.2.08.08,0,0,1,0,0c0-.06,0,.08,0,0l0-.11,0-.12h0c0,.07,0,0,0,0v-.18c0-.09,0,.09,0,0a.35.35,0,0,0,0-.28.36.36,0,0,0-.22-.18.38.38,0,0,0-.46.27,1.58,1.58,0,0,0,.29,1.24,1.62,1.62,0,0,0,1.17.66.38.38,0,0,0,.37-.37.38.38,0,0,0-.37-.38Z"/><path d="M406.21,189.47l-.19.05h.1a.88.88,0,0,1-.23,0h.1l-.24-.06.09,0a1,1,0,0,1-.2-.11l.08.06-.15-.15.06.07,0,0a.37.37,0,0,0-.22-.17.37.37,0,0,0-.29,0,.39.39,0,0,0-.17.23.37.37,0,0,0,0,.29,1.31,1.31,0,0,0,.68.5,1.22,1.22,0,0,0,.78,0,.38.38,0,0,0,.26-.46.34.34,0,0,0-.17-.22.33.33,0,0,0-.29,0Z"/><path d="M405.41,189.82h0a.33.33,0,0,1-.14,0l.09,0-.12-.07.07.06,0,0a.42.42,0,0,0-.12-.08l-.15,0a.32.32,0,0,0-.14,0,.25.25,0,0,0-.12.08.35.35,0,0,0-.11.27v.1a.39.39,0,0,0,.1.16l0,0,.11.08.18.09.1,0,.15,0h.05a.25.25,0,0,0,.15,0,.2.2,0,0,0,.12-.08.25.25,0,0,0,.08-.12.32.32,0,0,0,0-.14v-.1a.42.42,0,0,0-.1-.17l-.08-.06a.41.41,0,0,0-.19-.05Z"/><path d="M422.27,188.81a3.78,3.78,0,0,0,1.78-1.62.38.38,0,0,0-.65-.38l-.15.25-.07.1,0,.05s.05-.05,0,0a4.86,4.86,0,0,1-.38.41l-.1.08-.05,0s-.07.07,0,0a1.14,1.14,0,0,1-.23.15,3.84,3.84,0,0,1-.49.27.37.37,0,0,0,.38.64Z"/><path d="M423.9,189.48l.23-.15a.24.24,0,0,0,.1-.1.21.21,0,0,0,.07-.12.26.26,0,0,0,0-.15.34.34,0,0,0-.05-.14l-.06-.08a.34.34,0,0,0-.16-.1h-.1a.41.41,0,0,0-.19.05l-.22.15a.27.27,0,0,0-.11.1.47.47,0,0,0-.07.12.38.38,0,0,0,0,.15.23.23,0,0,0,0,.14l.06.08a.37.37,0,0,0,.17.1h.1a.37.37,0,0,0,.18-.05Z"/><path d="M421.1,188.71a2.17,2.17,0,0,0,1.11-1.37.37.37,0,0,0-.26-.46.39.39,0,0,0-.46.26,2.09,2.09,0,0,1-.08.23l0-.09a2.3,2.3,0,0,1-.23.4l0-.08a2,2,0,0,1-.32.33l.07-.06a1.53,1.53,0,0,1-.3.19.37.37,0,0,0-.17.22.37.37,0,0,0,0,.29.4.4,0,0,0,.52.14Z"/><path d="M433.21,195.24a5.8,5.8,0,0,0,6-.28c.4-.27,0-.92-.38-.65a5.06,5.06,0,0,1-5.25.29c-.43-.24-.81.41-.38.64Z"/><path d="M434.05,195.6a8.07,8.07,0,0,1,3.14,2.53.38.38,0,0,0,.51.13.38.38,0,0,0,.14-.51,8.83,8.83,0,0,0-3.41-2.8.38.38,0,0,0-.38.65Z"/><path d="M432.59,195.57l.2.07c.11,0-.06,0,0,0l.09,0a2.37,2.37,0,0,1,.35.19l.17.12,0,0,.08.06.3.29.14.16s.06.07,0,0l.05.06a3.87,3.87,0,0,1,.21.34l.1.18,0,.1c0-.07,0,0,0,0a1.87,1.87,0,0,1,.13.4.38.38,0,0,0,.46.26.38.38,0,0,0,.26-.46,3.79,3.79,0,0,0-2.49-2.66.38.38,0,0,0-.46.26.4.4,0,0,0,.26.47Z"/><path d="M403.24,191.49a3,3,0,0,0-1.08,1.89,8.94,8.94,0,0,0,0,2.53,5.74,5.74,0,0,0,.88,2.16,3,3,0,0,0,1.48,1.44c.46.17.65-.56.2-.73a2.45,2.45,0,0,1-1.1-1.19,5.15,5.15,0,0,1-.72-1.75,8.53,8.53,0,0,1,0-2,2.38,2.38,0,0,1,.76-1.69c.38-.28,0-.94-.38-.64Z"/><path d="M419.36,199.27c1.62-.75,1.88-3.16,2-4.71a9.64,9.64,0,0,0-1.11-5.8.38.38,0,0,0-.65.38,8.79,8.79,0,0,1,1,5.08,13.41,13.41,0,0,1-.43,2.52,2.59,2.59,0,0,1-1.26,1.88c-.43.21-.05.85.38.65Z"/><path d="M408.46,189.58a4.72,4.72,0,0,0-1.06,3.93,4.58,4.58,0,0,0,2.43,3.18,3.09,3.09,0,0,0,2.09.28,3.77,3.77,0,0,0,1.68-1.13,5.34,5.34,0,0,0,1.25-1.66A4.36,4.36,0,0,0,415,192a4.26,4.26,0,0,0-2.12-3.41c-.43-.2-.81.44-.38.65a3.25,3.25,0,0,1,1.66,2.33,5.72,5.72,0,0,1,.17,1.65,2.63,2.63,0,0,1-.77,1.63,6.29,6.29,0,0,1-1.25,1.17,2,2,0,0,1-1.7.19,3.71,3.71,0,0,1-2.32-2.35,3.89,3.89,0,0,1,.73-3.71c.31-.37-.22-.9-.53-.54Z"/><path d="M410.72,190.69a1.6,1.6,0,0,0-1.26,1.46,1.53,1.53,0,0,0,1.22,1.54,1.67,1.67,0,0,0,1.85-.9,1.65,1.65,0,0,0-.43-2.11,1.57,1.57,0,0,0-2,.22.39.39,0,0,0,0,.53.37.37,0,0,0,.53,0l.12-.12c-.06.06,0,0,0,0l.05,0a.2.2,0,0,1,.08,0c-.09,0,0,0,0,0l.17,0c.09,0-.08,0,0,0h.24c.09,0-.08,0,0,0l.09,0,.08,0s.11,0,0,0l.15.08s.09.06,0,0l.05,0,.06.06s.06.09,0,0a.81.81,0,0,1,.1.18s0,.07,0,.06a.28.28,0,0,1,0,.13c0,.11,0,0,0,.06a.28.28,0,0,1,0,.09v.1s0,.12,0,0a1.6,1.6,0,0,1-.05.21.91.91,0,0,1-.14.28l0,0a.27.27,0,0,1-.07.08l-.06.06,0,0a.87.87,0,0,1-.18.11s-.1,0-.05,0-.06,0-.06,0l-.09,0s-.12,0,0,0H411l-.1,0-.16-.05c-.09,0,.06,0,0,0l-.08,0-.06,0,0,0s0,0,0,0l-.14-.13h0a.56.56,0,0,0,0-.08.36.36,0,0,1,0-.09c0,.08,0,0,0,0s0,0,0-.06,0,0,0-.06h0v-.2c0-.06,0,.08,0,0l0-.12,0-.09c0,.08,0,0,0,0l.12-.19c0,.07,0,0,0,0l.06-.07.07-.06c-.06.05,0,0,.05,0l0,0,.06,0h0l.21-.05a.38.38,0,0,0-.2-.73Z"/><path d="M409.59,195a.38.38,0,0,0,0-.75.38.38,0,0,0,0,.75Z"/><path d="M395.69,199.4a65.46,65.46,0,0,0,21.54,2.08c5.65-.4,12.25-1.25,16.12-5.88.3-.37-.22-.91-.53-.53-3.93,4.7-10.82,5.39-16.53,5.72a64.66,64.66,0,0,1-20.4-2.11.37.37,0,0,0-.2.72Z"/><path d="M411.18,196.24a1.5,1.5,0,0,0,0-3,1.5,1.5,0,0,0,0,3Z"/><path d="M442.75,362.18c-8.26-9.49-10.8-22.53-10.71-34.78a.75.75,0,0,0-1.5,0c-.09,12.67,2.61,26,11.15,35.84.63.73,1.69-.34,1.06-1.06Z"/><path d="M283.69,304c-.56,11.32,2.42,23.71-2.29,34.47a20.32,20.32,0,0,1-5.91,7.76c-.38.3.16.83.53.53,9.79-7.89,8.94-21.65,8.51-33-.13-3.26-.26-6.53-.09-9.8,0-.48-.73-.48-.75,0Z"/><path d="M254.24,222.55a.38.38,0,0,0,0-.75.38.38,0,0,0,0,.75Z"/><path d="M253.16,223.51a17.82,17.82,0,0,0-1.62,10.65,61.28,61.28,0,0,0,2.42,11c1,3.2,2.61,6.24,5.48,8.13a12,12,0,0,0,9.09,1.66c.47-.1.27-.82-.2-.72a11.18,11.18,0,0,1-8.81-1.8c-2.89-2-4.27-5.37-5.19-8.67-1.73-6.25-3.8-13.83-.52-19.92.23-.42-.42-.8-.65-.37Z"/><path d="M462.44,224.8a.38.38,0,0,0,0-.75.38.38,0,0,0,0,.75Z"/><path d="M461.63,227.57c.24,3.77-.76,7.4-1.72,11-.47,1.77-.93,3.54-1.23,5.35a13.62,13.62,0,0,0-.24,4.45,2.38,2.38,0,0,0,2,2.2c1.21.11,2.26-.86,3-1.73a29.74,29.74,0,0,0,4.83-9.48c.15-.46-.57-.66-.72-.2a31.41,31.41,0,0,1-4,8.22c-.8,1.16-3.3,4-4.24,1.35a9.55,9.55,0,0,1,0-4.22c.85-5.7,3.41-11.1,3-17,0-.48-.78-.49-.75,0Z"/><path d="M462.79,227.57c0-.1,0-.2,0-.3v0s0-.05,0-.07a.74.74,0,0,1,0-.14.25.25,0,0,1,0-.07v0l.06-.12.08-.13a.21.21,0,0,1,0-.06l0,0,0,0s.08-.09.1-.11l.09-.1.06,0c.06,0,0,0,0,0s.11-.07.12-.08l.13-.07.07,0c-.09.05,0,0,0,0a1.57,1.57,0,0,1,.29-.08.37.37,0,0,0,.26-.46.39.39,0,0,0-.46-.26,2.05,2.05,0,0,0-1.66,2.11.39.39,0,0,0,.38.38.38.38,0,0,0,.37-.38Z"/><path d="M464.24,225.69a.38.38,0,0,0,0-.75.38.38,0,0,0,0,.75Z"/><path d="M257.91,251c1.68,1.54.82,4,.18,5.76a7.61,7.61,0,0,0-.37,5.08c.94,2.94,4,5.63,3.37,8.93-.1.47.63.67.72.2.7-3.57-2.36-6.18-3.37-9.33-.75-2.33.39-4.25,1-6.46a4.66,4.66,0,0,0-1-4.71c-.36-.33-.89.2-.53.53Z"/><path d="M256.35,250c-.52,6.06.16,12.17.59,18.22l1.29,18.39c.79,11.22,1.51,22.48,3.49,33.57a111.66,111.66,0,0,0,5,18.77c.16.45.89.25.72-.2-3.94-10.74-5.82-22.07-6.95-33.41-1.18-11.68-1.82-23.42-2.64-35.13-.47-6.7-1.31-13.5-.73-20.21,0-.48-.7-.48-.75,0Z"/><path d="M266.15,335.43a7.28,7.28,0,0,0,1,6.05.37.37,0,0,0,.58.07,4.41,4.41,0,0,0-1.13-6.67.38.38,0,0,0-.55.23,8.4,8.4,0,0,0,.82,5.48.38.38,0,0,0,.65,0,5.32,5.32,0,0,0,0-4.79c-.21-.44-.86-.06-.65.37a4.52,4.52,0,0,1,0,4h.65a7.53,7.53,0,0,1-.74-4.91l-.55.23a3.65,3.65,0,0,1,1,5.49l.59.08a6.54,6.54,0,0,1-.88-5.47.38.38,0,0,0-.73-.2Z"/><path d="M263,321.94a20.29,20.29,0,0,0-.61,4.72.38.38,0,0,0,.48.36,3.53,3.53,0,0,0,2-4.07.38.38,0,0,0-.68-.09l-1.34,2.34.59-.08a1,1,0,0,1-.28-.89l-.36.27a1.21,1.21,0,0,0,1.27-1.15c0-.48-.73-.48-.75,0a.46.46,0,0,1-.52.4.38.38,0,0,0-.36.28,1.74,1.74,0,0,0,.47,1.62.37.37,0,0,0,.58-.08l1.34-2.33-.68-.09a2.76,2.76,0,0,1-1.52,3.14l.47.37a19.13,19.13,0,0,1,.59-4.52.38.38,0,0,0-.73-.2Z"/><path d="M259.79,309.32a2.94,2.94,0,0,0-.85,4.37.38.38,0,0,0,.53,0,3,3,0,0,0,.92-3.32.39.39,0,0,0-.69-.09,3.24,3.24,0,0,0-.53,1.81l.64-.26a.79.79,0,0,1-.21-.95.37.37,0,0,0-.26-.46.39.39,0,0,0-.47.26,1.54,1.54,0,0,0,.41,1.68.38.38,0,0,0,.64-.27,2.43,2.43,0,0,1,.43-1.43l-.69-.09a2.31,2.31,0,0,1-.72,2.59h.53a2.19,2.19,0,0,1,.7-3.19c.43-.22.05-.87-.38-.65Z"/><path d="M260.34,301.65a3.29,3.29,0,0,1,1.09,1.6,2.37,2.37,0,0,1,.12.95.87.87,0,0,1-.26.59c-.4.29-.62-.65-.68-.89-.19-.86-.38-1.72-.56-2.57l-.63.36a6.81,6.81,0,0,1,1.28,1.94c.15.36.69.15.7-.19a5.74,5.74,0,0,0-.6-2.67.37.37,0,0,0-.69.19,4,4,0,0,0,1.09,2.39c.34.35.87-.18.53-.53a3.11,3.11,0,0,1-.87-1.86l-.7.19a4.87,4.87,0,0,1,.49,2.29l.69-.19a7,7,0,0,0-1.39-2.09.38.38,0,0,0-.63.37l.55,2.48c.13.58.33,1.28.94,1.51a1.1,1.1,0,0,0,1.38-.79,2.77,2.77,0,0,0-.1-1.86,4.27,4.27,0,0,0-1.37-1.87.38.38,0,1,0-.38.65Z"/><path d="M257.74,253.64c-2,4.83.14,10.6,3.57,14.23a7.89,7.89,0,0,0,5.89,2.81,5.25,5.25,0,0,0,4.73-3.06c.18-.44-.54-.64-.73-.2a4.63,4.63,0,0,1-4.76,2.49,8.14,8.14,0,0,1-5.26-3.33c-2.81-3.47-4.48-8.43-2.72-12.74.18-.45-.54-.64-.72-.2Z"/><path d="M265.12,255.45l-.58,13.93c0,.49.73.48.75,0l.58-13.93c0-.48-.73-.48-.75,0Z"/><path d="M260.71,268.65a3.29,3.29,0,0,1,.34,2.43.37.37,0,0,0,.26.46.38.38,0,0,0,.46-.26,4.06,4.06,0,0,0-.41-3,.4.4,0,0,0-.52-.13.38.38,0,0,0-.13.51Z"/><path d="M265.51,269.77a8.57,8.57,0,0,0-1.7,4.87c-.27,2.27-.52,4.54-.77,6.8-.08.69-.39,1.68.17,2.24a1.28,1.28,0,0,0,1.5.13c1.65-.85.54-2.71-.31-3.7a.38.38,0,0,0-.46-.05,1.34,1.34,0,0,0,0,2.26c.41.25.79-.4.38-.65a.59.59,0,0,1,0-1l-.45-.05c.42.49,1.18,1.32.92,2.05-.16.46-1.07.86-1.15.14a11.41,11.41,0,0,1,.23-2.16l.26-2.28c.17-1.44.31-2.89.5-4.33A7,7,0,0,1,266,270.3c.31-.36-.21-.89-.53-.53Z"/><path d="M265.32,271.19a56.46,56.46,0,0,0,.72,15c.15,1,.15,4.32,1.85,4.3,1.31,0,.54-1.95-.68-1.66-.47.11-.27.84.2.73.17-.05-.19-.75-.23-.91-.08-.34-.12-.69-.17-1l-.36-2.35c-.23-1.6-.44-3.21-.59-4.82a44.29,44.29,0,0,1,0-9.28c.06-.48-.69-.48-.75,0Z"/><path d="M267.69,271.12l1.43,17.64.71,8.69.34,4.23.18,2.23a8.91,8.91,0,0,1,.12,2.62.37.37,0,0,0-.72-.2.71.71,0,0,0,.89.89c1-.27.58-1.87.52-2.56l-.91-11.18-1.81-22.36c0-.48-.79-.48-.75,0Z"/><path d="M270.22,269.41q.69,7.79,1.91,15.5c.21,1.28.42,2.55.65,3.83.11.63.22,1.27.34,1.9a7.11,7.11,0,0,0,.37,1.91c.53.95,2.38,1.8,1.41,3.16a1.1,1.1,0,0,1-1.68-.1,1.45,1.45,0,0,1-.18-1.2,5.44,5.44,0,0,1,1-2c.27-.39-.38-.77-.65-.38-.69,1-1.48,2.2-1.12,3.46a2,2,0,0,0,1.9,1.55,1.89,1.89,0,0,0,1.62-1.58c.27-1.24-.52-2-1.26-2.89a5,5,0,0,1-.81-2.59c-.18-1-.35-1.91-.51-2.87q-.5-2.87-.9-5.75-.86-5.94-1.38-11.94c0-.47-.79-.48-.75,0Z"/><path d="M462,243.3a159.33,159.33,0,0,1,3.26,16.07c.41,2.62.79,5.25,1.17,7.87s.65,5.41,1.29,8A312,312,0,0,0,477.33,306c2.09,5.83,4.31,11.62,6.59,17.39.17.44.9.25.72-.2-4-10.11-7.78-20.31-11.1-30.66q-2.49-7.77-4.62-15.64c-1.39-5.11-1.86-10.48-2.65-15.71a168.6,168.6,0,0,0-3.57-18.09.37.37,0,0,0-.72.2Z"/><path d="M482.76,320.32a3.8,3.8,0,0,0-.58-4.13c-.33-.36-.86.17-.53.53a3,3,0,0,1,.47,3.22.37.37,0,0,0,.64.38Z"/><path d="M485.89,325.61a1.94,1.94,0,0,0,.64,2.35,1.66,1.66,0,0,0,2.28-.24,2,2,0,0,0,.25-2.27,2.76,2.76,0,0,0-1.27-.93,8.28,8.28,0,0,1-1.41-.75,6.49,6.49,0,0,1-2.26-2.84c-.18-.44-.91-.24-.73.2a7.3,7.3,0,0,0,1.91,2.73,8.12,8.12,0,0,0,1.28.92,14,14,0,0,1,1.55.77,1.17,1.17,0,0,1-.25,2c-.83.35-1.7-.76-1.34-1.52.2-.43-.44-.82-.65-.38Z"/><path d="M476.69,309.53a9.12,9.12,0,0,0,.79-6.92.38.38,0,0,0-.73.2,8.3,8.3,0,0,1-.71,6.34c-.23.43.42.81.65.38Z"/><path d="M475.87,302.6a9.39,9.39,0,0,0-.3,6.78c.15.46.88.26.72-.2a8.62,8.62,0,0,1,.23-6.2c.19-.44-.45-.82-.65-.38Z"/><path d="M460.16,251.24a9,9,0,0,1,.26,8.05,17.74,17.74,0,0,1-2.19,3.77c-.45.61-.93,1.2-1.41,1.79a7.3,7.3,0,0,1-.65.71,1.69,1.69,0,0,1-.59.39c-.43.15-.71,0-.85-.53.1-.47-.63-.67-.72-.2a1.21,1.21,0,0,0,.75,1.41,1.76,1.76,0,0,0,1.86-.46,14.87,14.87,0,0,0,1.78-2.1,25.55,25.55,0,0,0,1.78-2.61c1.85-3.2,2.65-7.28.63-10.6-.26-.41-.9,0-.65.38Z"/><path d="M455.9,265.17a19.18,19.18,0,0,0,2.09,13.9.37.37,0,0,0,.64-.38,18.44,18.44,0,0,1-2-13.32c.11-.47-.61-.67-.72-.2Z"/><path d="M457.16,278.22a5.85,5.85,0,0,0-1.5,2.3,2.06,2.06,0,0,0,.58,2.13,1.69,1.69,0,0,0,1.92.37c.83-.47.8-1.58.72-2.4a9.35,9.35,0,0,0-1-3.38c-.22-.43-.87-.05-.65.38A8.72,8.72,0,0,1,458,280a8.27,8.27,0,0,1,.12,1.22,1.63,1.63,0,0,1-.18,1c-.29.4-.82.24-1.14,0a1.28,1.28,0,0,1-.47-1.38,4.78,4.78,0,0,1,1.32-2.05c.33-.35-.2-.89-.53-.53Z"/><path d="M457.09,264.44a14.83,14.83,0,0,0,1.27,6c.19.42.74.09.69-.29-.13-.84-1.2-.92-1.81-.57a1.74,1.74,0,0,0-.58,2.16,2,2,0,0,0,1.87,1.35,1.79,1.79,0,0,0,1.58-1.4,1.88,1.88,0,0,0-.83-2.18c-.42-.23-.8.42-.37.65,1,.53.43,2.57-.77,2.13a1.47,1.47,0,0,1-.88-1.46.75.75,0,0,1,.51-.66c.22-.07.51-.09.55.18L459,270a13.85,13.85,0,0,1-1.17-5.6.38.38,0,0,0-.75,0Z"/><path d="M459.4,262.44a6.07,6.07,0,0,0,.28,5.91c.25.41.9,0,.64-.37a5.3,5.3,0,0,1-.27-5.16c.22-.43-.43-.81-.65-.38Z"/><path d="M311.32,197.05a1.5,1.5,0,0,0,0-3,1.5,1.5,0,0,0,0,3Z"/><path d="M260.84,254.7a8.29,8.29,0,0,0-1.23,5.39,8.52,8.52,0,0,0,2.08,5.15,6,6,0,0,0,9.14-.83c.28-.4-.37-.77-.65-.38a5.22,5.22,0,0,1-8.21.41,8.17,8.17,0,0,1-1.64-4.73,7.48,7.48,0,0,1,1.16-4.63c.26-.41-.39-.78-.65-.38Z"/><path d="M521.91,381.47a121.75,121.75,0,0,0,29.87,13.37c10.76,3.16,22.2,4.22,32.53,8.78,18.41,8.14,29.48,26.19,40,42.42l22.53,34.75c.32.48,1.71,0,1.34-.61L628,449c-5.64-8.69-11.11-17.55-17.61-25.64-6-7.41-12.9-14.2-21.32-18.74-9.68-5.23-20.64-6.66-31.17-9.26a121,121,0,0,1-34.8-14.65c-.48-.3-1.79.37-1.14.77Z"/><path d="M273.9,347.28c-1.48,3.28.67,6.91,2.16,9.8a73,73,0,0,0,4.93,8.18,79,79,0,0,0,12.46,13.94,92.91,92.91,0,0,0,33.16,18.61,100.67,100.67,0,0,0,38.9,4.38A127.79,127.79,0,0,0,407,391.3a164.84,164.84,0,0,0,37.17-23.08c1.4-1.14,2.79-2.31,4.16-3.49.27-.24-1.05-.09-1.31.13a168.22,168.22,0,0,1-35.73,23.91,127.27,127.27,0,0,1-41.22,12.5,100.14,100.14,0,0,1-38.75-2.94,94.06,94.06,0,0,1-33-16.71,80.25,80.25,0,0,1-13.16-13.15,62.52,62.52,0,0,1-9.56-16,7,7,0,0,1-.23-5.5c.08-.17-1.27-.09-1.43.27Z"/><path d="M441.71,363.08a10.7,10.7,0,0,0,5.9,2,1.11,1.11,0,0,0,.95-.4c.19-.29-.15-.43-.39-.44a9.69,9.69,0,0,1-5.31-1.86c-.39-.28-1.73.3-1.15.72Z"/><path d="M276.88,345.26c-7.18,3.54-15.12,3.87-23,4.41-.48,0-.48.78,0,.75,8-.55,16-.91,23.34-4.51.43-.22.05-.87-.38-.65Z"/><path d="M447.09,365.89a106.93,106.93,0,0,1,30.78.88c.95.17,1.35-1.28.4-1.45a108.63,108.63,0,0,0-31.18-.93c-.95.11-1,1.61,0,1.5Z"/><path d="M478.94,367.28a13.08,13.08,0,0,1,6.35,2.41.75.75,0,1,0,.76-1.3,14.61,14.61,0,0,0-7.11-2.61.76.76,0,0,0-.75.75.77.77,0,0,0,.75.75Z"/><path d="M92.16,409.62c-15.49,12.23-28.48,28.3-34.86,47.16a78.27,78.27,0,0,0-3.52,15.34c-.05.4,1.39.13,1.44-.24,2.36-19.06,12-36.48,25.09-50.33a119.28,119.28,0,0,1,13-11.85c.59-.46-.84-.3-1.12-.08Z"/><path d="M250.86,254.3c-11.36,12.32-17.12,28.25-21.43,44.16-2.23,8.21-4.12,16.5-6.31,24.72-2.25,8.45-4.62,17.17-8.68,25-4.59,8.81-13.34,17.28-24.11,15.53-1-.15-1.35,1.3-.4,1.45,8.78,1.42,17-3.55,22.15-10.37,5.44-7.2,8.2-16.22,10.71-24.77,4.86-16.62,7.76-33.86,14.19-50a79.1,79.1,0,0,1,14.94-24.62c.65-.71-.41-1.77-1.06-1.06Z"/><path d="M127.81,418.12c22.53,4,46.61,3.19,67.52-6.9a101.2,101.2,0,0,0,25.88-18.57c7.76-7.47,14.45-15.82,21.15-24.23,7.3-9.17,15.52-18.48,18.36-30.16.23-.94-1.22-1.34-1.44-.4-2.52,10.35-9.44,18.86-16,27s-12.91,16.38-20.24,23.85a107.27,107.27,0,0,1-24.64,19.23,89.8,89.8,0,0,1-32,10.09,128.22,128.22,0,0,1-38.26-1.35c-.94-.16-1.35,1.28-.4,1.45Z"/><path d="M127.14,416.8c-7.74.35-15.77.41-23.19-2.1a29.36,29.36,0,0,1-10.12-6c-2.77-2.44-6.25-5-10.14-3.64-.91.32-.52,1.77.39,1.45,4.44-1.59,7.86,2.77,11,5.17a29.23,29.23,0,0,0,9.61,4.85c7.25,2.18,15,2.14,22.49,1.8,1,0,1-1.54,0-1.5Z"/><path class="cls-1" d="M373.07,111.68c13.09,4.71,19.19,17.84,24.12,29.84,1.32,3.2,2.37,8.58,5.73,10.34,1.88,1,4.43.93,6.48,1.18l10.74,1.32c1.55.19,2.15-1.7,1.62-2.82q-10.81-22.89-22.9-45.15c-3-5.46-5.79-12.15-11.3-15.57-5.94-3.69-13.37-2.53-19.6-5.42a1.91,1.91,0,0,0-2.76,2.12A99.55,99.55,0,0,0,371.65,110c.66,1.56,3.13,2,3.62,0,1.1-4.47,4-23.2-4.42-22.61A1.93,1.93,0,0,0,369,88.78a13.06,13.06,0,0,0,.93,10l3.23-1.9q3.93-3.69,6.52-.76a13.71,13.71,0,0,1,1.66,1.48c1,.91,1.88,1.89,2.77,2.88a69.41,69.41,0,0,1,5.58,7.1,124.2,124.2,0,0,1,8.09,13.78c4.94,9.59,9.19,19.52,14.52,28.9,1.2,2.11,4.34.25,3.24-1.89Q401.12,120,384.27,93.09l-2.94,2.27c7.09,5.9,10.78,14.12,13.91,22.6,1.68,4.56,3.29,9.16,4.93,13.75,1.11,3.1,6.08,11.89,3.79,15l2.94-.38c-3.73-3.56-4.29-9.16-6.13-13.78a57.84,57.84,0,0,0-5.88-11.07,59.13,59.13,0,0,0-18.14-17.07l-1.44,3.43a35.6,35.6,0,0,1,14.84,10.58c1.42,1.67,3.93-.47,3-2.27a55.91,55.91,0,0,0-16.64-18.85c-1.72-1.25-3.85,1.53-2.27,2.94a96.48,96.48,0,0,1,18.37,22A1.89,1.89,0,0,0,396,120.8a36.94,36.94,0,0,0-19.47-25.61,1.9,1.9,0,0,0-2.82,1.62c-.59,4.6,1.75,8.17,5.16,11.06,4.14,3.53,8.21,6.59,11.57,10.95,7,9.07,11.75,19.91,17,30,1,2,3.77.52,3.42-1.45a90.9,90.9,0,0,0-10.23-28.64c-1.18-2.11-4.4-.22-3.24,1.9a181.78,181.78,0,0,1,11.08,24.11,1.88,1.88,0,0,0,3.68-.5c1-7.89-4.91-15.94-9-22.26a132.28,132.28,0,0,0-15.82-20c-1.67-1.75-4.31.91-2.65,2.65A128.17,128.17,0,0,1,399,122.46c3.93,5.94,10.32,14.44,9.39,21.82l3.69-.5a190.06,190.06,0,0,0-11.46-25l-3.24,1.9a87.78,87.78,0,0,1,9.86,27.74l3.42-1.45c-4.69-9.05-9-18.48-14.76-26.94a56.28,56.28,0,0,0-8.07-9.68c-4.12-3.85-11.24-6.92-10.39-13.53l-2.82,1.62a33.42,33.42,0,0,1,17.75,23.37l3.42-1.45a100,100,0,0,0-19-22.75l-2.27,2.94a51.9,51.9,0,0,1,15.29,17.51l2.94-2.27a39.19,39.19,0,0,0-16.5-11.55c-2-.77-3.2,2.35-1.44,3.43a54.82,54.82,0,0,1,19.19,19.56c3.88,6.77,4.47,16.3,10.2,21.77a1.9,1.9,0,0,0,2.94-.38c2.62-3.55.15-8-1.14-11.59-2.22-6.2-4.42-12.41-6.66-18.59C395.93,108.9,392,99.35,384,92.71c-1.54-1.28-4.15.35-3,2.28q16.85,26.92,31.31,55.24l3.24-1.89c-8.34-14.66-13.95-30.95-24-44.62-3.51-4.78-8.63-12.36-15-13.36-4.88-.76-8.92,3.84-6.66,8.39,1.07,2.16,4.29.26,3.23-1.9a9,9,0,0,1-.55-7.08l-1.8,1.38c3.56-.25,1.26,16,.8,17.86h3.62a99.4,99.4,0,0,1-6.45-22.49l-2.76,2.12c5.53,2.56,11.67,2.08,17.26,4.25,7.27,2.82,10.72,12.43,14.15,18.82q11.08,20.57,21,41.72l1.62-2.82-9.84-1.21c-1.43-.17-3.95,0-5.23-.69-1.73-.92-2.26-3.31-2.95-5-2.16-5.22-4.19-10.5-6.83-15.51-4.73-8.95-11.51-16.67-21.22-20.17-2.28-.82-3.26,2.8-1,3.62Z"/><path class="cls-1" d="M375.8,109.76l6,3.07c1.79.92,4-1.5,2.27-3-5.26-4.48-10.78-9.41-10-17l-3.2,1.33a21.33,21.33,0,0,1,3.08,4.41c1,1.84,4.15.59,3.42-1.44l-1.25-3.51L373,95.51l4.46,4.26A1.89,1.89,0,0,0,380.57,98l-1-3.78-2.76,2.11a15.42,15.42,0,0,1,4.5,3.47c1.41,1.56,4.2-.52,2.95-2.27L382,94.4l-2.95,2.27,4.37,5.39c1.41,1.75,3.82-.48,2.94-2.27a55.1,55.1,0,0,0-4.8-8.06L379,94.3a17.37,17.37,0,0,1,8.26,8.23l3.23-1.89-3.42-5.58-2.56,2.56a21.52,21.52,0,0,1,5.84,5.73l2.95-2.27L386,93.22c-1.65-1.77-4.3.89-2.65,2.65a75.25,75.25,0,0,1,17,29.68l3.43-1.45a33.63,33.63,0,0,0-8.82-8.58c-1.59-1.06-3.51,1-2.57,2.56a95.09,95.09,0,0,1,11.61,29l3.13-1.82-.86-1.36-3.14,1.83c1.08,1.25,1.84,3.22,3.68,2.12l2.27.3-.29-.27-.83,3.13a8.16,8.16,0,0,1,6.64.53,1.9,1.9,0,0,0,2.57-2.57,76,76,0,0,0-5.39-9.39l-2.95,2.27a14.43,14.43,0,0,1,3.25,5c.87,2.22,4.5,1.26,3.61-1a18.83,18.83,0,0,0-4.21-6.62c-1.45-1.49-4.15.48-2.94,2.27A76,76,0,0,1,414,150.9l2.57-2.56a11.65,11.65,0,0,0-9.54-.91,1.9,1.9,0,0,0-.82,3.14l.29.27a1.92,1.92,0,0,0,2.27.29l.42-.25a1.84,1.84,0,0,0,.93-1.62c-.32-2.51-2.68-4.3-4.27-6.14a1.88,1.88,0,0,0-3.13,1.82,6.11,6.11,0,0,0,1.83,3,1.9,1.9,0,0,0,3.14-1.83,98.16,98.16,0,0,0-12-29.93l-2.57,2.57a28,28,0,0,1,7.48,7.24c1.16,1.63,4.08.72,3.43-1.45a79.61,79.61,0,0,0-18-31.33l-2.65,2.65,7.32,7.86c1.42,1.53,4.18-.5,2.94-2.27a27.05,27.05,0,0,0-7.19-7.08c-1.58-1.06-3.51,1-2.56,2.57l3.42,5.58a1.87,1.87,0,0,0,3.23-1.89,20.76,20.76,0,0,0-9.59-9.58c-1.52-.75-3.76.91-2.57,2.57a54.48,54.48,0,0,1,4.8,8.05l3-2.27L381.73,94c-1.32-1.64-4.19.54-2.94,2.27L381,99.37,384,97.1a17.6,17.6,0,0,0-5.26-4,1.89,1.89,0,0,0-2.75,2.11l1,3.78,3.13-1.82-4.46-4.26c-1.28-1.22-3.8,0-3.14,1.82l1.26,3.51,3.42-1.45a25.72,25.72,0,0,0-3.66-5.17c-1.2-1.33-3.05-.16-3.2,1.32-.9,8.55,5.07,14.52,11.08,19.64l2.27-2.94-6-3.07c-2.14-1.1-4,2.13-1.89,3.24Z"/><path class="cls-1" d="M401.54,123.46c2,3.24,4.22,6.43,6.07,9.77A22.73,22.73,0,0,1,410,138.9c.21.92.76,7-.83,7.25l2.31,1.31,0-.15c-.7-2.3-4.32-1.32-3.62,1l0,.14a1.93,1.93,0,0,0,2.31,1.31c3.76-.67,4.14-7.62,3.72-10.44-1-6.5-5.76-12.33-9.16-17.75-1.27-2-4.52-.16-3.23,1.89Z"/><path d="M381.92,73.36c12.33,10.33,21.13,23.91,28.52,38s13.48,28.72,21.35,42.49A149.8,149.8,0,0,0,449.5,179c.26.29,1.62-.21,1.37-.5-11.61-13.11-19.95-28.48-27.53-44.15-6.88-14.25-13.41-28.82-22.46-41.88a98.46,98.46,0,0,0-17.6-19.64c-.31-.26-1.62.29-1.36.51Z"/><path d="M345.84,66.87a61.5,61.5,0,0,0,19.42,7,60.87,60.87,0,0,0,10.08.94c3.27,0,6.88-.25,9.55,2,.35.3,1.69-.26,1.35-.54-2.22-1.87-5.13-2.13-7.93-2.17a77,77,0,0,1-10.83-.71A60.68,60.68,0,0,1,347,66.22c-.36-.2-1.7.35-1.17.65Z"/><path d="M449.93,178.87a13.86,13.86,0,0,0,1.74,1.93c.11.1.35,0,.47,0s.32-.15.2-.26a13.86,13.86,0,0,1-1.74-1.93s-.14,0-.19,0a.67.67,0,0,0-.28.06c-.09,0-.3.14-.2.26Z"/><path d="M328.78,82.8c-14.37,24.28-28.92,48.5-41.52,73.77-12.42,24.9-22.74,51.19-40.09,73.25-4.45,5.65-9.41,11.17-15.42,15.2-3.86,2.58-9.43,5.43-13.85,2.49-.41-.27-1.71.31-1.35.55,3.38,2.25,7.58,1.56,11.13.06,5.36-2.27,9.95-6.28,14-10.4,9.41-9.65,16.72-21.37,23.27-33.08,7.18-12.84,13.19-26.25,19.52-39.52,6.46-13.55,13.52-26.81,20.89-39.89C313.38,111,321.77,96.9,330.12,82.8c.32-.55-1.12-.38-1.34,0Z"/><path d="M343.13,66.36a36.57,36.57,0,0,1-10.67,14.9c-4.74,3.93-10.65,6.18-15,10.56-.37.37,1,.25,1.33,0,4.59-4.59,10.91-6.87,15.75-11.16a37.64,37.64,0,0,0,10.07-14.49c.14-.37-1.27-.21-1.44.22Z"/><path d="M450.57,180.87a47.31,47.31,0,0,0,10.08,7.47,1,1,0,0,0,1-.1c.21-.16.41-.52.09-.7a46.18,46.18,0,0,1-9.88-7.3c-.45-.42-1.82.16-1.33.63Z"/><path d="M272.07,198.13c-2.25.27-5,.57-6.65-1.41a2.84,2.84,0,0,1-.52-1,.42.42,0,0,1,0-.33c.21-.65.49-1.27.74-1.9.11-.29.2-.59.33-.87s.4-.32.72-.24a12.54,12.54,0,0,0,1.7.36,7.7,7.7,0,0,0,4-.63c.44-.19.06-.84-.38-.65a6.94,6.94,0,0,1-4.17.44,4.22,4.22,0,0,0-1.78-.29c-.62.16-.8.8-1,1.32l-.84,2.19a1,1,0,0,0,0,.85,3.6,3.6,0,0,0,.36.77,4.86,4.86,0,0,0,2.61,2,11.14,11.14,0,0,0,4.91.13c.47,0,.48-.81,0-.75Z"/><path class="cls-2" d="M276,235.88c8.4,9.45,18.38,19.14,32.09,16.73l-2.12-2.76c-6.65,10-14.3,19.79-17.87,31.38l2.76-1.12c-6.6-4.86-8.63-13.13-10.57-20.65a251.72,251.72,0,0,1-5.73-26.73l-3.13,1.82a23.37,23.37,0,0,1,8.67,15.23l3.68-.5a63.47,63.47,0,0,0-10.52-18.41L271,233.82c7.84,4.15,6.59,16.31,8,23.86,1.15,6.19,2.23,15.71,7,20.37a1.9,1.9,0,0,0,2.66,0c2.36-2.87,3.25-5.95,4.19-9.51a27.06,27.06,0,0,1,7.5-13.07l-2.94-2.27L291.14,266l3.43,1.44A53.62,53.62,0,0,1,302,254.68l-3.13-1.83-1.75,4.22,3.62,1c1-2.59,4.72-4.35.57-6.87-2.32-1.41-6.11-1.59-8.68-2.67a37.49,37.49,0,0,1-9.92-6.22c-1.81-1.56-4.46,1-2.65,2.65l14.32,12.91,1.82-3.13a20.84,20.84,0,0,1-11.76-5.5c-1.52-1.41-4.09.39-2.95,2.27,1,1.63,7.68,10.3,6.77,11.91h3.24c-1.56-2.17-3-4.39-4.44-6.66a1.89,1.89,0,0,0-3.49.95,49.23,49.23,0,0,0,1.05,14.82c.45,2,3.8,1.62,3.68-.5a62.18,62.18,0,0,0-3.22-16.75,1.88,1.88,0,0,0-3.62,1,106.59,106.59,0,0,0,3.11,13.19,1.9,1.9,0,0,0,3.43.45A30.06,30.06,0,0,0,293,258.75c.52-2.35-3-3.34-3.61-1l-2.25,8.33c-.63,2.33,3,3.32,3.61,1l2.25-8.32-3.61-1A27.66,27.66,0,0,1,284.78,268l3.43.44a104.41,104.41,0,0,1-3.11-13.19l-3.62,1A58.35,58.35,0,0,1,284.57,272l3.69-.5a45.55,45.55,0,0,1-.92-13.82l-3.5.94c1.41,2.28,2.88,4.49,4.44,6.66a1.9,1.9,0,0,0,3.24,0c1-1.8.68-3-.18-4.85-1.77-3.76-4.43-7.3-6.59-10.84l-2.94,2.27a24.19,24.19,0,0,0,13.42,6.47c1.66.23,3.37-1.74,1.82-3.14l-14.32-12.91L280.08,245a42.44,42.44,0,0,0,12.06,7.41c.94.37,6.86,1.53,7,1.8-.18-.33-1.66,2-2,2.9-.91,2.24,2.71,3.19,3.62,1l1.74-4.22c.7-1.7-2-3.27-3.13-1.83A60.36,60.36,0,0,0,291,266.46c-.8,2,2.51,3.36,3.43,1.45l6.18-12.82a1.89,1.89,0,0,0-2.95-2.27,29.76,29.76,0,0,0-6.71,9.42c-1.87,4.26-2,9.48-5,13.16h2.66c-3.27-3.2-4.11-9.89-5.1-14.21a133.53,133.53,0,0,1-2.32-14.62c-.72-6.39-2.21-12.76-8.31-16a1.89,1.89,0,0,0-2.27,2.95,58,58,0,0,1,9.56,16.75c.67,1.81,4,1.75,3.68-.5A27,27,0,0,0,274,231.9a1.89,1.89,0,0,0-3.13,1.83,240.43,240.43,0,0,0,6.89,31.12c2,7.21,4.94,13.95,11.13,18.5a1.89,1.89,0,0,0,2.75-1.12c3.45-11.23,11-20.83,17.49-30.48,1-1.49-.64-3-2.12-2.76-12.17,2.14-21.13-7.54-28.44-15.76-1.61-1.81-4.25.85-2.65,2.65Z"/><path class="cls-2" d="M273.51,233,272,228.24l-2.3,2.3c3.74.83,5.76,5.87,7.64,8.85l6.13,9.69c1.29,2,4.54.16,3.24-1.89q-4.21-6.66-8.43-13.33c-1.94-3.05-3.83-6.1-7.59-6.93a1.88,1.88,0,0,0-2.3,2.3L269.9,234c.74,2.28,4.36,1.31,3.61-1Z"/><path class="cls-2" d="M268.53,229.44c-.34,5.68,2.7,11.15,4.7,16.32l7.23,18.71c.86,2.23,4.49,1.26,3.62-1l-6.55-16.93c-2-5.21-5.59-11.42-5.25-17.1.15-2.41-3.6-2.41-3.75,0Z"/><path class="cls-2" d="M279.2,241.74l-.89-1.9c-.56-1.94-4-1.66-3.69.5l1.27,9.59c.31,2.32,3.73,2.5,3.75,0,.09-8.38-3.42-15.7-7.7-22.72L270.32,230c1.81-.06,6.63,7,7.78,8.33l2.27-3a17.35,17.35,0,0,1-5.25-6.1l-3.23,1.89,2.7,4c1.35,2,4.57.14,3.24-1.89a18.46,18.46,0,0,0-7.08-6.48,1.9,1.9,0,0,0-2.76,2.12l6.36,22.29,3.62-1A132.43,132.43,0,0,1,272.35,233c-.59-2.38-4-1.34-3.61,1a108.4,108.4,0,0,0,4.15,16.77c.51,1.51,4.68,14.62,6.72,14.17-2.36.52-1.36,4.14,1,3.62,5.38-1.19-.22-8.94-1.26-11.36a105.64,105.64,0,0,1-7-24.2l-3.61,1a131.75,131.75,0,0,0,5.61,17.23c.88,2.18,4.3,1.39,3.62-1l-6.36-22.3L268.85,230a14.35,14.35,0,0,1,5.74,5.13l3.24-1.89-2.71-4a1.87,1.87,0,0,0-3.23,1.89,21.64,21.64,0,0,0,6.59,7.45c1.81,1.33,3.58-1.43,2.27-2.94-2.54-2.92-6.1-9.59-10.43-9.43a1.9,1.9,0,0,0-1.62,2.83c3.93,6.44,7.27,13.1,7.19,20.82h3.75l-1.27-9.59-3.68.5a7.16,7.16,0,0,0,1.27,2.79c1.33,2,4.58.12,3.24-1.89Z"/><path class="cls-2" d="M279.28,248.63c1.35,4,2.57,8.08,3.69,12.18l3.42-1.45a56.55,56.55,0,0,1-3.34-5.49,1.89,1.89,0,0,0-3.42.45l-.58,2.67,3.43-.45-4-6.05a1.89,1.89,0,0,0-3.5.95A39.48,39.48,0,0,0,286.27,280c1.68,1.73,4.33-.92,2.65-2.65a35.62,35.62,0,0,1-10.19-25.93l-3.49.94,4,6.06c.83,1.25,3.07,1.22,3.43-.45l.57-2.67-3.42.45a56.88,56.88,0,0,0,3.33,5.49c1.17,1.69,4,.7,3.43-1.45-1.11-4.1-2.34-8.15-3.69-12.18-.76-2.28-4.38-1.3-3.61,1Z"/><path class="cls-2" d="M280.32,259.4a10.46,10.46,0,0,1-2.46-4.69,24.06,24.06,0,0,0-1.16-4.64c-1-2.19-4.23-.29-3.24,1.9.78,1.72.65,3.77,1.36,5.55a15.25,15.25,0,0,0,2.85,4.54c1.6,1.81,4.24-.85,2.65-2.66Z"/><path class="cls-2" d="M275.67,252.89a33.74,33.74,0,0,0,.05,7.65l3.69-.49a31.12,31.12,0,0,1-1.11-3.76c-.52-2.35-4.14-1.36-3.61,1a28.76,28.76,0,0,0,1.1,3.75c.67,1.82,4,1.76,3.68-.5a33.74,33.74,0,0,1-.05-7.65c.26-2.39-3.49-2.38-3.75,0Z"/><path class="cls-2" d="M282.29,250.09a40.57,40.57,0,0,0,4.28,7c1.44,1.89,4.69.06,3.24-1.89L286.72,251l-2.94,2.27,5.2,4.63c1.49,1.32,4.28-.46,2.95-2.28l-4.66-6.34-2.94,2.27,6.77,5.66a1.88,1.88,0,0,0,2.94-2.27,22.58,22.58,0,0,0-1.61-3.18l-2.12,2.76,4.88,1.49c2,.61,3.34-2.43,1.45-3.43l-2-1.05L293.7,255a26.77,26.77,0,0,0,8.59-1.42L300,251.29c-.66,2.94,1.7,4.21,4.34,3.48L302.2,252l-4.77,7.11,3.43,1.45.31-.91c.73-2.11-2.29-3.12-3.42-1.44l-2.94,4.32,3.24,1.89.93-1.89c1-2.15-2.05-4-3.24-1.9a188.92,188.92,0,0,0-8.36,17.1l3.42.45c-.51-2.69-.91-5.38-1.18-8.11l-3.68.5.47,1.63c.56,2,3.82,1.67,3.68-.5s-.39-4.36-.7-6.53L286,266.63l.51,1.07a1.89,1.89,0,0,0,3.42-.44A7.51,7.51,0,0,0,288,260L287.6,263a9.51,9.51,0,0,0,4.51-4.58l-3.42-.45.48,2.73a1.9,1.9,0,0,0,3.5,1,21.58,21.58,0,0,0,2.65-4.91l-3.62-1-1,2.86c-.94,2.19,2.29,4.1,3.24,1.89a36.25,36.25,0,0,0,1.42-3.76c.74-2.35-2.74-3.18-3.62-1a13,13,0,0,1-2.27,4l3.49.95a10.46,10.46,0,0,0-.62-3.72c-.44-1.45-2.68-2-3.42-.45a5.12,5.12,0,0,1-3.17,3.23,1.9,1.9,0,0,0-.38,3l.95,3.6,3.43-.45-.51-1.07c-1-2.09-3.71-.47-3.43,1.45s.45,3.66.57,5.53l3.68-.5-.47-1.63c-.56-1.95-3.9-1.68-3.68.5.31,3.06.74,6.08,1.32,9.11.28,1.49,2.79,1.92,3.42.45a189.07,189.07,0,0,1,8.37-17.1l-3.24-1.9-.93,1.9a1.88,1.88,0,0,0,3.24,1.89l2.93-4.32-3.42-1.45-.31.91c-.73,2.1,2.29,3.13,3.42,1.45l4.77-7.12a1.89,1.89,0,0,0-2.12-2.75l.28,1.13a1.9,1.9,0,0,0-2.31-2.31,23.54,23.54,0,0,1-7.59,1.29c-1.8,0-2.63,2.61-.94,3.5l2,1,1.45-3.43-4.88-1.49a1.9,1.9,0,0,0-2.12,2.75,22.58,22.58,0,0,1,1.61,3.18l2.95-2.27L287,248.9c-1.5-1.25-4.3.43-3,2.28l4.66,6.34,2.94-2.28-5.2-4.62c-1.49-1.32-4.29.46-2.95,2.27l3.09,4.18,3.24-1.89a40.62,40.62,0,0,1-4.29-7c-1-2.17-4.28-.27-3.23,1.89Z"/><path d="M480.63,316.77c-.35,1.4-1.78,2.58-1.19,4.12a1.83,1.83,0,0,0,1.27,1.23,1.45,1.45,0,0,0,1.48-.85c.27-.49.39-1.23.93-1.48s.06-.86-.37-.65a2.1,2.1,0,0,0-.93,1.16c-.16.37-.33.92-.75,1.06s-.76-.32-.9-.65a1.89,1.89,0,0,1,.18-1.62,10.52,10.52,0,0,0,1-2.12.37.37,0,0,0-.72-.2Z"/><path d="M483.64,323.31a7.79,7.79,0,0,0,2.5,4.89c.35.32.89-.21.53-.53a7.06,7.06,0,0,1-2.28-4.36.39.39,0,0,0-.38-.37c-.18,0-.4.17-.37.37Z"/><path d="M460.17,261.76c1.18.72,1.31,2.29,1.29,3.54a5.89,5.89,0,0,1-.27,1.91c-.17.45-.5,1.09-1.08,1s-.67.61-.2.72c1.8.43,2.25-2,2.29-3.28.06-1.63-.13-3.56-1.66-4.49-.41-.25-.79.4-.37.65Z"/><path d="M460.36,249a6.55,6.55,0,0,1,.56,4.85.37.37,0,0,0,.72.2,7.33,7.33,0,0,0-.63-5.43c-.23-.43-.88-.05-.65.38Z"/><path d="M459.41,248.75c-.58,2.88.64,5.77,0,8.63a7.22,7.22,0,0,1-5,5.17c-.46.14-.27.87.2.72A8.19,8.19,0,0,0,460,258.4c1.09-3.08-.45-6.32.18-9.45.1-.47-.63-.67-.72-.2Z"/><path d="M460.7,250c-.07,0,.1,0,0,0s.05,0,0,0l-.05,0c-.08-.05,0,0,0,0l-.06-.06s.05.08,0,0l0-.06s-.05-.1,0,0,0,0,0,0a.25.25,0,0,0,0-.08c0,.08,0,.07,0,0v-.08c0-.06,0,.1,0,0s0,0,0-.05,0,.08,0,0,0,.05,0,0l-.45.06c-.07-.06,0,0,0,0l.09.07.17.17,0,0c0-.07,0,0,0,0l.06.09s0,.05,0,.05,0-.08,0,0,0,.1,0,.1,0-.08,0,0v0s0-.08,0,0a.08.08,0,0,0,0,0s0,0,0,0l0,0,0,0,0,0,0,0s0,0,0,0l-.06,0s.1,0,0,0-.11,0,0,0h-.09l-.08,0-.06,0c.09,0,0,0,0,0l-.07,0,0,0c-.05,0,.05,0,0,0l-.1-.1c.06,0,0,.06,0,0l0,0,0,0c0,.06,0,0,0-.05v0c0-.08,0,0,0,0s0-.08,0-.12v-.06s0-.1,0,0,0,0,0,0,0-.05,0-.07,0-.1,0-.14a.14.14,0,0,0,0-.06s0-.06,0,0l.06-.14a5.48,5.48,0,0,1,.31-.52.39.39,0,0,0-.14-.51.37.37,0,0,0-.51.14,3.07,3.07,0,0,0-.54,1.19,1.21,1.21,0,0,0,.35,1.13,1.24,1.24,0,0,0,.94.3.83.83,0,0,0,.72-.79c0-.52-.39-.91-.77-1.2a.38.38,0,0,0-.46.06,1,1,0,0,0,.7,1.69.37.37,0,0,0,.37-.37.38.38,0,0,0-.37-.38Z"/><path d="M462.36,243.9c0,.1,0-.06,0,0a.31.31,0,0,1,0-.08s0,0,0,0l0,0c.07-.08-.06,0,0,0s.08-.06,0,0,.05,0,.05,0,0,0,0,0,0,0,0,0l-.19-.05a2.21,2.21,0,0,1,.62.6l.06.12s0,.09,0,0a.73.73,0,0,1,.07.24.13.13,0,0,1,0,.06v.19c0-.08,0,0,0,0l0,.1v0s0-.05,0,0a1.62,1.62,0,0,1-.1.18l0,0-.07.06h0l0,0-.1.05h0l-.1,0c.08,0,0,0,0,0s0,0,0,0l-.06,0s-.07,0,0,0l-.08,0h0l-.08-.06s-.05-.06,0,0,0,0,0,0a.41.41,0,0,0,0-.09c0-.05,0,.06,0,0s0-.07,0-.1,0,.07,0,0,0,0,0-.06,0,0,0,0,0,0,0,0,0,0,0,0,0,0,0,0-.06.06,0,0l-.59-.08a.55.55,0,0,0,.48.3.64.64,0,0,0,.48-.31,1.14,1.14,0,0,0,.16-1,.38.38,0,0,0-.73.2s0,0,0,.06,0-.06,0,0v.12c0-.08,0,0,0,0a.64.64,0,0,1,0,.07.14.14,0,0,1,0,.06c0,.06,0,0,0,0a.73.73,0,0,0-.05.09s.05-.06,0,0-.05,0,0,0-.06,0,0,0a.25.25,0,0,1,.17,0,.24.24,0,0,1,.11.06c.07.07,0,0,0,0a.38.38,0,0,0-.59-.07,1,1,0,0,0,.06,1.4,1.07,1.07,0,0,0,1.39.16,1.52,1.52,0,0,0,.64-1.37,2.15,2.15,0,0,0-.86-1.42.83.83,0,0,0-.53-.27.91.91,0,0,0-.49.15,1,1,0,0,0-.41,1,.38.38,0,1,0,.73-.2Z"/><path d="M261.36,255.08a5.16,5.16,0,0,1,2.09-2.45c.25-.16.24-.63-.09-.69a.91.91,0,0,1-.77-1l-.18.32a.32.32,0,0,1,.4,0l-.13-.14a.68.68,0,0,1-.16.74l.45-.06a.73.73,0,0,1-.4-.73.38.38,0,0,0-.37-.37,4.87,4.87,0,0,0-4.05,3.31c-.14.46.58.66.73.2a4.07,4.07,0,0,1,3.32-2.76l-.38-.38a1.5,1.5,0,0,0,.77,1.38.39.39,0,0,0,.46-.06,1.45,1.45,0,0,0,.39-1.34.68.68,0,0,0-.48-.55,1.14,1.14,0,0,0-.77.06.59.59,0,0,0-.36.62,1.82,1.82,0,0,0,.19.69,1.68,1.68,0,0,0,1.14.85l-.09-.69a6,6,0,0,0-2.43,2.9.37.37,0,0,0,.26.46.38.38,0,0,0,.46-.26Z"/><path d="M258.86,249.71c-.21-.17-.1-.47.09-.61a1.81,1.81,0,0,1,1.07-.22l-.32-.19a.63.63,0,0,1-1,.71l.1.37s.07,0,.1,0,.07,0,.07.06l.1-.36a8.14,8.14,0,0,0-2.23,5.24c0,.49.73.48.75,0a7.27,7.27,0,0,1,1.48-4.1l.32-.39c.13-.15.31-.28.32-.49a.74.74,0,0,0-.4-.61.86.86,0,0,0-1.23.48.36.36,0,0,0,.09.36,1.42,1.42,0,0,0,1.82.17,1.43,1.43,0,0,0,.39-1.79.39.39,0,0,0-.33-.18,2.13,2.13,0,0,0-1.76.61,1.11,1.11,0,0,0,.07,1.5c.37.3.9-.22.53-.53Z"/><path d="M261.05,268.05l-.62,5.6c-.05.48.7.47.75,0l.62-5.6c.05-.48-.7-.48-.75,0Z"/><path d="M260.43,274.59a1.36,1.36,0,0,0-.41,1.22,1.26,1.26,0,0,0,.23.56.69.69,0,0,0,.33.28,1,1,0,0,0,.42,0,1.42,1.42,0,0,0,1-.78,1.75,1.75,0,0,0,.09-1.38,3.64,3.64,0,0,0-.95-1.37.39.39,0,0,0-.46-.06,1.44,1.44,0,0,0-.51,1.94.37.37,0,0,0,.64-.38s0-.05,0-.08,0,0,0,0a.29.29,0,0,1,0-.09s0-.09,0,0a.49.49,0,0,1,0-.17s0-.08,0,0,0-.06,0-.09a.62.62,0,0,1,.31-.41l-.45-.06a2.23,2.23,0,0,1,.84,1.48,1,1,0,0,1-.23.57.6.6,0,0,1-.25.19c.06,0,0,0,0,0l-.06,0h-.17l.26.11-.06-.06s0,.06,0,0a.21.21,0,0,1,0-.06s0-.09,0-.05a.69.69,0,0,1,0-.25.22.22,0,0,1,0-.08c0-.11,0,0,0,0a.88.88,0,0,1,.05-.15c0,.05,0,0,0,0l.05-.08s0,0,0,0l.08-.07a.37.37,0,0,0-.53-.53Z"/><path d="M270.47,306.35h-.07l-.14,0a.88.88,0,0,1-.19-.1,1.19,1.19,0,0,1-.34-.3,1.1,1.1,0,0,1-.24-.83V305a.5.5,0,0,1,0-.13.51.51,0,0,1,.08-.17,1.14,1.14,0,0,1,.32-.38,1.2,1.2,0,0,1,.83-.24.38.38,0,0,0,.38-.37.39.39,0,0,0-.38-.38,2,2,0,0,0-2,1.73,1.94,1.94,0,0,0,1.73,2,.36.36,0,0,0,.37-.37.39.39,0,0,0-.37-.38Z"/><path d="M464.86,324.78a71,71,0,0,1,19.62,46.09c0,1,1.54,1,1.5,0a72,72,0,0,0-20.06-47.15c-.67-.7-1.73.36-1.06,1.06Z"/><path d="M310.81,192.94a8.65,8.65,0,0,0-.34,2.72c0,.19.71.05.72-.15a5,5,0,0,1,.75-2.37l-.69.1v.89l.73-.2a2.18,2.18,0,0,1-.13-1l-.72.15v1.74l.72-.19a5,5,0,0,1,.54-2.25l-.72.1-.15,2.18.72-.15c-.4-.83.54-1.65.25-2.52-.07-.22-.53,0-.65.06a2.8,2.8,0,0,0-1.26,2.39l.72-.19a3.19,3.19,0,0,1,.93-2.44c.09-.12-.05-.17-.15-.18a.71.71,0,0,0-.47.14,5.33,5.33,0,0,0-1.68,3.08l.72-.15c-.22-.69.27-1.29.67-1.8a2.29,2.29,0,0,0,.65-1.57c0-.21-.57,0-.65.06a7,7,0,0,0-1.61,1.86,5.43,5.43,0,0,0-.82,2.33,1.8,1.8,0,0,0,1.08,1.81,4.68,4.68,0,0,0,2.62.17c.11,0,.39-.08.42-.22s-.22-.14-.31-.13a3.46,3.46,0,0,1-2.33-.24,1.72,1.72,0,0,1-.71-1.89,6.34,6.34,0,0,1,2.23-3.61l-.65.06c.11,1.29-1.75,2-1.32,3.37.07.21.7,0,.73-.15a5,5,0,0,1,1.53-2.89l-.62,0a3.39,3.39,0,0,0-1,2.62c0,.22.72,0,.72-.19a2.52,2.52,0,0,1,1.11-2.12l-.64.06c.28.85-.66,1.67-.25,2.52.09.19.71.05.72-.15l.15-2.18c0-.29-.64-.06-.72.1a5,5,0,0,0-.54,2.34c0,.19.72.06.72-.19V192.9c0-.19-.7,0-.72.15a2.49,2.49,0,0,0,.12,1.08c.08.22.73,0,.73-.2l0-.88c0-.22-.63,0-.7.1a5.16,5.16,0,0,0-.8,2.46l.72-.15a8.28,8.28,0,0,1,.34-2.62c.06-.22-.65-.12-.72.1Z"/><path d="M314.38,196.23l-.41.33a.14.14,0,0,0,0,.23.41.41,0,0,0,.36,0,1.42,1.42,0,0,1,.45-.08l-.2-.23-.13.3c-.05.11,0,.19.12.22a.6.6,0,0,0,.45-.09l.44-.25c.1-.06.2-.2.09-.29a.47.47,0,0,0-.46,0l-1.47.74.44.23a1.15,1.15,0,0,1,.4-.26.82.82,0,0,1,.4-.06v-.38a9.71,9.71,0,0,0-2.54,1.36c-.1.07-.21.21-.06.3a.54.54,0,0,0,.52-.07,8.85,8.85,0,0,1,2.37-1.26c.09,0,.23-.13.22-.23s-.13-.15-.23-.15a2.24,2.24,0,0,0-1.66.62.15.15,0,0,0,0,.25.54.54,0,0,0,.43,0l1.47-.75-.37-.28-.45.26.57.13.13-.3c.07-.15-.05-.23-.2-.23a2.35,2.35,0,0,0-.83.12l.34.27.42-.34c.12-.1.06-.24-.08-.27a.57.57,0,0,0-.51.14Z"/><path d="M314.16,197.21a2,2,0,0,1-.36.23l-.08,0s0,0,0,0l0,0-.09,0-.06,0-.21.06h-.52a.78.78,0,0,0-.51.14s-.09.08-.08.13a.15.15,0,0,0,.14.07,3.64,3.64,0,0,0,2.4-.73s.09-.08.08-.13-.1-.07-.14-.07a.72.72,0,0,0-.51.14Z"/><path d="M315.12,196.52a.61.61,0,0,1-.07.14s0,.05,0,.08,0,0,0,0l-.19.26a1.14,1.14,0,0,1-.11.11l-.05.06c-.07.07,0,0,0,0a1.64,1.64,0,0,1-.25.21l-.12.09c-.06,0,0,0,0,0l-.06,0a1.75,1.75,0,0,1-.28.13s-.11,0,0,0l-.06,0-.16.05-.15,0h-.1c-.16,0-.38.11-.4.3s.19.27.34.25a3.18,3.18,0,0,0,2.47-1.73.23.23,0,0,0-.23-.31.47.47,0,0,0-.47.22Z"/><path d="M315.39,196.63a3.18,3.18,0,0,1-.87,1l-.29.18c-.06,0,.07,0,0,0l-.08,0-.14.07-.17.06h0l-.09,0-.15,0-.09,0h0c-.14,0-.38.09-.41.26s.21.2.32.18a3.93,3.93,0,0,0,2.74-1.83c.09-.15-.07-.23-.2-.24a.56.56,0,0,0-.48.21Z"/><path d="M315.51,197.07a2.16,2.16,0,0,1-.72.78l-.11.08-.05,0,0,0-.12.05c.07,0,0,0,0,0l-.07,0s0,0,0,0l-.08,0h-.13c-.06,0,.08,0,0,0h-.06s-.09,0,0,0a1.15,1.15,0,0,0-.51.14s-.1.06-.09.11.1.05.13.05a3,3,0,0,0,2.61-1.46c.06-.12-.25-.08-.29-.07a1.52,1.52,0,0,0-.28.09s-.12,0-.14.11Z"/><path d="M314.52,197.55a2.82,2.82,0,0,1-1.45.79,1.11,1.11,0,0,1-1.09-.76c-.06-.22-.78,0-.72.2a1.49,1.49,0,0,0,1.56.93,4.05,4.05,0,0,0,2.27-1.08c.12-.09.08-.2-.06-.22a.68.68,0,0,0-.51.14Z"/><path d="M312.44,197.79l-.35.24.52-.05a.57.57,0,0,1-.13-.08s0,0,0,0l0,0-.05,0a.21.21,0,0,0,0-.06s0-.06,0,0a1.21,1.21,0,0,1,0-.14.56.56,0,0,1,.07-.49l-.67.13,0,0s0,0,0,0,0,.08,0,.06,0,.09,0,0,0,0,0,0l.27-.1h.09s.05,0,0,0h0l0,0h0a.43.43,0,0,0,0,0s0-.06,0,0v0s0-.06,0,0h0s0,0,0,0l0,0h0a.21.21,0,0,1-.13.05h0l0,0s0,.05,0,0a.06.06,0,0,0,0,0s0,0,0,0,0,0,0,0,0,.08,0,0,0,0,0,0,0,0,0,0l.11,0h0s0,0,0,0h0a.36.36,0,0,1-.11-.21l-.31.31.17,0,.1,0h0c.09,0,0,0,0,0s0,0,0,0h0s0,0,0,0l0,0s0,0,0,0a.23.23,0,0,1,0,.11s0-.05,0,0v0s0,0,0,0a.2.2,0,0,1,.1-.08l.49,0,0,0h0a.06.06,0,0,0,0,0s0,0,0,0,0,0,0,0,0,0,0,0v0s0,0,0,0h0a.31.31,0,0,1-.13.06l-.35,0a.3.3,0,0,1,.21.27l.31-.31h0c-.05,0,.05,0,0,0h0l0,0a.1.1,0,0,1-.05,0c-.05,0,0,0,0,0a.12.12,0,0,1-.05-.05.3.3,0,0,1-.1-.19s0-.05,0-.07v0a.17.17,0,0,0,0-.07s0,0,0,0l-.62.17,0,0,0,0s0,0,0,0a.09.09,0,0,0,0,0h0a.43.43,0,0,0,0,0s0,0,0,0,0,0,0,0l.45-.09c.06,0-.05,0,0,0l-.05-.06a.26.26,0,0,1,0-.15l-.73.14s0,0,0,0,0,0,0,0h0a.17.17,0,0,1,.12-.05c.09,0,.12,0,.06,0l.24.05s0,0,0,0l0-.05s0,0,0-.08a.11.11,0,0,1,0-.05c0-.07,0,0,0,0a.13.13,0,0,1,0-.06s0,0,0,0l-.29.2a.41.41,0,0,1-.11,0s-.08,0,0,0,0,0,0,0l0,.05s0,.05,0,0v0s0,0,0,0,0,0,0,0a.33.33,0,0,1,.27-.06l0,0h0s0,0,0,0a.08.08,0,0,1,0,0s0,0,0,0a.09.09,0,0,1,0,0s0,0,0,0l-.58.1a1.15,1.15,0,0,1,.33.47l.4-.33h-.1a.45.45,0,0,1-.14-.11l-.47.39s-.1-.05,0,0,0,0,0,0a0,0,0,0,1,0,0,.21.21,0,0,1,.14-.12l.19-.05a.25.25,0,0,1,.17,0s0,0,0,0,0,0,0,0,.1.06-.09.18h-.57a.18.18,0,0,1,0,.14s0,.09,0,.06-.06.09,0,.06l.58-.11-.05-.05-.06-.07a1.67,1.67,0,0,1-.12-.16,1.52,1.52,0,0,1-.12-.32,1,1,0,0,1,0-.34,1,1,0,0,1,.09-.36c.07-.15-.06-.25-.21-.25a.51.51,0,0,0-.47.21,1.42,1.42,0,0,0,.4,1.72.5.5,0,0,0,.58-.11.56.56,0,0,0,.07-.72.24.24,0,0,0-.24-.08.59.59,0,0,0-.32.09.27.27,0,0,0-.12.4.54.54,0,0,0,.57.1c.18-.06.37-.22.31-.44a.45.45,0,0,0-.41-.28.56.56,0,0,0-.4.12c-.07.06-.15.18-.07.26a.89.89,0,0,0,.83.28.69.69,0,0,0,.31-.12c.05-.05.12-.13.09-.21a1.54,1.54,0,0,0-.48-.65.51.51,0,0,0-.58.11.43.43,0,0,0-.12.4.37.37,0,0,0,.29.3c.35.08.92-.15.88-.58s-.57-.45-.86-.32a.52.52,0,0,0-.1.82.39.39,0,0,0,.37.13.77.77,0,0,0,.38-.14.5.5,0,0,0,.24-.49c0-.15-.27-.14-.38-.12s-.33.1-.35.26a.53.53,0,0,0,.13.43.56.56,0,0,0,.79,0,.46.46,0,0,0-.08-.73.45.45,0,0,0-.34,0c-.09,0-.24.09-.28.19a.7.7,0,0,0,.14.78.93.93,0,0,0,.94.23c.14,0,.33-.14.31-.31a.62.62,0,0,0-.2-.36.56.56,0,0,0-.24-.13.59.59,0,0,0-.48.1c-.23.14-.39.49-.16.7a.44.44,0,0,0,.49,0,.48.48,0,0,0,.21-.78c-.27-.33-.8-.21-1.15-.09-.13,0-.34.14-.31.31a.71.71,0,0,0,.92.48.8.8,0,0,0,.52-.41.42.42,0,0,0-.07-.43.79.79,0,0,0-1.08,0,.48.48,0,0,0,.22.77.63.63,0,0,0,.75-.27.45.45,0,0,0,0-.53.4.4,0,0,0-.35-.08.54.54,0,0,0-.33.2.9.9,0,0,0,0,1,.78.78,0,0,0,.33.32.57.57,0,0,0,.6-.06l.32-.21c.11-.08.19-.24,0-.33a.54.54,0,0,0-.52,0Z"/><path d="M310.8,197.07a1.48,1.48,0,0,1-.15-2,1.13,1.13,0,0,1,.26-.23.79.79,0,0,1,.26-.13c.08,0,.3-.15.2-.26s-.36,0-.47,0a1.93,1.93,0,0,0-1.26,1.27,1.7,1.7,0,0,0,.49,1.66c.17.16.85-.12.67-.27Z"/><path d="M310.25,195.66a5.09,5.09,0,0,1,2.15-4.11c.11-.08.2-.22.05-.31a.52.52,0,0,0-.51.06,5.58,5.58,0,0,0-2.42,4.44c0,.32.72.19.73-.08Z"/><path d="M311.44,191.67a3,3,0,0,1,1.37-.91,1.15,1.15,0,0,1,.57.05,1,1,0,0,1,.52.45c.08.14.38.06.48,0s.27-.17.19-.31a1.63,1.63,0,0,0-1.7-.64,4.07,4.07,0,0,0-2,1.2.15.15,0,0,0,.08.27.6.6,0,0,0,.51-.13Z"/><path d="M312.56,190.79a1,1,0,0,1,.29-.24c.06,0,0,0,.1,0h.14a1.58,1.58,0,0,1,.89.32,2.89,2.89,0,0,1,1,1.94c0,.15.75,0,.72-.2a2.74,2.74,0,0,0-1.31-2.16,2.18,2.18,0,0,0-2.47.43c-.11.12.09.13.17.12a.82.82,0,0,0,.48-.17Z"/><path d="M314.29,190.41a5.27,5.27,0,0,1,.83,3.39c0,.1.7,0,.72-.19a5.21,5.21,0,0,0-.83-3.39c-.12-.18-.79.1-.72.19Z"/><path d="M312.16,192.26l-.24.19h.65a.75.75,0,0,1,.55-.44l-.28,0c0,.05,0,.2,0,.21l.22-.09,0,0s-.08-.09-.09-.14a.54.54,0,0,1,.19-.58h-.65a.87.87,0,0,1-.32.51h.58a.88.88,0,0,1,.16-.84l-.62.17a.25.25,0,0,1,.09.2s0,.07,0,.11-.25.06.16,0l.29,0a.36.36,0,0,1-.07-.3l-.65.22a.22.22,0,0,1,.15.23l.42-.23h-.06l.24,0c-.05,0-.06,0-.05-.09l-.14.2-.27,0s0,0,0,.06,0,.08.14,0l.27,0s0-.07,0-.1a.17.17,0,0,1,0-.07c.05-.14-.08-.12-.37.07,0,.07.17.2.07.3l.34-.14a1.08,1.08,0,0,1-.13-.15c0-.1,0-.14,0-.22-.24,0-.31,0-.22.1a.29.29,0,0,1,0,.09c0,.15-.12.11.13,0l.38,0a1.7,1.7,0,0,1-.15-.22c-.05-.13.05-.19-.14-.15l-.27,0a.23.23,0,0,1,.18.15.37.37,0,0,1,0,.15s0,.11,0,.13.14,0,.13,0l-.09-.05a.26.26,0,0,1-.07-.28s.06-.08.07-.12,0-.07-.28,0l0,0a.21.21,0,0,0,0,.11.14.14,0,0,1,0,.06l.29-.09-.14-.14a.55.55,0,0,1,0-.17.69.69,0,0,1,.16-.36l-.69.1a1.56,1.56,0,0,1-.18,1.68h.67a2.52,2.52,0,0,0,.24-.42,4.45,4.45,0,0,1,.26-.43c.07,0,.07-.06,0-.06s-.06,0,0,0,.09.06.12.12a1,1,0,0,1,0,.16c0,.05-.06,0,.06,0-.32.09-1,0-1.08.51,0,.27.67.12.72-.1a3.79,3.79,0,0,1,.55-1.33l-.62.17a1.45,1.45,0,0,1,.73,1.06l.65-.26a1.81,1.81,0,0,1-.71-.74l-.32.26c.25-.06.51.18.64.37l.67-.28a4.61,4.61,0,0,0-1.28-1.21l-.63.31a3.67,3.67,0,0,1,1.77,2.27c.07.24.73,0,.73-.19a4.11,4.11,0,0,0-.84-2.43l-.68.28a4.61,4.61,0,0,1,1,1.68c.08.24.73,0,.72-.19a3.79,3.79,0,0,0-.45-1.71l-.7.24.73.62c.16.13.84,0,.68-.27a3.56,3.56,0,0,0-.7-.75l-.63.31a3.43,3.43,0,0,1,1.55,2.13l.73-.19-.12-.41c-.07-.23-.78,0-.73.19a5.58,5.58,0,0,1,0,2.44c-.06.26.65.1.72-.1a4.47,4.47,0,0,0,.25-2.26l-.72.2a4.23,4.23,0,0,1-.09,2.34c-.07.23.65.13.72-.09a6,6,0,0,0,.34-2.09l-.72.2a3.3,3.3,0,0,1-.2,2.21l.73-.1a5.42,5.42,0,0,0,.2-1.79c0-.25-.63,0-.7.09l-.89,1.19.7-.09a5.29,5.29,0,0,1-.28-2.37c0-.26-.68-.11-.73.1a6.53,6.53,0,0,0-.12,1.87c0,.21.71.06.72-.15l0-.62-.73.15a3.33,3.33,0,0,0,.44.78c.12.16.59,0,.67-.14a1.26,1.26,0,0,0-.38-1.64,2.63,2.63,0,0,0-2.21-.24c-.16,0-.49.26-.18.35a2.21,2.21,0,0,1,1.07.5,1.23,1.23,0,0,1,.33.87c0,.65-.54,1.18-1.18.89a.59.59,0,0,0-.51.08c-.09.05-.22.19-.07.26a1.86,1.86,0,0,0,2.44-1,1.47,1.47,0,0,0-.25-1.28,2.46,2.46,0,0,0-1.38-.69l-.18.35a1.66,1.66,0,0,1,1.54.26,1.08,1.08,0,0,1,.29,1.29l.67-.14a2.89,2.89,0,0,1-.38-.69c-.08-.21-.72-.06-.72.14l0,.62.72-.14a6.27,6.27,0,0,1,.13-1.78l-.73.1a5.7,5.7,0,0,0,.29,2.46c.08.23.6,0,.69-.1l.89-1.19-.7.1a5.12,5.12,0,0,1-.2,1.7c-.07.25.64.09.73-.1a3.53,3.53,0,0,0,.19-2.31c-.06-.24-.73,0-.72.2a6.06,6.06,0,0,1-.34,2l.72-.09a4.44,4.44,0,0,0,.09-2.45c-.05-.23-.76,0-.72.2a4.21,4.21,0,0,1-.25,2.16l.72-.1a5.84,5.84,0,0,0,0-2.53l-.73.19.12.41c.07.23.79,0,.73-.19a3.7,3.7,0,0,0-1.7-2.28c-.16-.09-.81.16-.63.31a3.07,3.07,0,0,1,.7.74l.68-.27-.74-.63c-.13-.11-.81,0-.7.24a3.76,3.76,0,0,1,.46,1.7l.72-.19a5,5,0,0,0-1-1.77c-.15-.16-.84.06-.68.28a3.93,3.93,0,0,1,.79,2.34l.73-.19a3.9,3.9,0,0,0-1.92-2.41.56.56,0,0,0-.47,0s-.28.17-.16.25a4.51,4.51,0,0,1,1.29,1.21c.13.18.83-.05.67-.28a1.26,1.26,0,0,0-1.4-.42c-.07,0-.38.14-.32.26a2,2,0,0,0,.86.88c.15.08.69,0,.65-.26a1.64,1.64,0,0,0-.87-1.2.62.62,0,0,0-.63.16,4.19,4.19,0,0,0-.6,1.43l.72-.1c0-.2-.08.08-.12,0l.18,0a1.86,1.86,0,0,0,.52-.11c.32-.12.61-.42.35-.75s-.82-.24-1.15-.05-.53.72-.8,1.11c-.09.14.09.19.19.19a.63.63,0,0,0,.48-.19,1.75,1.75,0,0,0,.23-1.87c-.11-.23-.58,0-.7.09a.69.69,0,0,0-.13.81.73.73,0,0,0,.89.17c.23-.1.45-.32.36-.59s-.53-.22-.76-.13a.73.73,0,0,0-.51.61.51.51,0,0,0,.48.48c.5.08,1.36-.35.93-.94a.7.7,0,0,0-.94-.09c-.36.24-.25.58,0,.87.07.09.29,0,.38,0,.25-.06.53-.23.51-.52s-.37-.38-.63-.34-.62.22-.66.53.28.5.56.52.68-.11.72-.45a.41.41,0,0,0-.39-.46.74.74,0,0,0-.78.38.33.33,0,0,0,.26.46c.29.05.9-.18.79-.57s-.71-.25-.95-.1a.23.23,0,0,0-.14.19c0,.24.3.25.49.23s.41-.09.41-.23a.45.45,0,0,0-.29-.47c-.15-.06-.62,0-.65.22a.64.64,0,0,0,.11.48c.05.07.22.06.28,0a.8.8,0,0,0,.67-.45.45.45,0,0,0-.21-.55.62.62,0,0,0-.63.17,1.07,1.07,0,0,0-.21,1c.06.19.48.07.58,0a1.34,1.34,0,0,0,.6-.8c.07-.27-.56-.07-.64,0a1,1,0,0,0-.38.73.59.59,0,0,0,.43.51c.41.11,1.28-.25.93-.78,0-.07-.21-.05-.28-.05a1.75,1.75,0,0,0-1.38.91c-.06.11.16.14.21.14a.66.66,0,0,0,.43-.15l.24-.19c.12-.09.08-.2-.06-.23a.64.64,0,0,0-.51.14Z"/><path d="M312.84,192l-.58.78.67.09c0-.64-.1-1.53.51-1.92a.24.24,0,0,0,.07-.36.43.43,0,0,0-.47,0l-.92.47.51.27a1.64,1.64,0,0,1,.65-.63l-.53-.2.15-.06.32.32c.11-.23.55,0,.72,0a3.21,3.21,0,0,1,1,.62,3.49,3.49,0,0,1,1.07,2c.06.37.67.13.73-.12a2.25,2.25,0,0,0-.25-1.7l-.66.32c.9,1.23.45,2.79-.14,4-.07.15,0,.27.18.31a.49.49,0,0,0,.47-.15,3,3,0,0,0,.77-2.52c-.06-.35-.79-.16-.73.2a2.42,2.42,0,0,1-.65,2.09l.65.16c.66-1.38,1.1-3.1.11-4.45-.2-.28-.85,0-.66.32a1.92,1.92,0,0,1,.18,1.43l.73-.12a4,4,0,0,0-1.62-2.53c-.68-.47-2.07-1-2.57,0-.1.2.15.33.32.32a.66.66,0,0,0,.65-.54c0-.27-.38-.28-.54-.2a2.56,2.56,0,0,0-1,1c-.17.3.35.35.52.27l.92-.47-.41-.4a2.4,2.4,0,0,0-.77,2.32c0,.33.51.3.68.09l.58-.78c.27-.37-.41-.51-.61-.23Z"/><path d="M408.69,190.47a4.3,4.3,0,0,0-.35,4.24c.76,1.29,2.38,1.45,3.71,1.16l-.42-.14c.05.51-.78.31-1.07.23a1.29,1.29,0,0,1-.86-.59l-.64.3c.91.49,2,.92,2.94.18.36-.29-.12-.47-.4-.36a3.51,3.51,0,0,1-.41-.37,4,4,0,0,1-.38-.44,4.41,4.41,0,0,1-.6-1l-.64.31a.7.7,0,0,0,1-.28.21.21,0,0,0,0-.2,3.55,3.55,0,0,1-.72-1,2.27,2.27,0,0,1,0-1.41c.07-.35-.62-.25-.72,0a4.78,4.78,0,0,0,.34,4.2c.15.24.77,0,.69-.26l-.48-2-.72.19a4.23,4.23,0,0,1,.36,1.21l.69-.26a1.88,1.88,0,0,1-.62-1.62l-.73.05v1.88l.73-.12a5.26,5.26,0,0,1,.06-3c.13-.42-.55-.33-.69-.08a1.87,1.87,0,0,1-.28.35l.63-.06a.42.42,0,0,1-.08-.45c.14-.35-.41-.34-.58-.2a2.27,2.27,0,0,0-.41.41h.67a1,1,0,0,1,.42-1l-.59-.2a12.78,12.78,0,0,1-.66,1.46l.69.08a4.18,4.18,0,0,1,1.1-1.56c.28-.25,0-.49-.3-.4l-.38.11c-.34.1-.4.57,0,.5a15.66,15.66,0,0,1,2-.22c.31,0,.61-.5.16-.51h-.48l-.06.5a2.47,2.47,0,0,1,1-.12c.34,0,.75-.42.25-.52l-.53-.1-.16.51a1.69,1.69,0,0,1,.67,0c.22,0,.83-.18.49-.45l-.19-.15-.21.45a.65.65,0,0,1,.65.44l.7-.25-.56-.79-.67.31a2.57,2.57,0,0,1,.76,1.43l.72-.2a3.67,3.67,0,0,1-.24-1.08l-.7.18c1,1.22.41,2.83-.1,4.11h.71l.68-3.06-.72.13a3.91,3.91,0,0,1-.54,2.65l.69.08a5.92,5.92,0,0,0,.66-3.35l-.73.19a6.22,6.22,0,0,1,.08,3l.73-.06.28-1.41-.73.13a3.52,3.52,0,0,1-.34,2l.69.07a10.21,10.21,0,0,0,.57-2.74l-.72.13a3.57,3.57,0,0,1-.65,2.76l.64.14a2,2,0,0,0,.25-.92c0-.17-.18-.24-.33-.23a.14.14,0,0,0,0-.11c.08-.32-.47-.22-.6-.13l-.07,0,.28-.1a2.45,2.45,0,0,1-.39-.08,1.7,1.7,0,0,0-.39,0,2.12,2.12,0,0,0-.82.21l.46.31a3.74,3.74,0,0,0,.87-1.6c.09-.35-.61-.21-.72,0a7.67,7.67,0,0,0-.34.78l.69.08a7,7,0,0,0,.37-1.68c0-.37-.68-.25-.73.06a10.33,10.33,0,0,0-.09,1.76c0,.35.61.26.72,0a3.81,3.81,0,0,0,.22-2.11c-.06-.32-.61-.12-.71.06a.69.69,0,0,0,0,.68c.15.31.75.15.73-.2a1.9,1.9,0,0,0-.93-1.49c-.2-.12-.87.09-.61.36a1.21,1.21,0,0,1,.28.46l.64-.3a2,2,0,0,1-.45-.33l0,.26.42-.43-.59.11a.56.56,0,0,1,.19.54l.73-.06c0-1-1.09-1.28-1.84-.81-.29.18,0,.42.2.41h.06l-.25,0c-.07-.06.07-.07,0-.07a.7.7,0,0,0-.2.08.75.75,0,0,0-.28.28c-.12.21.17.3.31.29a1.84,1.84,0,0,0,.86-.23c.36-.19.15-.57-.22-.44a8.45,8.45,0,0,0-1.73.79l.54.26a2.21,2.21,0,0,1,.58-.42l-.39-.37a9.51,9.51,0,0,0-1,.71l.48.31.51-.44c.33-.29-.1-.52-.39-.37l-.69.36.51.25a.77.77,0,0,1,.29-.43c.38-.27-.12-.48-.39-.37a3.58,3.58,0,0,0-1,.69.19.19,0,0,0,.06.32.49.49,0,0,0,.48-.06l1.28-.81c.35-.23-.06-.45-.31-.4l-.8.15.22.44a3.15,3.15,0,0,1,.71-.3c.44-.13.32-.61-.13-.48a2.73,2.73,0,0,0-.66.28.22.22,0,0,0,0,.4l.35.1a.53.53,0,0,0,.51-.14.2.2,0,0,0-.09-.34l-.35-.1,0,.4a1.17,1.17,0,0,1,.31-.12l-.13-.48a3.16,3.16,0,0,0-.89.37c-.37.22-.15.52.22.45l.8-.15-.3-.4-1.28.81.54.26a2.73,2.73,0,0,1,.74-.47l-.39-.37a1.31,1.31,0,0,0-.51.67c-.1.3.3.35.5.24l.68-.35-.39-.37-.52.45c-.37.32.21.54.48.31a11.07,11.07,0,0,1,.95-.7c.38-.24-.12-.5-.39-.36a3,3,0,0,0-.87.63.19.19,0,0,0,.06.32.49.49,0,0,0,.48-.06,6.89,6.89,0,0,1,1.38-.63l-.23-.45a1.06,1.06,0,0,1-.47.13l.31.29c-.06,0-.06.05,0,0l.14,0,.15-.08a.52.52,0,0,0,.22-.32c.06-.3-.17-.4-.43-.4l.21.41c.34-.21.63.27.63.56s.68.25.73-.06a.9.9,0,0,0-.36-.89c-.16-.14-.45,0-.58.1l-.41.43a.2.2,0,0,0,0,.26,2.23,2.23,0,0,0,.55.42c.18.1.75,0,.65-.3a1.77,1.77,0,0,0-.35-.59l-.61.37a1.53,1.53,0,0,1,.76,1.28l.73-.2a.36.36,0,0,1,0-.4l-.71,0a3.21,3.21,0,0,1-.18,1.84H413a9.4,9.4,0,0,1,.08-1.76l-.73.06a6.83,6.83,0,0,1-.33,1.54c-.13.39.59.37.69.08a5.46,5.46,0,0,1,.35-.78h-.72a3.06,3.06,0,0,1-.74,1.34c-.28.3.26.4.46.3a1.38,1.38,0,0,1,.92,0,.74.74,0,0,0,.63-.12l-.6-.13c-.09.39.3.61.64.57l-.33-.23a1.7,1.7,0,0,1-.21.79c-.18.35.5.34.65.14a4.05,4.05,0,0,0,.77-3.17c-.06-.31-.71-.14-.73.13a9.69,9.69,0,0,1-.53,2.61c-.14.39.55.34.69.07a3.93,3.93,0,0,0,.37-2.29c0-.33-.68-.12-.72.13l-.28,1.41c-.07.35.67.25.73-.06a6.5,6.5,0,0,0-.08-3.13c-.09-.34-.76-.14-.73.19a5.33,5.33,0,0,1-.62,3.08c-.19.37.54.33.69.08a4.31,4.31,0,0,0,.57-2.93c-.05-.34-.67-.12-.73.13l-.68,3.06c-.08.34.62.25.71,0,.56-1.42,1.16-3.17.07-4.5-.14-.19-.71-.1-.69.19a4,4,0,0,0,.25,1.22c.12.31.78.14.72-.2a2.76,2.76,0,0,0-.81-1.54c-.21-.21-.89,0-.67.31l.56.79c.16.22.82,0,.7-.25a1.27,1.27,0,0,0-1.51-.73c-.2,0-.43.28-.22.45l.19.14.49-.44a2.51,2.51,0,0,0-1-.07c-.31,0-.62.42-.16.51l.53.11.25-.52a3.86,3.86,0,0,0-1.39.15c-.24.08-.47.49-.06.5h.48l.16-.51a15.65,15.65,0,0,0-2.05.21l0,.5.38-.11-.31-.4a5,5,0,0,0-1.31,1.8c-.16.38.55.34.69.08a13.61,13.61,0,0,0,.66-1.46c.14-.36-.41-.32-.58-.2a1.54,1.54,0,0,0-.67,1.51c0,.29.55.15.67,0a1.53,1.53,0,0,1,.28-.29l-.59-.2a.8.8,0,0,0,.11.85c.15.2.48.09.63-.06a2.4,2.4,0,0,0,.37-.47l-.69-.08a5.76,5.76,0,0,0-.1,3.24c.08.3.73.16.73-.13v-1.87c0-.38-.7-.26-.73.05a2.23,2.23,0,0,0,.69,1.89c.2.18.74.09.69-.26a4.16,4.16,0,0,0-.36-1.2c-.14-.3-.81-.15-.72.19l.48,2,.69-.26a4.37,4.37,0,0,1-.31-3.81h-.71a2.67,2.67,0,0,0,0,1.56,3.72,3.72,0,0,0,.78,1.11v-.2l.28,0c-.17-.1-.77,0-.64.3a5,5,0,0,0,1,1.54c.41.42.84.74,1.44.51l-.4-.37c-.57.47-1.35,0-1.9-.27-.16-.09-.79,0-.64.3a2.08,2.08,0,0,0,1.72,1c.69.09,1.74-.11,1.65-1,0-.18-.32-.16-.43-.14a2.55,2.55,0,0,1-3-1.21,4.17,4.17,0,0,1,.49-3.64c.19-.35-.54-.35-.69-.07Z"/><path d="M410.64,191a1.79,1.79,0,0,1,.69-.07v-.39a4.27,4.27,0,0,1-.79.25c-.11,0-.29.12-.31.24s.13.19.23.19l1.14,0a.53.53,0,0,0,.47-.21c.09-.15-.07-.23-.2-.24l-1.65-.1.16.31a2.45,2.45,0,0,1,1-.68c.12,0,.35-.14.31-.3s-.31-.14-.42-.11a3.08,3.08,0,0,0-2.07,1.63l.68,0a4.9,4.9,0,0,1,.65-1c.25-.3-.26-.33-.45-.25a6.67,6.67,0,0,0-2.26,1.64l.66,0a.3.3,0,0,1,.1-.27c.11-.08.2-.23,0-.32a.52.52,0,0,0-.51.06.79.79,0,0,0-.37.61c0,.31.54.17.66,0a5.74,5.74,0,0,1,2-1.44l-.44-.25a4.81,4.81,0,0,0-.74,1.15c-.15.34.57.28.68,0a2.26,2.26,0,0,1,1.5-1.26l-.11-.41a3.65,3.65,0,0,0-1.51.93c-.14.16,0,.3.16.31l1.65.09.27-.45-1.14,0-.08.43a4.68,4.68,0,0,0,1-.32c.09,0,.22-.12.21-.24s-.13-.15-.23-.16a2.58,2.58,0,0,0-1.07.11c-.12,0-.35.14-.31.3s.31.15.42.11Z"/><path d="M411.62,190.29l-1.1.53c-.11.05-.26.17-.19.31s.28.14.4.1a.78.78,0,0,1,.21,0c-.11,0,0,0,0,0h.47a.48.48,0,0,0,.47-.21c.08-.17-.07-.25-.21-.27a2.14,2.14,0,0,0-1.74.54.18.18,0,0,0,.06.3.49.49,0,0,0,.48-.07l.16-.12.09-.05c-.08,0,0,0,0,0l.19-.08.05,0s0,0,0,0l.09,0,.19,0h.05q-.09,0,0,0h.09l.2,0h.14a.5.5,0,0,0,.47-.21c.07-.16-.06-.27-.21-.28a2.84,2.84,0,0,0-1.93.58l.53.24c.05,0,0,0,0,0l.07,0,.06,0,0,0,0,0a.37.37,0,0,1,.14-.07l0,0h0l.07,0s.14,0,.15,0h.35l.26-.48a3.14,3.14,0,0,0-1.1.09l.22.42,1.1-.53c.11,0,.3-.21.18-.34a.44.44,0,0,0-.49,0Z"/><path d="M454.41,266.57c-.78,4.4-1.44,8.83-1.92,13.27-.45,4.24-.17,9-1.95,13-.39.88.9,1.64,1.3.76,1.72-3.82,1.6-8.15,2-12.25.48-4.8,1.18-9.58,2-14.33.16-1-1.28-1.35-1.45-.4Z"/></svg>
