<svg id="Layer_1" data-name="Layer 1" xmlns="http://www.w3.org/2000/svg" viewBox="0 0 1000 700"><defs><style>.cls-1{font-size:180px;font-family:Roboto-Bold, Roboto;font-weight:700;}.cls-1,.cls-3{fill:#fca838;}.cls-2{letter-spacing:-0.02em;}.cls-4{fill:#020202;}.cls-5{fill:#ac93cf;}.cls-6{fill:#fff;}</style></defs><text class="cls-1" transform="translate(18.23 600.5)">PO<tspan class="cls-2" x="240.38" y="0">R</tspan><tspan x="350.86" y="0">TFOLIO</tspan></text><path d="M489.52,192.82c-1.22-4.24,5.27-4.22,7.84-4.37,3.26-.2,6.52-.28,9.79-.27s6.63.16,9.94.4c2.43.18,8.31.13,7.52,4,0,.23.68.11.72-.11.78-3.86-4.59-4.05-7.05-4.24q-6.15-.48-12.31-.46a120.53,120.53,0,0,0-12.16.55c-2.33.26-5.89,1.59-5,4.64.06.22.78,0,.72-.19Z"/><path d="M560.69,165.63c-4.19.38-8.39.6-12.44,1.84A33.93,33.93,0,0,0,539,172a32.7,32.7,0,0,0-13,18,33.73,33.73,0,0,0,2.16,23.74c3.51,7.37,8.19,14.93,15.17,19.46a30,30,0,0,0,10.78,4.34,37.67,37.67,0,0,0,12.4,0,90.3,90.3,0,0,0,13.12-2.68,28.94,28.94,0,0,0,10.11-5.45c12-9.89,20.2-26.63,14.84-42.11-2.57-7.44-8.25-13-15.25-16.46-7.76-3.79-16.47-4.81-25-5.08-2.3-.08-4.6-.1-6.9-.12-.17,0-.83.31-.47.31,15.39.11,34.28,1.1,43.8,15.28a30.55,30.55,0,0,1,4.43,21.36,41.89,41.89,0,0,1-9.51,20.23,44.21,44.21,0,0,1-8.55,8.13,32,32,0,0,1-12.32,4.83c-8.52,1.74-17.24,3.25-25.58-.09-7.59-3-12.85-9-17-15.88A54.56,54.56,0,0,1,527,208.78a32.5,32.5,0,0,1,26.46-42.18c2.31-.32,4.64-.46,7-.67.2,0,.79-.35.31-.3Z"/><path d="M525.56,196.64a.63.63,0,0,0,0-1.25.63.63,0,0,0,0,1.25Z"/><path d="M525.68,196.31c.08-.15.4-.08.5,0a.69.69,0,0,1,.24.21,2.73,2.73,0,0,1,.39.71c.21.5.4,1,.6,1.51l1.24,3c.68,1.66,2,4.24.33,5.74s-2.64-1.48-3.06-2.57a10.89,10.89,0,0,0-1.2-2.16,9.09,9.09,0,0,1-1.25-2.81,5.84,5.84,0,0,1-.21-3.33c.21-.57.68-1.22,1.36-1.19a1.19,1.19,0,0,1,1,1.31c0,.26.69.13.72-.1a1.52,1.52,0,0,0-1.8-1.59,2.47,2.47,0,0,0-2.06,1.83A7.33,7.33,0,0,0,523,201c.47,1.34,1.44,2.36,2,3.64.69,1.57,1.3,4.27,3.65,3.43a2.8,2.8,0,0,0,1.81-2.26c.19-1.49-.56-2.94-1.1-4.28l-1-2.59a21.09,21.09,0,0,0-1-2.41c-.45-.81-1.75-1.22-2.32-.26-.17.27.55.19.67,0Z"/><path d="M407.11,183.51c1.67-6.9,6.46-12.49,12.43-16.15,7-4.32,15.27-5.65,23.41-5.22A98.29,98.29,0,0,1,469,167.81,33.48,33.48,0,0,1,479.38,175c2.88,2.78,6,5.73,7.57,9.49s1.67,8.24,1.27,12.34a45.77,45.77,0,0,1-2.91,12c-2.8,7.29-7.21,14.92-13.74,19.46-3.69,2.56-7.94,3.53-12.29,4.31a86.37,86.37,0,0,1-14,1.68,39.94,39.94,0,0,1-21.35-5.81,35.7,35.7,0,0,1-14.39-16.68c-3.05-7.29-3.8-15.36-3.38-23.2.11-1.94.29-3.89.52-5.82,0-.32-.69-.2-.72.07-1,8.27-1,16.83,1.35,24.88A36.38,36.38,0,0,0,420,226.58a40.12,40.12,0,0,0,20.7,8,57.07,57.07,0,0,0,13.87-.75c4.4-.68,9-1.27,13.18-3,7.32-3,12.29-9.8,15.81-16.61,3.89-7.54,6.4-16.39,5.36-24.94a19.31,19.31,0,0,0-5.41-11,51.8,51.8,0,0,0-9.64-8.59c-3.66-2.37-7.86-3.6-12-4.72a103.35,103.35,0,0,0-13.72-2.82c-8.3-1.06-17-.7-24.76,2.71-6.41,2.82-12.22,7.6-15.3,14a24.52,24.52,0,0,0-1.69,4.76c-.07.3.66.2.73-.07Z"/><path d="M488.7,196.39c1-.12,1.67.91,1.7,1.79a5.23,5.23,0,0,1-1.17,2.95,38.5,38.5,0,0,1-3.72,4.73c-.3.33-.61.65-.92,1a4,4,0,0,1-1.26,1c-1.08.4-1.57-1.11-1.64-1.9a7.15,7.15,0,0,1,2.37-5.38,67.91,67.91,0,0,1,5.38-4.65c.38-.32-.2-.59-.48-.35a54.45,54.45,0,0,0-5.87,5.16c-1.43,1.6-2.75,4.08-1.95,6.28a2,2,0,0,0,1.78,1.46c1,0,1.77-.93,2.43-1.61a36,36,0,0,0,4.77-6c.66-1,1.33-2.34.87-3.59a2.14,2.14,0,0,0-2.23-1.49c-.4,0-.55.6-.06.55Z"/><path d="M605.09,188.82c.31,0,.76-.46.27-.46-.3,0-.75.46-.27.46Z"/><path d="M606,188.35c.22-.73,1-.75,1.62-.41a2.7,2.7,0,0,1,1,2.29,10.47,10.47,0,0,1-.46,3.14c-.21.72-1,2.22-1.89,1.39-.19-.17-.87.11-.67.28a1.91,1.91,0,0,0,2.39-.17,5,5,0,0,0,1.21-3c.26-1.62.34-4.36-1.88-4.55a1.88,1.88,0,0,0-2,1.12c-.08.25.65.15.72-.09Z"/><path d="M609.16,194.16a23.6,23.6,0,0,0,4.09-2.53c.13-.1.07-.23-.07-.27a.6.6,0,0,0-.51.14,22.83,22.83,0,0,1-3.8,2.34c-.11,0-.3.17-.19.31s.37.07.48,0Z"/><path d="M609.7,189.3a5.58,5.58,0,0,1,2.68-.67c.16,0,.38-.13.39-.31s-.18-.26-.34-.26a6.41,6.41,0,0,0-3.06.78c-.14.07-.27.24-.17.4a.42.42,0,0,0,.5.06Z"/><path d="M406.32,182.17a10.39,10.39,0,0,0-5.23,2.08c-.11.09-.09.16.05.18a.78.78,0,0,0,.51-.14,8.61,8.61,0,0,1,4.36-1.8c.14,0,.39-.05.48-.18s-.07-.15-.17-.14Z"/><path d="M404.87,188.44a8.14,8.14,0,0,1-3.15,0,.45.45,0,0,0-.47.22c-.08.17.07.27.22.3a9.12,9.12,0,0,0,3.53,0c.15,0,.34-.18.3-.35s-.29-.17-.43-.14Z"/><path d="M401,183.6a12.09,12.09,0,0,0,.09,5.08c.06.26.79.07.73-.2a11.68,11.68,0,0,1-.1-5c.06-.29-.67-.18-.72.08Z"/><path d="M477.36,152.57a24.46,24.46,0,0,0,3.19,10.94c.12.2.81,0,.73-.19a24.39,24.39,0,0,1-3.2-10.94c0-.17-.73,0-.72.19Z"/><path d="M473.43,153.3a15.16,15.16,0,0,0,4.86,7.71c.16.14.82-.13.68-.26a15,15,0,0,1-4.82-7.64c0-.2-.77,0-.72.19Z"/><path d="M421.48,156c9.15-4.75,19.49-1.31,28.67,1.42a117.1,117.1,0,0,0,29.08,4.85c.3,0,.76-.44.27-.46a113,113,0,0,1-24.61-3.6c-7.4-2-14.69-4.94-22.44-5a23.75,23.75,0,0,0-11.27,2.47c-.44.23,0,.52.3.35Z"/><path d="M423.63,150.14c5.87-5.55,14-3.44,21-1.88a183.93,183.93,0,0,0,27.43,3.89c.37,0,.73-.52.24-.56a190.78,190.78,0,0,1-28.84-4.21c-6.91-1.54-14.68-3-20.34,2.4-.36.33.21.63.49.36Z"/><path d="M475.5,152.31a18.92,18.92,0,0,0,4.64,9.25c.2.21.89-.07.67-.3a18.7,18.7,0,0,1-4.59-9.14c-.05-.29-.78-.11-.72.19Z"/><path d="M534.89,156.65a23.91,23.91,0,0,1,.18,9.08c0,.05.68,0,.72-.19a24.12,24.12,0,0,0-.17-9.08c0-.13-.76,0-.73.19Z"/><path d="M536.5,166.19a5.4,5.4,0,0,1,2-1.24,9.08,9.08,0,0,1,2.59-.34c1.28-.07,2.57-.2,3.84-.38a68.05,68.05,0,0,0,7.86-1.62c5.67-1.49,11.19-3.46,16.78-5.19.42-.12.35-.42-.08-.29-6,1.86-12,4-18.11,5.52a55.78,55.78,0,0,1-9.33,1.57,18.32,18.32,0,0,0-3.56.22,7.1,7.1,0,0,0-2.53,1.68c-.3.25.42.19.57.07Z"/><path d="M537.73,157.06c9.51-2.58,19.21-6.51,29.22-4.65.18,0,.81-.25.6-.29-10.26-1.91-20.15,2.06-29.88,4.7-.42.11-.37.36.06.24Z"/><path d="M532.63,157.82a11.62,11.62,0,0,1,1.16,5.44c0,.38.73.27.74-.06a12,12,0,0,0-1.18-5.58c-.15-.31-.86-.1-.72.2Z"/><path d="M537.55,158a11.17,11.17,0,0,0-.37,6.06c.05.25.78.07.72-.19a11,11,0,0,1,.38-6c.08-.24-.64-.15-.73.09Z"/><path d="M395.05,219.34a31,31,0,0,1,4.62,8.17c1.09,2.89,1.79,6,2.59,8.94,1.67,6.23,3.21,12.5,4.69,18.78,2.89,12.2,5.63,24.45,9,36.52,2,7,4.19,14,6.73,20.82.08.2.8,0,.73-.19-9-24.17-13.44-49.63-20-74.49-.92-3.46-1.71-7-2.95-10.37a31.2,31.2,0,0,0-4.74-8.44c-.12-.15-.81.09-.68.26Z"/><path d="M602.6,215.06l-10.2,42.57c-1.64,6.85-3.43,13.68-4.79,20.59s-1.46,14-3.72,20.62c-2.16,6.33-5.9,12-9.6,17.48-3.36,5-6.78,10-10.5,14.76a99,99,0,0,1-12.71,13.73,70.79,70.79,0,0,1-16.75,10.78c-3.37,1.58-6.81,3-10.26,4.41a108.8,108.8,0,0,1-11.21,4.09,37.27,37.27,0,0,1-11.43,1.67c-4.09-.13-7.64-1.62-11.52-2.71-.24-.06-.85.29-.44.41,3.32.93,6.43,2.26,9.9,2.61a32.81,32.81,0,0,0,9.58-.62c6.68-1.34,13-4.12,19.28-6.74a91.21,91.21,0,0,0,17.83-9.34A80.06,80.06,0,0,0,559.61,337a160.34,160.34,0,0,0,11.45-14.89,158,158,0,0,0,10.7-16.76,44.37,44.37,0,0,0,3.51-8.7,78.07,78.07,0,0,0,1.85-10.85,203.29,203.29,0,0,1,4.38-21.45L603.33,215c.06-.28-.67-.17-.73.08Z"/><path d="M428.11,320.16c6.06,8.11,12.66,15.93,20.61,22.26,8.14,6.49,17.63,11,27.12,15.15,5.57,2.43,11.19,4.73,16.73,7.21.2.09.86-.21.59-.33-9.67-4.33-19.59-8.1-29-13a91.24,91.24,0,0,1-13.59-8.41,89.9,89.9,0,0,1-11-10.05,156.48,156.48,0,0,1-10.82-13.13c-.13-.18-.83.06-.68.27Z"/><path d="M514.44,205.73a103.43,103.43,0,0,0,.07,14.41c.46,4.74,1.89,9.22,3,13.83,1,4.06,1.55,8.26.45,12.35-1,3.69-3.27,7.18-7,8.49-.43.15-.31.66.13.51,5.31-1.86,7.91-7.46,8.21-12.78.43-7.61-3.25-14.86-4-22.36a100.25,100.25,0,0,1-.07-14.5c0-.38-.72-.28-.74,0Z"/><path d="M482.79,236.62a23.3,23.3,0,0,0-4.91,20.08c.8,3.48,2.45,7.2,5.49,9.26a7.7,7.7,0,0,0,8.3.34c.32-.19-.41-.14-.56-.05-3.8,2.29-8.08-.58-10.13-3.82a20.16,20.16,0,0,1-2.81-8.53,23.15,23.15,0,0,1,5.28-17.32c.16-.19-.54-.11-.66,0Z"/><path d="M519.44,265a15.37,15.37,0,0,0,14.66-12.5,16.91,16.91,0,0,0-2-10.91c-1.68-3.21-3.84-6.41-7.19-8-.31-.15-.83.3-.41.5,3.11,1.51,5.13,4.52,6.73,7.47a17,17,0,0,1,2.28,10.23,14.56,14.56,0,0,1-14,12.69c-.42,0-.55.56-.06.55Z"/><path d="M486.88,257.36c.31-1.67,2.26-2.21,3.73-2.25A2.69,2.69,0,0,1,493,256c.29.44.37,1.53-.3,1.69-.13,0-.35.16-.31.32s.3.16.43.13a1.49,1.49,0,0,0,1.13-1.49,1.86,1.86,0,0,0-1.26-1.7,5.34,5.34,0,0,0-2.66-.24,6.3,6.3,0,0,0-2.39.75,3,3,0,0,0-1.53,2c-.06.33.68.22.73-.07Z"/><path d="M515.41,257a5.19,5.19,0,0,1,3.1-1.74,3.91,3.91,0,0,1,3,1,3.09,3.09,0,0,1,1.07,2.62,2.69,2.69,0,0,1-1.57,2.28c-.06,0-.38.1-.33.21s.32,0,.39,0a3.1,3.1,0,0,0,2-4.23c-.9-1.95-3.27-2.51-5.2-2a6.81,6.81,0,0,0-3.11,1.91c-.11.12.1.12.17.12a.79.79,0,0,0,.49-.17Z"/><path d="M490.27,179.6c8.19,12.76,4.23,28.76-3.17,40.85a101.8,101.8,0,0,1-7.41,10.37,1.06,1.06,0,0,0,.72-.13c9-11.28,17.06-25,14.77-40A28.8,28.8,0,0,0,491,179.41c-.11-.17-.77.12-.72.19Z"/><path d="M518.35,181c-3.84,8-2.77,17.29.3,25.36,3.39,8.92,9.06,16.73,13.44,25.15.14.27.84,0,.72-.19-4.25-8.18-9.69-15.76-13.13-24.35-3.27-8.18-4.58-17.74-.65-25.93.16-.33-.57-.27-.68,0Z"/><path d="M458.48,277a16.53,16.53,0,0,0-6.54,15.83c0,.15.76,0,.73-.2a16.29,16.29,0,0,1,6.37-15.6c.3-.21-.42-.13-.56,0Z"/><path d="M464.57,291.07c5,2.3,10.33,3.34,15.65,4.42,5.78,1.18,11.55,2.52,17.39,3.39a50.28,50.28,0,0,0,16.24-.13,29.35,29.35,0,0,1,9.49-.25,56.36,56.36,0,0,0,7.87.95c3.89,0,8.3-1.24,10.34-4.82,0-.06-.61,0-.71.14-2.57,4.51-8.2,4.73-12.77,4.1-2.39-.32-4.76-.82-7.18-.95a29.2,29.2,0,0,0-6.66.55,50.3,50.3,0,0,1-16.74,0c-5.19-.82-10.34-2-15.49-3-5.67-1.16-11.45-2.18-16.74-4.64-.19-.08-.74.22-.69.24Z"/><path d="M466,290.37a44.92,44.92,0,0,0,7.94.55,20.47,20.47,0,0,0,7-1.65c2.59-1.08,5.1-2.36,7.92-2.73a16.18,16.18,0,0,1,8.5,1.18c2.12.92,4,2.43,6.4,2.66,2,.2,4-.62,5.84-1.36a13.79,13.79,0,0,1,3.87-1.14,9.66,9.66,0,0,1,4.52.84c2.35,1,4.45,2.43,6.73,3.52a33.3,33.3,0,0,0,16.59,3.11c.35,0,.61-.41.11-.38a32.38,32.38,0,0,1-16.32-3.16c-3.89-1.9-7.74-5.09-12.36-4.19-2.3.44-4.34,1.74-6.62,2.23-3,.64-5.24-1.11-7.79-2.29a17.33,17.33,0,0,0-13.08-.49c-3,1.06-5.68,2.69-8.8,3.22a33.36,33.36,0,0,1-10-.3c-.22,0-.85.33-.45.38Z"/><path d="M539,297.52a39.66,39.66,0,0,1-26.74,17.13,39,39,0,0,1-16-.57c-6.27-1.6-11.79-5-17-8.71-5.51-3.85-12.08-7.94-14.22-14.71-.09-.29-.81-.09-.72.2,1.92,6.09,7.38,9.93,12.35,13.46,5.54,3.95,11.28,7.89,17.88,9.84a41.42,41.42,0,0,0,31.64-4,38.52,38.52,0,0,0,13.51-12.61c.21-.32-.53-.29-.68-.06Z"/><path d="M495.23,324.14c5.44,2.28,11.91,4.15,17.43,1.12.43-.23-.2-.4-.46-.26-5.14,2.83-11.37.88-16.4-1.24-.24-.1-.89.24-.57.38Z"/><path d="M548.41,280.79a13.89,13.89,0,0,1,5.45,15.28c0,.14.66.06.72-.13a14,14,0,0,0-5.49-15.39c-.16-.12-.78.18-.68.24Z"/><path d="M469.2,251.82a64.06,64.06,0,0,1-9.13,19.63c-.15.23.55.14.67,0a64.4,64.4,0,0,0,9.18-19.71c.05-.2-.66-.1-.72.11Z"/><path d="M536.29,251.9a38.06,38.06,0,0,0,8.56,17.7c.23.26.91,0,.66-.33a37.72,37.72,0,0,1-8.5-17.56c-.06-.36-.79-.17-.72.19Z"/><path d="M434.66,396.65c10,12.93,24.82,20.71,40.71,23.64A112.27,112.27,0,0,0,502,421.73a89.31,89.31,0,0,0,24.72-5,109.08,109.08,0,0,0,25.48-13.25c.4-.28-.21-.41-.46-.24-13.77,9.52-29.51,16.24-46.29,17.78-17,1.56-35.3-.16-50.59-8.28a60.35,60.35,0,0,1-19.55-16.42c-.17-.2-.86,0-.68.3Z"/><path class="cls-3" d="M504.16,101.07c14.29,5.09,21.27,19.27,26.7,32.39,1.54,3.73,2.83,10.54,6.75,12.63,2.16,1.15,5.28,1.08,7.64,1.37l11.59,1.43c1.55.19,2.15-1.7,1.62-2.83q-12.09-25.58-25.58-50.44c-3.34-6.14-6.49-13.63-12.66-17.51-6.64-4.17-15-2.79-22-6.07a1.9,1.9,0,0,0-2.75,2.11,110,110,0,0,0,7.23,25.21c.65,1.56,3.12,2,3.61,0,1.21-4.85,4.43-25.7-4.73-25a1.93,1.93,0,0,0-1.81,1.38,14.39,14.39,0,0,0,1,11l3.24-1.89c-2.47-4.68,5.77-2.76,7.73-1.14a36.41,36.41,0,0,1,3.4,3.29,75.7,75.7,0,0,1,6.73,8.12,126.73,126.73,0,0,1,9.42,15.6c5.84,11.15,10.73,22.77,17,33.71,1.2,2.11,4.33.25,3.24-1.89q-16.2-31.71-35.09-61.9l-2.94,2.27c7.85,6.48,12,15.61,15.48,25,1.83,5,3.57,10,5.36,14.93L537,130.2c.91,2.55,3.83,7.82,1.88,10.47l2.94-.38c-4.13-3.88-4.75-10-6.74-15.07a63.43,63.43,0,0,0-6.56-12.54,65.81,65.81,0,0,0-20.43-19.33l-1.45,3.42a39.79,39.79,0,0,1,16.74,11.92c1.41,1.68,3.92-.46,2.94-2.27a62.09,62.09,0,0,0-18.55-21c-1.73-1.24-3.86,1.53-2.28,2.94A107.94,107.94,0,0,1,526.14,113a1.88,1.88,0,0,0,3.42-1.45A41.07,41.07,0,0,0,507.85,83c-1-.49-2.57-.15-2.76,1.12-.67,4.47.9,8.14,4.06,11.32,4.35,4.38,9.53,7.47,13.51,12.33,8.49,10.37,14,23.23,20.14,35.05,1,2,3.77.53,3.43-1.44a101,101,0,0,0-11.45-32c-1.18-2.11-4.4-.22-3.23,1.89A203.79,203.79,0,0,1,544,138.32c.56,1.51,3.33,2,3.62,0,1.23-8.81-5-17.47-9.46-24.59A147.6,147.6,0,0,0,520,90.61c-1.67-1.75-4.32.9-2.65,2.65A142.58,142.58,0,0,1,533,112.77c4.28,6.42,12.06,16.52,10.94,24.55h3.62a211.4,211.4,0,0,0-12.82-28l-3.23,1.89a98.15,98.15,0,0,1,11.06,31.14l3.43-1.44c-5.26-10.12-10.1-20.66-16.5-30.13a63.2,63.2,0,0,0-9.29-11.09C516,95.79,507.67,92,508.71,85.13L506,86.25a37.54,37.54,0,0,1,20,26.32l3.42-1.45a111.37,111.37,0,0,0-21.2-25.45l-2.28,3a57.78,57.78,0,0,1,17.21,19.69l2.95-2.27a43.36,43.36,0,0,0-18.39-12.88c-2-.76-3.21,2.36-1.44,3.43a61.57,61.57,0,0,1,21.5,21.85,65,65,0,0,1,5.69,13.49c1.27,4.14,2.56,8,5.78,11a1.92,1.92,0,0,0,2.95-.38c3-4,0-9.27-1.51-13.36-2.49-7-5-13.94-7.48-20.89-3.8-10.43-8.23-20.87-17-28.11-1.54-1.28-4.15.34-2.94,2.27q18.87,30.18,35.08,61.9l3.24-1.89c-9.22-16.19-15.45-34.12-26.39-49.31-3.94-5.48-9.74-14.15-16.86-15.53-5.23-1-10.1,4.08-7.48,9,1.14,2.15,4.3.26,3.24-1.89a10.28,10.28,0,0,1-.64-8.11l-1.8,1.38c4.34-.31,1.57,18.48,1.12,20.3h3.61a111.07,111.07,0,0,1-7.23-25.2l-2.75,2.11c6.56,3.09,14.22,2.13,20.64,5.34,7.22,3.59,10.86,13.59,14.46,20.27Q544,124.1,555.22,148l1.62-2.82-10.69-1.32c-1.54-.19-5-.19-6.26-.82-2-1-2.57-3.6-3.36-5.49-2.5-6-4.82-12.1-7.88-17.85-5.24-9.84-12.78-18.39-23.5-22.21-2.27-.81-3.25,2.81-1,3.62Z"/><path d="M344.91,368.08a192,192,0,0,1-40.84,14.49c-14.19,3.31-28.88,4.49-42.82,8.83a89.15,89.15,0,0,0-32.37,18.68c-8.89,7.84-16.49,17-24,26.1l-33.65,41c-.29.36.39.5.61.23l29.57-36c7.92-9.67,15.73-19.52,24.83-28.12S246,397.35,258,393.06c13.59-4.87,28.12-6.08,42.17-9.06a194.18,194.18,0,0,0,45.09-15.46c.45-.22,0-.64-.32-.46Z"/><path d="M660.66,367.63a157.9,157.9,0,0,0,36,14.5c12.79,3.41,26.18,4.59,38.66,9.14,22.38,8.15,36.69,27.67,50.12,46.24l28.36,39.21c.14.19.79-.1.73-.19l-25.31-35c-6.87-9.49-13.58-19.16-21.44-27.86-7.63-8.44-16.47-15.89-26.88-20.66-11.95-5.47-25.17-6.87-37.87-9.75a157.79,157.79,0,0,1-41.68-15.9c-.19-.1-.79.2-.68.26Z"/><path d="M479.22,61.92c13-7.58,29-.5,38.71,9.27,5.56,5.58,9.75,12.42,13.92,19,4.62,7.32,9.36,14.55,13.92,21.9a200.43,200.43,0,0,1,11.79,22.31c3.38,7.37,6.64,14.8,10.62,21.87,7.78,13.83,18.17,26.19,29.68,37.05a231.54,231.54,0,0,0,38.33,29c1.75,1.08,3.52,2.13,5.29,3.17.19.11.86-.18.58-.34a240.94,240.94,0,0,1-40.57-29.35c-12.13-11-23.11-23.58-31.44-37.73-8.43-14.32-13.75-30.21-22.46-44.39-4.63-7.54-9.49-14.94-14.22-22.41-4.34-6.88-8.59-14-14.28-19.9-8.86-9.16-22.94-16.15-35.75-11.78a25.44,25.44,0,0,0-4.56,2.1c-.42.25.22.32.44.19Z"/><path d="M482.56,55.94c-2.93,7-9.25,11.58-16.38,13.71-6.24,1.87-13.24,2.57-18.46,6.81-.31.25.41.2.56.08,5.82-4.73,13.86-4.93,20.66-7.48a24.68,24.68,0,0,0,14.34-13.22c.08-.19-.63-.11-.72.1Z"/><path d="M447.65,76.46c-11,29.71-22.62,59.49-26.17,91.21-.89,7.94-1.52,15.92-2.89,23.8a115.52,115.52,0,0,1-5.29,20.1c-4.81,13.12-12.5,25.34-23.43,34.21-11.89,9.67-27.18,15.43-42.6,14.34-.36,0-.74.5-.25.54,13.28.93,26.48-3.1,37.56-10.33,11.56-7.54,20.35-18.52,26.2-31,6.31-13.43,8.92-27.91,10.46-42.57.86-8.15,1.69-16.3,3.2-24.37s3.44-15.8,5.7-23.56c4.57-15.76,10.35-31.13,16.05-46.51l2.16-5.83c.14-.39-.58-.39-.7-.08Z"/><path d="M472.85,27.33c-8.46,4.08-18.07,3.83-27.14,5.47a44.75,44.75,0,0,0-21.59,10.34C410,55.36,404.3,73.44,395.88,89.48c-4.4,8.36-9.71,16.19-14.3,24.44a101.16,101.16,0,0,0-5.91,12.28,82.37,82.37,0,0,0-3.89,13.68c-1.91,9.36-2.8,18.92-5.4,28.13a71.47,71.47,0,0,1-5.45,13.43,102.4,102.4,0,0,0-5.83,12.19c-3.5,9.67-1.49,19.75-1.52,29.75a56.39,56.39,0,0,1-7,26.92,60.43,60.43,0,0,1-3.72,5.91s0,.13,0,.16A9.16,9.16,0,0,0,351,258c.44-.11.33-.52-.11-.4a8.4,8.4,0,0,1-3.83.12c-.85-.18-2.81-.64-3.13-1.58-.18-.51.3-.92.61-1.38s.64-1,.95-1.46c.66-1,1.29-2.11,1.88-3.19a57.4,57.4,0,0,0,5.06-12.68,55.59,55.59,0,0,0,1.86-13.94c0-5.16-.53-10.3-.6-15.46a40.88,40.88,0,0,1,2.2-14.72c1.67-4.54,4.13-8.73,6.31-13,4.37-8.61,6.43-17.8,8-27.26,1.59-9.67,3-19.4,6.82-28.5,3.69-8.82,8.91-16.88,13.82-25,2.5-4.14,4.9-8.34,7.07-12.66s4.26-9,6.37-13.47c4-8.48,8.3-16.9,14.43-24,5.67-6.62,12.82-12.13,21.22-14.74,8.86-2.74,18.33-2.26,27.25-4.72a35.26,35.26,0,0,0,6-2.21c.45-.22,0-.5-.3-.34Z"/><path d="M342.13,256.86A13,13,0,0,0,353,259.38c.45-.1.34-.5-.11-.4a12.23,12.23,0,0,1-10.1-2.41c-.22-.17-.89.12-.67.29Z"/><path d="M637,226.11a22.76,22.76,0,0,1-10.73-2.83c-.24-.14-.89.19-.57.38a23.4,23.4,0,0,0,11,2.91c.31,0,.76-.46.27-.46Z"/><path d="M472.79,27.52a115.72,115.72,0,0,1,59.69,5,119.91,119.91,0,0,1,26.8,13.62A136.25,136.25,0,0,1,581.08,65a146.86,146.86,0,0,1,30.39,46.55,128.28,128.28,0,0,1,7.43,26.28,121.48,121.48,0,0,1,1.53,13.44c.13,2.3,0,4.62.21,6.91a26.82,26.82,0,0,0,.73,3.63l.81,3.81c2.16,10.19,4.71,20.32,9.8,29.49,1.35,2.43,2.93,4.71,4.26,7.15a43,43,0,0,0,4.21,6.31c3.35,4.17,7.15,8,10.4,12.2.58.77,1.08,1.14.22,1.75a7.92,7.92,0,0,1-1.41.75c-.79.38-1.59.73-2.35,1.18-.31.18.42.12.56,0,.9-.53,1.88-.91,2.81-1.38.45-.23,1.37-.59,1.57-1.11s-.62-1.34-1-1.83c-.92-1.19-1.89-2.35-2.87-3.49-3.63-4.2-7.73-8.19-10.53-13s-5.88-9.6-8.13-14.77A95,95,0,0,1,624.84,174c-1.26-5.07-2.45-10.22-3.38-15.37-.41-2.22-.15-4.69-.27-7s-.32-4.7-.58-7.05a126.89,126.89,0,0,0-6.09-27,143.8,143.8,0,0,0-28.45-48.17,145.53,145.53,0,0,0-21.38-20.14A120.41,120.41,0,0,0,538.85,34.5a117.14,117.14,0,0,0-58.73-8.36c-2.41.29-4.82.65-7.21,1.09-.29.06-.63.38-.12.29Z"/><path class="cls-4" d="M559,338.26h-.78a.88.88,0,0,0-.28.06.41.41,0,0,0-.2.12s-.05.08,0,.11a.31.31,0,0,0,.19,0h.78a.88.88,0,0,0,.28-.06.41.41,0,0,0,.2-.12s0-.08,0-.11a.31.31,0,0,0-.19,0Z"/><path class="cls-4" d="M558.3,338.41c-.48,2.84-1.49,5.57-1.82,8.44a28,28,0,0,0,.79,8.6c1.15,5.72,3,11.26,4.37,16.93,1.3,5.44,2.18,11.2.88,16.73a22,22,0,0,1-3.77,8.05c-1.67,2.25-3.79,4.15-5.55,6.33-6.22,7.72-12.41,18.91-8.56,29a17,17,0,0,0,1.64,3.24c.28.43.58.86.89,1.27a5.78,5.78,0,0,0,2.18,1.51,59.49,59.49,0,0,0,8,3.36,77.58,77.58,0,0,0,17.77,3.62,131.74,131.74,0,0,0,18,.29A150.79,150.79,0,0,0,611.61,444c13-2.21,26.13-4.12,38.66-8.38a75.65,75.65,0,0,0,15.62-7,25.48,25.48,0,0,0,9.62-9.79c2.61-5.11,2.81-11.06,1.49-16.56a64.83,64.83,0,0,0-2.85-8.47c-1.08-2.74-2-5.54-3.15-8.25-5.19-12.56-11.43-24.64-17.55-36.76-3-5.93-6-11.87-8.75-17.89a77.47,77.47,0,0,1-3.87-9.24c-1-3.13-2.17-6.19-3.23-9.3a59.17,59.17,0,0,1-2.46-9.06c0-.18-.76,0-.72.19,1.12,6.35,3.77,12.24,5.69,18.36a74.7,74.7,0,0,0,3.67,8.83q2,4.35,4.13,8.65c5.73,11.7,11.86,23.2,17.35,35q2.13,4.57,4.11,9.22c1.19,2.8,2.18,5.67,3.3,8.5,2.08,5.28,4.31,10.66,4.42,16.42a21.42,21.42,0,0,1-5.29,14.8c-3.44,3.85-8.06,6.42-12.69,8.56-12,5.57-25.2,8.13-38.2,10.34-6.4,1.09-12.76,2.23-19.23,2.76a177.67,177.67,0,0,1-18.45.68,94,94,0,0,1-18-2,69.3,69.3,0,0,1-8.47-2.42c-1.38-.5-2.75-1.05-4.09-1.66s-3.35-1.25-4.43-2.3c-1.85-1.78-3-4.8-3.56-7.25a20.24,20.24,0,0,1-.15-7.64,38,38,0,0,1,6.36-14.82,60.87,60.87,0,0,1,5-6.36,40.07,40.07,0,0,0,5-6.12,24.94,24.94,0,0,0,2.89-15.37c-.56-5.53-2.2-10.89-3.68-16.23-.75-2.7-1.47-5.42-2-8.17a27.18,27.18,0,0,1-.75-8.93c.36-2.73,1.31-5.33,1.76-8,0-.21-.68-.08-.71.12Z"/><path class="cls-4" d="M348.34,259.56c-3.57,15-7.18,30.12-8.49,45.54a122,122,0,0,0,.08,23.17c.42,3.92,1.06,7.79,1.4,11.71s.53,7.78.63,11.68c.41,15.5-.62,31,.41,46.49A56.53,56.53,0,0,0,344,408.42c.83,3.28,1.77,6.55,2.31,9.9a27.3,27.3,0,0,1-.24,10.73c-.81,3.41-1.8,6.78-2.54,10.21a38.21,38.21,0,0,0-1.05,9.93,23.46,23.46,0,0,0,2.76,9.78,20,20,0,0,0,6,6.64,23.31,23.31,0,0,0,8.22,3.78c12.37,3.23,25.82,4.34,37.82-.87a19,19,0,0,0,6.74-4.29,24.94,24.94,0,0,0,3.78-5.78c2.26-4.46,4-9.46,7.75-12.94,2.45-2.27,5.56-3,8.68-3.95a50.13,50.13,0,0,0,8.88-3.38,14,14,0,0,0,2.74-2.1,22.44,22.44,0,0,0,3.3-3.38c1.78-2.42,2.3-5.63,2.43-8.56.34-7.18-.85-14.32-1.54-21.44-.74-7.52-1.27-15.05-1.84-22.59-1.12-14.93-2.35-29.91-5.51-44.58q-1.17-5.44-2.72-10.8c0-.17-.78,0-.73.2,8.27,28.37,7.47,58.24,11.11,87.33a88.51,88.51,0,0,1,.55,9.9c0,3.25-.21,6.83-1.84,9.72a14.78,14.78,0,0,1-3.07,3.53,17.78,17.78,0,0,1-4.06,3,67.28,67.28,0,0,1-9.75,3.47c-2.44.76-4.72,1.45-6.71,3.12a19.78,19.78,0,0,0-4.34,5.41c-2.46,4.23-3.93,9.08-7,12.93a17.21,17.21,0,0,1-6.86,4.85,41.1,41.1,0,0,1-10.29,3,59.79,59.79,0,0,1-20.49-.7c-1.55-.29-3.1-.63-4.64-1a32,32,0,0,1-5.19-1.48,24.1,24.1,0,0,1-7.43-5c-4.81-4.8-6.49-11.72-5.85-18.34a67.08,67.08,0,0,1,2.06-10.3c.82-3.19,1.94-6.48,2.08-9.79.27-6.61-2-12.85-3.42-19.21a64.1,64.1,0,0,1-1.18-10.88c-.18-3.73-.26-7.46-.28-11.19,0-7.56.15-15.13.17-22.69s-.17-15.24-.92-22.82c-.37-3.75-1-7.45-1.35-11.2a110.52,110.52,0,0,1-.45-11.36c.14-15.24,3.07-30.28,6.46-45.09.82-3.58,1.67-7.16,2.52-10.74,0-.17-.67-.07-.71.12Z"/><path class="cls-4" d="M421.79,311.05a29.82,29.82,0,0,0,6.73,9.42c.22.21.91-.08.67-.31a29.35,29.35,0,0,1-6.67-9.31c-.14-.29-.85-.08-.73.2Z"/><path class="cls-4" d="M430.29,326.55a31.21,31.21,0,0,0-3.23-8.66c-.1-.19-.79.07-.72.19a32,32,0,0,1,3.23,8.66c0,.18.76,0,.72-.19Z"/><path class="cls-4" d="M648.23,223.34a7.24,7.24,0,0,1-8.06.92.62.62,0,0,0-.46.05s-.33.13-.22.19a8.66,8.66,0,0,0,9.39-1.23c.12-.11-.11-.1-.17-.1a.85.85,0,0,0-.48.17Z"/><path class="cls-4" d="M632.06,294.43a68.93,68.93,0,0,0-1.71-8c-.64-2.51-1.48-5.05-1.88-7.61a22.94,22.94,0,0,1-.06-3.89c0-1.46.05-2.93.08-4.4.06-2.67.14-5.34.22-8,.32-11.05.6-22.16-.81-33.15a83.61,83.61,0,0,0-4.24-18.07c-.08-.22-.8,0-.72.19,7.59,20.94,4.87,43.61,4.73,65.39,0,3,1,5.95,1.73,8.87a77.57,77.57,0,0,1,1.94,8.9c0,.2.76,0,.72-.2Z"/><path class="cls-4" d="M637.13,226.59a6.64,6.64,0,0,0,5.3-2.07c.12-.12-.1-.18-.18-.18a.73.73,0,0,0-.49.19,5.31,5.31,0,0,1-4.18,1.7.76.76,0,0,0-.51.13c-.1.09-.1.22.06.23Z"/><path class="cls-4" d="M632,293.39a1.77,1.77,0,0,0-.87.23c-.42.24-.28.41-.13.82.43,1.17.84,2.34,1.25,3.52q1.19,3.48,2.22,7c0,.15.76-.05.72-.19q-.81-2.8-1.73-5.56c-.3-.9-.6-1.8-.92-2.7l-.48-1.34c-.06-.16-.49-1.51-.53-1.51.14,0,.81-.29.47-.28Z"/><path class="cls-3" d="M507.27,98.94l6.69,3.44c1.79.92,4-1.49,2.27-2.95C510.32,94.4,504,88.76,505,80.24l-3.2,1.33a23.3,23.3,0,0,1,3.48,5c1,1.83,4.15.58,3.43-1.45l-1.4-3.92L504.15,83l5,4.78A1.89,1.89,0,0,0,512.29,86l-1.14-4.23-2.76,2.11a16.2,16.2,0,0,1,5.09,3.92c1.39,1.58,4.2-.53,2.95-2.27L513.94,82l-3,2.27,4.89,6c1.42,1.75,3.82-.48,3-2.27a62.35,62.35,0,0,0-5.38-9l-2.57,2.57a19.6,19.6,0,0,1,9.33,9.3L523.45,89l-3.83-6.25-2.57,2.56a24,24,0,0,1,6.63,6.5l3-2.27-8.21-8.81-2.65,2.66a84.08,84.08,0,0,1,19.17,33.35l3.43-1.45a36.64,36.64,0,0,0-9.81-9.54c-1.58-1-3.51,1-2.56,2.57a106.13,106.13,0,0,1,13,32.59l3.13-1.82-1-1.62L538,139.32c.87,1,2.31,3.8,4.07,2.74l2.27.3-.32-.31-.83,3.14a9.48,9.48,0,0,1,7.62.61,1.89,1.89,0,0,0,2.56-2.57,82.5,82.5,0,0,0-6-10.52l-3,2.27a16.49,16.49,0,0,1,3.7,5.66c.87,2.22,4.5,1.25,3.62-1a21.17,21.17,0,0,0-4.66-7.31c-1.45-1.49-4.16.48-2.95,2.27a80.77,80.77,0,0,1,6,10.53l2.57-2.57a12.82,12.82,0,0,0-10.51-1,1.89,1.89,0,0,0-.82,3.13l.32.31a1.92,1.92,0,0,0,2.27.29l.47-.28a1.84,1.84,0,0,0,.93-1.62c-.34-2.74-3-4.73-4.71-6.73a1.89,1.89,0,0,0-3.13,1.83,6.41,6.41,0,0,0,2,3.27,1.89,1.89,0,0,0,3.13-1.82,109,109,0,0,0-13.4-33.49L526.67,109a31.43,31.43,0,0,1,8.46,8.2c1.16,1.64,4.08.71,3.42-1.45a88.55,88.55,0,0,0-20.13-35c-1.65-1.76-4.29.89-2.65,2.66l8.2,8.8c1.43,1.53,4.18-.5,2.95-2.27a29.22,29.22,0,0,0-8-7.85c-1.58-1-3.52,1-2.56,2.57l3.83,6.25c1.27,2.08,4.3.26,3.24-1.89a22.93,22.93,0,0,0-10.68-10.65c-1.51-.75-3.75.91-2.56,2.57a61.72,61.72,0,0,1,5.38,9l2.95-2.27-4.89-6c-1.33-1.64-4.19.54-2.95,2.27l2.49,3.46,2.94-2.28a18.73,18.73,0,0,0-5.85-4.51,1.9,1.9,0,0,0-2.75,2.12L508.67,87l3.14-1.83-5-4.77c-1.27-1.22-3.79,0-3.13,1.82l1.4,3.93,3.43-1.45a29.33,29.33,0,0,0-4.07-5.75c-1.2-1.33-3-.14-3.2,1.33-1.08,9.48,5.7,16.19,12.35,21.85l2.27-3-6.69-3.44c-2.14-1.1-4,2.13-1.89,3.24Z"/><path class="cls-5" d="M417.34,239.18c10.4,9.24,22.86,19.09,37.64,14.59L452.86,251c-6.07,11.9-13.39,23.87-15.81,37.18l2.76-1.12c-8.05-4.53-11.5-13.31-14.67-21.5a279.47,279.47,0,0,1-9.92-29.11l-2.76,2.12A26.11,26.11,0,0,1,424,254.68l3.43-1.45a68.77,68.77,0,0,0-13.77-18.62l-1.82,3.13c9.26,3.49,9.42,17.76,12,25.86,2.05,6.5,4.48,16.84,10.12,21.2a1.91,1.91,0,0,0,2.94-.38c2.15-3.28,2.64-6.83,3.19-10.63a30.62,30.62,0,0,1,6.58-15.65l-3.13-1.82-5.2,15.07,3.62,1a61,61,0,0,1,6.85-15.73l-3.43-1.45L444,260.12l3.61,1c.45-2,2.68-2.79,2.3-5a3.61,3.61,0,0,0-2.83-2.79c-3.32-1.08-7.1-.88-10.52-2a43.08,43.08,0,0,1-11.16-5.54c-2-1.36-3.84,1.86-1.89,3.24l17.63,12.5.94-3.5a23.35,23.35,0,0,1-13.85-4.75c-1.87-1.38-3.46,1.43-2.27,2.94,1.45,1.86,9.83,10.32,8.86,12.65l3.13-.83q-3-3.32-5.81-6.82c-1-1.29-3.26-.2-3.2,1.32a54,54,0,0,0,3,16.31,1.88,1.88,0,0,0,3.62-1,68.24,68.24,0,0,0-5.84-18.11c-.93-1.93-4-.57-3.42,1.44a119.92,119.92,0,0,0,5.38,14.72c.57,1.31,2.61,1.14,3.23,0a33.93,33.93,0,0,0,4.13-13.5c.2-2.08-3.37-2.59-3.68-.5L434,271.46c-.35,2.36,3.26,3.38,3.61,1L439,262.9l-3.69-.5A29.27,29.27,0,0,1,431.71,274h3.23a113.38,113.38,0,0,1-5-13.82l-3.43,1.44A64.73,64.73,0,0,1,432,278.85l3.62-1a50.58,50.58,0,0,1-2.91-15.31l-3.2,1.33c1.86,2.35,3.79,4.61,5.81,6.83,1,1.15,2.63.38,3.13-.83,1-2.33-.22-3.92-1.61-5.79-2.64-3.57-5.48-7-8.21-10.51l-2.27,2.95a26.72,26.72,0,0,0,15.74,5.26c2,0,2.38-2.48.95-3.49l-17.63-12.5L423.5,249a45.85,45.85,0,0,0,15.19,6.77c.57.13,6.85.86,6.91,1.05.12.36-1.42,2.43-1.61,3.27-.54,2.35,2.95,3.33,3.61,1L449,256.2a1.89,1.89,0,0,0-3.43-1.45,65.29,65.29,0,0,0-7.23,16.64c-.65,2.34,2.84,3.26,3.62,1l5.19-15.07c.59-1.71-1.95-3.27-3.13-1.82a33.56,33.56,0,0,0-6.47,11.8c-1.49,5.08-.9,10.67-3.89,15.24l3-.38c-4-3.1-5.76-9.84-7.43-14.46a134,134,0,0,1-4.5-15.46c-1.73-7.54-3.94-15.14-11.81-18.1-1.79-.68-3.1,1.9-1.82,3.13a66,66,0,0,1,13.18,17.87c1,1.94,3.93.57,3.43-1.45a30.06,30.06,0,0,0-13.29-18.33,1.9,1.9,0,0,0-2.76,2.12,273.17,273.17,0,0,0,11.59,33.33c3.18,7.77,7.17,15.27,14.72,19.51a1.89,1.89,0,0,0,2.76-1.12c2.36-13,9.49-24.65,15.43-36.28a1.9,1.9,0,0,0-2.12-2.76c-13.37,4.08-24.64-5.32-34-13.62-1.79-1.6-4.45,1-2.65,2.65Z"/><path class="cls-5" d="M413.94,236.46l-2.35-5.1L410,234.18c4,.35,7.11,5.91,9.39,8.73l8.41,10.36c1.52,1.88,4.16-.79,2.65-2.65q-5.61-6.92-11.2-13.82c-2.58-3.16-5-6-9.25-6.37-1.55-.13-2.15,1.66-1.62,2.82l2.35,5.1c1,2.19,4.24.29,3.24-1.89Z"/><path class="cls-5" d="M408.47,233.06c.25,6.15,4.16,11.65,6.95,16.94l11,20.88c1.13,2.13,4.37.24,3.24-1.9l-9.27-17.53c-2.88-5.46-7.94-12.08-8.2-18.39-.1-2.41-3.85-2.42-3.75,0Z"/><path class="cls-5" d="M421.39,245.53l-1-1.63c-.9-2.16-4.23-1.42-3.62,1l2.68,10.51c.5,2,3.9,1.65,3.68-.5-1-9.51-5.91-17.22-11.7-24.58l-.82,3.14c1.72-.27,8.15,7,9.47,8.19l2.27-2.94a19.24,19.24,0,0,1-6.8-6.09l-2.95,2.27L416.1,239c1.6,1.83,4.17-.82,2.65-2.65a19.94,19.94,0,0,0-8.71-6.1c-1.26-.47-2.85,1-2.31,2.3l10,24,3.42-1.44a143.7,143.7,0,0,1-8.31-18c-.84-2.21-4.31-1.37-3.62,1a124.61,124.61,0,0,0,6.57,17.64c1.09,2.35,7.49,16.58,9.74,15.8-2.27.78-1.29,4.41,1,3.61,5.8-2-1-9.23-2.66-12a116.53,116.53,0,0,1-11-26.06l-3.62,1a150.68,150.68,0,0,0,8.69,18.89c1,1.81,4.26.55,3.43-1.45l-10-24-2.31,2.3A16.53,16.53,0,0,1,416.1,239l2.65-2.65-3.53-4.06c-1.38-1.59-4.16.51-2.94,2.27a23.73,23.73,0,0,0,8.15,7.44c1.8,1,3.89-1.47,2.27-2.95-3.4-3.08-8.09-9.94-13.12-9.16-1.56.24-1.59,2.17-.83,3.13,5.1,6.49,9.74,13.53,10.6,21.93l3.68-.5-2.67-10.5-3.62,1a9.83,9.83,0,0,0,2,3.29c1.57,1.85,4.21-.82,2.65-2.65Z"/><path class="cls-5" d="M423.06,253.4q2.94,6.24,5.51,12.63l3.13-1.82a60.36,60.36,0,0,1-4.14-5.3,1.89,1.89,0,0,0-3.49.95l-.29,3,3.2-1.32-5.25-6.21a1.89,1.89,0,0,0-3.2,1.32,43.72,43.72,0,0,0,16.07,30.25c1.86,1.51,4.53-1.13,2.65-2.65a40.11,40.11,0,0,1-15-27.6l-3.2,1.33,5.25,6.21c1.15,1.37,3.06.13,3.2-1.33l.29-3-3.5.94a66.11,66.11,0,0,0,4.73,6.06c1.19,1.35,3.84-.08,3.14-1.83q-2.74-6.84-5.89-13.52c-1-2.18-4.27-.28-3.24,1.89Z"/><path class="cls-5" d="M425.32,265.43a12.65,12.65,0,0,1-3.38-4.61c-.72-1.77-.94-3.64-1.95-5.3-1.24-2.07-4.49-.19-3.24,1.89,1.1,1.81,1.3,4.06,2.25,6a15.86,15.86,0,0,0,3.67,4.7c1.8,1.6,4.46-1,2.65-2.65Z"/><path class="cls-5" d="M419.49,258.22a39.7,39.7,0,0,0,1.13,9l3.42-1.44a31.46,31.46,0,0,1-1.53-3.59c-.79-2.26-4.41-1.29-3.61,1a37.43,37.43,0,0,0,1.91,4.48c1,1.94,3.91.56,3.42-1.45a34.85,34.85,0,0,1-1-8c0-2.41-3.77-2.41-3.75,0Z"/><path class="cls-5" d="M426.33,254.16a46.15,46.15,0,0,0,6,7.59c1.69,1.73,4.3-.9,2.65-2.65l-4-4.25-2.27,3,6.4,4.46c1.8,1.26,3.67-1.44,2.27-2.94l-6-6.45-2.27,2.95,8.27,5.4c1.6,1,3.49-1,2.57-2.56a36.94,36.94,0,0,0-2.21-3.33l-2.12,2.76,5.63,1a1.87,1.87,0,0,0,1-3.61l-2.34-.91-.5,3.68a30,30,0,0,0,9.76-2.82l-2.82-1.62c-.3,2.93,2.42,3.81,4.79,2.85L449,253.91l-4.37,8.55,3.43,1.44.23-1c.43-2-2.41-3.42-3.43-1.44l-2.7,5.19,3.43,1.45.78-2.24c.82-2.32-2.72-3.17-3.61-1a205,205,0,0,0-7.07,20.12h3.61c-1-3.1-1.82-6.23-2.52-9.42l-3.61,1,.73,1.75a1.88,1.88,0,0,0,3.62-1c-.41-2.23-.91-4.43-1.5-6.62l-3.43,1.44.71,1.13a1.89,1.89,0,0,0,3.49-1,7.87,7.87,0,0,0-2.85-7.17l-.37,2.94a10.56,10.56,0,0,0,4.62-6l-3.43.45.78,2.57c.21,1.73,2.47,2.69,3.49.94a21.36,21.36,0,0,0,2.35-5.73l-3.62-1a28.26,28.26,0,0,1-.93,3.84c-.73,2.3,2.89,3.29,3.62,1a29,29,0,0,0,.93-3.84c.41-2.33-3-3.37-3.62-1a18.12,18.12,0,0,1-2,4.83l3.5.95a13.07,13.07,0,0,0-1.29-4.47c-.76-1.54-3-1-3.43.45a5.59,5.59,0,0,1-2.9,3.73,1.91,1.91,0,0,0-.38,2.95,4.07,4.07,0,0,1,1.75,4.52l3.5-.95-.71-1.12a1.88,1.88,0,0,0-3.42,1.45c.58,2.19,1.08,4.39,1.49,6.62l3.62-1-.74-1.75a1.87,1.87,0,0,0-3.61,1c.69,3.18,1.53,6.31,2.52,9.42a1.89,1.89,0,0,0,3.61,0,206.9,206.9,0,0,1,7.07-20.13l-3.61-1-.79,2.23c-.7,2,2.45,3.33,3.43,1.45l2.7-5.2-3.43-1.45-.23,1c-.43,2,2.41,3.43,3.43,1.45l4.37-8.54c.66-1.3-.48-3.42-2.12-2.76l0,.77c.16-1.54-1.68-2.17-2.82-1.62a23.87,23.87,0,0,1-7.87,2.31,1.89,1.89,0,0,0-.5,3.69l2.35.9,1-3.61-5.62-1c-1.41-.25-3.19,1.31-2.12,2.76a35.43,35.43,0,0,1,2.21,3.32l2.56-2.57-8.27-5.4c-1.83-1.2-3.68,1.43-2.27,2.94l6,6.45,2.27-3-6.4-4.46c-1.8-1.25-3.68,1.45-2.27,2.95l4,4.24L435,259.1a41.75,41.75,0,0,1-5.39-6.83c-1.29-2-4.54-.15-3.24,1.89Z"/><path d="M424.67,188.9c4.27-.61,7.84-3,11.64-4.86a28.63,28.63,0,0,1,14.61-2.69c9.63.69,18.28,5.5,25.79,11.27.24.19.88-.16.56-.41-11.36-8.73-26.67-15.38-40.7-8.85-3.89,1.81-7.5,4.41-11.84,5-.39.06-.56.59-.06.52Z"/><path d="M429.19,188.07A37,37,0,0,0,451,196.55c4.23.19,8.21-.63,12.35-1.29,4.38-.7,8.87-.66,13.08-2.19.48-.18,0-.32-.26-.21-4.15,1.51-8.62,1.42-12.93,2.13s-8.28,1.48-12.59,1.18a36.5,36.5,0,0,1-20.81-8.36c-.16-.14-.82.14-.68.26Z"/><path d="M427.57,188.21c.52,7.52,10.25,9.11,16.11,9.91a60.48,60.48,0,0,0,33.38-5c.45-.22,0-.48-.3-.32a59.38,59.38,0,0,1-26.38,5.44,56,56,0,0,1-13.13-1.86c-4.13-1.12-8.63-3.56-9-8.34,0-.25-.74-.09-.72.2Z"/><path d="M470.89,193.58a3.23,3.23,0,0,1,.88-4.78c.1-.05.29-.16.19-.29s-.37-.06-.48,0a3.58,3.58,0,0,0-1.27,5.37c.17.19.86-.07.68-.29Z"/><path d="M424.69,181.68c6.28-4.92,13.89-8.58,21.95-9,7.68-.42,14.74,2.57,20.7,7.25a70.78,70.78,0,0,1,9,8.61c.12.14.8-.12.68-.25-5.32-5.93-11.44-11.65-19.09-14.37-7.38-2.62-15.41-1.73-22.57,1.19A47.26,47.26,0,0,0,424,181.73c-.16.12.51.06.65,0Z"/><path d="M533,193.79a32.25,32.25,0,0,1,24-11,33,33,0,0,1,23.13,9.82c.12.12.78-.15.69-.24a33.3,33.3,0,0,0-48.58,1.57s.57,0,.71-.14Z"/><path d="M532.5,194.19c-1.32,1.05,1.79,1.85,2.26,2a58.64,58.64,0,0,0,6.43,1.19,130.28,130.28,0,0,0,13.4.86c3.85.1,7.5.19,11-1.53a74.81,74.81,0,0,0,10.85-6.86c.13-.1-.52,0-.65.07a99,99,0,0,1-9.29,6,15.35,15.35,0,0,1-7.14,2.07c-1.76.06-3.53,0-5.29-.08-3.73-.1-7.46-.26-11.17-.68-1.78-.21-3.55-.47-5.31-.83-.91-.18-1.83-.38-2.73-.62-.34-.1-2.81-.82-1.76-1.66.14-.11-.52,0-.65.07Z"/><path d="M577.13,191.07h.5l.14,0,.14-.05L578,191a.27.27,0,0,0,.08-.07s0-.08,0-.11l0,0a.39.39,0,0,0-.15,0h-.5l-.14,0-.14,0-.12.06a.27.27,0,0,0-.08.07s-.06.08,0,.11l0,0,.15,0Z"/><path d="M577.37,189.14c.74,4.14-4.23,6.63-7.34,8a34.32,34.32,0,0,1-12.86,2.54c-8.68.13-17.12-2.45-25.18-5.45a1,1,0,0,0-.68.24c13,4.83,28.08,8.55,41.12,1.81,2.7-1.4,6.29-3.76,5.67-7.29,0-.14-.76,0-.73.19Z"/><path d="M533.65,188.84a31.67,31.67,0,0,1,21.43-11.54c8.73-.9,17.53,1.61,24.95,6.17.17.1.76-.2.68-.24-11.89-7.31-27.2-8.85-39.47-1.51a30.79,30.79,0,0,0-8.3,7.25,1,1,0,0,0,.71-.13Z"/><path d="M552.89,183.78a4.31,4.31,0,0,0-1.54,2.57,5.28,5.28,0,0,0,.29,2.78,13,13,0,0,0,1.57,2.76,1.76,1.76,0,0,0,1.63.79,2.69,2.69,0,0,0,2-1.19c1.28-1.76,1.15-4,.55-6-.27-.89-.54-2-1.4-2.54a2.93,2.93,0,0,0-3.8,1.35,4.47,4.47,0,0,0-.14,3.1,13.16,13.16,0,0,0,1.38,3.34c.26.46,1.16.43,1.58.3a1.57,1.57,0,0,0,1.21-1,8.85,8.85,0,0,0,0-4c-.15-.67-1.18-.68-1.69-.53s-1.37.61-1.2,1.31a7.85,7.85,0,0,1,0,3.51l2.79-.75a10.62,10.62,0,0,1-1.25-3.37,3,3,0,0,1-.07-.71,2.85,2.85,0,0,1,0-.41s.08-.35,0-.24a1.48,1.48,0,0,1,.15-.31c-.07.08-.06.07,0,0a.49.49,0,0,1-.18.11l-.93.11a.24.24,0,0,1-.15-.09s.21.26.22.29a8.58,8.58,0,0,1,.54,1.56,9.07,9.07,0,0,1,.38,1.92,5.23,5.23,0,0,1-.17,1.63,3.36,3.36,0,0,1-.29.7,2.23,2.23,0,0,1-.2.33c.05-.08,0-.06-.06.05s-.08.12.24-.16l.77-.21h-.1l.71.07c.24.2.3.23.17.09a2.43,2.43,0,0,1-.14-.2l-.32-.46c-.18-.27-.35-.54-.52-.83a6.14,6.14,0,0,1-.73-1.8,3.51,3.51,0,0,1,0-1.58,1.68,1.68,0,0,1,.22-.59s.26-.4.12-.23c0,0,.36-.37.14-.18.43-.37.8-1,.19-1.4a2,2,0,0,0-2.07.2Z"/><path d="M449.49,182.25a7.43,7.43,0,0,0-1.82,3.43,4.18,4.18,0,0,0,.69,3.27,3.5,3.5,0,0,0,3.13,1.3c1.45-.08,3.23-.67,3.95-2a5.19,5.19,0,0,0,0-3.74,7.39,7.39,0,0,0-.87-1.73,2.74,2.74,0,0,0-1.36-1.18,4.06,4.06,0,0,0-3.22.67,3.2,3.2,0,0,0-1.17,1.56,4.5,4.5,0,0,0,.13,3.27,3.8,3.8,0,0,0,1.09,1.5,2.24,2.24,0,0,0,1.88.11,2.78,2.78,0,0,0,1.52-.89,4.3,4.3,0,0,0,.21-4.21c-.21-.43-1.05-.27-1.4-.19s-1.28.31-1.48.81a3.55,3.55,0,0,0-.22,2l2.9-.78a2.21,2.21,0,0,1,0-1.78l-2.89.61a4.33,4.33,0,0,1,.57,1.88,3.26,3.26,0,0,1-.05.88,2.47,2.47,0,0,1-.11.47.61.61,0,0,0-.07.17c0,.09-.16,0,.24-.17l.71-.27-.08,0,.75-.12a.67.67,0,0,1,.42.06.52.52,0,0,1-.11-.1.78.78,0,0,1-.11-.2,2,2,0,0,1-.16-.65c0-.19-.41-.25-.52-.26a3,3,0,0,0-1.07.11c-.38.11-1.35.39-1.3.93a1.5,1.5,0,0,0,.82,1.35,2.9,2.9,0,0,0,1.65-.06,2.56,2.56,0,0,0,1.56-1,3.28,3.28,0,0,0,.33-1.83,4.24,4.24,0,0,0-.57-2c-.24-.43-1-.28-1.4-.2s-1.28.32-1.48.82a2.69,2.69,0,0,0,0,2.1c.21.48,1.22.25,1.59.15s1.4-.4,1.31-.93a2.8,2.8,0,0,1,.19-1.64l-2.89.62a4.21,4.21,0,0,1,.44,2,3.64,3.64,0,0,1-.17.93c-.06.17-.12.34-.19.49l-.09.19s-.15.09,0,0l.6-.31-.08,0,.77-.2h-.08l.68,0,.18.06a.57.57,0,0,1-.15-.12l-.21-.22a2.39,2.39,0,0,1-.28-.35,3.73,3.73,0,0,1-.49-1.05,3.9,3.9,0,0,1-.09-2.14,2.76,2.76,0,0,1,.38-.92,1.59,1.59,0,0,1,.2-.24c.19-.2,0,0,0,0-.33-.07-1,.53-1.31.27.08.06.18.08.26.15a4.77,4.77,0,0,1,1.33,2.05,6.43,6.43,0,0,1,.44,2.53,2.65,2.65,0,0,1-.24,1.07,1.36,1.36,0,0,1-.25.39c-.11.13,0,0,0,0l-.14.1c.15-.08.16-.09,0,0-.27.14.23-.1,0,0s.39-.1.39-.1h-.09c-.15,0-.12,0,.09,0,0,0-.32,0-.11,0l-.11,0c-.27,0,.15.07-.1,0a3.94,3.94,0,0,1-.4-.15,2.83,2.83,0,0,1-1.29-1.64c-.6-1.81.28-3.61,1.45-5,.42-.5-.37-.62-.72-.6a2.9,2.9,0,0,0-1.93.73Z"/><path d="M546.3,184.32c-1.95,2.12-1.62,5.22-.32,7.58a18.3,18.3,0,0,0,2.49,3.33,6.5,6.5,0,0,0,3.47,2.33,13.92,13.92,0,0,0,7.13-.4A7.54,7.54,0,0,0,564,192a24.11,24.11,0,0,0,.93-4.45,5.28,5.28,0,0,0-1-4.31c-.14-.16-.75.16-.72.2a5,5,0,0,1,1,4,23.13,23.13,0,0,1-.89,4.53,7.72,7.72,0,0,1-2.54,4,8.76,8.76,0,0,1-5.29,1.52,7.78,7.78,0,0,1-4.8-1.07,15.6,15.6,0,0,1-3.34-3.72c-1.71-2.51-2.61-6.07-.33-8.55a1.25,1.25,0,0,0-.71.13Z"/><path d="M442.55,181.52a6.43,6.43,0,0,0-1.09,7.25,18.94,18.94,0,0,0,2.21,3.59,8.25,8.25,0,0,0,3,2.73c4.42,2,9.85-.8,12.25-4.63,1.47-2.35,2.3-5.64.62-8.09-.14-.2-.84,0-.68.28,1.75,2.54.66,6-1,8.35a10.14,10.14,0,0,1-7.12,4.28,6.43,6.43,0,0,1-4.72-1.3,14.32,14.32,0,0,1-2.72-3.33c-1.83-2.79-2.77-6.32-.21-9,.29-.31-.42-.3-.58-.12Z"/><path d="M554,188.39c.64,0,1.59-.18,1.89-.84s-.23-1.07-.84-1.07-1.59.18-1.9.84.24,1.07.85,1.07Z"/><path d="M574.4,187.48v.62a.16.16,0,0,0,0,.1.16.16,0,0,0,.07.07.34.34,0,0,0,.24,0,.56.56,0,0,0,.28-.1l.06-.05a.33.33,0,0,0,.07-.13v-.63a.15.15,0,0,0,0-.09.27.27,0,0,0-.07-.08.41.41,0,0,0-.24,0,.55.55,0,0,0-.28.09l-.06.06a.24.24,0,0,0-.07.13Z"/><path d="M574.91,187.79l.48.64a.37.37,0,0,0,.4.1l.17-.08a.3.3,0,0,0,.13-.2l0-1.14a.21.21,0,0,0-.09-.19.35.35,0,0,0-.24-.06.56.56,0,0,0-.28.1.32.32,0,0,0-.12.2v1.14l.7-.19-.48-.64a.41.41,0,0,0-.49-.07c-.13.07-.28.24-.17.39Z"/><path d="M575.05,188.62l-.3-1.25c0-.06-.09-.07-.13-.08a.61.61,0,0,0-.27,0,.57.57,0,0,0-.25.11s-.09.07-.08.13l.31,1.25c0,.05.09.07.13.08a.8.8,0,0,0,.27,0,1,1,0,0,0,.25-.11s.09-.08.07-.13Z"/><path d="M574.8,188.29l-.32-.93c-.05-.17-.27-.21-.43-.17a.41.41,0,0,0-.23.15.21.21,0,0,0-.06.21l.32.94a.34.34,0,0,0,.43.16.41.41,0,0,0,.23-.15.2.2,0,0,0,.06-.21Z"/><path d="M573.87,186.38a.31.31,0,0,1-.11-.09l0,0a.55.55,0,0,1-.11-.46v0a.68.68,0,0,1,.12-.26l0,0,0,0,0,0s-.06,0,0,0,.09-.06.08-.11-.1,0-.13,0l-.26,0-.25.1a.68.68,0,0,0-.32.55.59.59,0,0,0,.24.49.41.41,0,0,0,.19,0,1,1,0,0,0,.28-.07s.32-.13.22-.2Z"/><path d="M572.93,186.93h0l0,0,0,0s.05,0,0,0l0,0,0,0c.07,0,.08,0,.05,0l.08,0h.05c-.07,0,.07,0,0,0h0c-.05,0,0,0,0,0l-.14,0,0,0a.49.49,0,0,1-.2-.18l0,0a1.5,1.5,0,0,1-.15-.93c0-.05-.11-.07-.13-.07a.8.8,0,0,0-.27,0c-.11,0-.32.09-.33.23a1.55,1.55,0,0,0,.15.93.85.85,0,0,0,.86.29.92.92,0,0,0,.67-.38s0-.08-.07-.09a.45.45,0,0,0-.23,0,.56.56,0,0,0-.42.21Z"/><path d="M571.7,186.17v-.93a.2.2,0,0,0-.09-.19.35.35,0,0,0-.24-.06.48.48,0,0,0-.28.1.32.32,0,0,0-.12.2v.93a.21.21,0,0,0,.09.19.36.36,0,0,0,.25.06.56.56,0,0,0,.27-.1.32.32,0,0,0,.12-.2Z"/><path d="M571.2,186.75c.32,0,.76-.48.27-.48-.32,0-.75.48-.27.48Z"/><path d="M574.22,186.78a.56.56,0,0,1,0-.12l0,.05a.31.31,0,0,1,.07-.09l0,0,.07-.06-.07,0,.06,0-.08,0,.06,0-.1,0h0l-.09,0h0l-.07,0,.07,0a.49.49,0,0,0,.24,0,1.07,1.07,0,0,0,.27-.09l.07-.05a.23.23,0,0,0,.07-.1v-.05a.1.1,0,0,0-.07-.07.75.75,0,0,0-.33-.07,1.24,1.24,0,0,0-.5.13.86.86,0,0,0-.3.23.45.45,0,0,0-.11.23.1.1,0,0,0,.07.12.4.4,0,0,0,.24,0,.66.66,0,0,0,.27-.09l.07,0a.23.23,0,0,0,.07-.1Z"/><path d="M574.12,187.59a1.26,1.26,0,0,0,.33.16,1.32,1.32,0,0,0,.34,0,1.63,1.63,0,0,0,.88-.3.13.13,0,0,0-.06-.25.7.7,0,0,0-.52.14s.08,0,0,0l0,0c.06,0,.07,0,0,0h-.05s0,0,.05,0H575c-.06,0,.1,0,0,0H575s.09,0,0,0l-.11,0c.08,0,0,0,0,0l0,0-.1-.05,0,0h0a.42.42,0,0,0-.19-.06.72.72,0,0,0-.29.06.38.38,0,0,0-.19.14s-.06.11,0,.14Z"/><path d="M575.56,188.88H576l.15-.05a.24.24,0,0,0,.11-.06.27.27,0,0,0,.08-.07l0-.05a.08.08,0,0,0,0-.08l-.05,0a.26.26,0,0,0-.15,0h-.45l-.14,0-.12.07a.18.18,0,0,0-.08.07l0,.05a.06.06,0,0,0,0,.08l0,0a.32.32,0,0,0,.14,0Z"/><path d="M576.33,188.78l.62-.63s.09-.1.07-.16-.09-.09-.14-.1a.62.62,0,0,0-.27,0,.6.6,0,0,0-.24.12l-.62.63a.21.21,0,0,0-.08.16.18.18,0,0,0,.15.1.62.62,0,0,0,.27,0,.77.77,0,0,0,.24-.12Z"/><path d="M576.5,189.22c.28,0,.77-.42.28-.42-.27,0-.76.42-.28.42Z"/><path d="M574.51,187v-.94s-.11-.06-.13-.06a.8.8,0,0,0-.27,0,1,1,0,0,0-.24.11s-.09.06-.09.11v.94c0,.05.11.06.13.06a.8.8,0,0,0,.27,0,1,1,0,0,0,.24-.11c.05,0,.09-.06.09-.11Z"/><path d="M574.51,186.48v-.62a.12.12,0,0,0,0-.1.13.13,0,0,0-.07-.09.35.35,0,0,0-.24-.06.56.56,0,0,0-.28.1.32.32,0,0,0-.12.2v.62a.14.14,0,0,0,0,.11.13.13,0,0,0,.07.08.35.35,0,0,0,.24.06.56.56,0,0,0,.28-.1.32.32,0,0,0,.12-.2Z"/><path d="M574,186.36c.22,0,.79-.32.31-.32-.22,0-.79.32-.31.32Z"/><path d="M570.05,185.21c.41,0,.56-.52.07-.52s-.56.52-.07.52Z"/><path d="M428,187.75l-.07.08s0,0,0,0l-.05,0c-.05,0,.06,0,0,0l0,0c.09-.06.05,0,0,0s.08,0,0,0-.09,0,0,0h-.09s-.07,0,0,0h-.13s0,0,0,0-.18-.06-.21-.07,0,0,0,0l-.05,0-.08-.06a.6.6,0,0,1-.22-.34s-.09-.07-.13-.07a.8.8,0,0,0-.27,0,1,1,0,0,0-.25.11s-.09.08-.08.14a1,1,0,0,0,.86.66,1.68,1.68,0,0,0,.8-.09,1.11,1.11,0,0,0,.58-.4c.09-.13-.08-.16-.19-.16a.94.94,0,0,0-.28.06.44.44,0,0,0-.2.13Z"/><path d="M428.08,188.83l-.05,0h0l-.05,0c.08-.05.06,0,0,0h0s.09,0,0,0h-.18l-.11,0h0c.06,0,0,0,0,0l-.19-.09,0,0c-.06,0,0,0,0,0l-.08-.06-.15-.16,0,0v0a1.17,1.17,0,0,1-.05-.11c-.06-.14-.29-.11-.41-.08a.68.68,0,0,0-.24.12s-.1.1-.07.16a1.53,1.53,0,0,0,2.17.53c.09-.06.22-.21.06-.28a.61.61,0,0,0-.51.07Z"/><path d="M428.64,187.37l-.31-.93c0-.05-.09-.06-.13-.07a.8.8,0,0,0-.27,0,1,1,0,0,0-.25.11s-.1.07-.08.12l.31.94c0,.05.09.06.14.06a.77.77,0,0,0,.26,0,.71.71,0,0,0,.25-.11s.1-.07.08-.12Z"/><path d="M430.25,187l-.32-.93c-.05-.16-.29-.15-.41-.12a.53.53,0,0,0-.24.14.17.17,0,0,0-.07.17l.32.94c.05.15.29.15.42.11a.56.56,0,0,0,.24-.13.2.2,0,0,0,.06-.18Z"/><path d="M432.07,185.82l.32-.94a.11.11,0,0,0-.08-.13.4.4,0,0,0-.24,0c-.15,0-.36.09-.41.25l-.31.93a.13.13,0,0,0,.07.14.4.4,0,0,0,.24,0c.16,0,.36-.09.41-.25Z"/><path d="M432.1,186.71l-.62-.63a.32.32,0,0,0-.19-.05.75.75,0,0,0-.29.06.5.5,0,0,0-.19.13s-.05.09,0,.13l.62.62a.29.29,0,0,0,.2.05.71.71,0,0,0,.28-.06.44.44,0,0,0,.2-.13s0-.08,0-.12Z"/><path d="M430.89,185.94c-.05,0,.11,0,0,0h0l-.06,0h0l0,0,0,0a.61.61,0,0,1-.17-.19l0,.05a.73.73,0,0,1-.08-.33v.06a.54.54,0,0,1,0-.22l0,.06a.22.22,0,0,1,.05-.08c0-.05-.05,0,0,0l0,0a.13.13,0,0,0-.07-.25.66.66,0,0,0-.51.13.63.63,0,0,0-.24.61.75.75,0,0,0,.34.52.86.86,0,0,0,.5.09.63.63,0,0,0,.27-.1.26.26,0,0,0,.14-.15c0-.16-.21-.16-.31-.15Z"/><path d="M430.89,186H431l.06,0h0l.05,0,0,0,0,0a.11.11,0,0,1,0-.08V186a.11.11,0,0,1,0-.08l0,.05,0,0-.05.05h0L431,186h0l-.08,0h0l-.1,0h0l-.1,0h0l.14,0L431,186l.1-.07.05-.05a.17.17,0,0,0,0-.1l0,0a.16.16,0,0,0-.11-.05.5.5,0,0,0-.21,0l-.21.06a.54.54,0,0,0-.16.1.28.28,0,0,0-.12.16.06.06,0,0,1,0,0,.28.28,0,0,0,0,.09s0,0,0,0a.2.2,0,0,0,0,.08h0l.06,0a.47.47,0,0,0,.17,0h.11a.71.71,0,0,0,.28-.09l.09-.07a.22.22,0,0,0,.05-.08V186a.19.19,0,0,0-.08-.07l-.06,0Z"/><path d="M578.84,189.67l.41-.29a1,1,0,0,0,.34-.36.69.69,0,0,0,.17-.39.55.55,0,0,0-.07-.4.58.58,0,0,0-.27-.31l-.28-.14a1.89,1.89,0,0,0-.71-.07l-.39.07a2,2,0,0,0-.7.32l-.41.3a1,1,0,0,0-.34.35.75.75,0,0,0-.17.4.48.48,0,0,0,.08.39.55.55,0,0,0,.26.32l.28.13a1.71,1.71,0,0,0,.71.08l.39-.07a2,2,0,0,0,.7-.33Z"/><path d="M578.27,188.51l.18-.17a.82.82,0,0,0,.21-.4.6.6,0,0,0,0-.42.59.59,0,0,0-.23-.35.88.88,0,0,0-.38-.24l-.34-.07a2,2,0,0,0-.76.06l-.38.14a1.69,1.69,0,0,0-.57.42l-.18.18a.78.78,0,0,0-.21.4.6.6,0,0,0,0,.42.54.54,0,0,0,.23.34.73.73,0,0,0,.38.24l.34.08a2,2,0,0,0,.76-.06l.38-.14a1.59,1.59,0,0,0,.57-.43Z"/><path d="M576.74,188.33l.17-.12a1,1,0,0,0,.34-.38.81.81,0,0,0,.16-.43.57.57,0,0,0-.08-.42.69.69,0,0,0-.28-.35l-.28-.15a1.93,1.93,0,0,0-.72-.1l-.39.07a1.94,1.94,0,0,0-.69.34l-.18.12a1,1,0,0,0-.33.38.78.78,0,0,0-.17.42.64.64,0,0,0,.09.43.62.62,0,0,0,.28.34l.28.15a1.57,1.57,0,0,0,.71.1l.4-.06a2,2,0,0,0,.69-.34Z"/><path d="M575.59,187.22l.29-.29a.67.67,0,0,0,.23-.35.43.43,0,0,0,0-.35.42.42,0,0,0-.21-.29.73.73,0,0,0-.37-.19l-.33-.05a2.77,2.77,0,0,0-.76.08l-.38.14a2,2,0,0,0-.58.38l-.3.29a.72.72,0,0,0-.22.35.43.43,0,0,0,0,.35.42.42,0,0,0,.21.29.69.69,0,0,0,.37.19l.33,0a2.81,2.81,0,0,0,.76-.08l.38-.14a2,2,0,0,0,.58-.38Z"/><path d="M574.37,186.31l.17-.17a.7.7,0,0,0,.23-.36.48.48,0,0,0,0-.37.47.47,0,0,0-.21-.3.67.67,0,0,0-.38-.2l-.33-.06a2.19,2.19,0,0,0-.76.08l-.38.13a1.9,1.9,0,0,0-.57.4l-.18.17a.77.77,0,0,0-.23.36.48.48,0,0,0,0,.37.47.47,0,0,0,.21.3.78.78,0,0,0,.38.2l.33.06a2.17,2.17,0,0,0,.76-.08l.38-.13a1.94,1.94,0,0,0,.58-.4Z"/><path d="M573,185.8l.23-.24a.7.7,0,0,0,.23-.36.56.56,0,0,0-.19-.69.8.8,0,0,0-.37-.21l-.33-.06a2.49,2.49,0,0,0-.77.08l-.37.13a1.94,1.94,0,0,0-.58.4l-.24.24a.74.74,0,0,0-.22.37.47.47,0,0,0,0,.37.49.49,0,0,0,.21.31.79.79,0,0,0,.38.21l.33.06a2.25,2.25,0,0,0,.77-.08l.37-.13a1.94,1.94,0,0,0,.58-.4Z"/><path d="M579.17,190l.06-.06a.67.67,0,0,0,.23-.34.45.45,0,0,0-.16-.6.65.65,0,0,0-.37-.18l-.33,0a2.81,2.81,0,0,0-.76.08l-.37.14a1.9,1.9,0,0,0-.59.37l-.06.06a.69.69,0,0,0-.23.33.45.45,0,0,0,0,.34.43.43,0,0,0,.2.27.76.76,0,0,0,.37.18l.33,0a2.44,2.44,0,0,0,.76-.09l.38-.13a2,2,0,0,0,.58-.37Z"/><path d="M425.44,187.81l.24.18a.6.6,0,0,0,.31.15,1.19,1.19,0,0,0,.46.06,2.08,2.08,0,0,0,.55-.07,2.94,2.94,0,0,0,.58-.16l.33-.16a1.5,1.5,0,0,0,.45-.38l.11-.19a.33.33,0,0,0-.09-.35l-.24-.17a.56.56,0,0,0-.32-.15,1.12,1.12,0,0,0-.45-.06,3.17,3.17,0,0,0-1.13.23l-.33.16a1.5,1.5,0,0,0-.46.37l-.1.2a.31.31,0,0,0,.09.34Z"/><path d="M427.46,187.5l.24.12a1,1,0,0,0,.42.1,1.57,1.57,0,0,0,.53,0,2.24,2.24,0,0,0,.58-.14,2,2,0,0,0,.52-.23l.26-.2a.89.89,0,0,0,.29-.42v-.21a.54.54,0,0,0-.3-.31l-.24-.12a1,1,0,0,0-.42-.1,1.57,1.57,0,0,0-.53,0,1.89,1.89,0,0,0-.58.14,2,2,0,0,0-.52.23l-.26.19a1,1,0,0,0-.29.42v.21a.53.53,0,0,0,.3.32Z"/><path d="M430.79,186.64l.18-.12a1.21,1.21,0,0,0,.36-.28.61.61,0,0,0,.2-.29.27.27,0,0,0,0-.27.33.33,0,0,0-.24-.2l-.26-.07a2.22,2.22,0,0,0-.68,0l-.39.08a2.59,2.59,0,0,0-.71.29l-.18.11a1.25,1.25,0,0,0-.36.28.69.69,0,0,0-.2.3.23.23,0,0,0,.05.26.33.33,0,0,0,.23.2l.27.08a2.22,2.22,0,0,0,.68,0l.39-.08a2.92,2.92,0,0,0,.71-.28Z"/><path d="M429.92,185.66s0,0,0,0l.1.14,0,0,0,0h0l.1.05.09.05h0l.27.05h.36a3.42,3.42,0,0,0,.78-.12,4.7,4.7,0,0,0,.74-.28,1.23,1.23,0,0,0,.37-.26.51.51,0,0,0,.21-.25.19.19,0,0,0,0-.23.33.33,0,0,0-.23-.16l-.25,0a3.83,3.83,0,0,0-.68,0l-.39.09a3.06,3.06,0,0,0-.71.27h0l.33-.15h0l.38-.12h0l.39-.08h0l.36,0h.26l.26.05-.05,0,.18.09a.12.12,0,0,1-.06-.06l.09.14s0,0,0-.05a.31.31,0,0,0-.19-.18.67.67,0,0,0-.34-.09,1.68,1.68,0,0,0-.5,0,2.84,2.84,0,0,0-.57.1l-.38.12a2.89,2.89,0,0,0-.6.32l-.2.17a.35.35,0,0,0-.12.33Z"/><path d="M432,185.93c.57,0,1.63-.2,1.92-.77s-.24-.79-.77-.79-1.62.2-1.91.77.24.79.76.79Z"/><path d="M430,187.14c1.61,0,2.27-2,.3-2-1.6,0-2.27,2-.3,2Z"/><path d="M428,189.4c1.63,0,2.25-2,.28-2-1.62,0-2.25,2-.28,2Z"/><path class="cls-3" d="M536.19,114.37c2.46,3.93,5.16,7.79,7.33,11.89a19.1,19.1,0,0,1,2.57,7.77c0,1-.18,5.87-1.44,6.1l2.31,1.31-.05-.16c-.69-2.31-4.31-1.33-3.61,1l0,.16a1.94,1.94,0,0,0,2.31,1.31c4.14-.73,4.46-8.58,4-11.62-1.13-7.18-6.46-13.65-10.2-19.64-1.28-2-4.53-.16-3.24,1.89Z"/><path class="cls-6" d="M571.71,183.94l-1.29,0c-.13,0-.57.21-.37.39a2,2,0,0,0,1.35.4l1.89.09a.56.56,0,0,0,.46-.19.17.17,0,0,0-.11-.28l-1-.2-.06.42a.8.8,0,0,1,.55-.05l.26-.49a9.74,9.74,0,0,0-2.53-.1c-.34.05-1.49.52-1,1,.2.2.67.16.93.18.46.05.91.09,1.38.12.94.07,1.89.11,2.83.13a.51.51,0,0,0,.45-.19.17.17,0,0,0-.1-.28,12.67,12.67,0,0,0-3.34-.59l-.17.48a1.41,1.41,0,0,1,.64.16v-.29a.9.9,0,0,1-.36.25c-.19.07-.32.34-.06.42a19.52,19.52,0,0,0,5.48.79l.17-.48a11.74,11.74,0,0,1-3.72-.56l-.25.47a2.33,2.33,0,0,1,1.2.07c.28.09.86-.31.43-.46a10,10,0,0,0-4.42-.47c-.19,0-.65.37-.25.47a16.28,16.28,0,0,0,5.65.39c.38,0,.57-.53.07-.48a15.52,15.52,0,0,1-5.3-.36l-.25.47a9.07,9.07,0,0,1,4.07.44l.43-.46a3.3,3.3,0,0,0-1.56-.1c-.17,0-.66.36-.25.47a12.82,12.82,0,0,0,4.07.59c.29,0,.62-.48.17-.48a19.09,19.09,0,0,1-5.31-.76l-.06.41a1.53,1.53,0,0,0,.65-.45c.07-.08.1-.23,0-.29a2.33,2.33,0,0,0-1.13-.24c-.3,0-.62.46-.17.48a12.63,12.63,0,0,1,3.17.56l.34-.47c-1.28,0-2.57-.09-3.85-.21-.05,0-.94-.07-.94-.09,0-.22.56-.2.66-.21a13,13,0,0,1,2,.13c.33,0,.75-.4.26-.49a1.88,1.88,0,0,0-1.12.16c-.16.07-.34.36-.06.42l1,.19.35-.47-1.48-.07c-.4,0-1,.06-1.37-.23l-.37.39,1.3,0c.39,0,.57-.49.07-.48Z"/><path class="cls-6" d="M569.6,184.82a1.74,1.74,0,0,0,1,.32,2.61,2.61,0,0,0,1.21-.38c.12-.07.11-.13,0-.14a.91.91,0,0,1-.42-.11l-.64.26,1.18.11a1.8,1.8,0,0,0,1.21-.16s.1-.06.09-.1-.1,0-.12,0a1,1,0,0,0-.52.13c.29-.05.37-.07.23-.06h-.07l-.17,0-.42,0-.81-.08a.92.92,0,0,0-.46.08s-.28.13-.18.17a1.49,1.49,0,0,0,.62.15l0-.14a.41.41,0,0,1-.37.09,1.55,1.55,0,0,1-.6-.27c-.11-.07-.35,0-.46,0s-.32.13-.22.19Z"/><path class="cls-6" d="M571.07,185.24c.25,0,.78-.37.29-.37-.25,0-.78.37-.29.37Z"/><path class="cls-6" d="M576.1,186.53h.17l.16-.51-.29,0-.15,0a.27.27,0,0,0-.12.06l-.07.06a.2.2,0,0,0,0,.09s0,0,0,.07a.12.12,0,0,0,0,.09l.05,0a.3.3,0,0,0,.15.05h.33l-.11-.4,0,0,.08,0,0,0,.09,0h.08a.33.33,0,0,0-.14,0,.33.33,0,0,0-.14,0,.32.32,0,0,0-.12.08.22.22,0,0,0-.07.09l0,.06a.15.15,0,0,0,0,.13l.05.05.15,0h.15l.15,0a1,1,0,0,0,.27-.13.53.53,0,0,0,.1-.12.18.18,0,0,0,0-.14.16.16,0,0,0-.08-.1.3.3,0,0,0-.15-.05h-.33l-.16.51.29,0,.15,0a.38.38,0,0,0,.13-.06l.06-.06a.19.19,0,0,0,0-.1.07.07,0,0,0,0-.06.12.12,0,0,0,0-.09l-.05,0a.3.3,0,0,0-.15-.05h-.17a.22.22,0,0,0-.14,0,.42.42,0,0,0-.15,0,.41.41,0,0,0-.11.07.36.36,0,0,0-.07.1l0,.06a.15.15,0,0,0,0,.13l.05,0a.3.3,0,0,0,.15.05Z"/><path class="cls-6" d="M576.12,186.6c.29,0,.76-.44.27-.44-.29,0-.76.44-.27.44Z"/><path class="cls-6" d="M577.44,186.56a6.69,6.69,0,0,1-.77.2.43.43,0,0,0-.21.11.24.24,0,0,0-.1.14c0,.14.12.19.23.21a5.42,5.42,0,0,0,.57,0,.63.63,0,0,0,.27-.1c.05,0,.13-.11.13-.18a.14.14,0,0,0-.08-.15.4.4,0,0,0-.24-.05h-.06a.73.73,0,0,0-.28.1.34.34,0,0,0-.13.18.16.16,0,0,0,.08.15.43.43,0,0,0,.25,0h.06l.08-.48h0l-.35,0-.08.46a5.28,5.28,0,0,0,.78-.21.63.63,0,0,0,.24-.13.2.2,0,0,0,.06-.18c-.05-.16-.29-.17-.42-.12Z"/><path class="cls-6" d="M578.73,187.22l-.75.24a.68.68,0,0,0-.24.12s-.08.07-.08.13.23.14.32.13a2.23,2.23,0,0,1,.36-.05h.3a.71.71,0,0,0,.28-.06.33.33,0,0,0,.19-.14.1.1,0,0,0,0-.14.26.26,0,0,0-.19-.07,4.68,4.68,0,0,0-.84.07v.38l.75-.24a.6.6,0,0,0,.24-.12s.1-.1.08-.16-.08-.08-.14-.1a.61.61,0,0,0-.27,0Z"/><path class="cls-6" d="M579.83,188a3.22,3.22,0,0,0-.6.13l-.21.06h0a.93.93,0,0,0-.37.06c-.07,0-.19.08-.22.17s.19.16.28.16h.35c.22,0,.45,0,.67,0a1.31,1.31,0,0,0,.28-.09s.13-.08.14-.13-.23-.12-.3-.11h-.11c-.07,0,.07,0,0,0h-.65c-.08,0,0,0,0,0l0,0h0l0,0h0v0h0l-.59.22a2,2,0,0,0,.68-.08l.23-.07s.17,0,0,0h0s.11,0,0,0a1.5,1.5,0,0,0,.29-.06.5.5,0,0,0,.19-.13s.06-.08,0-.12a.31.31,0,0,0-.19,0Z"/><path class="cls-6" d="M579.64,188.83l-.77,0a.46.46,0,0,0-.39.26c-.05.14.09.25.23.25l.69,0a1.48,1.48,0,0,0,.42,0,.53.53,0,0,0,.4-.36c0-.13-.13-.22-.24-.23h-.28l0,.46s0,0-.05,0a.27.27,0,0,1-.13,0,.58.58,0,0,0,.29-.05.45.45,0,0,0,.19-.17.19.19,0,0,0,0-.19.26.26,0,0,0-.2-.1.79.79,0,0,0-.4.07.3.3,0,0,0-.2.27c0,.11.13.18.23.19h.29l-.24-.22h0l0-.07,0,0,0-.06s0,0,0,0,.08-.05,0,0,0,0,.07,0h0c-.06,0,.11,0,0,0h-.26l-.53,0-.16.51.77,0a.58.58,0,0,0,.28-.09.36.36,0,0,0,.13-.19c0-.19-.19-.23-.34-.23Z"/><path class="cls-6" d="M578.81,190.09A6.72,6.72,0,0,0,580,190l-.09-.35L579,190a.48.48,0,0,0-.2.14.14.14,0,0,0,0,.16c.13.12.35.06.48,0l.95-.35a.44.44,0,0,0,.18-.12s.06-.08,0-.13-.21-.12-.31-.11a5.15,5.15,0,0,1-.53.07h-.2c.1,0,0,0,0,0h-.28a.72.72,0,0,0-.29.06.43.43,0,0,0-.19.14.12.12,0,0,0,0,.15.29.29,0,0,0,.2.07Z"/><path d="M577,189.45c.57,0,1.63-.21,1.92-.77s-.24-.77-.76-.77-1.63.21-1.92.77.25.77.76.77Z"/><path d="M428.78,186l.75.05a.48.48,0,0,0,.45-.19c.09-.14,0-.26-.12-.32l-.78-.36c-.24-.12-.82.25-.48.45l.12.08.11.12s0,0,.08,0,.11-.05,0-.06-.18-.05-.2-.05l-.76-.2c-.22-.06-.53,0-.58.27a.68.68,0,0,0,.21.52c0,.09.1,0,.21-.17h-.3a4,4,0,0,1-.48-.09c-.2,0-.64.05-.57.35a.33.33,0,0,0,.16.19.15.15,0,0,0,.09,0l.05,0,0-.13c.11-.05.12-.07,0,0l-.17,0-.25,0-.6.11a.38.38,0,0,0-.3.28,1.07,1.07,0,0,0,.14.55c0,.06-.05.13.06,0s0-.06-.08-.06l-.39-.06-.16.54h1.42c.16,0,.38-.12.4-.29s-.19-.25-.34-.25H425.1c-.34,0-.59.45-.16.54s.94.17,1.25-.14a.5.5,0,0,0,.14-.41c0-.18-.14-.33-.13-.51l-.3.28.72-.13a1.43,1.43,0,0,0,.64-.18.45.45,0,0,0,.22-.46c-.05-.19-.23-.21-.38-.28l.12.08h0l-.57.35a2.15,2.15,0,0,0,1.48,0,.42.42,0,0,0,.22-.47c0-.11-.21-.25-.19-.36l-.58.27.84.22a1.24,1.24,0,0,0,.76.05.53.53,0,0,0,.38-.51.65.65,0,0,0-.41-.53l-.48.46.78.36.33-.51-.75-.06a.47.47,0,0,0-.47.23.23.23,0,0,0,.22.31Z"/><path d="M431.26,185.32a1.47,1.47,0,0,1-.66-.52l-.68.28a1.75,1.75,0,0,0,1.09.43c.2,0,.55-.09.57-.34a.33.33,0,0,0-.09-.21.6.6,0,0,0-.08-.08c-.19-.17.13.13-.45.09l-.15,0,0,0-.07-.07v0c.1.24.82,0,.73-.19l-.07-.15-.65.27a2.55,2.55,0,0,0,1.58.28c.11,0,.54-.15.39-.33l-.27-.34a1.7,1.7,0,0,0-.1-.14.62.62,0,0,0-.39.15s0,0,0,0a.68.68,0,0,0,.5.35c.43.06,1.19-.28.93-.83-.1-.22-.77-.05-.72.2a.77.77,0,0,0,.39.63.91.91,0,0,0,.9-.14c.13-.09.07-.21-.07-.24a.68.68,0,0,0-.51.14c.31-.22.35,0,.21-.13a.26.26,0,0,1-.1-.13,1.8,1.8,0,0,1-.1-.33l-.72.2c.06.12,0,.17,0,.29s.22,0,.17,0-.07-.06-.09-.09a.88.88,0,0,0-.21-.22.53.53,0,0,0-.37-.07c-.2,0-.59.13-.58.39,0,.1.09.18.16.26l.27.34.39-.33a1.8,1.8,0,0,1-1.11-.24.54.54,0,0,0-.43,0c-.07,0-.27.13-.22.24l.06.14.73-.19c-.13-.28-.64-.11-.8.05a.22.22,0,0,0-.05.28s.23.22.19.26l.48-.19a1.22,1.22,0,0,1-.72-.32c-.16-.14-.85,0-.68.28a1.8,1.8,0,0,0,.76.58.6.6,0,0,0,.52-.07c.08-.05.23-.2.06-.27Z"/><path class="cls-6" d="M429.94,189.83a4.54,4.54,0,0,0-.66-1.25c-.12-.15-.79.07-.7.23a.65.65,0,0,0,.51.36.74.74,0,0,0,.41-.08c.06,0,.2-.1.18-.19a.77.77,0,0,0-.46-.56.67.67,0,0,0-.46.06c-.06,0-.28.15-.17.23l.23.16c.11.09.3,0,.42,0s.29-.1.28-.23h0l-.07.09,0,0-.62.1a.21.21,0,0,1,.07.11l.59-.27c-.06,0-.11-.06-.15-.11l-.05.17c-.34.22-.48,0-.36.13l.57-.3a3.93,3.93,0,0,0-.84,0c-.13,0-.54.07-.51.27a3.71,3.71,0,0,0,1.54,2.58.52.52,0,0,0,.47,0c.05,0,.33-.16.2-.24a3.62,3.62,0,0,1-1.49-2.52l-.51.28a3.09,3.09,0,0,1,.68,0,.78.78,0,0,0,.45-.09c.07,0,.2-.13.12-.21-.21-.24-.67-.09-.89.06-.06,0-.1.1-.05.17a.52.52,0,0,0,.36.19.74.74,0,0,0,.41-.08c.05,0,.21-.1.18-.19a.52.52,0,0,0-.11-.19c-.06-.06-.21,0-.28,0a.87.87,0,0,0-.35.13.22.22,0,0,0-.11.21l.7-.23-.22-.16-.63.29a.61.61,0,0,1,.32.43l.59-.27a.39.39,0,0,1-.25-.2l-.7.23a4.24,4.24,0,0,1,.62,1.17c.07.21.79,0,.72-.19Z"/><path class="cls-6" d="M434.56,185.24a1.88,1.88,0,0,0-1.13.22c-.37.18-.74.37-1.1.58a19,19,0,0,0-2,1.31c-.1.07,0,.1.08.1a1,1,0,0,0,.45-.1,3,3,0,0,1,1.43-.34l.46-.26c-.15,0-.37.12-.51,0s-.06-.09-.08-.16,0-.12-.21,0H432l-.06,0c0,.18-.26.21-.39.26l-.6.23-1.15.44.45,0a.48.48,0,0,1,.48-.15,1,1,0,0,0,.5-.1c.06,0,.26-.14.1-.17a2.2,2.2,0,0,0-1.73.49c-.18.15.4,0,.44,0l1.56-.59c.23-.09.48-.17.71-.28s.33-.19.35-.39a.07.07,0,0,0-.06,0,1.68,1.68,0,0,0-.67,0c-.17.05-.44.13-.51.31s.06.31.22.36a1.48,1.48,0,0,0,.75-.05,1,1,0,0,0,.44-.13s.14-.12,0-.13a5,5,0,0,0-2.44.53H431a17.32,17.32,0,0,1,1.52-1c.25-.15.5-.3.76-.43l.4-.21.21-.1.07,0c.06,0,.08,0,0,0a.9.9,0,0,0,.51-.09c.06,0,.25-.14.09-.17Z"/><path class="cls-6" d="M450,185.89a.41.41,0,0,1,0-.16v0a.1.1,0,0,1,0-.07l0,0,0,0,0,0,0,0-.07,0h0l-.12,0-.08,0h-.14l-.06,0h0l0,0h0l0-.08a.61.61,0,0,0,0,.19,1,1,0,0,1,0,.16v0a.27.27,0,0,1,0,.12l0,0,0,0,.05,0h0l.06,0h0l.11,0,.12,0h.14l.07,0,0,0,0,0a.31.31,0,0,1-.09-.11l0,0a.36.36,0,0,1-.09-.24v0a.24.24,0,0,1,0-.08l0,0s0,0,0,0l0,.05s0,0,0,0l-.06,0h0l-.07,0h0a1,1,0,0,1-.17,0h-.15s0,0,0,0l0,0,0,0,0,0c0,.06,0,.16,0,.23a2.44,2.44,0,0,1,0,.27v-.05a.29.29,0,0,1,0,.09l0-.05a0,0,0,0,1,0,0l0,0h0l.07,0a.62.62,0,0,1,.24-.08c.08,0,.1,0,.07,0h.05l.07,0,0,0,0,0-.05-.05,0,0a.41.41,0,0,1,0-.24v0a.31.31,0,0,1,0-.13l0,0,0,0-.05,0h0l-.06.05a.76.76,0,0,1-.2.06l-.13,0h-.09l0,0,0,0,0,0s0,0,0,0v0s0,.09.07.1a.39.39,0,0,0,.24,0,.66.66,0,0,0,.27-.09.26.26,0,0,0,.14-.13.14.14,0,0,0,0-.09.21.21,0,0,0-.1-.09l-.12,0a1.11,1.11,0,0,0-.4.06.53.53,0,0,0-.29.26.61.61,0,0,0,0,.19.25.25,0,0,0,0,.17.28.28,0,0,0,.16.14.87.87,0,0,0,.28,0,1,1,0,0,0,.34-.12.33.33,0,0,0,.17-.23v-.52a.7.7,0,0,0-.06-.09.48.48,0,0,0-.37,0,.89.89,0,0,0-.47.22.47.47,0,0,0-.06.09.29.29,0,0,0,0,.09.41.41,0,0,0,0,.19.71.71,0,0,0,.12.18.44.44,0,0,0,.39.08.87.87,0,0,0,.39-.14l.09-.1a.4.4,0,0,0,.06-.22,1.64,1.64,0,0,1,0-.22v0a.13.13,0,0,0,0-.06s0,0,0-.07a.48.48,0,0,0-.35-.06.86.86,0,0,0-.46.22.34.34,0,0,0,0,.36s.09.07.13.08a.8.8,0,0,0,.27,0,.53.53,0,0,0,.24-.11s.1-.08.08-.14Z"/><path class="cls-6" d="M452.59,188.49h0l-.18,0h0l.07.1v0l0,0,0,0,0,.05,0,0-.07,0h0l-.08,0h0l-.1,0h0l-.1,0h-.08l-.07,0,.05,0-.05,0a.1.1,0,0,1,.05,0l0,0v0l.32-.24-.27.09a.57.57,0,0,0-.25.11l-.06.06a.08.08,0,0,0,0,.07l0,0a.21.21,0,0,0,.11,0,.57.57,0,0,0,.26,0l.28-.08a.68.68,0,0,0,.24-.12l.05,0a.07.07,0,0,0,0-.08c-.05-.15-.23-.17-.37-.17l-.23,0a1,1,0,0,0-.22.09.36.36,0,0,0-.2.2s0,0,0,.05a.05.05,0,0,0,.06,0l.25.05h.17l.18,0,.15,0a.75.75,0,0,0,.13-.06.24.24,0,0,0,.09-.06.18.18,0,0,0,.05-.07v0a.09.09,0,0,0-.06-.06.65.65,0,0,0-.24,0Z"/><path class="cls-6" d="M450,186.18l0-.52a2,2,0,0,1,0-.25v-.2s0-.07,0-.1,0,0,0-.05,0,0,0,0l0,0,0,0s0,0,0,0l-.1,0h-.11c.05,0,0,0,0,0l0,0s0,0,0,0,0,0,0,0a0,0,0,0,1,0,0s0,.07,0,0h0v0a.28.28,0,0,1,0,.09,1.6,1.6,0,0,1-.05.21c-.05.16-.09.33-.14.49v0c0-.06,0,0,0,0l0,.07c0,.06,0,0,0,0l.05,0a.41.41,0,0,1,.19-.05s.12,0,.11,0-.05-.05,0,0,0,0,0,0a.43.43,0,0,0,0-.07s0-.06,0,0l0,0s0-.07,0-.11a2.09,2.09,0,0,1-.08-.23l0-.1a.13.13,0,0,0,0-.06v0a1.1,1.1,0,0,1,0-.18c0-.05,0,0,0,0s0,0,0-.05a.08.08,0,0,1,0,0h0l0,0c.05-.05,0,0,0,0s-.05,0-.06,0a.34.34,0,0,1-.2,0h-.06s0,0,0,0a.5.5,0,0,0,0,.13l.15.5a1.85,1.85,0,0,1,.12.4v0c0-.05,0,0,0,0a.28.28,0,0,1,0,.09v0s0,0,0,0,0,0,0,0,0,0,0,0l0,0,.07,0a.2.2,0,0,1,.11,0h0c.05,0,0,0,0,0s.06,0,0,0l0,0h0l0-.05s0,0,0,0v0l0-.1a.34.34,0,0,1,0-.1v-.09a1.93,1.93,0,0,1,0-.24.36.36,0,0,0,0-.1s0,0,0,0l0-.06v0s0,0,0,0l0,0,0,0-.05,0s0,0,0,0-.07,0,0,0h0s-.1,0,0,0h0s0,0,0,0h0c-.06,0,0,0,0,0s0,0,0,0l0,0v0s0,.08,0,.12a5.06,5.06,0,0,1,0,.56l.64-.24-.17-.1a.49.49,0,0,0-.52.05c-.11.08-.21.26-.05.36l.18.1a.45.45,0,0,0,.39,0c.1,0,.26-.12.26-.25a5.94,5.94,0,0,0,0-.73.52.52,0,0,0-.46-.44,1,1,0,0,0-.71.18.84.84,0,0,0-.31.59,1.38,1.38,0,0,0,0,.29,1.33,1.33,0,0,0,.05.34.64.64,0,0,0,.53.43.72.72,0,0,0,.74-.34.78.78,0,0,0,0-.54c-.06-.22-.14-.43-.21-.64a2.46,2.46,0,0,0-.09-.29.4.4,0,0,0-.37-.23.8.8,0,0,0-.75.44,1,1,0,0,0-.06.62,3.45,3.45,0,0,0,.25.61.6.6,0,0,0,.76.16.74.74,0,0,0,.39-.56c.06-.21.12-.41.17-.62a.58.58,0,0,0-.11-.55.72.72,0,0,0-1,.08.86.86,0,0,0-.19.74c0,.26,0,.53.07.79,0,.07.09.12.15.14a.61.61,0,0,0,.27,0c.16-.05.32-.15.3-.34Z"/><path class="cls-6" d="M452.79,188.45l-.63,0h-.07s0,0,0,0a.16.16,0,0,1-.06-.12.23.23,0,0,1,.06-.14s0,0,0,0l0,0a.61.61,0,0,1-.18.05h0l.08,0,.11,0a1.12,1.12,0,0,1,.22.1.31.31,0,0,1,.13.17.19.19,0,0,1,0,.08s0,0,0,.05.17-.09.11-.07l.13,0h0c.05,0,0,0,0,0h-.83l-.09,0a.36.36,0,0,1-.27-.27s0-.06,0-.08,0,0,0-.05,0,0,0,0,0,0,0,0a.35.35,0,0,1-.26.09h.08c.21,0,.43.09.64.13a.61.61,0,0,0,.27,0,.8.8,0,0,0,.25-.11s.09-.08.07-.13-.09-.07-.13-.07L452,188c-.12,0-.23,0-.35-.06a1.2,1.2,0,0,0-.62.13.5.5,0,0,0-.29.28.44.44,0,0,0,.25.52,1.71,1.71,0,0,0,.81.12,3,3,0,0,0,1-.09.56.56,0,0,0,.37-.3.36.36,0,0,0-.07-.33.73.73,0,0,0-.29-.19,1.66,1.66,0,0,0-.37-.14,1.27,1.27,0,0,0-.58,0,.94.94,0,0,0-.44.26.4.4,0,0,0-.11.31.31.31,0,0,0,.22.25,1.23,1.23,0,0,0,.47,0l.5,0a.72.72,0,0,0,.48-.18c.1-.13-.09-.17-.18-.16Z"/><path class="cls-6" d="M451.73,188.49l.38-.16.08-.05.06-.06,0-.07a.23.23,0,0,0,0-.11.14.14,0,0,0,0-.07.09.09,0,0,0,0-.06.34.34,0,0,0-.19-.09l-.36,0-.05.54h0l.31,0h0l-.08,0,.07,0-.07,0,0,0-.05-.05,0,0,0-.07s0,0,0,0v-.05l0-.08v0l0-.07h0l.06-.06h0l.08-.05h0l.1,0h0l.1,0h0l.08,0-.07,0,.08,0-.1-.07a.59.59,0,0,0-.17-.1.63.63,0,0,0-.36,0,.54.54,0,0,0-.2.1.51.51,0,0,0-.13.16.22.22,0,0,0,0,.21.28.28,0,0,0,.21.12.45.45,0,0,0,.28,0l.08-.05a.35.35,0,0,0,.11-.13h0l0,.07v0l-.06.06h0l-.08.05h0l-.1,0h0l-.1,0h0l-.09,0,.06,0-.07,0,.09.07a.46.46,0,0,0,.15.09.58.58,0,0,0,.26,0l.14,0a.75.75,0,0,0,.2-.1.48.48,0,0,0,.12-.16.2.2,0,0,0,0-.11.32.32,0,0,0,0-.14.31.31,0,0,0-.09-.11l0,0-.12-.06a.78.78,0,0,0-.26,0,2.31,2.31,0,0,0-.46,0l-.09,0a.31.31,0,0,0-.11.08.32.32,0,0,0-.1.18.25.25,0,0,0,0,.14.33.33,0,0,0,.21.11l.36,0,0-.5-.38.16a.37.37,0,0,0-.19.18.24.24,0,0,0,0,.22.33.33,0,0,0,.21.11.59.59,0,0,0,.29,0Z"/><path class="cls-6" d="M449.85,186v.51a0,0,0,0,0,0,0,.16.16,0,0,0,.09,0,.78.78,0,0,0,.26,0,.69.69,0,0,0,.25-.1l.05,0a.11.11,0,0,0,0-.08v-.51s0,0,0,0a.15.15,0,0,0-.09,0,.86.86,0,0,0-.27,0,.72.72,0,0,0-.24.1l-.05,0s0,0,0,.07Z"/><path class="cls-6" d="M450.08,185.13a.52.52,0,0,1-.11-.19.22.22,0,0,1,0-.08c0-.06,0,0,0,0l-.18.07h-.1c-.12,0-.14,0-.09,0s-.07,0,0,0l.07.06a1.3,1.3,0,0,1,.1.15,1.58,1.58,0,0,1,.14.36,1.21,1.21,0,0,1,0,.73.54.54,0,0,1-.07.13l0,0s0,0,0,0l.09,0,.1,0h0s0,0,0,0a.52.52,0,0,1-.13-.06.86.86,0,0,1-.3-.66,1.24,1.24,0,0,1,0-.43.59.59,0,0,1,.07-.16l0,0h0l-.12,0a.28.28,0,0,1-.18,0h0a.7.7,0,0,0,.51-.08c.07,0,.24-.18.08-.23a1,1,0,0,0-.95.26.75.75,0,0,0-.18.59,1,1,0,0,0,.54,1,1.11,1.11,0,0,0,.89-.1.8.8,0,0,0,.41-.49,1.44,1.44,0,0,0-.22-1.21.47.47,0,0,0-.25-.21.86.86,0,0,0-.68.11.4.4,0,0,0-.22.32.52.52,0,0,0,.16.32s.15,0,.19,0a1.36,1.36,0,0,0,.29-.06c.07,0,.3-.14.2-.24Z"/><path class="cls-6" d="M452.29,188.38s0,0,0,0l0,0s.05,0,0,0l-.06,0s0,0,0,0l0,0s-.1,0,0,0,0,0,0,0h0s.08,0,0,0h-.08c-.06,0,.07,0,0,0h-.13l0,0-.06,0h0s0,0,0,0l-.06-.08s0,0,0,0a.3.3,0,0,1,0-.1s0,0,0,0,0-.06,0,0,.05,0,0,0v0h0l0,0s0,0,0,0,.11,0,.05,0h.06a.5.5,0,0,1,.21,0s.06,0,0,0,0,0,0,0l.09,0,0,0,.05,0a.76.76,0,0,1,.11.14s0,0,0,.05,0,0,0,0h0a.21.21,0,0,1,0,.14.05.05,0,0,0,0,0s0,0,0,0l-.07.08s0,0,0,0h0a.11.11,0,0,0-.06,0l0,0-.05,0H452s0,0,0,0h-.13s0,0,0,0h0l-.08,0-.05,0,0,0-.06,0-.07,0h0l0,0a.64.64,0,0,1-.15-.28.17.17,0,0,1,0-.07.09.09,0,0,1,0-.05h0s0,0,0,0,0,0,0,0,0,0,0,0l-.1.05h-.09l.11,0a1.39,1.39,0,0,0,.35,0H452s.06,0,0,0,0,0,0,0h0l.05,0s.05,0,0,0l0,0,.08.05.18.1a.88.88,0,0,0,.53.11c.15,0,.38-.1.4-.29s-.19-.25-.33-.23h-.05s.06,0,0,0,0,0,0,0-.06,0,0,0,0,0,0,0l0,0-.11-.06a1.12,1.12,0,0,0-.59-.19h-.37s.05,0,0,0l-.08,0a.77.77,0,0,0-.77.15.61.61,0,0,0-.21.59,1,1,0,0,0,.24.44,1.27,1.27,0,0,0,.86.37,1.44,1.44,0,0,0,1.06-.4.76.76,0,0,0,.23-.55.66.66,0,0,0-.24-.47,1.41,1.41,0,0,0-1.19-.25c-.38.08-.79.38-.68.81a.89.89,0,0,0,.87.61,1.25,1.25,0,0,0,1.12-.54c.1-.14-.09-.28-.22-.29a.5.5,0,0,0-.47.22Z"/><path class="cls-6" d="M553.33,187s0,0,0,0l0-.06,0-.11s0,0,0,0,0,0,0,0,0,0,0,0h0a.3.3,0,0,1-.27,0h0s0,0,0,0l.12.18.11.21,0,.06s0,0,0,0a.54.54,0,0,1,0,.11,1.69,1.69,0,0,1,.14.45c0-.05,0,0,0,.07s0,.12,0,.06,0,.1,0,0,0,0,0,0a.36.36,0,0,1,.25-.06c.09.05.12.05.07,0h0l-.06-.09a2,2,0,0,1-.11-.2l0-.05s0,0,0,0a.42.42,0,0,1,0-.1,2,2,0,0,1-.08-.22l-.06-.22a.13.13,0,0,0,0-.06s0,0,0,0h0a.33.33,0,0,1-.17.14H553l-.08,0s0,0,0,0l0,.06c0,.06,0,0,0,0s0,.07,0,.11a2.34,2.34,0,0,1,.09.38v.09a.15.15,0,0,1,.08-.12.26.26,0,0,1,.19-.08h0s0,0,0,0l0,0s-.06-.07,0,0a.83.83,0,0,1-.08-.12s0-.09,0,0a.19.19,0,0,1,0-.07.75.75,0,0,1,0-.16.57.57,0,0,1,0-.14s0-.06,0-.09v0h0s0,0,0,0l0,0a.27.27,0,0,1-.2.09c.06,0-.08,0,0,0s-.06,0,0,0,0,0,0,0l0,0s0,0,0,.05l.05.06s0,0,0,0,0,0,0-.1l.33-.17h-.07s.08,0,0,0h-.08a.47.47,0,0,0-.51.14.23.23,0,0,0,.1.37c.26.1.69.15.86-.11s0-.42-.13-.58a.69.69,0,0,0-.69-.21.53.53,0,0,0-.44.5,1.53,1.53,0,0,0,.33.9.71.71,0,0,0,.57.26.52.52,0,0,0,.54-.5,1.87,1.87,0,0,0-.12-.57c-.08-.2-.16-.41-.37-.49a.56.56,0,0,0-.73.45,1.52,1.52,0,0,0,.12.56,2.38,2.38,0,0,0,.24.51,1,1,0,0,0,.14.21.52.52,0,0,0,.42.17.64.64,0,0,0,.57-.41,1,1,0,0,0,0-.63,3.89,3.89,0,0,0-.26-.6,1.2,1.2,0,0,0-.35-.48.62.62,0,0,0-.84.19.58.58,0,0,0-.1.38,1.55,1.55,0,0,0,.13.36c0,.06.15.1.21.11a.49.49,0,0,0,.29-.05.39.39,0,0,0,.18-.18.22.22,0,0,0,0-.21Z"/><path class="cls-6" d="M552.59,187.18a1.63,1.63,0,0,0,.33.94L553,188h0l.15-.07h0l.19-.06c.21,0,.17,0,.12,0a.42.42,0,0,1,0-.12,1.35,1.35,0,0,1,0-.29,2.32,2.32,0,0,1,0-.59c0-.14-.22-.1-.29-.09a.68.68,0,0,0-.43.21.78.78,0,0,0-.06.67,1.83,1.83,0,0,0,.42.64l.13-.18.27-.07h0s0,0,0,0l-.06,0a.34.34,0,0,1-.12-.12,1.57,1.57,0,0,1-.13-.42,1.2,1.2,0,0,1,0-.46.87.87,0,0,1,.07-.17.13.13,0,0,1,0-.06l0,0,0,0s.09-.07.08-.11-.1-.06-.13-.06a.91.91,0,0,0-.51.14.63.63,0,0,0-.31.45,1.68,1.68,0,0,0,0,.63.79.79,0,0,0,.26.47.9.9,0,0,0,.87,0c.06,0,.2-.1.13-.18-.28-.31-.59-.77-.32-1.18l-.72.12a2.76,2.76,0,0,0,0,.86.46.46,0,0,0,.15.31.39.39,0,0,0,.28.05,1,1,0,0,0,.49-.15s.11-.08.08-.12a1.66,1.66,0,0,1-.32-.94s-.11,0-.13,0a.8.8,0,0,0-.27,0,.72.72,0,0,0-.24.1s-.09.06-.09.12Z"/><path d="M453.49,187.56l-.11,0c-.14,0-.28-.05-.42-.06h-.58c-.16,0-.32,0-.49.06l.37,0h-.11l.33.05-.16-.05.27.11-.18-.1.2.15a.47.47,0,0,1-.13-.15l.11.2a.25.25,0,0,1,0-.14v.23a.27.27,0,0,1,0-.12l-.1.23,0-.07-.19.22.06-.05-.26.2.05,0-.32.17.05,0-.38.13.08,0-.39.07h.08l-.36,0H451l-.33,0a.59.59,0,0,1,.19.05l-.27-.11.22.11a1.77,1.77,0,0,0,1,.14,3,3,0,0,0,1.1-.38l.26-.21a.87.87,0,0,0,.27-.45v-.23a.57.57,0,0,0-.31-.35,2.46,2.46,0,0,0-.65-.26,2.77,2.77,0,0,0-1.37.06,2.33,2.33,0,0,0-1.33.88.87.87,0,0,0-.11.7,1.29,1.29,0,0,0,1,.79,2.91,2.91,0,0,0,1,0l.43,0H452l-.33,0a.5.5,0,0,1,.13,0,1.47,1.47,0,0,0,.51,0,1.89,1.89,0,0,0,.58-.08,1.81,1.81,0,0,0,.54-.22,1.66,1.66,0,0,0,.42-.29c.16-.17.36-.43.27-.68l-.11-.2a.91.91,0,0,0-.47-.26Z"/><path d="M555.66,187.88a.87.87,0,0,1-.11-.44v.18a1,1,0,0,1,.11-.43l-.1.2a.89.89,0,0,1,.16-.22l-.19.19a.87.87,0,0,1,.11-.09l-.26.18a.41.41,0,0,1,.11-.07l-.33.16h0l-2-.13a.41.41,0,0,1,0,.11v-.18a.83.83,0,0,1-.06.21l.11-.2a.44.44,0,0,1-.12.15l.2-.19-.11.08.27-.18-.09.05.33-.16-.08,0L554,187l-.07,0,.39-.08h-.07l.36,0h-.07l.32,0h-.09l.26.07-.11-.05.18.11a.44.44,0,0,1-.13-.14l.09.16a.46.46,0,0,1-.06-.28V187a.8.8,0,0,1,.09-.3l-.11.19a.76.76,0,0,1,.11-.14l-.19.19.07-.06-.26.18.07,0-.33.16,0,0-.38.13h0l-.39.08h.05l-.36,0h.07a2.6,2.6,0,0,0,.56-.07,2.21,2.21,0,0,0,.57-.17,1.58,1.58,0,0,0,.46-.25,1,1,0,0,0,.33-.28c.11-.16.19-.37,0-.53l-.19-.12a1.41,1.41,0,0,0-.58-.09,2.58,2.58,0,0,0-.48,0,3.63,3.63,0,0,0-1,.32,2.29,2.29,0,0,0-.81.6,1.16,1.16,0,0,0-.27.89.86.86,0,0,0,.21.4,1.15,1.15,0,0,0,.28.19,1.38,1.38,0,0,0,.39.13,2.27,2.27,0,0,0,.45,0,3.65,3.65,0,0,0,.87-.12,3.54,3.54,0,0,0,1.21-.57,1.55,1.55,0,0,0,.5-.61.88.88,0,0,0,.05-.15,1.09,1.09,0,0,0,0-.36c-.07-.29-.48-.33-.71-.35a2.9,2.9,0,0,0-1.3.22,2.35,2.35,0,0,0-1.35,1.24,1.44,1.44,0,0,0-.07.55.87.87,0,0,0,.11.38.31.31,0,0,0,.19.21.63.63,0,0,0,.35.13,1.74,1.74,0,0,0,.51,0,2.82,2.82,0,0,0,.57-.09,2.44,2.44,0,0,0,1-.47l.19-.19a.45.45,0,0,0,.12-.38Z"/><path class="cls-6" d="M552.61,187.38c.16,0,.82-.31.47-.31-.17,0-.83.31-.47.31Z"/><path class="cls-6" d="M553.23,187.1l-.05,0h0s0,0,0,0a.18.18,0,0,1,0-.07l0,0s0,0,0,0a.49.49,0,0,1,0-.11.08.08,0,0,0,0,0c0-.06,0,0,0,0a.28.28,0,0,1,0-.09v-.05s0,0,0,0,0-.08.05-.1-.05,0,0,0,0,0,0,0l0,0h0s0,0,.05,0l0,0a.31.31,0,0,1-.25,0,.08.08,0,0,1-.07,0h0c0,.05,0,0,0,0v0s0,.06,0,.08,0,.08,0,0v.17a1.7,1.7,0,0,1,0,.22h0l0,.05a.61.61,0,0,1-.05.12s0-.06,0,0,0,0,0,0l0,0,.05,0a.24.24,0,0,1,.2,0,.19.19,0,0,1,.13,0s0,0,0,0l0-.12a2.47,2.47,0,0,1-.11-.47.5.5,0,0,1,0-.12v-.07a.81.81,0,0,1,0-.22.13.13,0,0,1,0-.06s0,0,0,0l0,0c0-.06,0,0,0,0s-.07.05,0,0l-.11,0h-.1l0,0s0,0,0,0h0s0,0,0,0,0,.1,0,0a1,1,0,0,0,.05.26c0,.13.1.25.14.38s0,.08,0,.08,0,0,0,0a.09.09,0,0,0,0,.05h0s0,0,0,0l0,0s0,0,0,0l0,0,0,0,0,0h0s0,0,0,0h0c.07,0,.08,0,0,0s.1,0,0,0h0l0,0s.05,0,0,0l0,0s0,0,0,0,0,0,0,0l0-.07c0-.05,0,0,0,0a.14.14,0,0,0,0-.06.28.28,0,0,1,0-.09c0,.06,0,0,0,0v-.06a.3.3,0,0,1,0-.1c0,.05,0,0,0,0s0,0,0-.07l0-.05s0-.07,0,0l.06-.07,0,0s-.06,0,0,0l0,0c.06-.05-.07,0,0,0s0,0,0,0-.08,0,0,0-.06,0,0,0h0s-.06,0,0,0,0,0,0,0,0,0,0,0,0,0,0,0,0,0,0,0l0,.05s0,0,0,.08,0,0,0,0,0,0,0,.05a.06.06,0,0,0,0,0c0,.05,0,0,0,0l-.05.11,0,0h0l-.16.18-.19.19-.1.09,0,.05c-.06.06,0,0,0,0l.19-.05h0l.17,0a.15.15,0,0,1,.1.07s0,0,0,0v0s0,0,0,0v-.07a.36.36,0,0,1,0-.11c0,.06,0,0,0,0l0-.07-.71.05V187h0v0l.06-.07a.32.32,0,0,1,.43,0c0,.06,0,0,0,0s0-.06,0-.09,0,0,0,0a.88.88,0,0,1,0-.17s0-.1,0,0l0-.08,0-.07c0-.05,0,.05,0,0a.54.54,0,0,0,.15-.44c0-.17-.3-.2-.43-.16s-.34.17-.3.36v0h0s0,0,0,0,0,0,0,0l0,0,0,0a1.19,1.19,0,0,0-.13.25,1,1,0,0,0-.06.55.4.4,0,0,0,.16.27.54.54,0,0,0,.48,0,.55.55,0,0,0,.31-.27.57.57,0,0,0,0-.34c0-.14-.22-.19-.33-.18a.48.48,0,0,0-.38.23,1.07,1.07,0,0,0-.1.36.62.62,0,0,0,.07.38c.15.22.5.15.68,0s.21-.2.31-.3c.29-.29.67-.69.47-1.14a.63.63,0,0,0-.62-.39,1,1,0,0,0-.74.42,1,1,0,0,0-.21.74.72.72,0,0,0,.43.53.85.85,0,0,0,.83-.1.61.61,0,0,0,.26-.66c0-.19-.15-.35-.18-.54v0s0,.07,0,0a.34.34,0,0,0,0-.1.39.39,0,0,0-.13-.2.55.55,0,0,0-.45-.08.66.66,0,0,0-.57.6,2.18,2.18,0,0,0,.07.72,1.8,1.8,0,0,0,.1.33.45.45,0,0,0,.28.33.71.71,0,0,0,.83-.45,1.48,1.48,0,0,0,.1-.75.51.51,0,0,0-.1-.3A.53.53,0,0,0,553,186a.91.91,0,0,0-.6.55.82.82,0,0,0,.07.7.66.66,0,0,0,.23.24.47.47,0,0,0,.52,0c.12-.1.19-.28,0-.38Z"/></svg>
