<svg id="Layer_1" data-name="Layer 1" xmlns="http://www.w3.org/2000/svg" viewBox="0 0 50 50"><defs><style>.cls-1{fill:#f39200;}.cls-2{fill:#ac93cf;}</style></defs><path class="cls-1" d="M21,9l.19,15.76.09,7.88,0,3.93,0,2c0,.27-.18,1.75.25,1.35h2.12l-.09-.08L24,41.27l0-.14-1.44,1.1h.08c1.93.12,1.92-2.88,0-3h-.08a1.52,1.52,0,0,0-1.45,1.11l0,.14a1.51,1.51,0,0,0,.38,1.46l.1.07a1.55,1.55,0,0,0,2.12,0c.89-.83.65-2.12.64-3.22l-.05-4.19L24.2,26,24,9a1.5,1.5,0,0,0-3,0Z"/><path class="cls-1" d="M7.49,16.21c.8-3.58,3.76-6.05,7.11-7.25A27.92,27.92,0,0,1,26.73,7.59c3.27.4,7.1,2.23,7.73,5.82.68,3.8-2.73,6.89-6,8.06-4.41,1.59-9.57,1.54-14.16.87-1.89-.28-2.7,2.62-.79,2.89,5.06.74,10.65.88,15.55-.8,4.3-1.48,8.17-4.92,8.44-9.72.26-4.43-3.22-8-7.14-9.34a19.7,19.7,0,0,0-7.67-.84,36.5,36.5,0,0,0-7.43,1.08C10.4,6.93,5.75,10.24,4.6,15.41c-.43,1.88,2.47,2.68,2.89.8Z"/><path class="cls-2" d="M30.33,16.89A18,18,0,0,0,18.08,15.5a6.85,6.85,0,0,0-4.51,3.38,4.84,4.84,0,0,0,.58,5.24c2.52,3.13,7.2,3.29,10.63,4.84a7,7,0,0,1,3.84,3.58c.61,1.72-.49,3.21-2,4-2,1-4.51.74-6.65.59a13.54,13.54,0,0,1-6.5-1.81c-1.63-1-3.13,1.55-1.51,2.59,3.36,2.16,8,2.54,11.85,2.29,3.7-.23,7.85-2.28,8-6.49.12-4-3.62-6.65-6.94-7.91-2-.76-4.11-1.19-6.08-2-1.34-.56-3.31-1.67-2.59-3.41C17,18.32,20,18,21.84,18a15.51,15.51,0,0,1,7,1.48c1.74.83,3.26-1.76,1.52-2.59Z"/><path class="cls-1" d="M21.07,14.27l.09,4.26a1.5,1.5,0,0,0,3,0l-.09-4.26a1.5,1.5,0,0,0-3,0Z"/><path class="cls-1" d="M21.3,35.58a24.49,24.49,0,0,1,.07,4.69,1.5,1.5,0,0,0,1.5,1.5,1.53,1.53,0,0,0,1.5-1.5,24.49,24.49,0,0,0-.07-4.69,1.66,1.66,0,0,0-.44-1.06,1.51,1.51,0,0,0-2.13,0,1.41,1.41,0,0,0-.43,1.06Z"/><path class="cls-1" d="M21,7.05a6.32,6.32,0,0,0,.09,1.89,1.14,1.14,0,0,0,.27.51,1,1,0,0,0,.42.39,1.12,1.12,0,0,0,.56.18,1.18,1.18,0,0,0,.59,0l.36-.15a1.4,1.4,0,0,0,.54-.54L24,8.94a1.51,1.51,0,0,0,0-.79l0-.23.05.4a4.5,4.5,0,0,1,0-1.27,1.27,1.27,0,0,0-.13-.58A1.11,1.11,0,0,0,23.56,6a1.11,1.11,0,0,0-.49-.31,1,1,0,0,0-.57-.13l-.4,0a1.47,1.47,0,0,0-.67.39l-.23.3a1.44,1.44,0,0,0-.2.76Z"/></svg>
