<svg id="Layer_1" data-name="Layer 1" xmlns="http://www.w3.org/2000/svg" viewBox="0 0 190 120"><defs><style>.cls-1{fill:none;stroke:#000;stroke-miterlimit:10;stroke-width:6px;}</style></defs><path class="cls-1" d="M170.5,3.5H19.5a12,12,0,0,0-12,12v89a12,12,0,0,0,12,12h151a12,12,0,0,0,12-12v-89A12,12,0,0,0,170.5,3.5Z"/><path class="cls-1" d="M13.06,7.35l62.71,49c.78.6,1.09,2.31.14,2.06"/><path class="cls-1" d="M182.21,8.92q-34.58,24.95-66.59,53.22"/><path d="M74.74,58.25c-9,7.61-18,15.24-27.32,22.38-8.64,6.59-18.27,12.22-25.71,20.22-3.64,3.91-7.06,8.24-12.1,10.38a1.51,1.51,0,0,0-.54,2,1.55,1.55,0,0,0,2,.54c4.45-1.89,7.79-5.46,11-9A79.92,79.92,0,0,1,33.82,94.21c4.56-3.37,9.25-6.56,13.78-10,4.69-3.54,9.29-7.2,13.83-10.93,5.19-4.25,10.31-8.59,15.43-12.93,1.48-1.25-.65-3.37-2.12-2.12Z"/><path d="M12.15,109.29a37.27,37.27,0,0,0,9.7-8.65c1.16-1.48-.74-3.55-2.12-2.13a135.64,135.64,0,0,1-10,9.29c-1.5,1.25.63,3.28,2.12,2.12l3-2.37-2.51-1.46a6.53,6.53,0,0,1-1.57,2.64l2.12,2.12L15,108.2c.87-1.1.11-3-1.46-2.51a7.61,7.61,0,0,0-3,1.65l2.12,2.12c15.88-17.39,36.6-29,55.69-42.4q2.1-1.47,4.16-3a21.35,21.35,0,0,0,3.59-2.8,3.06,3.06,0,0,0,.32-4.09,22.4,22.4,0,0,0-4-3.15c-1.53-1.17-3,1.43-1.51,2.59l1.84,1.41c.28.21,1.25.8,1.24,1.06s-1.08,1-1.33,1.13c-.62.47-1.25.93-1.88,1.39-2.24,1.62-4.51,3.22-6.79,4.79-4.46,3.06-9,6-13.47,9a316.73,316.73,0,0,0-26.5,19.11,132.78,132.78,0,0,0-13.53,12.77,1.5,1.5,0,0,0,2.12,2.12,4.23,4.23,0,0,1,1.66-.88l-1.46-2.51-2.12,2.66c-1.18,1.47.74,3.54,2.12,2.12a9.92,9.92,0,0,0,2.35-4c.49-1.58-1.44-2.3-2.51-1.46l-3,2.37,2.12,2.12q5.25-4.4,10-9.28l-2.12-2.13a35.14,35.14,0,0,1-9.09,8.19c-1.64,1-.13,3.62,1.51,2.59Z"/><path d="M77.66,57.41q9.93,8.81,20.55,16.76l-.69-1.69c-.51,2-4.36-1.73-4.91-2.17-2.21-1.78-4.56-3.37-6.86-5a38,38,0,0,1-11-11.7l-1.7,2.2a14.76,14.76,0,0,1,8.35,5.73l1.69-2.2-3-1.17C78.44,57.5,77.62,60,79,60.88l4.46,3,1.15-2.74-1.87-.61a1.51,1.51,0,0,0-1.16,2.74,23.27,23.27,0,0,1,4.36,2.93l1.46-2.5-1.07-.37a1.51,1.51,0,0,0-1.46,2.51l2.34,2.08,1.45-2.51-2.24-.75c-1.66-.56-2.56,1.86-1.16,2.74l7.14,4.45,1.51-2.59a1,1,0,0,1-.58-.38l-2,2,4.31,3.14c1.56,1.14,3.06-1.46,1.51-2.59l-4.31-3.14c-1.2-.87-2.91.86-2,2.05a4,4,0,0,0,1.66,1.46,1.5,1.5,0,0,0,1.51-2.59l-7.13-4.45-1.16,2.74,2.25.76a1.51,1.51,0,0,0,1.46-2.51l-2.34-2.08-1.46,2.5,1.07.37A1.51,1.51,0,0,0,88,64.09a26.34,26.34,0,0,0-5-3.4l-1.15,2.74,1.88.61c1.69.55,2.5-1.83,1.15-2.74l-4.46-3L79.31,61l3,1.17A1.51,1.51,0,0,0,84,60,18,18,0,0,0,73.9,52.89a1.52,1.52,0,0,0-1.7,2.2A37.86,37.86,0,0,0,78,62.72a59.11,59.11,0,0,0,8.06,6.46c1.42,1,2.86,2,4.23,3.11A32.79,32.79,0,0,0,94,75.2c2.23,1.31,5.72,1,6.45-1.92a1.57,1.57,0,0,0-.69-1.7Q89.42,63.84,79.78,55.29c-1.44-1.28-3.57.84-2.12,2.12Z"/><path d="M97.29,75A122.24,122.24,0,0,0,108,67.47q5.27-3.93,10.4-8a1.5,1.5,0,0,0-2.12-2.12q-5,4-10.11,7.79a122.15,122.15,0,0,1-10.39,7.31A1.5,1.5,0,0,0,97.29,75Z"/><path d="M98.22,75.68c4.86-2.57,9.61-5.34,14.21-8.35,2.24-1.47,4.44-3,6.61-4.55,1.71-1.24,4.44-2.64,4.91-4.88.24-1.18-1-2.48-2.21-1.7A224.81,224.81,0,0,1,97.45,70.48L99,73.07l2.29-1.66c1.54-1.13,0-3.74-1.52-2.6l-2.28,1.67A1.5,1.5,0,0,0,99,73.07a225.55,225.55,0,0,0,24.3-14.27l-2.21-1.7c-.18.9-1.37,1.5-2,2-1,.72-2,1.44-3,2.14q-3.09,2.19-6.29,4.24-6.34,4.08-13,7.6c-1.7.9-.19,3.49,1.52,2.59Z"/><path d="M116.52,63c17,11.31,32.64,24.38,48.07,37.67q6.69,5.76,13.36,11.55c1.46,1.26,3.59-.85,2.12-2.12-15.67-13.56-31.25-27.27-47.86-39.67q-7-5.19-14.17-10c-1.61-1.08-3.12,1.52-1.52,2.59Z"/><path d="M121,60.45a466.12,466.12,0,0,1,46.23,37.29q6.15,5.64,12.09,11.51l1.82-2.36a85.62,85.62,0,0,1-13.73-9.38l-1.82,2.36,14,9c1.41.9,3.16-1.28,1.82-2.36a56.92,56.92,0,0,0-11.82-7.37l-1.16,2.74A37.15,37.15,0,0,1,179,106l1.52-2.59L160,92.24,158.89,95l5.23,1.53a1.51,1.51,0,0,0,1.16-2.74l-11.36-6.38-1.16,2.74,3.05.81A1.51,1.51,0,0,0,157,88.19l-5-3.4-1.16,2.75,1.29.25c1.14.23,2.53-1.05,1.69-2.2-2-2.71-4.76-4.59-7.37-6.61l-8.78-6.81c-5.55-4.31-11-9-17.15-12.45A1.5,1.5,0,0,0,119,62.31c5.93,3.33,11.18,7.83,16.54,12l8.39,6.51c2.47,1.91,5.43,3.74,7.29,6.3l1.69-2.2-1.28-.26a1.51,1.51,0,0,0-1.16,2.74l5,3.4L156.61,88l-3.05-.8A1.51,1.51,0,0,0,152.4,90l11.36,6.38,1.16-2.74-5.23-1.53a1.51,1.51,0,0,0-1.16,2.74L179,106a1.5,1.5,0,0,0,1.52-2.59A40.26,40.26,0,0,0,169.27,99c-1.57-.35-2.77,2-1.15,2.75a54.09,54.09,0,0,1,11.21,6.9l1.82-2.35-14-9c-1.41-.91-3.14,1.25-1.82,2.35a89.58,89.58,0,0,0,14.34,9.85,1.5,1.5,0,0,0,1.81-2.35,469.56,469.56,0,0,0-45.28-39.26q-6.73-5.13-13.65-10c-1.58-1.12-3.08,1.48-1.51,2.59Z"/><path d="M13.9,107Q36,87,59.75,69q6.7-5.09,13.52-10c1.55-1.12.06-3.72-1.51-2.59Q47.42,74,24.59,93.58q-6.48,5.55-12.81,11.26c-1.43,1.29.69,3.41,2.12,2.12Z"/><path d="M73,58.28a21.26,21.26,0,0,0-6.41,4c-1.42,1.31.7,3.42,2.12,2.12A17.82,17.82,0,0,1,73,61.55L71.45,59l-13.19,8.8a1.5,1.5,0,0,0,1.51,2.59l5.71-3.28L64,64.48q-9.78,6.1-19,13c-1.53,1.14,0,3.74,1.52,2.59q9.26-6.87,19-13A1.5,1.5,0,0,0,64,64.48l-5.7,3.28,1.51,2.59L73,61.55A1.5,1.5,0,0,0,71.45,59a20.51,20.51,0,0,0-4.9,3.36l2.12,2.12a17.11,17.11,0,0,1,5.09-3.27c1.76-.72,1-3.62-.8-2.89Z"/><path d="M25.45,96.44l-7.23,7.34-3.56,3.63a49.6,49.6,0,0,1-3.61,3.64l.66-.39-.17,0,1.46.39-.08-.08.44,1.06v-.12l-.74,1.3.08,0a1.51,1.51,0,0,0,.54-2,1.54,1.54,0,0,0-2.05-.54l-.09.05a1.48,1.48,0,0,0-.74,1.29,1.65,1.65,0,0,0,2.33,1.54A8.63,8.63,0,0,0,15,111.39l4.17-4.24,8.45-8.59c1.35-1.38-.77-3.5-2.12-2.12Z"/><path d="M27.31,91.14Q18,99,9.17,107.27c-1.42,1.32.71,3.43,2.12,2.12q8.87-8.3,18.14-16.13c1.48-1.25-.65-3.36-2.12-2.12Z"/><path d="M13.85,112.18A362.8,362.8,0,0,1,50.6,81.85c1.55-1.11.06-3.72-1.51-2.59a368.53,368.53,0,0,0-37.36,30.8c-1.41,1.33.72,3.45,2.12,2.12Z"/><path d="M73,55Q86,63.38,98.67,72.39l1.52-2.59c-8.48-3.59-16.91-7.94-22.9-15.14L75.47,57l3.9,2.17.76-2.79a5.46,5.46,0,0,1-3.91-2.07l-1.45,2.5c1,.44,2,.94,3,1.48,1.44.78,3.13-1.17,1.82-2.36a12.33,12.33,0,0,0-2.75-1.89,1.5,1.5,0,0,0-1.51,2.59l1.92,1.13c1.7,1,3-1.47,1.52-2.59l-1.56-1.13-1.51,2.59,1.62,1a1.5,1.5,0,0,0,1.82-2.35l-1.06-1.12L76,56.27q9.64,7.81,19.9,14.81l-.3-2.36a3.7,3.7,0,0,0-.93,3.36l1.85-1.84-2-.55a1.5,1.5,0,0,0-.8,2.89l2,.55a1.53,1.53,0,0,0,1.85-1.85.42.42,0,0,1,.15-.44,1.52,1.52,0,0,0-.3-2.35q-9.95-6.76-19.3-14.34c-1.47-1.19-3.47.69-2.12,2.12l1.06,1.12L78.89,55l-1.63-1c-1.69-1-3,1.47-1.51,2.59l1.55,1.13,1.52-2.59-1.93-1.13-1.51,2.59a9.52,9.52,0,0,1,2.14,1.43l1.81-2.36c-1.22-.66-2.48-1.24-3.77-1.78-1.53-.64-2.29,1.51-1.46,2.51a8.42,8.42,0,0,0,6,2.95,1.52,1.52,0,0,0,.76-2.8L77,54.43a1.5,1.5,0,0,0-1.82,2.35c6.14,7.39,14.8,11.93,23.5,15.61a1.5,1.5,0,0,0,1.52-2.59q-12.64-9-25.71-17.43c-1.62-1-3.13,1.55-1.51,2.59Z"/><path d="M99.69,71.21l31.79-22.34c1.57-1.1.08-3.7-1.51-2.59L98.18,68.62c-1.57,1.11-.07,3.71,1.51,2.59Z"/><path d="M115.43,63.3a19.29,19.29,0,0,0,4.43,2.32l4.9,2.06a1.51,1.51,0,0,0,1.85-1.05,1.55,1.55,0,0,0-1-1.85l-4.73-2-.32-.13h0l-.52-.23c-.34-.15-.68-.3-1-.47a11.87,11.87,0,0,1-2-1.25,1.51,1.51,0,0,0-2,.54,1.54,1.54,0,0,0,.54,2Z"/><path d="M153,87a46,46,0,0,0,5.35,5.64,1.5,1.5,0,0,0,2.12-2.12,46,46,0,0,1-5.35-5.64,1.52,1.52,0,0,0-1.06-.44,1.54,1.54,0,0,0-1.06.44,1.47,1.47,0,0,0-.44,1.06A1.66,1.66,0,0,0,153,87Z"/><path d="M168.41,99.08a8.89,8.89,0,0,1,2.27,2.79,10.92,10.92,0,0,0,3,3.31c1.44,1,3-1.17,1.82-2.35l-3.6-3.62L170,101.56a21.13,21.13,0,0,1,4,2.41l1.52-2.59a25.59,25.59,0,0,1-3.62-2.84l-1.82,2.35c1.17.81,2.33,1.63,3.47,2.47,1.37,1,3.15-1.29,1.82-2.36a38.14,38.14,0,0,1-3.47-3.13l-1.82,2.35,3.87,2.69,1.51-2.59a40.63,40.63,0,0,1-6.82-5.44L166.53,97A141.47,141.47,0,0,0,179,106.48a1.51,1.51,0,0,0,2-.53,1.54,1.54,0,0,0-.54-2.06,136.38,136.38,0,0,1-11.85-9,1.53,1.53,0,0,0-2.12,0,1.51,1.51,0,0,0,0,2.12,44,44,0,0,0,7.43,5.91,1.5,1.5,0,1,0,1.51-2.59l-3.87-2.69c-1.42-1-3,1.17-1.81,2.36a38.14,38.14,0,0,0,3.47,3.13l1.82-2.35c-1.15-.84-2.31-1.66-3.48-2.47-1.4-1-3,1.2-1.81,2.36A30.76,30.76,0,0,0,174,104a1.51,1.51,0,0,0,2.05-.54,1.53,1.53,0,0,0-.53-2.05,21.53,21.53,0,0,0-4-2.41,1.52,1.52,0,0,0-1.93.39,1.51,1.51,0,0,0,.11,2l3.61,3.62,1.82-2.36a9.35,9.35,0,0,1-2.25-2.81,10.67,10.67,0,0,0-3-3.29,1.5,1.5,0,1,0-1.52,2.59Z"/></svg>
