<svg id="Layer_1" data-name="Layer 1" xmlns="http://www.w3.org/2000/svg" viewBox="0 0 330 220"><defs><style>.cls-1{fill:#ac93cf;}.cls-2{fill:#f0e7f0;}.cls-3,.cls-4,.cls-5{fill:none;stroke:#ac93cf;stroke-miterlimit:10;}.cls-3{stroke-width:3px;}.cls-4{stroke-width:7px;}.cls-5{stroke-width:4px;}</style></defs><rect class="cls-1" x="23.57" y="1" width="278.14" height="173.49"/><rect class="cls-2" x="40.07" y="17.5" width="247.97" height="142.37"/><line class="cls-3" x1="67.41" y1="46.73" x2="82.5" y2="32.59"/><line class="cls-3" x1="74.96" y1="55.21" x2="90.04" y2="40.13"/><line class="cls-4" x1="8.01" y1="192.87" x2="29.7" y2="171.19"/><line class="cls-4" x1="319.16" y1="191.93" x2="296.53" y2="170.24"/><line class="cls-3" x1="6.13" y1="191.93" x2="321.04" y2="190.99"/><rect class="cls-5" x="123.99" y="193.81" width="80.14" height="9.43" rx="4.71"/><rect class="cls-4" x="6.13" y="191.93" width="317.74" height="23.57" rx="11.79"/><path class="cls-1" d="M6.4,193.11a1.5,1.5,0,0,0,0-3,1.5,1.5,0,0,0,0,3Z"/><path class="cls-1" d="M4.82,191.06A19.9,19.9,0,0,0,4,197.7a27,27,0,0,0,.79,6.69,1.5,1.5,0,0,0,2.89-.8A23.83,23.83,0,0,1,7,197.7a17.45,17.45,0,0,1,.76-5.84,1.5,1.5,0,0,0-2.89-.8Z"/><path class="cls-1" d="M8.38,196.6l0-.12-.15.36a5.61,5.61,0,0,1,.7-1.21l-.23.31a5.51,5.51,0,0,1,1-1l-.3.24a6.61,6.61,0,0,1,.55-.37,1.52,1.52,0,0,0,.69-.9,1.5,1.5,0,0,0-2.2-1.69,6.81,6.81,0,0,0-1.68,1.39,7.49,7.49,0,0,0-.74,1,7.08,7.08,0,0,0-.54,1.15,1.22,1.22,0,0,0,0,.6,1.12,1.12,0,0,0,.18.56,1.52,1.52,0,0,0,.9.69,1.54,1.54,0,0,0,1.15-.15l.31-.24a1.57,1.57,0,0,0,.38-.66Z"/><path class="cls-1" d="M319.48,191.8a6.77,6.77,0,0,1,2.31,4.19,33.69,33.69,0,0,1,.46,5.85,1.5,1.5,0,1,0,3,0c-.1-4.13-.11-9.33-3.65-12.16a1.54,1.54,0,0,0-2.12,0,1.5,1.5,0,0,0,0,2.12Z"/><path class="cls-1" d="M319.27,191.17l1.13,1.6a1.61,1.61,0,0,0,.89.69,1.5,1.5,0,0,0,1.85-1.05,1.59,1.59,0,0,0-.15-1.15,5.59,5.59,0,0,0-1.14-1.46l-1.46,2.5.11,0-.36-.15a1.37,1.37,0,0,1,.2.13l-.3-.24a1.67,1.67,0,0,1,.23.23L320,192a4.1,4.1,0,0,1,.48.87L321,194l2.06-2-2.7-1.29a1.56,1.56,0,0,0-1.16-.15,1.47,1.47,0,0,0-.89.69,1.45,1.45,0,0,0-.15,1.15,1.48,1.48,0,0,0,.68.9l2.7,1.29.36.15a1.22,1.22,0,0,0,.6,0,1.42,1.42,0,0,0,.86-.41,1.94,1.94,0,0,0,.38-.67,1,1,0,0,0,0-.59,1.12,1.12,0,0,0-.18-.56c-.24-.53-.46-1.07-.72-1.59a2.89,2.89,0,0,0-1.72-1.53l-.4,0a1,1,0,0,0-.57.13,1.44,1.44,0,0,0-.72.61,2,2,0,0,0-.21.76,1.56,1.56,0,0,0,.44,1.06,3.71,3.71,0,0,1,.54.58l-.23-.31c.13.19.26.38.37.58l2.59-1.51-1.13-1.6A1.61,1.61,0,0,0,321,189a1.5,1.5,0,0,0-1.85,1.05,1.45,1.45,0,0,0,.15,1.15Z"/></svg>
