<svg id="Layer_1" data-name="Layer 1" xmlns="http://www.w3.org/2000/svg" viewBox="0 0 210 210"><defs><style>.cls-1{fill:#ac93cf;}.cls-2{fill:none;stroke:#ac93cf;stroke-miterlimit:10;}</style></defs><path class="cls-1" d="M28.2,16.42a59.57,59.57,0,0,0-8.51,7.26c-2.45,2.54-4.9,5.35-4.48,9.12s2.79,6.43,5.19,9l8.44,9.11a1.5,1.5,0,0,0,2.12,0c9.5-11.9,22.21-20.6,32.59-31.65a1.51,1.51,0,0,0,0-2.12C60.08,13.72,56.74,10,53,6.89,49.8,4.18,45.83,2.3,41.66,4c-4,1.61-7.15,5.26-10.2,8.16A97.57,97.57,0,0,0,21.69,22.6c-1.18,1.51.93,3.64,2.12,2.13a92,92,0,0,1,8.61-9.37C34,13.89,35.51,12.44,37.07,11a25.18,25.18,0,0,1,4.68-3.75c3.68-2.06,7.09-.12,9.9,2.43,3.38,3.06,6.54,6.39,9.78,9.59V17.15C51.05,28.19,38.34,36.9,28.84,48.8H31L23.7,41c-2.09-2.26-4.69-4.6-5.4-7.73s1.73-5.63,3.82-7.76A55.79,55.79,0,0,1,29.71,19c1.57-1.1.07-3.7-1.51-2.59Z"/><path class="cls-1" d="M41,28.39c4.71,0,9.22-4.14,9-9a9.16,9.16,0,0,0-9-9c-4.71,0-9.22,4.14-9,9a9.16,9.16,0,0,0,9,9Z"/><path class="cls-1" d="M50.16,19.08l0-.25-.33,2.39a4.06,4.06,0,0,1,.28-1l-.91,2.15a5.2,5.2,0,0,1,.39-.64L48.2,23.59a4.77,4.77,0,0,1,.7-.72l-1.82,1.41a5.08,5.08,0,0,1,.87-.51l-2.15.91a4.05,4.05,0,0,1,1-.24l-2.4.32a3.86,3.86,0,0,1,.76,0l2.39-.32a6.85,6.85,0,0,0,3.06-1.61,8.62,8.62,0,0,0,3.22-4.68A9.71,9.71,0,0,0,51.47,9a9.74,9.74,0,0,0-14.64,1c-.6.77-1,1.58-1.61,2.36l1.4-1.82a11.1,11.1,0,0,1-1.92,1.83L36.53,11a115.23,115.23,0,0,0-11.22,9.34c-1.5,1.47-3,2.93-4.45,4.49-2.45,2.76-3.77,6.29-2.84,10a10.17,10.17,0,0,0,2.63,4.54,24.28,24.28,0,0,0,2.48,1.9l-1.83-1.4a1,1,0,0,1,.26.27l-1.41-1.82.07.16L19,33.89l0,.18a6.8,6.8,0,0,0,.77,3.47,6.68,6.68,0,0,0,1.86,2.89,9,9,0,0,0,12.73,0c1.5-1.63,2.92-4,2.64-6.36a11.34,11.34,0,0,0-1.26-4.73,9.87,9.87,0,0,0-1.53-2.05,20.35,20.35,0,0,0-2.52-2l1.82,1.41a1.53,1.53,0,0,1-.29-.28l1.41,1.82-.11-.16.91,2.15L35.37,30l.32,2.39v-.25l-.32,2.39.07-.25-.91,2.15a2,2,0,0,1,.28-.49l-1.41,1.83a62.73,62.73,0,0,1,5.5-5.56,75.72,75.72,0,0,1,6-5.21l-1.82,1.41C44.71,27.15,46.43,26,48,24.64A22.9,22.9,0,0,0,51.67,20l-1.41,1.83.19-.19L48.63,23l.23-.14-2.15.91.22,0H42.14l.23,0-2.15-.91.2.11-1.82-1.4.15.15-2.32-4,.07.18V13.19l0,.2,8.68-6.61c-3.31-.37-6.66,1.32-9.05,3.44a12.68,12.68,0,0,0-3.92,8.86,9.05,9.05,0,0,0,2.63,6.36,9,9,0,0,0,12.73,0,10,10,0,0,0,2.64-6.36Z"/><path class="cls-1" d="M33.21,45.07c-.43.38-.44.42-.05.1l-7.52-4.38-.56,1.64A4.54,4.54,0,0,0,28.22,48c2.63.6,4.56-.82,5.54-3.15-.08.2-.2.76-.46.82.12,0,.38-.41.47-.5.35-.33.72-.62,1.09-.91a18.46,18.46,0,0,0,2.36-2.14c1.67-1.83,3.18-3.8,4.8-5.66Q47,30.77,52.4,25.55L45.33,20.1,43.82,23a4.51,4.51,0,0,0,7.07,5.46c1.3-1.36,2.65-2.68,4-3.94.68-.6,1.36-1.19,2.06-1.77.34-.29.69-.57,1-.86l.53-.42.16-.12c2.83-2.16,2.9-5.63,0-7.77C57.14,12.35,55.58,11,53.88,10c-2.7-1.62-5.75-.56-8.34.7-3.64,1.76-6.68,4.77-9.35,7.74a4.54,4.54,0,0,0-.35,5.91,4.49,4.49,0,0,0,5.81,1.16l.62-.42-6.15-6.15c.46-.46.5-.53.13-.22-1.83,1.49-1.66,4.84,0,6.37a4.65,4.65,0,0,0,6.37,0,5.09,5.09,0,0,0,1.27-1.61,4.51,4.51,0,0,0-6.16-6.16l-.63.42,5.46,7.06a42.09,42.09,0,0,1,3.5-3.57l.8-.68c.21-.18.74-.6.24-.21A17,17,0,0,1,49,19c.3-.18.61-.33.91-.5.71-.39-.21,0,.24-.12a3.48,3.48,0,0,0,1-.32c-1.76-.59-2.3-.67-1.62-.23l.55.4L54.2,21.3V13.53A82.45,82.45,0,0,0,44.52,22l7.07,5.45,1.51-2.85A4.51,4.51,0,0,0,46,19.19q-5.74,5.53-11,11.58c-1.64,1.89-3.14,4-4.93,5.72-.77.75-1.65,1.34-2.45,2a10,10,0,0,0-2.59,3.89l8.68,2.39.56-1.64a4.54,4.54,0,0,0-2.07-5.08,4.8,4.8,0,0,0-5.46.7,4.92,4.92,0,0,0-1.35,1.72c-1,2.12-.65,5,1.61,6.16,2,1.07,5.06.65,6.16-1.61Z"/><path class="cls-1" d="M38,58.85c2.45,3.84,6,6.53,9.34,9.53,3.69,3.31,6.81,7.26,10.31,10.78S65,85.68,68.06,89.5a38.36,38.36,0,0,0,10.45,9.38c3.32,2,6.35-3.2,3-5.18A35.56,35.56,0,0,1,72,84.91c-3-3.67-6.8-6.65-10.13-10s-6.44-7.25-10-10.5c-3-2.73-6.49-5.13-8.7-8.59a3.07,3.07,0,0,0-4.11-1.08A3,3,0,0,0,38,58.85Z"/><path class="cls-1" d="M42.41,59.43c4.58-5.2,9.53-10,14.49-14.88S67,34.65,72.18,29.81c2.82-2.65-1.43-6.88-4.24-4.24-5.17,4.84-10.22,9.79-15.28,14.74S42.75,50,38.17,55.18a3.07,3.07,0,0,0,0,4.25,3,3,0,0,0,4.24,0Z"/><path class="cls-1" d="M67.2,29.11l.15.86,1.38-3.38-.08.05,3.64.47-.1-.11L73,29.92l0-.12L70.09,32h.24l-1.52-.41A28.17,28.17,0,0,1,71.44,34l3.15,3c2,1.94,4,3.9,6,5.88,4,4,7.9,8,11.81,12,7.78,8,15.45,16.16,23.58,23.82,4.44,4.17,9,8.12,12.75,13,1,1.28,3.2,1,4.25,0a3.1,3.1,0,0,0,0-4.25c-3.41-4.39-7.48-8-11.54-11.81s-8.25-8-12.26-12.06c-8.07-8.24-16-16.6-24.18-24.73-2.28-2.26-4.57-4.49-6.9-6.7C77,31,75.8,29.89,74.62,28.8S72,25.92,70.09,26a3.06,3.06,0,0,0-2.89,2.2A3.27,3.27,0,0,0,68,31.35a3.06,3.06,0,0,0,3.64.47l.08-.05a3.14,3.14,0,0,0,1.38-3.39L73,27.51a3,3,0,0,0-3.69-2.09,3.06,3.06,0,0,0-2.09,3.69Z"/><path class="cls-1" d="M78.09,98.5l1.15,1.39,4.24-4.25a42.3,42.3,0,0,0-4.54-3.8,3,3,0,0,0-3.87.77,3,3,0,0,0,.24,3.94C86.22,107.7,97,119,108.5,129.56a3.07,3.07,0,0,0,4.24,0,3,3,0,0,0,0-4.24c-11.51-10.53-22.28-21.86-33.19-33L75.91,97a30.34,30.34,0,0,1,3.33,2.87,3,3,0,0,0,4.24-4.25l-1.15-1.39a3,3,0,0,0-4.24,0,3.07,3.07,0,0,0,0,4.25Z"/><path class="cls-1" d="M108.62,129.16a31.75,31.75,0,0,0,3.73,4.45c1.24,1.21,3,2.42,4.1,3.34l-.77-1.32.06.22.78-2.92-.11.08,2.92-.77-.14,0,2.2,2.89V135l-5.12,2.12c4.95,4.12,9.07,9.27,13.39,14l13.51,14.93c1.69,1.86,5.31.45,5.13-2.13l0,.29-.77,1.32-.18.17-4.41-1.79a4.77,4.77,0,0,0,1.63,2.64l.61-4.71-.26.11,1.52-.41-.29,0,1.52.41-.25-.14,1.08,1.08-.15-.24-4.71,3.63a113.94,113.94,0,0,1,10.62,10.91,3,3,0,0,0,4.24,0,31,31,0,0,0,5.43-6.75c2-3.32-3.19-6.34-5.18-3a25.19,25.19,0,0,1-4.49,5.53h4.24a112.57,112.57,0,0,0-10.61-10.9c-2.46-2.21-6.53.6-4.72,3.64a3.7,3.7,0,0,0,5,1.36c1.62-.75,2.06-3.59.61-4.71-.6-.47-.11-.1-.08,0-.51-2.07-2.71-2.51-4.41-1.79a3.52,3.52,0,0,0-2,3.4l5.12-2.12-13.52-14.92c-4.31-4.76-8.44-9.91-13.39-14a3.07,3.07,0,0,0-3.28-.62,3,3,0,0,0-1.84,2.75v.1a3.09,3.09,0,0,0,2.2,2.89,3.36,3.36,0,0,0,3.17-.82,2.94,2.94,0,0,0,.77-2.92c-.56-1.93-2.76-2.88-4.17-4.16a24.76,24.76,0,0,1-3.56-4,3.07,3.07,0,0,0-4.1-1.07,3,3,0,0,0-1.08,4.1Z"/><path class="cls-1" d="M161.36,171.68c2.81-1,4.76-3.1,6.84-5.17l6.71-6.68,13.4-13.35c2.74-2.73-1.5-7-4.24-4.24l-12.7,12.65L165.2,161c-1,1-2,2.05-3.07,3.06a7.42,7.42,0,0,1-2.37,1.8,3.07,3.07,0,0,0-2.09,3.69,3,3,0,0,0,3.69,2.1Z"/><path class="cls-1" d="M132.12,86.6l-.45-.8L127,89.44q21.54,22.23,43.53,44,6.21,6.17,12.47,12.3c2.76,2.7,7-1.54,4.24-4.25q-22.09-21.68-43.77-43.79Q137.3,91.48,131.2,85.2c-2.39-2.48-6.37.68-4.71,3.63l.44.79c1.89,3.37,7.08.35,5.19-3Z"/><path class="cls-1" d="M51.94,66c11.82,11.31,23.12,23.14,34.49,34.91,2.68,2.78,6.92-1.47,4.24-4.25C79.3,84.91,68,73.09,56.18,61.77c-2.79-2.67-7,1.57-4.24,4.25Z"/><path class="cls-1" d="M86.18,101a14.82,14.82,0,0,0,2.3,3,3,3,0,0,0,4.71-3.63l-1.81-2.51-4.71,3.64c2.93,3.35,5.72,6.95,9.19,9.77a3.1,3.1,0,0,0,4.25,0,3,3,0,0,0,0-4.24q-4.14-4.36-8.4-8.61l-3.63,4.71a17.44,17.44,0,0,1,3.69,3.17c1.39,1.42,2.79,2.84,4.18,4.27q3.93,4,7.85,8,8.15,8.35,16.18,16.83c2.67,2.81,6.91-1.44,4.25-4.24q-8.2-8.66-16.53-17.19c-2.67-2.74-5.35-5.46-8-8.19s-5.23-5.94-8.56-7.84c-3-1.68-6.08,2.27-3.64,4.71q4.26,4.25,8.39,8.61l4.25-4.24c-3.47-2.82-6.27-6.42-9.2-9.77-2.21-2.54-6.71.85-4.71,3.63L88,103.33l4.71-3.64a8.62,8.62,0,0,1-1.36-1.76c-2-3.33-7.14-.31-5.18,3Z"/><path class="cls-1" d="M159.36,166.5c-8.67-10.11-18.11-19.59-27.64-28.89-2.77-2.7-6.9,1.44-4.24,4.24l.4.43a3,3,0,0,0,4.24-4.24,97.56,97.56,0,0,0-14.53-13.47c-1.3-1-3.36-.2-4.11,1.08a3.08,3.08,0,0,0,1.08,4.11,89.69,89.69,0,0,1,13.32,12.52l4.24-4.24-.4-.43-4.24,4.24c9.53,9.3,19,18.79,27.64,28.9a3,3,0,0,0,4.24,0,3.07,3.07,0,0,0,0-4.25Z"/><path class="cls-1" d="M56.26,59.63v-.1l-.11.8c0-.1.05-.19.08-.29l-.3.72a1.62,1.62,0,0,1,.1-.18l-.47.61a2.18,2.18,0,0,1,.21-.22l-5.12-2.12a2.19,2.19,0,0,1,0,.36l.11-.8a1.89,1.89,0,0,1-.09.34L51,58a1.48,1.48,0,0,1-.13.21l.47-.61a.46.46,0,0,1-.12.12l.61-.47a.37.37,0,0,1-.14.07l3.63,4.72a25.37,25.37,0,0,1,4.17-4l-.61.47a24.39,24.39,0,0,1,2.06-1.43,3.79,3.79,0,0,0,2-2.22,3.23,3.23,0,0,0-.79-3,3,3,0,0,0-3-.79,3.15,3.15,0,0,0-1.79,1.37,3,3,0,0,0,1.08,4.11,3,3,0,0,0,2.31.3l0,0-2.31-.3.06,0-1.38-1.79,0,.06.3-2.31,0,.07.46-.61-.05,0,.61-.47a39.75,39.75,0,0,0-4.17,3A26.22,26.22,0,0,0,51,57.83a3,3,0,0,0-.24,3.94,2.91,2.91,0,0,0,1.56,1.08l.8.11a3.05,3.05,0,0,0,1.51-.41,3.29,3.29,0,0,0,.85-.63,3.15,3.15,0,0,0,.77-1.21,5,5,0,0,0,.38-1.86,3,3,0,0,0-1.85-2.74,2.75,2.75,0,0,0-1.55-.2,3.08,3.08,0,0,0-1.72.82,4.2,4.2,0,0,0-1.28,2.9,3,3,0,0,0,3,3,3,3,0,0,0,2.12-.87,3.45,3.45,0,0,0,.88-2.13Z"/><rect class="cls-1" x="38.71" y="42.99" width="41.18" height="13.55" transform="translate(-18 53.94) rotate(-43.1)"/><rect class="cls-1" x="43.46" y="98.14" width="148.47" height="13.55" transform="translate(108.66 -52.49) rotate(45)"/><rect class="cls-1" x="54.69" y="87.65" width="148.47" height="9.91" transform="translate(103.24 -64.04) rotate(45)"/><rect class="cls-1" x="30.51" y="111.83" width="148.47" height="9.91" transform="translate(113.26 -39.86) rotate(45)"/><rect class="cls-1" x="145.69" y="146.72" width="41.18" height="13.55" transform="translate(-60.01 155.03) rotate(-43.1)"/><rect class="cls-1" x="183.9" y="173.97" width="18.7" height="13.55" transform="translate(-71.35 180.81) rotate(-43.1)"/><path class="cls-1" d="M202.85,180.47a1.5,1.5,0,0,0,0-3,1.5,1.5,0,0,0,0,3Z"/><path class="cls-1" d="M204.24,177.93l-.56-.82c-.91-1.34-3.28-.56-2.74,1.15a2.63,2.63,0,0,0,1.9,2.05c1,.2,2.28-.68,1.84-1.84q-4.91-13.09-9-26.47a1.52,1.52,0,0,0-2.74-.36,38.14,38.14,0,0,1-5,6.68c-1.74,1.77-3.69,3.3-5,5.48a1.5,1.5,0,0,0,2.59,1.51c1.28-2.19,3.41-3.65,5.1-5.5a47.08,47.08,0,0,0,4.81-6.65l-2.74-.36q4,13.38,8.95,26.46l1.84-1.84c.26.32.33.34.2,0l-2.74,1.16.56.82c1.08,1.59,3.69.09,2.59-1.51Z"/><path class="cls-1" d="M190.66,189.3a242,242,0,0,0-27-6.9l.66,2.51,14.8-15.23c4.84-5,10.14-9.43,15.33-14,1.44-1.28-.68-3.4-2.13-2.12-5.18,4.59-10.49,9.05-15.32,14l-14.8,15.23a1.51,1.51,0,0,0,.66,2.51,240.52,240.52,0,0,1,27.06,6.9c1.84.58,2.63-2.31.79-2.9Z"/><path class="cls-1" d="M192.7,157.18l2.28-3.07a1.5,1.5,0,0,0-2.35-1.81c-1.38,1.47-2.75,3-4.15,4.43a37.24,37.24,0,0,1-4.15,3.89,1.49,1.49,0,0,0,0,2.12,1.56,1.56,0,0,0,2.12,0,38.24,38.24,0,0,0,4.16-3.89c1.39-1.47,2.76-2.95,4.14-4.43l-2.36-1.82-2.28,3.07a1.49,1.49,0,0,0,.53,2.05,1.54,1.54,0,0,0,2.06-.54Z"/><path class="cls-1" d="M182.62,176a7.57,7.57,0,0,1,.83.87l-.94-1.21a6.58,6.58,0,0,1,.8,1.35l-.61-1.43a4.76,4.76,0,0,1,.34,1.17l-.21-1.6a3.42,3.42,0,0,1,0,.64l.22-1.59a2.85,2.85,0,0,1-.13.48l.61-1.44a2.12,2.12,0,0,1-.21.36l.94-1.22a1.33,1.33,0,0,1-.29.29l1.22-.94a1.4,1.4,0,0,1-.29.16l1.43-.6a2.07,2.07,0,0,1-.49.12l1.59-.21c-.33,0-.67,0-1,.06a16.5,16.5,0,0,0-2,.26,9.53,9.53,0,0,0-1.84.73,6.81,6.81,0,0,0-2.76,3.59,4.63,4.63,0,0,0-.11,2.39,4.46,4.46,0,0,0,.72,2.23l.93,1.22a6,6,0,0,0,2.65,1.54l1.6.22a6.09,6.09,0,0,0,3-.82l.07,0-1.43.61a2.83,2.83,0,0,1,.5-.13l-1.6.22c.35,0,.7,0,1-.07a8.44,8.44,0,0,0,3.84-1,.6.6,0,0,0,.15-.09l1.21-.93c.06-.06.13-.11.18-.17l.11-.12.94-1.22.13-.2a13.6,13.6,0,0,0,.67-1.58,2.25,2.25,0,0,0,.08-.24,8.77,8.77,0,0,0,.28-2.1,10.66,10.66,0,0,0-1.44-5.11,14.83,14.83,0,0,0-1.51-2.07,5.7,5.7,0,0,0-.8-.83,4.38,4.38,0,0,0-1.93-1.24,5.39,5.39,0,0,0-4.62,0,4.38,4.38,0,0,0-1.93,1.24l-.94,1.21a6,6,0,0,0-.82,3l.21,1.6a6,6,0,0,0,1.55,2.64Z"/><path class="cls-1" d="M186.61,179.4l1-2.82c.82-2.23-.4-5-2.15-6.31a6.09,6.09,0,0,0-6.66-.47,15.06,15.06,0,0,0-4,3.32c-.43.48-.86,1-1.33,1.41a5.34,5.34,0,0,1-.44.39l.76-.58c-.09.22-.81.47-1,.56-1.87.84-3,3.24-3,5.18s1.1,4.38,3,5.18a58.31,58.31,0,0,0,7.8,2.77c1.18.32,2.36.63,3.55.91a7.83,7.83,0,0,0,7-1.31c1.78-1.38,3.33-3,5-4.55.38-.36.77-.72,1.17-1.07.21-.18,1.38-1.13.6-.53s.05,0,.23-.15l.58-.38a16.33,16.33,0,0,1,1.53-.84c3.54-1.73,3.76-6.85,1.22-9.43-.43-.44-.31-.28.35.51-.1-.18-.2-.36-.28-.54.39,1,.47,1.14.26.56l-.21-.6a25.36,25.36,0,0,0-1.61-3.75c-.47-.9-1-1.76-1.47-2.67l-.33-.69c.35.85.41,1,.19.36s-.25-1-.33-1.5l.22,1.6a6.84,6.84,0,0,1,0-1.5l-.22,1.6a4.7,4.7,0,0,1,.18-.74,6,6,0,0,0-8.81-6.77,7,7,0,0,0-2.76,3.58c.8-2-.1,0-.44.52-.53.84,1.06-1.25.08-.12l-.57.63c-.93,1-1.94,1.83-2.94,2.72a20.54,20.54,0,0,0-6,8.34c-1.06,2.95,1.2,6.7,4.19,7.38a6.15,6.15,0,0,0,7.38-4.19c.35-1-.76,1.49-.05.16.13-.24.28-.48.43-.71.81-1.25-.78.86-.12.11l.56-.63a39.74,39.74,0,0,1,2.91-2.74,26.53,26.53,0,0,0,2.82-2.79,18.9,18.9,0,0,0,3.27-5.49l-11.57-3.19c-1.15,4.06.23,7.93,2.21,11.46.31.55.63,1.1.91,1.66a5,5,0,0,1,.25.52c.2.41.12.22-.23-.56a4.28,4.28,0,0,0,.31.89,12.71,12.71,0,0,0,2.86,5.07l1.21-9.43a26.76,26.76,0,0,0-6.28,4.61c-.78.73-1.53,1.48-2.29,2.21-.43.41-.85.82-1.29,1.22l-.52.47q-.58.48.09-.06a3.11,3.11,0,0,1,1.23-.68l1.6-.21-.37,0,1.6.22c-1.72-.37-3.42-.83-5.11-1.32-.78-.22-1.56-.46-2.33-.72-.39-.13-.77-.26-1.15-.41s-2.08-.85-.46-.15v10.36a13,13,0,0,0,4.06-3.21c.43-.47.86-1,1.32-1.42.2-.2.47-.38.65-.6q-1.26.93-.51.42c.17-.11.34-.2.51-.29l-8.81-6.77-1,2.82c-1.08,2.95,1.22,6.7,4.2,7.38a6.16,6.16,0,0,0,7.38-4.19Z"/><path class="cls-1" d="M173,175.3l-.13.06,1.43-.61a2.92,2.92,0,0,1-.72.18l1.6-.21c-.41.05-.83.05-1.24.11s-1.23.13-1.82.25a1.57,1.57,0,0,0-.31.08l-.13,0c-.48.19-1,.42-1.52.64l-.27.16a4.67,4.67,0,0,0-1.69,1.55,4.47,4.47,0,0,0-1.07,2A4.52,4.52,0,0,0,167,182a4.58,4.58,0,0,0,.71,2.23l.94,1.22a6.07,6.07,0,0,0,2.65,1.54l1.59.21a5.84,5.84,0,0,0,3-.82,2,2,0,0,1,.32-.17l-1.43.6a2.85,2.85,0,0,1,.71-.18l-1.6.22c.37-.05.75-.06,1.12-.1a16.26,16.26,0,0,0,2.08-.29l.27-.08c.27-.1.55-.23.8-.34s.57-.23.84-.36a6.69,6.69,0,0,0,2.76-3.59,4.52,4.52,0,0,0,.11-2.39,4.58,4.58,0,0,0-.71-2.23l-.94-1.21a6,6,0,0,0-2.65-1.55l-1.6-.21a5.83,5.83,0,0,0-3,.82Z"/><path class="cls-1" d="M172.17,187.32a6,6,0,1,0-6-6,6.06,6.06,0,0,0,6,6Z"/><path class="cls-1" d="M167,183.52c.86-.26,1.71-.57,2.55-.91a1,1,0,0,0,.51-.27,1.13,1.13,0,0,0,.39-.42,1.5,1.5,0,0,0-.54-2,1.43,1.43,0,0,0-1.16-.15c-.83.34-1.69.64-2.55.91a1.55,1.55,0,0,0-.9.69,1.59,1.59,0,0,0-.15,1.15,1.5,1.5,0,0,0,1.85,1.05Z"/><path class="cls-1" d="M173.09,181.65a6.86,6.86,0,0,0,3.57,0l-.8-2.9-1.72.66a1.26,1.26,0,0,0-.51.27,1.18,1.18,0,0,0-.38.42,1.52,1.52,0,0,0-.15,1.16,1.49,1.49,0,0,0,.68.89,1.44,1.44,0,0,0,1.16.15l1.72-.65a1.14,1.14,0,0,0,.51-.27,1.21,1.21,0,0,0,.39-.42,1.52,1.52,0,0,0,.15-1.16A1.5,1.5,0,0,0,177,179a1.61,1.61,0,0,0-1.16-.16,2.9,2.9,0,0,1-.6.12l.4,0a5.7,5.7,0,0,1-1.43,0l.4.06a6.69,6.69,0,0,1-.75-.16,1.59,1.59,0,0,0-1.15.15,1.51,1.51,0,0,0-.54,2.06,1.55,1.55,0,0,0,.9.68Z"/><polygon class="cls-2" points="206 184.46 207.45 190.61 208.89 196.76 202.85 194.94 196.8 193.12 201.4 188.79 206 184.46"/><path class="cls-1" d="M199.46,193.93a1.5,1.5,0,0,0,0-3,1.5,1.5,0,0,0,0,3Z"/><path class="cls-1" d="M199.37,193.93a1.5,1.5,0,0,0,0-3,1.5,1.5,0,0,0,0,3Z"/><path class="cls-1" d="M199.09,193.93a1.5,1.5,0,0,0,0-3,1.5,1.5,0,0,0,0,3Z"/><path class="cls-1" d="M201,193.48a20.86,20.86,0,0,0,2.62-2,9.06,9.06,0,0,0,1.17-1.31,7.26,7.26,0,0,0,.86-1.57,1.45,1.45,0,0,0-.16-1.15,1.5,1.5,0,0,0-2.05-.54l-.3.23a1.47,1.47,0,0,0-.39.67l0,0,.15-.36a5.62,5.62,0,0,1-.72,1.2l.24-.3a9.44,9.44,0,0,1-1.64,1.58l.31-.23c-.52.39-1,.75-1.59,1.11a1.64,1.64,0,0,0-.69.9,1.5,1.5,0,0,0,2.21,1.69Z"/><path class="cls-1" d="M204.92,188.56a1.5,1.5,0,0,0,0-3,1.5,1.5,0,0,0,0,3Z"/><path class="cls-1" d="M205.11,188.37a1.5,1.5,0,0,0,0-3,1.5,1.5,0,0,0,0,3Z"/><path class="cls-1" d="M203.55,188.39a16.13,16.13,0,0,0,1.88,6.2,1.51,1.51,0,0,0,2,.54,1.53,1.53,0,0,0,.54-2,13.58,13.58,0,0,1-.6-1.23c.09.21.1.24,0,.09l-.07-.18c0-.09-.07-.18-.1-.27s-.16-.46-.24-.69q-.2-.66-.33-1.32c-.05-.22-.09-.45-.12-.67-.06-.39,0,.27,0,0,0-.13,0-.25,0-.38a1.61,1.61,0,0,0-.44-1.06,1.5,1.5,0,0,0-2.56,1.06Z"/><path class="cls-1" d="M207.46,196.28a1.5,1.5,0,0,0,0-3,1.5,1.5,0,0,0,0,3Z"/><path class="cls-1" d="M206.68,193a7.32,7.32,0,0,0-1.93-.93,11.09,11.09,0,0,0-2.06-.35l.4.06a2.88,2.88,0,0,1-.42-.11l.36.15-.18-.1.3.24a.52.52,0,0,1-.11-.1l-.3,2.36a2.7,2.7,0,0,1,.34-.17l-.35.15c.46-.19.93-.34,1.39-.56a2.77,2.77,0,0,0,1.25-1.17,1.45,1.45,0,0,0,.18-1,1.37,1.37,0,0,0-.41-.86,2,2,0,0,0-1.23-.52,1.84,1.84,0,0,0-.84.18c-.34.14-.66.33-1,.48l.36-.15a6.43,6.43,0,0,1-1.5.42l.4-.06-.26,0a1.66,1.66,0,0,0-1.06.44,1.5,1.5,0,0,0,1.06,2.56,8,8,0,0,0,1.75-.34c.56-.19,1.05-.48,1.58-.71l-.36.15a.73.73,0,0,1,.2,0l-.39,0h.06l-.4,0h.06l-.36-.15.06,0-.3-.23.05,0-.24-1.82a1.4,1.4,0,0,1-.1.16l.24-.31a2.06,2.06,0,0,1-.25.26l.3-.24a2.39,2.39,0,0,1-.54.3l.36-.15a12.65,12.65,0,0,0-1.57.65,1.51,1.51,0,0,0-.3,2.35,2.58,2.58,0,0,0,1.26.67c.4.08.8.09,1.2.14l-.4-.05a5.68,5.68,0,0,1,1.45.4l-.36-.16a6.56,6.56,0,0,1,1.1.61,1.49,1.49,0,0,0,1.15.15,1.52,1.52,0,0,0,.9-.69,1.54,1.54,0,0,0-.54-2Z"/><path class="cls-1" d="M2.46,192c3.14-1.54,6.77-.81,10,.12A91.38,91.38,0,0,1,22.85,196c6.27,2.7,12.2,6.79,18.9,8.34s13.14-.44,19.22-3.21c3.15-1.44,6.23-3.07,9.41-4.46A62.12,62.12,0,0,1,80,193.35a64.63,64.63,0,0,1,20.64-1.8,72.17,72.17,0,0,1,20.1,4.73c12.33,4.6,24.8,11.28,38.37,10.27,8.29-.61,16.07-4,24.13-5.79a101.66,101.66,0,0,1,25.09-2.3c1.93.06,1.93-2.94,0-3a104.74,104.74,0,0,0-22.63,1.75c-7.45,1.39-14.52,4.17-21.93,5.68-13.82,2.8-26.66-3.41-39.21-8.34A84.58,84.58,0,0,0,105,189a67.87,67.87,0,0,0-21.05.43,73.53,73.53,0,0,0-19.43,6.62c-6.06,2.95-12.49,6.37-19.44,5.78-3.91-.33-7.57-2-11-3.74s-7-3.56-10.59-5.08A81.44,81.44,0,0,0,12,188.93c-3.69-1-7.53-1.2-11,.52-1.73.86-.21,3.44,1.51,2.59Z"/></svg>
