<svg id="Layer_1" data-name="Layer 1" xmlns="http://www.w3.org/2000/svg" viewBox="0 0 180 170"><defs><style>.cls-1{fill:none;stroke:#000;stroke-miterlimit:10;stroke-width:5px;}.cls-2{fill:#fff;}.cls-3{fill:#f0e7f0;}</style></defs><path d="M52.18,148.89a204.44,204.44,0,0,0-49.2,15L7.08,168A277.3,277.3,0,0,0,25,117.84c.94-3.75-4.84-5.34-5.78-1.59A269.81,269.81,0,0,1,1.9,165,3,3,0,0,0,6,169.07a198.36,198.36,0,0,1,47.76-14.4,3,3,0,0,0,2.1-3.69,3.07,3.07,0,0,0-3.69-2.09Z"/><circle class="cls-1" cx="95.48" cy="83.57" r="80"/><path d="M68,34.57C60.19,36.19,54.18,42.86,52,50.35c-2.66,9,0,18.7,4.46,26.6a80.81,80.81,0,0,0,8.09,11.28c3,3.56,6,7,9.19,10.41a68.16,68.16,0,0,0,10.54,9.25,129.81,129.81,0,0,0,12.19,7.23c4.5,2.45,9.24,4.82,14.29,5.88a30.68,30.68,0,0,0,4.27.6,8,8,0,0,0,4-.36,3.33,3.33,0,0,0,1.56-4.64,3.4,3.4,0,0,0-4.52-1.12,2.93,2.93,0,0,0-1.48,2.59v.13a3,3,0,0,0,6,0v-.13L119,120.66l.12,0-1.52.41h.16l-1.51-.41.14.09-1.38-1.8,0,.15.3-2.31-.16.23,1.8-1.37s.55.09,0,0c-.22,0-.45,0-.67,0-.51,0-1,0-1.54-.07a21.81,21.81,0,0,1-2.67-.42,35.17,35.17,0,0,1-5.48-1.72,87.83,87.83,0,0,1-10.32-5.26,94.24,94.24,0,0,1-10.52-6.55,65.7,65.7,0,0,1-8.45-7.89c-5.27-5.66-10.61-11.53-14.7-18.12-3.86-6.2-6.72-13.77-5.46-21.19,1.14-6.71,5.73-12.7,12.45-14.08A3,3,0,1,0,68,34.57Z"/><path class="cls-2" d="M67,38.66a6.53,6.53,0,0,1,6.43-1.16c.15.06.31.14.34.29s-.22.29-.28.15"/><path d="M68.05,39.72l.16-.14c-.17.13-.18.15,0,.05a4,4,0,0,1,.34-.23,7.33,7.33,0,0,1,.73-.39l-.07,0,.19-.08.4-.13a7.13,7.13,0,0,1,.8-.18c.17,0,.14,0-.09,0l.21,0,.41,0a7.58,7.58,0,0,1,.83,0h-.09l.21,0,.4.09.4.12L73,39a1.06,1.06,0,0,1-.35-.18l-.39-.66,0-.26.2-.75.71-.55h.75l.66.38,0,0a1.5,1.5,0,0,0-2.12,0,1.54,1.54,0,0,0,0,2.12,1.66,1.66,0,0,0,2.6-.33,1.76,1.76,0,0,0-.75-2.43,6.63,6.63,0,0,0-3-.63,8.19,8.19,0,0,0-5.36,2,1.51,1.51,0,0,0,0,2.12,1.55,1.55,0,0,0,2.12,0Z"/><path d="M71.12,40.22c-.14.13.14-.08.13-.08.48-.17-.38,0,.12,0a1.85,1.85,0,0,1,.47,0c-.35,0,.62.18.78.25-.34-.15.66.43.38.23,1.32,1,1.81,2.83,2.26,4.32a49.08,49.08,0,0,0,2.35,6.4c.9,1.92,2.08,3.65,3.16,5.47.79,1.31,1.65,2.74.87,4.19-1,1.8-2.73,3.33-4,4.85-1.49,1.7-3.54,3.47-3.8,5.84-.3,2.64,1.69,4.76,3.1,6.78L86.46,92.1a3.07,3.07,0,0,0,4.1,1.07,3,3,0,0,0,1.08-4.1L82.36,75.82c-.72-1-1.44-2-2.14-3.06l-.46-.69c-.13.06,0,.3-.07.42.1-.1.53-.58.72-.8,1.68-1.92,3.43-3.81,5-5.79s2.76-4.21,2.48-6.84a16,16,0,0,0-2.87-6.76,29.59,29.59,0,0,1-3.06-6,60.91,60.91,0,0,0-2.39-6.8c-2.27-4.65-8.46-7.43-12.72-3.55a3,3,0,0,0,4.24,4.25Z"/><path class="cls-2" d="M111.94,101.26A41.37,41.37,0,0,0,119,92.84c.68-1.07,1.5-2.29,2.76-2.42a4,4,0,0,1,2.06.54l4.29,2a.4.4,0,0,0,0-.67"/><path d="M114.07,103.38a45.44,45.44,0,0,0,7.09-8.32l.65-1,.25-.39c.2-.28.29-.3,0,0l.31-.33c.46-.49-.31.18,0,0s-.65.13,0,0c-.05,0-.58.11-.59,0s.74.23.41.11.47.22.43.2l1.29.6,2.72,1.26a3.16,3.16,0,0,0,3.63-.47,3.42,3.42,0,0,0,0-4.92,3,3,0,0,0-4.24,0,3.07,3.07,0,0,0,0,4.25l.11.11-.77-1.33-.06-.48.41-1.51.28-.36,3.64-.47-3-1.4a19.07,19.07,0,0,0-3.27-1.38c-2.76-.68-4.9.84-6.43,3-.51.71-1,1.46-1.45,2.18-.29.42-.61.84-.91,1.26-.19.26.19-.24-.14.17-.14.19-.29.37-.44.56a42.59,42.59,0,0,1-4.19,4.41,3,3,0,0,0,0,4.24,3.08,3.08,0,0,0,4.25,0Z"/><path class="cls-2" d="M124.94,90.81l17.78,8.29a4.12,4.12,0,0,1,2,1.49,4,4,0,0,1,0,3q-.94,3.51-2.09,7a12,12,0,0,1-2,4,10.73,10.73,0,0,1-4,2.66,34,34,0,0,1-14,2.84,5.83,5.83,0,0,1-3.54-.89c-1.41-1.09-2.25-3.49-4-3.17"/><path d="M123.43,93.4l12.44,5.8a65.33,65.33,0,0,0,6,2.81l.25.1c-.31-.13.12-.94-.14-.07,0,0,.05-.38,0,.15a28.42,28.42,0,0,1-.86,3.13,46.12,46.12,0,0,1-1.92,6,6.17,6.17,0,0,1-3.45,3.09A29.79,29.79,0,0,1,124.23,117a16.33,16.33,0,0,1-2.65,0c-.78-.14-.81-.32-1.43-1.08-1.28-1.58-2.81-3.14-5.05-2.92a3.08,3.08,0,0,0-3,3,3,3,0,0,0,3,3c.89-.09-.54,0-.4-.26,0,0,.74.84.81.92a9.91,9.91,0,0,0,2.09,2.1c2,1.36,4.54,1.37,6.85,1.27a37.2,37.2,0,0,0,14.29-3.47,11.4,11.4,0,0,0,5.31-4.68,34.42,34.42,0,0,0,2.48-6.81c.69-2.32,1.89-5.12,1.31-7.57-.64-2.73-3.09-3.75-5.38-4.82l-16-7.46a3.07,3.07,0,0,0-4.1,1.07,3,3,0,0,0,1.08,4.11Z"/><path class="cls-2" d="M132.81,118.8a46.17,46.17,0,0,1-14.79-.38,13.82,13.82,0,0,1-4.31-1.41,5.36,5.36,0,0,0-1.66-.82,1.31,1.31,0,0,0-1.52.74,1.27,1.27,0,0,0,.12.91c.55,1.15,1.94,1.57,3.18,1.88l4.1,1a33.31,33.31,0,0,0,5,1,16.78,16.78,0,0,0,17.86-13"/><path d="M132.81,115.8a43.35,43.35,0,0,1-14.81-.44,9.67,9.67,0,0,1-2.77-1,7,7,0,0,0-3.49-1.24,4.15,4.15,0,0,0-3.68,6.18c1.18,2.23,3.62,2.93,5.89,3.49s4.82,1.28,7.28,1.64a19.74,19.74,0,0,0,22.46-15c.91-3.75-4.87-5.36-5.78-1.6a14,14,0,0,1-9.8,10.33,16,16,0,0,1-8-.09c-1.52-.36-3-.75-4.55-1.12a13.55,13.55,0,0,1-2.1-.57s-.41-.16-.39-.24.5.51.48.69l-.41,1.51a1.49,1.49,0,0,1-1.89.59l.33.18a6.2,6.2,0,0,0,1,.58,14.24,14.24,0,0,0,2.64,1,35.75,35.75,0,0,0,5.9,1,46.82,46.82,0,0,0,11.71-.09,3.08,3.08,0,0,0,3-3c0-1.45-1.38-3.21-3-3Z"/><path class="cls-2" d="M127.29,121l4.84-1.49a18.5,18.5,0,0,0,6-2.67,6.35,6.35,0,0,0,2.71-5.7"/><path d="M128.09,123.9c3.41-1.05,7.1-1.86,10.25-3.59s6-5.31,5.53-9.16A3.32,3.32,0,0,0,143,109a3.08,3.08,0,0,0-2.12-.88c-1.46.07-3.22,1.33-3,3,0,.32,0,.63,0,.95s.15-.62,0-.07c0,.13-.06.27-.1.41s-.26.64-.06.24-.1.19-.12.22c-.15.28-.33.55-.51.82s.47-.51,0,0l-.3.32a4.59,4.59,0,0,1-.39.37c-.06,0-.44.35-.12.11s-.17.11-.24.16l-.39.24c-.32.2-.66.37-1,.54l-.41.19c-.52.24.33-.11,0,0l-1,.36c-.65.22-1.3.42-2,.63l-4.85,1.49a3,3,0,1,0,1.6,5.78Z"/><path class="cls-2" d="M69.06,41.64a18.49,18.49,0,0,0,4.67,5.86A16.35,16.35,0,0,0,70.39,42a121.72,121.72,0,0,1,8.52,11.54c1.28,2,2.54,4.1,2.56,6.44.06,5.76-7,9.21-8.2,14.84-.38,1.78-.14,3.67-.63,5.43s-2.19,3.45-3.94,2.94a4.54,4.54,0,0,1-1.65-1.06A36.86,36.86,0,0,1,55.16,58.41"/><path d="M66.47,43.16a21.79,21.79,0,0,0,5.14,6.47,3.1,3.1,0,0,0,3.64.46,3,3,0,0,0,1.38-3.38,21.29,21.29,0,0,0-4.12-6.83,3,3,0,0,0-4.24,4.24c1.75,2.12,3.44,4.29,5,6.54a47.25,47.25,0,0,1,4.49,6.91,6.21,6.21,0,0,1,.67,2.57c0,.13-.06.79,0,.27a4,4,0,0,1-.12.58c0,.2-.11.39-.17.57-.27.85.24-.41-.15.39a19.77,19.77,0,0,1-3.16,4.38,24,24,0,0,0-3.62,5.2,11.82,11.82,0,0,0-1,3.17c-.22,1.42-.11,2.91-.4,4.31a2.46,2.46,0,0,1-.44,1.08c-.39.59-.31,0,0,.19S69.2,80,69.18,80c-.48-.46-1-.9-1.45-1.37a32.89,32.89,0,0,1-4.37-5.47,33.77,33.77,0,0,1-5.2-14.75,3.07,3.07,0,0,0-3-3,3,3,0,0,0-3,3A39.81,39.81,0,0,0,62.93,82.3c2.17,2.29,4.83,4.89,8.26,3.64,3.59-1.31,4.6-5,4.81-8.39a12.23,12.23,0,0,1,.2-2.09,7,7,0,0,1,.21-.75c.28-.92-.13.23.1-.29A16.2,16.2,0,0,1,78.2,71.7c3.14-4,7-7.75,6.11-13.33-.56-3.51-2.9-6.57-4.88-9.42-2.17-3.12-4.49-6.14-6.92-9.07l-4.24,4.24a13.44,13.44,0,0,1,2.57,4.18l5-2.92a17.12,17.12,0,0,1-4.21-5.25,3,3,0,1,0-5.18,3Z"/><path class="cls-2" d="M65.87,48.08a28.93,28.93,0,0,0,2.07,20.73,18.71,18.71,0,0,1-4-16.16l-1.45.26c1.28-.49,2.67.22,4,.39s3.14-.88,2.61-2.14c3.35,1.64,4.52,6,3.84,9.69s-2.76,6.9-4.38,10.26c-.82,1.7-1.54,3.7-.78,5.43a7.12,7.12,0,0,0,2.68,2.74l15.3,10.8"/><path d="M58.63,46.08a37.31,37.31,0,0,0,2.84,26.51l11.78-9.08c-.17-.2-.34-.4-.5-.61.76,1,.92,1.2.47.57-.21-.33-.43-.65-.64-1A22.35,22.35,0,0,1,71.36,60l.76,1.79a20.35,20.35,0,0,1-1.24-4.54l.27,2a20.16,20.16,0,0,1,0-5.09l-.27,2c.08-.52.17-1,.29-1.55a7.67,7.67,0,0,0-1.93-7.29c-2-2-4.6-2.42-7.3-1.93l-1.45.26,4,14.46.38-.11-2,.27a4.31,4.31,0,0,1,1.19,0l-2-.27a30.2,30.2,0,0,0,4.43.78,10.46,10.46,0,0,0,5.28-1.26,9,9,0,0,0,4.56-10.38l-11,8.47c.29.15.55.37.84.5-1.07-.87-1.33-1.06-.78-.56a3.51,3.51,0,0,1,.33.34c.5.4-1.06-1.76-.41-.49.17.33.37.65.53,1l-.76-1.79a10.68,10.68,0,0,1,.72,2.54l-.27-2a12.63,12.63,0,0,1,0,3l.27-2a18.62,18.62,0,0,1-1.23,4.33l.75-1.79C63.94,64,62,67,60.78,70.34A12.07,12.07,0,0,0,64.2,83.89c2.89,2.35,6.06,4.4,9.11,6.55L82,96.55a7.49,7.49,0,0,0,10.26-2.69C94.26,90,93,86,89.53,83.6l-9.26-6.54-4.43-3.12-1.2-.85a6,6,0,0,1-1-.75l.9.69c-.2-.17-.39-.35-.57-.53l.69.92a3.4,3.4,0,0,1-.38-.67L75,74.54a3.3,3.3,0,0,1-.25-.81l.27,2A6,6,0,0,1,75,74l-.27,2a11.22,11.22,0,0,1,.66-2.11l-.76,1.79c2.37-5.36,5.55-10.14,5.93-16.17.37-5.76-2.48-12.11-7.71-14.85a7.59,7.59,0,0,0-8.33.59,7.48,7.48,0,0,0-2.69,7.88l.08.27-.27-2v.26l.27-2a1.16,1.16,0,0,1-.14.48l.76-1.79a4.06,4.06,0,0,1,1.37-1.51c.63-.44.71-.54.25-.28L66,45.83a3.9,3.9,0,0,1-.89.24l2-.27a2,2,0,0,1-.6,0l2,.27c-2.75-.45-5.21-1.21-8-.39C56.71,46.78,54,51,55.23,54.9a7.59,7.59,0,0,0,3.45,4.49,8.42,8.42,0,0,0,5.78.75l1.45-.26-9.23-9.22a26.84,26.84,0,0,0,6,23.45,7.44,7.44,0,0,0,5.3,2.2,7.79,7.79,0,0,0,4.55-1.61A7.58,7.58,0,0,0,74.42,65c-.32-.63-.62-1.28-.9-1.93l.76,1.79a30,30,0,0,1-2-7.39l.26,2a30.6,30.6,0,0,1,0-7.65l-.27,2a32.43,32.43,0,0,1,.78-3.75c1-3.78-1.28-8.32-5.24-9.23a7.65,7.65,0,0,0-9.23,5.24Z"/><path class="cls-2" d="M74.47,77.16c5.68,6.45,11.4,12.94,18.1,18.33s14.48,9.71,23,11.15c.66.11,1.7-.31,1.32-.87"/><path d="M69.17,82.46c10.88,12.35,22.55,24.73,38.64,30a28.91,28.91,0,0,0,7.72,1.69,9.1,9.1,0,0,0,5-1.34c2.78-1.79,4.84-5.7,3.52-9a8.2,8.2,0,0,0-3.45-4.48A7.49,7.49,0,0,0,110.37,102c-.88,1.67-1.49,3.94-.76,5.78l.09.2v-4l0,.19.76-1.8-.12.17L113,99.85a1.26,1.26,0,0,1-.44.24l1.79-.76-.27.07,2-.27a1.63,1.63,0,0,1-.54,0l2,.27a43.54,43.54,0,0,1-9.27-2.76l1.79.76a55.1,55.1,0,0,1-8.55-4.63c-.71-.47-1.41-1-2.1-1.45l-1-.75c-.45-.34-1.34-1.3.17.14-1.24-1.19-2.7-2.21-4-3.36A181.93,181.93,0,0,1,79.77,71.85c-2.6-2.95-8-2.85-10.6,0a7.67,7.67,0,0,0,0,10.61Z"/><path class="cls-2" d="M82.32,90.85c9.62,7.61,19.66,15.42,31.59,18.27,3.21.76,6.86,1.08,9.58-.8s3.34-6.69.43-8.25l9.26,1.75c1,.19,2.24.57,2.45,1.59a2.5,2.5,0,0,1-.47,1.67,15,15,0,0,1-12.75,7.18"/><path d="M77,96.16c7.26,5.73,14.59,11.64,23,15.72,9.37,4.58,23.55,9.48,31.05-.77,4-5.52,2.65-14-3.31-17.52l-5.78,13.71,5.6,1.06a29.05,29.05,0,0,1,4.9,1l-1.8-.76c.48.25.4.16-.22-.27a4.42,4.42,0,0,1-1.35-1.47l-.76-1.79.09.29-.26-2,0,.43.26-2a2.34,2.34,0,0,1-.26.84l.75-1.79c-.19.35-.39.69-.61,1-.4.6-1.12,1.06.28-.32-.53.53-1,1.1-1.56,1.6l-.29.24c-.59.48-.38.32.64-.48a9.53,9.53,0,0,0-.94.62,16.22,16.22,0,0,1-2,1l1.8-.75a16.38,16.38,0,0,1-4,1.07l2-.27a16.44,16.44,0,0,1-1.86.11c-3.92,0-7.68,3.44-7.5,7.5a7.63,7.63,0,0,0,7.5,7.5,22.86,22.86,0,0,0,18.72-10.11,10,10,0,0,0,1.64-8.52A9.82,9.82,0,0,0,136,94.77c-1.51-.44-3.13-.63-4.68-.92l-5.36-1c-3.71-.71-7.32.72-8.84,4.34a7.5,7.5,0,0,0,3.06,9.36c.64.39.36.16-.82-.68.35.36.27.24-.23-.36-.89-1.17-.19-.19,0,.16l-.75-1.79a6.33,6.33,0,0,1,.27,1.06l-.27-2a6.74,6.74,0,0,1,0,1.42l.26-2a7.28,7.28,0,0,1-.47,1.7l.75-1.8c-.13.28-.28.52-.42.79-.54,1,1.24-1.46.45-.6s1.81-1,.51-.4c-.35.17-.68.37-1,.52l1.79-.75a10.17,10.17,0,0,1-2.25.57l2-.27a16,16,0,0,1-3.59-.06l2,.26a40.45,40.45,0,0,1-9.62-2.84l1.79.76a72.77,72.77,0,0,1-12.46-7c-2-1.33-3.87-2.73-5.76-4.16-.46-.34-.93-.68-1.37-1l.49.38-.68-.53-3-2.39a8.21,8.21,0,0,0-5.31-2.2,7.51,7.51,0,0,0-7.5,7.5c.09,1.85.68,4.1,2.2,5.31Z"/><path d="M103.76,118.17c2.75,3,6.63,4.36,10.57,4.9a138.2,138.2,0,0,0,14,.72c1.93.07,1.93-2.93,0-3-4.21-.15-8.48-.12-12.67-.56-3.6-.38-7.22-1.46-9.73-4.18-1.32-1.42-3.43.71-2.12,2.12Z"/><path d="M130.87,122.29a15.93,15.93,0,0,0,7.5-3,10.88,10.88,0,0,0,4.16-6.82,2.9,2.9,0,0,0,0-1.1"/><path d="M131.27,123.73a16.86,16.86,0,0,0,8.93-4.07,12.74,12.74,0,0,0,2.73-3.63,8.47,8.47,0,0,0,1-5.1,1.5,1.5,0,1,0-2.89.79,4.24,4.24,0,0,1-.32,1.72,6.79,6.79,0,0,1-.63,1.47,9.94,9.94,0,0,1-2.33,2.87,14.34,14.34,0,0,1-7.33,3.06,1.51,1.51,0,0,0-1.05,1.85,1.54,1.54,0,0,0,1.85,1Z"/><path d="M128.26,123.92a11.47,11.47,0,0,0,3.54-1l-2.2-1.69c.1-.22.11-.26,0-.11s-.06.1.08-.09l-.13.12c.19-.14.22-.16.09-.07s-.32.14-.33.18c.21-.09.24-.1.09,0l-.18.06-.41.1-.14,0a3.26,3.26,0,0,1-.88.05c-.15,0-.3,0-.44,0l-.22,0h.07a8.29,8.29,0,0,1-.86-.21l-.42-.14.05,0-.2-.09a6.59,6.59,0,0,1-.76-.45,1.5,1.5,0,1,0-1.51,2.59,7.9,7.9,0,0,0,4.62,1.31c1.74-.06,3.7-.61,4.33-2.43a1.47,1.47,0,0,0-.54-1.57,1.54,1.54,0,0,0-1.66-.12c-.37.16.29-.1-.09,0l-.28.1c-.21.07-.42.14-.64.19s-.39.1-.58.14l-.36.06c-.32.06.28,0-.08,0a1.66,1.66,0,0,0-1.06.44,1.56,1.56,0,0,0-.44,1.06c0,.74.67,1.59,1.5,1.5Z"/><path d="M130.22,120.8l-.08.07.3-.23a3.14,3.14,0,0,1-.64.37l.36-.15a2.8,2.8,0,0,1-.79.21l.4,0a3.09,3.09,0,0,1-.68,0,1.11,1.11,0,0,0-.57.13,1.21,1.21,0,0,0-.49.31,1.56,1.56,0,0,0-.44,1.06,1.54,1.54,0,0,0,.44,1.06l.31.24a1.5,1.5,0,0,0,.75.2,3.11,3.11,0,0,0,.61,0,6.35,6.35,0,0,0,1-.17,4.41,4.41,0,0,0,1.67-.93,1.11,1.11,0,0,0,.31-.49,1.06,1.06,0,0,0,.13-.58,1.5,1.5,0,0,0-1.5-1.5l-.4.06a1.57,1.57,0,0,0-.66.38Z"/><path class="cls-2" d="M96.26,112.17a26.93,26.93,0,0,0,13.09,7.31,8.87,8.87,0,0,1-4.53-.86c-6-2.36-12.18-5.33-16-10.56"/><path d="M95.2,113.23a28.91,28.91,0,0,0,13.75,7.7l.4-3c-2,.25-3.88-.69-5.67-1.42a54.38,54.38,0,0,1-5.07-2.37,25.5,25.5,0,0,1-8.51-6.88,1.54,1.54,0,0,0-2-.54,1.51,1.51,0,0,0-.54,2,28.74,28.74,0,0,0,9.59,8,58.49,58.49,0,0,0,5.63,2.6c2.09.87,4.3,1.89,6.62,1.6a1.52,1.52,0,0,0,1.47-1.3,1.48,1.48,0,0,0-1.07-1.64,25.88,25.88,0,0,1-12.43-6.93,1.5,1.5,0,0,0-2.12,2.12Z"/><path d="M106.53,120.15l1.67.8.76-2.79h-1.75a1.61,1.61,0,0,0-1.06.44,1.52,1.52,0,0,0-.44,1.06,1.54,1.54,0,0,0,.44,1.06l.3.24a1.57,1.57,0,0,0,.76.2h.08l-.4-.05a2.13,2.13,0,0,1,.51.14l-.36-.15a1.71,1.71,0,0,1,.27.14l1.52-2.59-1.19-.55-.75,2.8,1.71.12v-3a4.92,4.92,0,0,1-.86,0l.4,0a4.31,4.31,0,0,1-1-.25,1.22,1.22,0,0,0-.6,0,1.12,1.12,0,0,0-.55.18,1.52,1.52,0,0,0-.69.9,1.49,1.49,0,0,0,.15,1.15l.23.3a1.47,1.47,0,0,0,.67.39,4.26,4.26,0,0,0,.93.25,6.46,6.46,0,0,0,1.32.08,1.56,1.56,0,0,0,1.06-.44,1.5,1.5,0,0,0,.44-1.06,1.56,1.56,0,0,0-.44-1.06l-.3-.23a1.48,1.48,0,0,0-.76-.21l-1.71-.12-.4,0a1.14,1.14,0,0,0-.51.27.87.87,0,0,0-.27.27,1.14,1.14,0,0,0-.27.51,1.8,1.8,0,0,0,0,.8,1.26,1.26,0,0,0,.27.51,1.18,1.18,0,0,0,.42.38l1.18.55a1.12,1.12,0,0,0,.56.18,1,1,0,0,0,.6,0,1.51,1.51,0,0,0,.9-.69,1.54,1.54,0,0,0,.15-1.15,1.64,1.64,0,0,0-.69-.9,3.8,3.8,0,0,0-.77-.35,4.09,4.09,0,0,0-.85-.15v3H109l.4-.06a1.06,1.06,0,0,0,.51-.27.7.7,0,0,0,.27-.27,1.14,1.14,0,0,0,.27-.51,1.76,1.76,0,0,0,0-.79,1.14,1.14,0,0,0-.27-.51,1.21,1.21,0,0,0-.42-.39l-1.67-.8a1.16,1.16,0,0,0-.56-.18,1.22,1.22,0,0,0-.6,0,1.51,1.51,0,0,0-.9.69,1.54,1.54,0,0,0-.15,1.15,1.49,1.49,0,0,0,.69.9Z"/><path d="M93.32,112.08c.17.1.34.18.52.27s.59.25.89.36a1.11,1.11,0,0,0,.6,0,1,1,0,0,0,.55-.17,1.24,1.24,0,0,0,.43-.39,1.08,1.08,0,0,0,.26-.51l.06-.4a1.48,1.48,0,0,0-.21-.76l-.23-.3a1.59,1.59,0,0,0-.66-.39l-.39-.14.36.15c-.23-.1-.45-.21-.67-.33a1.12,1.12,0,0,0-.55-.18,1.22,1.22,0,0,0-.6,0,1,1,0,0,0-.51.27,1,1,0,0,0-.39.42l-.15.36a1.51,1.51,0,0,0,0,.79l.15.36a1.4,1.4,0,0,0,.54.54Z"/><path d="M92.16,109.2l-.21-.09.36.15a4.49,4.49,0,0,1-1.08-.63l.3.24a4.32,4.32,0,0,1-.39-.34,1.56,1.56,0,0,0-1.06-.44,1.27,1.27,0,0,0-.58.13,1.17,1.17,0,0,0-.48.31,1.52,1.52,0,0,0-.44,1.06,1.54,1.54,0,0,0,.44,1.06,4.32,4.32,0,0,0,.39.34,8.3,8.3,0,0,0,.7.51,6.91,6.91,0,0,0,1.26.59,1.19,1.19,0,0,0,.59,0,1.12,1.12,0,0,0,.56-.18,1.06,1.06,0,0,0,.42-.39,1,1,0,0,0,.27-.51l.06-.4a1.51,1.51,0,0,0-.21-.75l-.23-.31a1.54,1.54,0,0,0-.67-.38Z"/><path d="M92,109.28a3.29,3.29,0,0,1-.76-.21l.36.15a4.77,4.77,0,0,1-1.08-.65l.31.24c-.32-.25-.61-.51-.9-.78a1.56,1.56,0,0,0-1.06-.44,1.54,1.54,0,0,0-1.06.44,1.52,1.52,0,0,0-.44,1.06,1.54,1.54,0,0,0,.44,1.06,12,12,0,0,0,1.57,1.28,4.28,4.28,0,0,0,.7.38,4.14,4.14,0,0,0,1.13.36,1,1,0,0,0,.6,0,1.09,1.09,0,0,0,.55-.18,1.53,1.53,0,0,0,.69-.89,1.51,1.51,0,0,0-.15-1.16,1.42,1.42,0,0,0-.9-.69Z"/><path d="M90.8,112.13a1.5,1.5,0,0,0,0-3,1.5,1.5,0,0,0,0,3Z"/><path class="cls-3" d="M26.74,126.19a27.58,27.58,0,0,1,1.17-3.75H25a2.06,2.06,0,0,1-.19,1.48h2.59a2.81,2.81,0,0,1-.19-1.46l-2.94-.4-.21,4.36a1.51,1.51,0,0,0,2.56,1.06,6.76,6.76,0,0,0,1.12-1.58L25,125.15a6.16,6.16,0,0,1-.21,2.34c-.45,1.61,1.94,2.69,2.75,1.16l1.65-3.15-2.74-1.15-.53,2.5c-.34,1.58,1.93,2.74,2.74,1.15l.95-1.84-2.8-.76a3.08,3.08,0,0,1-.24,1.07l2.95.39-.36.5-2.26-1.3a11.52,11.52,0,0,1-.52,2.52c-.49,1.54,1.44,2.35,2.51,1.46l1.34-1.12-2.51-1.46-.27.89a1.52,1.52,0,0,0,2.2,1.7l.62-.42-2.2-1.7-.33,1.78a1.52,1.52,0,0,0,.87,1.77,1.5,1.5,0,0,0,1.87-.62,2.32,2.32,0,0,1,.59-.7l-2.5-1.46-.5,2.12a1.52,1.52,0,0,0,2.51,1.46,6,6,0,0,0,1.28-1.43L29,130.09v.72a1.51,1.51,0,0,0,2.95.4l0-.12-1.05,1,.13,0h-.8l.15,0-.66-.38.11.1-.39-.67,0,.2v-.8l0,0c-.61,1.28.67,2.88,2.05,2l.68-.41L30,130.94a1.86,1.86,0,0,1-.11,1,1.53,1.53,0,0,0,.69,1.7,1.56,1.56,0,0,0,1.82-.24l.59-.48-2.5-1.46-.47,2.27c-.28,1.34,1.46,2.7,2.51,1.46l.89-1.06-2.56-1.06a4.69,4.69,0,0,1-.13,1.79,1.5,1.5,0,0,0,.87,1.77A1.52,1.52,0,0,0,33.5,136l.88-1.14-2.74-1.16-.54,1.68c-.54,1.68,1.84,2.52,2.74,1.15q.63-.94,1.32-1.86l-2,.54.09.05L32.45,134v.12l.44-1.06-.09.08,1.45-.39-.17-.06.89.69c-.16-.22-.16-.07,0-.42l-3-.4a9.47,9.47,0,0,1-.24,3.27,1.51,1.51,0,0,0,2.5,1.46,8,8,0,0,0,1.7-2.15l-2.8-.76a5.78,5.78,0,0,1-.36,1.53c-.49,1.32,1.13,2.23,2.2,1.69l2-1-2.25-1.29a2.05,2.05,0,0,1-.39.94,1.52,1.52,0,0,0,2.06,2.06l.51-.35-2.21-1.69-.45,1.15a1.51,1.51,0,0,0,1.05,1.84,1.52,1.52,0,0,0,1.84-1.05l.46-1.14c.48-1.22-1.17-2.39-2.21-1.7l-.51.35,2,2a5.38,5.38,0,0,0,.8-2.46c.12-1.22-1.34-1.76-2.26-1.3l-2,1,2.2,1.7a8.47,8.47,0,0,0,.47-2.33c.12-1.5-2.1-2-2.79-.75a5.72,5.72,0,0,1-1.23,1.54l2.51,1.46a11.88,11.88,0,0,0,.35-4.07,1.5,1.5,0,0,0-2.94-.4,3,3,0,0,0,.74,3.16A1.66,1.66,0,0,0,35.45,134a1.49,1.49,0,0,0-.74-1.3l-.09-.05a1.54,1.54,0,0,0-2,.54q-.69.9-1.32,1.86L34,136.22l.53-1.68a1.49,1.49,0,0,0-.87-1.77,1.54,1.54,0,0,0-1.87.62l-.88,1.14,2.75,1.15a7.32,7.32,0,0,0,.23-2.59c-.12-1.16-1.64-2.15-2.56-1.06l-.9,1.06,2.51,1.46.47-2.27a1.51,1.51,0,0,0-2.51-1.46l-.59.48,2.5,1.46a3.77,3.77,0,0,0,.22-1.82,1.52,1.52,0,0,0-2.26-1.3l-.68.41,2.06,2a2,2,0,0,0-.54-2.73,1.76,1.76,0,0,0-2.53,1l3,.4v-.72a1.52,1.52,0,0,0-2.8-.76,3.5,3.5,0,0,1-.81.82l2.5,1.46.5-2.11A1.52,1.52,0,0,0,28.91,128a4.81,4.81,0,0,0-1.06,1.31l2.74,1.15.33-1.77c.22-1.17-1-2.49-2.2-1.69l-.62.42,2.2,1.69.27-.9c.47-1.54-1.43-2.35-2.5-1.45l-1.34,1.11,2.5,1.46a14.34,14.34,0,0,0,.63-3.31,1.51,1.51,0,0,0-2.26-1.29,2.43,2.43,0,0,0-1.12,2.09,1.5,1.5,0,0,0,2.94.4,5.12,5.12,0,0,0,.35-1.86,1.51,1.51,0,0,0-2.79-.76L26,126.49l2.74,1.15.54-2.5c.33-1.58-1.91-2.73-2.75-1.15l-1.65,3.14,2.74,1.16a8.76,8.76,0,0,0,.31-3.14,1.55,1.55,0,0,0-1.11-1.45,1.5,1.5,0,0,0-1.69.69,4.22,4.22,0,0,1-.65,1l2.56,1.06.21-4.36c.08-1.66-2.68-2.09-3-.4a6.39,6.39,0,0,0,.49,3.78,1.51,1.51,0,0,0,2.59,0,5.42,5.42,0,0,0,.5-3.79,1.53,1.53,0,0,0-1.45-1.1,1.58,1.58,0,0,0-1.45,1.1,27,27,0,0,0-1.16,3.74c-.44,1.88,2.45,2.68,2.89.8Z"/><path class="cls-3" d="M44.11,150a26.82,26.82,0,0,0,4.2-.15c1.31,0,2.62.06,3.93.09,2.62.07,5.34-.05,7.88.71,1.85.55,2.65-2.34.8-2.89a30.78,30.78,0,0,0-8.07-.8l-4-.1a13.73,13.73,0,0,0-2,.06,7.58,7.58,0,0,1-2,.18,1.57,1.57,0,0,0-1.85,1.05,1.53,1.53,0,0,0,1,1.85Z"/><path class="cls-3" d="M53.24,149.27A9,9,0,0,0,58,150.72a1.5,1.5,0,0,0,0-3,9.06,9.06,0,0,1-.91-.07l.4,0a7.66,7.66,0,0,1-1.89-.51l.36.15a7,7,0,0,1-1.24-.66,1.5,1.5,0,0,0-1.51,2.59Z"/><path class="cls-3" d="M26.43,112.58l-.5-3.15a1.51,1.51,0,0,0-.68-.9,1.52,1.52,0,0,0-1.16-.15,1.55,1.55,0,0,0-.9.69l-.15.36a1.55,1.55,0,0,0,0,.8l.49,3.15a1.52,1.52,0,0,0,.69.9,1.61,1.61,0,0,0,1.16.15,1.5,1.5,0,0,0,.89-.69l.16-.36a1.55,1.55,0,0,0,0-.8Z"/><path class="cls-3" d="M25.17,118.64a21.4,21.4,0,0,1-.48,11.17l2.89.8,1.31-5.9-2.75.35a11.3,11.3,0,0,1,.75,5.63l2.95-.4c-.47-2.28.23-4.6.92-6.76H27.87a16.4,16.4,0,0,1-.33,9.31c-.61,1.83,2.29,2.62,2.89.79a19.35,19.35,0,0,0,.33-10.9,1.51,1.51,0,0,0-2.89,0c-.87,2.73-1.51,5.51-.92,8.36a1.49,1.49,0,0,0,1.64,1.08,1.52,1.52,0,0,0,1.3-1.48,14.33,14.33,0,0,0-1.15-7.14c-.51-1.2-2.48-.82-2.75.36l-1.3,5.9a1.5,1.5,0,0,0,2.89.8,24.49,24.49,0,0,0,.48-12.77c-.43-1.88-3.32-1.08-2.89.8Z"/><path class="cls-3" d="M34.41,126.23l-.37-.4a1.5,1.5,0,0,0-2.35.3,24.64,24.64,0,0,0-2,9.07,1.51,1.51,0,0,0,2.79.75,28.55,28.55,0,0,1,2.9-4.09l-2.56-1.06A11.63,11.63,0,0,1,32,135a22.55,22.55,0,0,0-1.14,4.56,1.51,1.51,0,0,0,1.1,1.45,1.53,1.53,0,0,0,1.69-.69q1.77-2.76,3.73-5.39l-2.75-.36a2,2,0,0,1-.19,1.13c-.14.47-.3.93-.45,1.39L33,140a1.51,1.51,0,0,0,2.51,1.46l4.09-4.39-2.36-1.82-1.87,4.22a1.52,1.52,0,0,0,1.69,2.21l4.32-.88a1.5,1.5,0,0,0-.8-2.89l-4.31.87L38,141l1.87-4.23a1.51,1.51,0,0,0-.38-1.93,1.5,1.5,0,0,0-2,.12l-4.09,4.39,2.51,1.46L37,137.38a6.14,6.14,0,0,0,.48-3.6,1.52,1.52,0,0,0-2.74-.36q-2,2.63-3.73,5.39l2.8.75A21.24,21.24,0,0,1,35,135.37a13,13,0,0,0,.78-4.57c0-1.2-1.66-2.1-2.56-1.06a31.72,31.72,0,0,0-3.37,4.7l2.8.76a20.61,20.61,0,0,1,1.62-7.55l-2.36.3.37.41c1.3,1.43,3.42-.7,2.12-2.13Z"/><path class="cls-3" d="M43.08,148.08l4-.78a4,4,0,0,1,2.74,0l.76-2.79c-.39,0-.77-.42-1-.66-.56-.46-1.1-.94-1.64-1.42-1.06-.92-2.09-1.87-3.11-2.83-2-1.93-4-3.93-5.92-6-1.31-1.42-3.43.71-2.12,2.13q3.1,3.36,6.44,6.48c1.09,1,2.19,2,3.31,3s2.39,2.22,4.09,2.32c1.54.09,2-2.06.76-2.8a6.11,6.11,0,0,0-4.39-.45c-1.56.29-3.11.61-4.66.91a1.51,1.51,0,0,0-1,1.84,1.54,1.54,0,0,0,1.84,1.05Z"/><path class="cls-3" d="M36.09,137.52a20.34,20.34,0,0,0,8.83,7.54l.76-2.8a5.35,5.35,0,0,1-1,0c-.07,0-.46-.07-.09,0l-.48-.1a7.29,7.29,0,0,1-.83-.26c.35.13-.14-.07-.2-.1l-.38-.21-.36-.23-.2-.15c.14.11.15.11,0,0a5.86,5.86,0,0,1-.62-.6c-.05-.06-.11-.12-.16-.19.11.15.11.15,0,0l-.21-.31-.24-.43a1.47,1.47,0,0,1-.1-.22c.06.17.07.18,0,0a1.5,1.5,0,1,0-2.89.8,9.13,9.13,0,0,0,1.88,3.17,23.15,23.15,0,0,0,2.31,2.44l1.46-2.51a6.05,6.05,0,0,1-.95-.26c-.32-.1.12.08-.16-.06l-.5-.26c-.24-.15-.48-.3-.71-.47.22.16-.21-.18-.25-.21l-.31-.29a17,17,0,0,1-2.44-3.15,1.5,1.5,0,1,0-2.59,1.51c1.74,2.62,3.81,5.47,7.11,6.08a1.53,1.53,0,0,0,1.69-.69,1.51,1.51,0,0,0-.23-1.81,24.36,24.36,0,0,1-2.11-2.2,8.16,8.16,0,0,1-.75-1c-.14-.21-.26-.43-.38-.65,0-.07-.1-.2,0-.05,0-.13-.09-.28-.14-.42l-2.89.8a7.65,7.65,0,0,0,7.71,4.93,1.54,1.54,0,0,0,1.45-1.1,1.52,1.52,0,0,0-.69-1.69,19.19,19.19,0,0,1-2.38-1.24c-.37-.23-.74-.47-1.09-.72l-.28-.21c-.08-.05-.25-.18-.08-.05l-.53-.44A18,18,0,0,1,40.2,138l-.45-.52-.22-.26-.06-.08c-.28-.37-.54-.74-.79-1.13a1.5,1.5,0,1,0-2.59,1.52Z"/><path class="cls-3" d="M26,126.37a5.8,5.8,0,0,0,.63-2.61,1.51,1.51,0,0,0-2.95-.4L23.18,125l1.45-1.1h-.14l1.07.44-.1-.11.38.66a5.32,5.32,0,0,1,.24-1.37c.15-.6.34-1.2.51-1.8a13.21,13.21,0,0,0,.62-3.69c0-2.5-.91-4.91-.71-7.42a1.5,1.5,0,0,0-3,0c-.23,2.85,1.05,5.66.64,8.5-.28,1.94-3.06,7.48.49,7.8a1.52,1.52,0,0,0,1.45-1.1l.46-1.67-2.95-.4a2.39,2.39,0,0,1-.22,1.09,1.53,1.53,0,0,0,.53,2.05,1.52,1.52,0,0,0,2.06-.53Z"/></svg>
