<svg id="Layer_1" data-name="Layer 1" xmlns="http://www.w3.org/2000/svg" viewBox="0 0 240 170"><defs><style>.cls-1{fill:#ac93cf;}.cls-2{fill:#f0e7f0;}</style></defs><rect class="cls-1" x="3.75" y="33.9" width="232.5" height="131.41" rx="12"/><circle class="cls-2" cx="213.51" cy="55.38" r="10.74"/><rect class="cls-1" x="20.81" y="19.37" width="35.38" height="20.22" rx="6.48"/><path class="cls-1" d="M63.69,45.43A268.72,268.72,0,0,1,79.1,20.74c1.38-2,2.78-3.89,4.2-5.81a64.79,64.79,0,0,1,4.25-5.49c1.68-1.8,4-1.53,6.28-1.54l7.71,0,31.31-.13,7.7,0h3.73c1.09,0,2.46-.25,3.36.51a15.41,15.41,0,0,1,2.08,2.6l2.37,3.13L156.66,20q10.44,13.93,20.67,28c1.12,1.55,3.73.06,2.59-1.51q-9.51-13.11-19.2-26.08Q155.88,14,151,7.54a6.07,6.07,0,0,0-5.25-2.85c-2.72,0-5.44,0-8.15,0l-32.8.13-8,0c-2.53,0-5.25-.26-7.74.28-2.2.47-3.59,2-4.92,3.71Q81.77,12,79.48,15.09A267.68,267.68,0,0,0,61.1,43.91c-.94,1.69,1.65,3.21,2.59,1.52Z"/><path class="cls-1" d="M83.35,21.68l.21.74,1.21-9.25-17.2,23.7-1.21,2.86a9.08,9.08,0,0,0-.22,4.79,11.4,11.4,0,0,0,3.3,6.89,14.35,14.35,0,0,0,5.3,3.08c2.65.86,6.92.43,9.24-1.21a35,35,0,0,1,6.27-3.43l-2.86,1.21a67.09,67.09,0,0,1,12-3.43c4.5-.92,9-1.81,13.57-2.43l-3.19.43a68.53,68.53,0,0,1,17.87.09l-3.19-.43c5.52.75,11,1.78,16.46,2.87a81.7,81.7,0,0,1,15.51,4.48l-2.87-1.21,1.27.56,9.25-21.93a18.43,18.43,0,0,1-3.57-1l2.87,1.21a9.3,9.3,0,0,1-1.67-1l2.42,1.87a6.66,6.66,0,0,1-.87-.89l1.88,2.43a6.83,6.83,0,0,1-.49-.82l1.21,2.87a14,14,0,0,1-.46-1.56,21.72,21.72,0,0,0-1.46-3.7,18.7,18.7,0,0,0-3.27-4.41c-1.42-1.55-2.81-3.11-4.1-4.77l1.87,2.43a59.22,59.22,0,0,1-5.86-9.31,14.06,14.06,0,0,0-12.28-8.12,37.11,37.11,0,0,0-5.85.4,111.84,111.84,0,0,1-12,1.19c-1.9,0-3.77-.22-5.66-.38-2.89-.23-5.73.4-8.59.79l3.19-.42a11.8,11.8,0,0,1-2.59,0l3.19.43c-1.92-.28-3.79-.72-5.72-1a15.26,15.26,0,0,0-4.77,0,17.35,17.35,0,0,0-6,1.87c-2.58,1.17-4.8,4.55-5.52,7.17a12.3,12.3,0,0,0,1.21,9.25,12.13,12.13,0,0,0,7.18,5.51l3.19.43a11.92,11.92,0,0,0,6-1.64l.37-.16L105.22,30a7.58,7.58,0,0,1,1.14-.28l-3.19.43a9.38,9.38,0,0,1,1.59,0l-3.19-.43c2.53.35,4.94,1,7.52,1.22s5.21-.45,7.77-.81l-3.19.43a35.8,35.8,0,0,1,6.46.27,42.31,42.31,0,0,0,6.94-.21c2.24-.22,4.47-.55,6.7-.82a30.78,30.78,0,0,1,6.76-.47l-3.19-.43.36.12-2.87-1.21.27.18-2.43-1.88.22.23L131,23.88c.94,1.33,1.54,2.94,2.35,4.35s1.82,3,2.83,4.46C137.7,34.85,139.33,37,141,39c1.08,1.29,2.28,2.47,3.35,3.76l-1.87-2.43a6.4,6.4,0,0,1,.77,1.28l-1.21-2.87a29.55,29.55,0,0,0,2.14,5.68,18,18,0,0,0,5.7,5.78,22.08,22.08,0,0,0,4.91,2.26,18.42,18.42,0,0,0,2.94.77c3.07.59,6.5.56,9.25-1.21a12.54,12.54,0,0,0,4.91-5.74,11.54,11.54,0,0,0,.6-7.81c-.9-2.8-2.72-5.91-5.51-7.17a88.39,88.39,0,0,0-18.74-6.06c-5.75-1.19-11.55-2.27-17.37-3.06a77.55,77.55,0,0,0-20.58-.58c-6.56.82-13.09,2-19.54,3.41s-13.33,3.68-18.89,7.58L88.29,49l9.33-12.85,4.67-6.43,2.33-3.21a12.44,12.44,0,0,0,1.87-11.19A12.51,12.51,0,0,0,101,8.13a12.31,12.31,0,0,0-9.25-1.21,12.12,12.12,0,0,0-7.17,5.52,12.32,12.32,0,0,0-1.21,9.24Z"/><circle class="cls-2" cx="118.74" cy="92.03" r="59.39"/><circle class="cls-1" cx="119.37" cy="91.4" r="38.54"/></svg>
