<svg id="Layer_1" data-name="Layer 1" xmlns="http://www.w3.org/2000/svg" viewBox="0 0 120.38 213.46"><defs><style>.cls-1{fill:#ac93cf;}</style></defs><path class="cls-1" d="M21.2,6.61Q50.8,6,80.4,6q8.37,0,16.73.08c3.87,0,3.87-6,0-6Q67.54-.15,37.94.3,29.57.44,21.2.61c-3.85.08-3.86,6.08,0,6Z"/><path class="cls-1" d="M18.62,2.53C14.49,12.29,10.19,22,6.24,31.85c-3.79,9.46-5,19.5-5.94,29.59C-.15,66.28-.26,71.3,1.17,76s4.19,8.45,7.16,12.13a106.11,106.11,0,0,0,44.85,32.28,3,3,0,0,0,3.69-2.1,3.07,3.07,0,0,0-2.1-3.69,100,100,0,0,1-39.7-27.76,47.55,47.55,0,0,1-7.14-9.94C6,73,5.84,68.5,6.09,64.19c.26-4.53.8-9.09,1.44-13.57a71.64,71.64,0,0,1,3.3-14c1.84-5.15,4.13-10.15,6.26-15.18L23.8,5.56a3.11,3.11,0,0,0-1.08-4.11C21.46.72,19.25,1,18.62,2.53Z"/><path class="cls-1" d="M94.26,4.73a172.67,172.67,0,0,1,19.37,52.51,36.43,36.43,0,0,1,.79,7.21,23.2,23.2,0,0,1-1.19,6.81A80.84,80.84,0,0,1,107.94,84c-4.1,7.91-10.9,14.34-18.24,19.28a56.23,56.23,0,0,1-13,6.43c-4.66,1.63-9.3,3.28-13,6.63a3,3,0,1,0,4.24,4.24c3-2.7,7-3.9,10.78-5.21a61.71,61.71,0,0,0,12.62-6c8-5,15.71-11.84,20.55-20a90,90,0,0,0,6.12-13.49,31.87,31.87,0,0,0,2.27-15.13,111.23,111.23,0,0,0-3-15q-1.8-7.06-4.18-14A180.89,180.89,0,0,0,99.44,1.7c-1.9-3.36-7.09-.34-5.18,3Z"/><path class="cls-1" d="M50.85,118q-1,14.91-1.21,29.86c-.13,9.8.17,19.56.38,29.35.07,3.55.07,7.45-2,10.43-1.9,2.74-5.54,3.84-8.62,4.27-4.69.66-9.47.22-14.12,1.31-3.85.9-7.76,3.25-9,7.21-1.64,5.18,2.32,10,7,11.68a18.08,18.08,0,0,0,7.31.74c1.34-.1,2.66-.28,4-.44.62-.07,1.25-.14,1.88-.19.3,0,.63,0,.94-.05,1-.15,0,.2-.52-.82l-.41-1.52V210l.87-2.12-.15.16c-2.74,2.73,1.5,7,4.24,4.24,2.25-2.25.47-5.47-2.28-6-2.4-.51-5.22.28-7.62.52a16,16,0,0,1-6.05-.25,5.06,5.06,0,0,1-3.32-2.61,2.48,2.48,0,0,1,.76-3.05,8.66,8.66,0,0,1,4-1.86c4.53-1.06,9.3-.59,13.9-1.28,4-.59,8.08-2.1,10.88-5.1,3-3.23,4.09-7.53,4.33-11.84.24-4.48-.16-9-.26-13.49q-.16-7.59-.12-15.19Q55.69,135,56.85,118a3,3,0,0,0-6,0Z"/><path class="cls-1" d="M17.86,200c-1,2.31-1.67,5-.76,7.42a5.89,5.89,0,0,0,5.9,4,1.5,1.5,0,0,0,0-3,4.85,4.85,0,0,1-.66,0c-.16,0,.17.05-.1,0l-.29-.06-.35-.11c-.24-.08.29.15-.11,0a3.25,3.25,0,0,1-.57-.33c-.21-.14.22.22-.1-.08l-.21-.2-.17-.18c.07.09-.09-.12-.1-.15a4,4,0,0,1-.33-.57c.11.21,0-.08,0-.12s-.08-.24-.12-.36-.1-.43-.14-.65,0,.2,0,0l0-.37c0-.23,0-.46,0-.68a4.61,4.61,0,0,1,.06-.54,16.21,16.21,0,0,1,1-3.12,1.5,1.5,0,0,0-1.05-1.84A1.54,1.54,0,0,0,17.86,200Z"/><path class="cls-1" d="M63.41,116.69c-2,2.89-1.93,6.49-1.71,9.85q.38,5.8.76,11.61L64,161.61c.51,7.71.78,15.47,1.74,23.14.46,3.7.67,7.79,4.34,9.77,3.24,1.75,7.39,2.28,11,2.73s7.57.07,11.17,1.06a6.78,6.78,0,0,1,3.58,2.15,3.35,3.35,0,0,1,.87,3c-1,3.74,4.83,5.33,5.79,1.59a9.68,9.68,0,0,0-2.93-9.33c-2.61-2.5-6-3.42-9.5-3.8s-6.87-.25-10.28-.84a47.28,47.28,0,0,1-5.27-1.2c-1.19-.35-1.94-.47-2.22-1.67a69.12,69.12,0,0,1-1.23-10.75c-.28-3.86-.52-7.73-.77-11.6l-1.52-23L67.93,130c-.13-2-.32-4-.36-5.92a6.86,6.86,0,0,1,1-4.36,3,3,0,0,0-5.18-3Z"/><path class="cls-1" d="M97.73,201.06c.18.2.37.4.55.61l.1.12-.08-.1a1.56,1.56,0,0,1,.23.34c.08.12.14.24.21.36s-.08-.29,0,0c0,.13.08.26.11.4a1.77,1.77,0,0,1,0,.2c0-.21,0-.25,0-.14a7,7,0,0,1,0,.79l0,.32c0,.17,0,.14,0-.08l0,.22a14.45,14.45,0,0,1-.4,1.57,1.53,1.53,0,0,0,1,1.85,1.54,1.54,0,0,0,1.85-1.05,9.58,9.58,0,0,0,.49-4,6.73,6.73,0,0,0-2-3.6,1.52,1.52,0,0,0-2.12,0,1.54,1.54,0,0,0,0,2.13Z"/><path class="cls-1" d="M16.42,72.6c-.85,7.69,5.68,14.15,10.51,19.27,5.1,5.41,11,10.18,18.58,11.42a112,112,0,0,0,12.55.93,69,69,0,0,0,13-.22c7.81-1.09,14.3-5.29,19.84-10.73a100.81,100.81,0,0,0,8.65-9.71,34.72,34.72,0,0,0,6.34-11.43,1.52,1.52,0,0,0-1.45-1.9c-5.68,0-11.11,1.86-16.69,2.7a109.17,109.17,0,0,1-17.43.85c-5.83-.08-11.66-.32-17.49-.17-5.56.16-11.09.75-16.64,1C30,74.8,23.75,74.5,17.85,72.4c-1.82-.65-2.61,2.25-.8,2.89,10.61,3.78,22,2,33,1.43,11.75-.58,23.55.8,35.27-.48a86.76,86.76,0,0,0,9.34-1.6,45.36,45.36,0,0,1,9.82-1.41L103,71.33C101,78.21,95.73,83.86,90.91,89s-10.34,9.76-17.27,11.49a43.16,43.16,0,0,1-11.84.92c-4-.12-7.95-.32-11.91-.6a26.25,26.25,0,0,1-10.45-2.61A35,35,0,0,1,31.28,92a86.72,86.72,0,0,1-7.73-8.53C21.09,80.36,19,76.73,19.42,72.6c.21-1.92-2.79-1.9-3,0Z"/><rect class="cls-1" x="15.95" y="70.23" width="87" height="5" rx="2.5"/><path class="cls-1" d="M101.23,73.2a2.57,2.57,0,0,1,.4-.08l-.4,0a5.87,5.87,0,0,1,1.39,0l-.4,0c.25,0,.49.1.75.12a2.11,2.11,0,0,0,.35,0A1.88,1.88,0,0,0,104,73a1.59,1.59,0,0,0,.69-.9,1.53,1.53,0,0,0-.15-1.15,1.51,1.51,0,0,0-.9-.69,1.56,1.56,0,0,0-1.16.15l-.06,0,.36-.15-.07,0,.4-.06H103l.4,0c-.3,0-.59-.11-.89-.13h-.56a5,5,0,0,0-1.49.17,1.53,1.53,0,0,0-.89.69,1.49,1.49,0,0,0-.15,1.15,1.51,1.51,0,0,0,.69.9,1.54,1.54,0,0,0,1.15.15Z"/><path class="cls-1" d="M21.58,83.52c1.19,1.09,2.37,2.19,3.57,3.27a12.57,12.57,0,0,0,7.74,3.62c3.56.27,6.75-1.61,10.19-2.13l-2,.27c4-.53,8.09-.27,12.13-.65,4.24-.4,8.44-1.08,12.68-1.48s8.4-.66,12.6-.89l6.24-.35a33,33,0,0,1,5.79-.11l-2-.27a5.88,5.88,0,0,1,.81.18c3.8,1,8.32-1.25,9.23-5.24a7.64,7.64,0,0,0-5.24-9.23c-2.87-.74-5.69-.49-8.6-.33l-7.21.4c-5,.29-10,.62-15,1.19s-10,1.33-15,1.42a62.12,62.12,0,0,0-8.4.63c-2.41.37-4.57,1.45-6.94,1.86l2-.27a5.9,5.9,0,0,1-1.26,0l2,.27a2.9,2.9,0,0,1-.81-.24l1.79.76c-.67-.38-.5-.2.5.52-.2-.17-.41-.35-.61-.54l-1.07-1-2.49-2.29c-2.9-2.65-7.79-3.07-10.61,0-2.65,2.89-3.09,7.78,0,10.61Z"/><path class="cls-1" d="M89.93,72.3q-4.12,4.53-8.53,8.78a5.54,5.54,0,0,0-1.55,2.42,6.73,6.73,0,0,0,0,5.77,5.54,5.54,0,0,0,1.55,2.42,7.59,7.59,0,0,0,5.3,2.2,7.92,7.92,0,0,0,5.3-2.2q4.41-4.25,8.54-8.79a7.88,7.88,0,0,0,2.2-5.3,5.76,5.76,0,0,0-.65-2.89,5.6,5.6,0,0,0-1.55-2.41,7.5,7.5,0,0,0-10.61,0Z"/><path class="cls-1" d="M77.27,82.4l-.14.34L77.89,81a12.75,12.75,0,0,1-.66,1.27c-.12.2-.25.4-.39.59-.44.62-.27.39.53-.67-.7.61-1.37,1.34-2.05,2,1.7-1.61.62-.49,0-.11-.41.26-.84.51-1.27.75-.87.48-1.76.9-2.67,1.29l1.79-.75a59.28,59.28,0,0,1-14.65,3.79l2-.27L58.7,89a8.12,8.12,0,0,0-5.3,2.19,7.67,7.67,0,0,0-2.2,5.31c.17,3.71,3.33,7.94,7.5,7.5a66.77,66.77,0,0,0,18.5-4.28,34.08,34.08,0,0,0,8.73-5,20.22,20.22,0,0,0,5.81-8.34c.69-1.67.11-4.3-.76-5.78a7.51,7.51,0,0,0-10.26-2.69,8.85,8.85,0,0,0-3.45,4.48Z"/><path class="cls-1" d="M34.2,94.12a10.41,10.41,0,0,1,1.34.42l-1.79-.75a52.13,52.13,0,0,1,5.27,3,15.58,15.58,0,0,0,10.67,2c3-.52,5.87-2.29,8.6-3.65,2.51-1.26,5-2.6,7.56-3.75l-1.79.75a10.89,10.89,0,0,1,2.44-.73l-2,.27a8.82,8.82,0,0,1,1.78,0l-2-.26a8.49,8.49,0,0,1,1.7.5c1.68.68,4.3.11,5.78-.76A7.49,7.49,0,0,0,74.46,80.9,8.85,8.85,0,0,0,70,77.45c-4.81-2-9.59-.12-13.91,2-3.27,1.63-6.51,3.4-9.85,4.89L48,83.63a10,10,0,0,1-2.53.72l2-.27a7.21,7.21,0,0,1-1.47,0l2,.27a9.57,9.57,0,0,1-2-.57l1.8.75c-3.33-1.5-6-4-9.65-4.85S29.88,80.87,29,84.89s1.17,8.23,5.24,9.23Z"/><path class="cls-1" d="M29.56,91.81c4.22,3.66,8.53,6.88,13.71,9a23.22,23.22,0,0,0,16.29.71A8,8,0,0,0,64,98.08a7.64,7.64,0,0,0,.76-5.78c-1.17-3.62-5.28-6.67-9.23-5.24a15.09,15.09,0,0,1-3,.75l2-.27a17.27,17.27,0,0,1-4.31-.05l2,.27a21.87,21.87,0,0,1-5-1.41l1.79.76a33.94,33.94,0,0,1-7-4.3L43.52,84c-1.15-.89-2.26-1.82-3.35-2.77A8,8,0,0,0,34.86,79a7.63,7.63,0,0,0-5.3,2.2c-2.59,2.82-3.16,7.86,0,10.6Z"/><rect class="cls-1" x="22.45" y="206.73" width="78" height="6" rx="2"/><path class="cls-1" d="M99.62,212.35a3.63,3.63,0,0,0,1.66-1.8c.32-.75.63-1.52.88-2.31a7.31,7.31,0,0,0,.1-4.71,1.53,1.53,0,0,0-1.85-1,1.51,1.51,0,0,0-1,1.84,2.29,2.29,0,0,1,.23.84c0-.19,0-.2,0,0s0,.17,0,.25v.38a4.21,4.21,0,0,1,0,.5c.08-.35,0,0,0,.1-.06.32-.14.64-.23.95-.18.59-.41,1.16-.63,1.73l-.07.17c.07-.17.07-.17,0,0l-.21.38c-.06.09,0,.07.06-.07a1.29,1.29,0,0,1-.17.16c.15-.11.16-.12,0,0l-.2.11a1.51,1.51,0,0,0-.54,2.05,1.53,1.53,0,0,0,2.05.54Z"/><path class="cls-1" d="M94.58,209.73c.85-.62,1.75-1.21,2.54-1.91a6.55,6.55,0,0,0,1.72-2.55,10.05,10.05,0,0,0,.61-2.71,3.63,3.63,0,0,0-.75-3,1.51,1.51,0,0,0-2.12,0,1.53,1.53,0,0,0,0,2.12c-.07-.08-.12-.2,0,0,0-.1-.07-.24,0-.06.07.34,0-.21,0,0s0,.15,0,.22,0,.31,0,.46,0,.21,0,.31,0,.11,0,0c-.06.35-.12.7-.21,1.05,0,.16-.09.32-.15.48s-.06.15-.08.23.15-.31,0,0a7.32,7.32,0,0,1-.49.86c.11-.17.06-.07,0,0a1.54,1.54,0,0,1-.17.19l-.4.37s-.29.23-.07.07l-.22.16-.47.34-1.08.78a1.55,1.55,0,0,0-.54,2.06,1.53,1.53,0,0,0,2.06.53Z"/><path class="cls-1" d="M99.51,202.88c0,.17.06.35.08.52l0-.4a7.72,7.72,0,0,1,0,1.86l.05-.39a1.11,1.11,0,0,1-.08.3l.16-.36-.09.16.23-.31-.07.08.3-.24-.08.06.36-.15-.11,0a1.49,1.49,0,0,0-.89.69,1.52,1.52,0,0,0-.15,1.16,1.47,1.47,0,0,0,.69.89l.35.15a1.36,1.36,0,0,0,.8,0,1.4,1.4,0,0,0,.48-.18,2.12,2.12,0,0,0,.38-.29,1.93,1.93,0,0,0,.46-.71,3.57,3.57,0,0,0,.24-1.3,9.74,9.74,0,0,0-.2-2.35,1.5,1.5,0,0,0-1.85-1.05,1.5,1.5,0,0,0-.89.69,1.64,1.64,0,0,0-.15,1.15Z"/><path class="cls-1" d="M16.59,200.85a9.56,9.56,0,0,0,10,11.75l-.4-2.94c-3.29,1.33-7.21-.7-8.54-3.91s1.51-7,4.06-8.91c2.86-2.11,6.54-2.62,10-2.68,4.32-.07,8.6.42,12.9-.19,1.91-.26,1.1-3.15-.8-2.89-7.36,1-15.14-1.38-22.07,2.22A15.47,15.47,0,0,0,14.87,201a8.33,8.33,0,0,0,1.85,8.73c2.47,2.78,6.74,4.28,10.29,2.84,1.42-.58,1.44-3.1-.4-3a6.54,6.54,0,0,1-7.12-7.95c.42-1.88-2.47-2.69-2.9-.8Z"/><path class="cls-1" d="M21.78,211.43a29.28,29.28,0,0,0,11,1.83c3.82-.11,7.59-.9,11.42-.57v-3l-11.65.51c-1.8.08-3.6.19-5.4.22a7.3,7.3,0,0,1-4.35-1c-1.61-1.08-3.11,1.52-1.51,2.59,3,2,7,1.35,10.38,1.21l12.53-.55a1.5,1.5,0,0,0,0-3c-3.69-.32-7.32.41-11,.56a27.21,27.21,0,0,1-10.64-1.71c-1.81-.67-2.59,2.23-.79,2.89Z"/><path class="cls-1" d="M35.41,212.32l5.44.37a1.49,1.49,0,0,0,1.5-1.5,1.54,1.54,0,0,0-1.5-1.5l-5.44-.37a1.52,1.52,0,0,0-1.5,1.5,1.54,1.54,0,0,0,1.5,1.5Z"/><path class="cls-1" d="M38.69,209.15a14.17,14.17,0,0,1,4.64-.2c1.63.1,3.25.22,4.87.37,3.3.29,6.6.69,9.87,1.18a1.55,1.55,0,0,0,1.85-1.05,1.51,1.51,0,0,0-1.05-1.84c-3.54-.53-7.1-1-10.67-1.29-3.33-.3-7-.94-10.31-.07a1.51,1.51,0,0,0,.8,2.9Z"/><path class="cls-1" d="M19.74,70.86a13,13,0,0,1-5,.64v3a11,11,0,0,0,5.33-1.33,1.52,1.52,0,0,0-.36-2.74,9.67,9.67,0,0,0-7.54.7,1.53,1.53,0,0,0-.54,2.05,51.84,51.84,0,0,0,10.8,15.51,52.59,52.59,0,0,0,7.24,6c1.26.87,2.57,1.68,3.91,2.43.67.38,1.34.74,2,1.08l1.21.59.52.24q.85.53-.09-1.11l1.29-.75-.22,0c-1.91.19-1.93,3.19,0,3a1.89,1.89,0,0,0,1-3.48,41,41,0,0,0-4.22-2.18,48.79,48.79,0,0,1-8.58-6.11A49.85,49.85,0,0,1,14.23,71.66l-.54,2.06a6.62,6.62,0,0,1,5.23-.4l-.36-2.74a7.78,7.78,0,0,1-3.81.92c-1.94,0-1.91,2.89,0,3a15.3,15.3,0,0,0,5.78-.75c1.83-.6,1-3.5-.79-2.89Z"/><path class="cls-1" d="M15.17,75.56a7.58,7.58,0,0,0,.77,1.32,9.28,9.28,0,0,0,1.24,1.41,1.56,1.56,0,0,0,1.06.44,1.5,1.5,0,0,0,1.5-1.5,1.58,1.58,0,0,0-.44-1.06l-1.76-1.76A1.56,1.56,0,0,0,16.48,74a1.54,1.54,0,0,0-1.06.44A1.52,1.52,0,0,0,15,75.47a1.54,1.54,0,0,0,.44,1.06l1.76,1.76,2.12-2.12a7,7,0,0,1-.9-1l.24.31A7,7,0,0,1,17.76,74a1.52,1.52,0,0,0-.9-.69A1.5,1.5,0,0,0,15,74.4l0,.4a1.48,1.48,0,0,0,.21.76Z"/><path class="cls-1" d="M18.82,85.64a121,121,0,0,0,10,9.2,108.23,108.23,0,0,0,12.1,8.87,31.6,31.6,0,0,0,26.44,3.39,31.11,31.11,0,0,0,13-8.07c2.69-2.86,3-7.81,0-10.61s-7.74-3-10.61,0A20.11,20.11,0,0,1,68,90.06c-.49.43-1.69,1.07.26-.15-.31.19-.59.42-.89.63a25.22,25.22,0,0,1-4.13,2.22l1.8-.76a25.94,25.94,0,0,1-6.28,1.69l2-.27a25.1,25.1,0,0,1-6.48,0l2,.27a24,24,0,0,1-5.64-1.58l1.8.75A40.38,40.38,0,0,1,45.86,89c-1-.72-2.1-1.47-3.13-2.23l-1.45-1.08c-.78-.58,1.2.94.44.34l-.89-.7A121.38,121.38,0,0,1,29.43,75,7.5,7.5,0,0,0,18.82,85.64Z"/><path class="cls-1" d="M70,105.9c.16-.09.32-.16.49-.24l-1.79.76c1.44-.6,3-.9,4.45-1.41a30.4,30.4,0,0,0,5.62-2.58,56.28,56.28,0,0,0,8.5-6.58A7.51,7.51,0,0,0,81.94,83a8.17,8.17,0,0,0-5.3,2.2c-1.27,1.13-2.56,2.25-3.9,3.29l1.51-1.17a27.37,27.37,0,0,1-5.67,3.45l1.79-.75a26.26,26.26,0,0,1-3.21,1.07,28.79,28.79,0,0,0-4.76,1.81,7.5,7.5,0,0,0,1.79,13.71A8.42,8.42,0,0,0,70,105.9Z"/><path class="cls-1" d="M10.91,72.46a30.78,30.78,0,0,0,9.83,14.47,1.54,1.54,0,0,0,2.12,0,1.51,1.51,0,0,0,0-2.12A27.94,27.94,0,0,1,13.8,71.66c-.59-1.83-3.48-1-2.89.8Z"/><path class="cls-1" d="M12.83,73.39l7.54-.16c1.16,0,2.33-.07,3.49-.07a2.89,2.89,0,0,1,2.15.55c1.36,1.38,3.48-.74,2.13-2.12-1.8-1.83-4.61-1.42-6.93-1.38l-8.38.18c-1.93,0-1.93,3,0,3Z"/><path class="cls-1" d="M103.68,72.93l4.95.22-1.3-2.26a73.9,73.9,0,0,1-24.83,24A1.5,1.5,0,0,0,84,97.44a77.21,77.21,0,0,0,25.92-25,1.51,1.51,0,0,0-1.3-2.25l-4.95-.22c-1.93-.08-1.93,2.92,0,3Z"/><path class="cls-1" d="M104.36,72.53a4.4,4.4,0,0,1-.26.39l.23-.31a3.54,3.54,0,0,1-.67.67l.3-.23-.23.17a1.18,1.18,0,0,0-.42.38,1.26,1.26,0,0,0-.27.51,1.22,1.22,0,0,0,0,.6,1.12,1.12,0,0,0,.18.56l.24.3a1.39,1.39,0,0,0,.66.39l.4.05a1.5,1.5,0,0,0,.75-.2,6.35,6.35,0,0,0,.64-.49,3,3,0,0,0,.32-.29,5.9,5.9,0,0,0,.5-.62A3,3,0,0,0,107,74a1.12,1.12,0,0,0,.18-.55,1,1,0,0,0,0-.6,1,1,0,0,0-.26-.51,1.08,1.08,0,0,0-.43-.39l-.35-.15a1.55,1.55,0,0,0-.8,0l-.36.15a1.55,1.55,0,0,0-.54.54Z"/><path class="cls-1" d="M62.66,109a6,6,0,1,0-6-6,6.07,6.07,0,0,0,6,6Z"/><path class="cls-1" d="M64.48,108.94A25.6,25.6,0,0,0,72,106.46a6.66,6.66,0,0,0,2.75-3.58,4.53,4.53,0,0,0,.11-2.39,4.42,4.42,0,0,0-.71-2.24,6.07,6.07,0,0,0-3.59-2.75L69,95.28a6.09,6.09,0,0,0-3,.82c-.34.17-.68.32-1,.47L66.37,96a20.4,20.4,0,0,1-5.08,1.41,4.47,4.47,0,0,0-2,1.07,4.67,4.67,0,0,0-1.55,1.69,4.45,4.45,0,0,0-.71,2.23,4.53,4.53,0,0,0,.11,2.39l.6,1.43a6.12,6.12,0,0,0,2.16,2.16l1.43.6a6,6,0,0,0,3.19,0Z"/><path class="cls-1" d="M54,108.12c8.21,2.21,16.72.5,24.22-3.2,7-3.42,12.84-8.75,18.48-14A37,37,0,0,0,101,86.46a15.27,15.27,0,0,0,3.09-7.78,6,6,0,0,0-1.76-4.24,6.12,6.12,0,0,0-4.24-1.76,6.05,6.05,0,0,0-4.24,1.76,7.1,7.1,0,0,0-1.76,4.24c.15-1,.15-1.11,0-.47s-.13.49.22-.37A7.87,7.87,0,0,0,91.65,79c-.81,1.26.7-.68-.11.19-.36.38-.71.78-1.08,1.16-1.39,1.4-2.87,2.71-4.33,4s-3.06,2.74-4.64,4c-.45.38-.91.74-1.37,1.11-1.17.94,1-.76-.17.13-.88.65-1.77,1.3-2.68,1.91a44.3,44.3,0,0,1-5.47,3.15,6.16,6.16,0,0,0-1.19.54c.77-.32.85-.35.24-.11l-.82.31c-1,.35-1.91.65-2.89.91s-2,.45-3,.63l.32,0-.86.09c-.42,0-.85.05-1.28.06-1,0-2,0-3-.09-.67-.08-.56-.06.33,0L58.88,97c-.56-.11-1.12-.25-1.67-.4-3-.81-6.66,1-7.38,4.19A6.11,6.11,0,0,0,54,108.12Z"/><path class="cls-1" d="M106.69,72.3c-.09,2.06-1.58,3.82-2.77,5.39-1.36,1.78-2.81,3.49-4.32,5.13a74,74,0,0,1-9.81,8.92,1.54,1.54,0,0,0-.53,2.05,1.5,1.5,0,0,0,2,.54,78.23,78.23,0,0,0,10.9-9.92c1.63-1.81,3.17-3.7,4.63-5.64s2.73-4,2.85-6.47c.09-1.93-2.91-1.92-3,0Z"/><path class="cls-1" d="M106.79,72a91.08,91.08,0,0,1-9.18,13.82,1.56,1.56,0,0,0,0,2.12,1.54,1.54,0,0,0,2.13,0l3.51-3.38A25,25,0,0,0,106.42,81c1.68-2.39,2.36-5.33,3-8.14.42-1.88-2.48-2.68-2.89-.8-.57,2.58-1.14,5.23-2.68,7.43a21.84,21.84,0,0,1-2.8,3l-3.42,3.29,2.13,2.12a95.36,95.36,0,0,0,9.64-14.42c.92-1.7-1.67-3.22-2.59-1.52Z"/></svg>
