<?xml version="1.0" standalone="no"?>
<!DOCTYPE svg PUBLIC "-//W3C//DTD SVG 20010904//EN"
 "http://www.w3.org/TR/2001/REC-SVG-20010904/DTD/svg10.dtd">
<svg version="1.0" xmlns="http://www.w3.org/2000/svg"
 width="260.000000pt" height="260.000000pt" viewBox="0 0 260.000000 260.000000"
 preserveAspectRatio="xMidYMid meet">
<metadata>
Created by potrace 1.11, written by Peter Selinger 2001-2013
</metadata>
<g transform="translate(0.000000,260.000000) scale(0.100000,-0.100000)"
fill="#000000" stroke="none">
<path d="M0 1300 l0 -1300 180 0 180 0 0 470 0 470 145 0 145 0 0 110 0 110
180 0 180 0 0 70 0 70 75 0 75 0 0 580 0 580 -75 0 -75 0 0 70 0 70 -505 0
-505 0 0 -1300z m650 865 l0 -75 70 0 70 0 0 -325 0 -325 -70 0 -70 0 0 -35 0
-35 -70 0 -70 0 0 35 0 35 -75 0 -75 0 0 325 0 325 75 0 75 0 0 75 0 75 70 0
70 0 0 -75z"/>
<path d="M1660 2530 l0 -70 -110 0 -110 0 0 -110 0 -110 -70 0 -70 0 0 -400 0
-400 70 0 70 0 0 -70 0 -70 110 0 110 0 0 -70 0 -70 325 0 325 0 0 -325 0
-325 -110 0 -110 0 0 -110 0 -110 -215 0 -215 0 0 180 0 180 -110 0 -110 0 0
70 0 70 -70 0 -70 0 0 -325 0 -325 70 0 70 0 0 -70 0 -70 435 0 435 0 0 70 0
70 75 0 75 0 0 75 0 75 70 0 70 0 0 505 0 505 -70 0 -70 0 0 70 0 70 -325 0
-325 0 0 75 0 75 -75 0 -75 0 0 250 0 250 75 0 75 0 0 75 0 75 250 0 250 0 0
-145 0 -145 75 0 75 0 0 -70 0 -70 70 0 70 0 0 325 0 325 -70 0 -70 0 0 70 0
70 -400 0 -400 0 0 -70z"/>
</g>
</svg>
